<svg width="80" height="80" viewBox="0 0 80 80" fill="none" xmlns="http://www.w3.org/2000/svg">
<rect width="64" height="64" rx="8" fill="#EBEEFF"/>
<g clip-path="url(#clip0_2526_52495)">
<path d="M41.3333 21.3333H39.8653C39.2453 18.2947 36.552 16 33.3333 16H22.6667C18.9907 16 16 18.9907 16 22.6667V39.8053C16 40.864 16.58 41.832 17.512 42.3307C17.936 42.5587 18.4013 42.6707 18.8653 42.6707C19.42 42.6707 19.9733 42.5093 20.452 42.1907L24.3853 39.568C25.3067 42.148 27.7733 44 30.6667 44H38.2627L43.548 47.5253C44.0267 47.844 44.58 48.0053 45.1347 48.0053C45.5987 48.0053 46.0627 47.892 46.488 47.664C47.42 47.164 48 46.196 48 45.1387V28C48 24.324 45.0093 21.3333 41.3333 21.3333ZM18.9733 39.972C18.948 39.988 18.8747 40.036 18.7707 39.9813C18.6653 39.9253 18.6653 39.836 18.6653 39.8067V22.6667C18.6653 20.4613 20.46 18.6667 22.6653 18.6667H33.332C35.5373 18.6667 37.332 20.4613 37.332 22.6667V32C37.332 34.2053 35.5373 36 33.332 36H25.332C24.924 36 24.6107 36.212 24.5787 36.2333L18.9733 39.972ZM45.3333 45.14C45.3333 45.168 45.3333 45.2587 45.2293 45.3147C45.1227 45.372 45.0507 45.3227 45.0267 45.3053L39.4067 41.5573C39.188 41.412 38.9307 41.3333 38.6667 41.3333H30.6667C28.928 41.3333 27.4467 40.2187 26.896 38.6667H33.3333C37.0093 38.6667 40 35.676 40 32V24H41.3333C43.5387 24 45.3333 25.7947 45.3333 28V45.14ZM24 25.3333C24 24.148 24.5213 23.0307 25.4293 22.268C26.3373 21.5053 27.532 21.1827 28.7133 21.3973C30.3253 21.6787 31.652 23.004 31.936 24.62C32.2333 26.316 31.4267 28.0107 29.928 28.8387C29.332 29.1667 29.332 29.2627 29.332 29.3333C29.332 30.0707 28.7347 30.6667 27.9987 30.6667C27.2627 30.6667 26.6653 30.0707 26.6653 29.3333C26.6653 27.5893 28.0493 26.828 28.64 26.5027C29.0267 26.2907 29.4333 25.7893 29.3093 25.0813C29.2173 24.5587 28.7733 24.1147 28.252 24.024C27.844 23.9493 27.4493 24.0533 27.1427 24.312C26.8387 24.5653 26.6653 24.9387 26.6653 25.3347C26.6653 26.072 26.068 26.668 25.332 26.668C24.596 26.668 23.9987 26.072 23.9987 25.3347L24 25.3333ZM29.3333 33.3333C29.3333 34.0693 28.736 34.6667 28 34.6667C27.264 34.6667 26.6667 34.0693 26.6667 33.3333C26.6667 32.5973 27.264 32 28 32C28.736 32 29.3333 32.5973 29.3333 33.3333Z" fill="#3358FF"/>
</g>
<circle cx="62" cy="62" r="17" fill="white" stroke="#3358FF" stroke-width="2"/>
<path d="M62.8457 56.364C63.1217 56.364 63.5117 56.376 64.0157 56.4C64.5197 56.424 65.0477 56.514 65.5997 56.67L65.4557 58.164C65.1677 58.14 64.8977 58.128 64.6457 58.128C64.4057 58.116 64.1477 58.11 63.8717 58.11C63.5957 58.11 63.2537 58.11 62.8457 58.11C62.2817 58.11 61.8137 58.17 61.4417 58.29C61.0697 58.41 60.7757 58.644 60.5597 58.992C60.3437 59.34 60.1937 59.85 60.1097 60.522C60.0257 61.182 59.9837 62.052 59.9837 63.132C59.9837 63.996 60.0017 64.71 60.0377 65.274C60.0857 65.838 60.1817 66.282 60.3257 66.606C60.4697 66.918 60.6917 67.14 60.9917 67.272C61.3037 67.404 61.7177 67.47 62.2337 67.47C62.8577 67.47 63.3137 67.374 63.6017 67.182C63.8897 66.99 64.0757 66.702 64.1597 66.318C64.2437 65.934 64.2857 65.46 64.2857 64.896C64.2857 64.296 64.2317 63.828 64.1237 63.492C64.0157 63.144 63.8177 62.898 63.5297 62.754C63.2417 62.598 62.8277 62.52 62.2877 62.52C61.9277 62.52 61.5917 62.568 61.2797 62.664C60.9797 62.748 60.6617 62.898 60.3257 63.114C60.0017 63.33 59.6057 63.636 59.1377 64.032L59.0657 63.096C59.4737 62.52 59.8577 62.07 60.2177 61.746C60.5777 61.422 60.9677 61.194 61.3877 61.062C61.8197 60.93 62.3297 60.864 62.9177 60.864C63.8177 60.864 64.5197 60.996 65.0237 61.26C65.5397 61.524 65.8997 61.95 66.1037 62.538C66.3077 63.114 66.4097 63.888 66.4097 64.86C66.4097 65.556 66.3557 66.174 66.2477 66.714C66.1397 67.254 65.9357 67.71 65.6357 68.082C65.3357 68.454 64.9097 68.736 64.3577 68.928C63.8177 69.12 63.1037 69.216 62.2157 69.216C61.3277 69.216 60.5897 69.12 60.0017 68.928C59.4257 68.736 58.9757 68.406 58.6517 67.938C58.3397 67.47 58.1177 66.84 57.9857 66.048C57.8537 65.244 57.7877 64.242 57.7877 63.042C57.7877 61.59 57.8897 60.426 58.0937 59.55C58.3097 58.662 58.6217 57.99 59.0297 57.534C59.4497 57.078 59.9777 56.772 60.6137 56.616C61.2497 56.448 61.9937 56.364 62.8457 56.364Z" fill="#3358FF"/>
<defs>
<clipPath id="clip0_2526_52495">
<rect width="32" height="32" fill="white" transform="translate(16 16)"/>
</clipPath>
</defs>
</svg>
