<svg width="80" height="80" viewBox="0 0 80 80" fill="none" xmlns="http://www.w3.org/2000/svg">
<rect width="64" height="64" rx="8" fill="#EBEEFF"/>
<path d="M30.3818 44.044C30.206 43.8666 30.107 43.6271 30.1062 43.3773V42.0351C30.1005 41.8324 30.0302 41.6368 29.9055 41.4769C29.7807 41.317 29.6081 41.2011 29.4129 41.1462C28.7037 40.9454 28.0205 40.662 27.3773 40.3018C27.1962 40.2007 26.987 40.1617 26.7816 40.1906C26.5762 40.2195 26.3858 40.3147 26.2396 40.4618L25.2885 41.4129C25.1102 41.5904 24.8689 41.6901 24.6173 41.6901C24.3658 41.6901 24.1245 41.5904 23.9462 41.4129L22.6129 40.044C22.4354 39.8658 22.3357 39.6245 22.3357 39.3729C22.3357 39.1213 22.4354 38.88 22.6129 38.7018L23.564 37.7507C23.7091 37.6051 23.8031 37.4164 23.8319 37.2129C23.8608 37.0094 23.8229 36.802 23.724 36.6218C23.3634 35.9789 23.08 35.2956 22.8796 34.5862C22.8247 34.391 22.7088 34.2184 22.5489 34.0937C22.389 33.969 22.1934 33.8986 21.9907 33.8929H20.6218C20.3703 33.8906 20.1297 33.7896 19.9518 33.6118C19.7739 33.4339 19.673 33.1933 19.6707 32.9418V31.0485C19.6753 30.7985 19.7773 30.5602 19.9549 30.3842C20.1325 30.2082 20.3718 30.1085 20.6218 30.1062H21.964C22.1667 30.1005 22.3623 30.0302 22.5222 29.9055C22.6822 29.7807 22.798 29.6081 22.8529 29.4129C23.053 28.7034 23.3365 28.0201 23.6973 27.3773C23.7984 27.1962 23.8375 26.987 23.8086 26.7816C23.7797 26.5762 23.6844 26.3858 23.5373 26.2396L22.6129 25.2973C22.4375 25.118 22.3393 24.8771 22.3393 24.6262C22.3393 24.3754 22.4375 24.1345 22.6129 23.9551L23.9551 22.6129C24.1334 22.4354 24.3747 22.3357 24.6262 22.3357C24.8778 22.3357 25.1191 22.4354 25.2973 22.6129L26.2485 23.564C26.3947 23.7111 26.585 23.8063 26.7905 23.8352C26.9959 23.8641 27.2051 23.8251 27.3862 23.724C28.0292 23.3635 28.7124 23.0801 29.4218 22.8796C29.617 22.8247 29.7896 22.7088 29.9143 22.5489C30.0391 22.389 30.1094 22.1934 30.1151 21.9907V20.6218C30.1151 20.3695 30.2153 20.1276 30.3937 19.9493C30.5721 19.7709 30.814 19.6707 31.0662 19.6707H32.0129C32.5357 19.6707 32.9596 19.2468 32.9596 18.724C32.9596 18.2012 32.5357 17.7773 32.0129 17.7773H31.0485C30.2941 17.7773 29.5706 18.077 29.0371 18.6105C28.5037 19.1439 28.204 19.8674 28.204 20.6218V21.2707C27.8258 21.4053 27.455 21.5595 27.0929 21.7329L26.6662 21.2707C26.133 20.7387 25.4105 20.44 24.6573 20.44C23.9041 20.44 23.1817 20.7387 22.6485 21.2707L21.2707 22.6129C20.7451 23.1495 20.4508 23.8707 20.4508 24.6218C20.4508 25.3729 20.7451 26.0941 21.2707 26.6307L21.7329 27.0929C21.5593 27.4548 21.405 27.8257 21.2707 28.204H20.6218C19.8695 28.211 19.1501 28.5129 18.6182 29.0448C18.0862 29.5768 17.7843 30.2962 17.7773 31.0485V32.9418C17.7843 33.694 18.0862 34.4135 18.6182 34.9454C19.1501 35.4774 19.8695 35.7793 20.6218 35.7862H21.2707C21.4053 36.1644 21.5595 36.5353 21.7329 36.8973L21.2707 37.3329C20.7387 37.8661 20.44 38.5886 20.44 39.3418C20.44 40.095 20.7387 40.8174 21.2707 41.3507L22.6129 42.6929C23.1473 43.2227 23.8693 43.5199 24.6218 43.5199C25.3743 43.5199 26.0963 43.2227 26.6307 42.6929L27.0929 42.2307C27.455 42.404 27.8258 42.5583 28.204 42.6929V43.3418C28.2072 44.0953 28.5075 44.8171 29.0396 45.3507C29.3026 45.6157 29.6156 45.8261 29.9604 45.9695C30.3052 46.1129 30.675 46.1866 31.0485 46.1862H32.0129C32.5259 46.1862 32.9418 45.7704 32.9418 45.2573C32.9418 44.7443 32.5259 44.3285 32.0129 44.3285H31.0485C30.7976 44.3244 30.5583 44.2223 30.3818 44.044Z" fill="#3358FF"/>
<path d="M43.3773 40.5339C42.8168 40.5344 42.2692 40.7015 41.8039 41.0139L36.3639 36.9339C36.1996 36.8115 35.9999 36.746 35.7951 36.7473H31.9995C31.2451 36.7473 30.5216 36.4476 29.9882 35.9141C29.4547 35.3807 29.1551 34.6572 29.1551 33.9028V30.1073C29.1551 29.3529 29.4547 28.6294 29.9882 28.0959C30.5216 27.5625 31.2451 27.2628 31.9995 27.2628H35.7951C35.9999 27.2641 36.1996 27.1986 36.3639 27.0761L41.7773 22.9873C42.302 23.3442 42.931 23.5155 43.5642 23.4738C44.1974 23.432 44.7985 23.1798 45.2719 22.7571C45.7452 22.3344 46.0636 21.7655 46.1764 21.141C46.2892 20.5165 46.1899 19.8722 45.8943 19.3107C45.5988 18.7491 45.1239 18.3025 44.5453 18.0419C43.9666 17.7813 43.3175 17.7217 42.7011 17.8726C42.0847 18.0234 41.5364 18.3761 41.1435 18.8744C40.7506 19.3728 40.5357 19.9882 40.5328 20.6228C40.5368 20.9099 40.5848 21.1947 40.6751 21.4673L35.4751 25.3695H31.9995C30.743 25.3695 29.5379 25.8686 28.6494 26.7571C27.7609 27.6457 27.2617 28.8507 27.2617 30.1073V33.9028C27.2617 35.1594 27.7609 36.3644 28.6494 37.2529C29.5379 38.1414 30.743 38.6406 31.9995 38.6406H35.4751L40.6751 42.5428C40.5848 42.8154 40.5368 43.1002 40.5328 43.3873C40.5328 43.9498 40.6997 44.4998 41.0122 44.9675C41.3248 45.4353 41.769 45.7999 42.2888 46.0152C42.8085 46.2305 43.3804 46.2868 43.9322 46.177C44.484 46.0673 44.9908 45.7964 45.3886 45.3986C45.7864 45.0008 46.0573 44.494 46.1671 43.9422C46.2768 43.3904 46.2205 42.8185 46.0052 42.2987C45.7899 41.779 45.4253 41.3347 44.9576 41.0222C44.4898 40.7096 43.9398 40.5428 43.3773 40.5428V40.5339ZM43.3773 19.6717C43.5654 19.6717 43.7493 19.7275 43.9057 19.832C44.0621 19.9365 44.184 20.085 44.256 20.2588C44.328 20.4326 44.3468 20.6239 44.3101 20.8084C44.2734 20.9929 44.1828 21.1623 44.0498 21.2954C43.9168 21.4284 43.7473 21.519 43.5628 21.5557C43.3783 21.5924 43.1871 21.5735 43.0133 21.5015C42.8395 21.4295 42.691 21.3076 42.5865 21.1512C42.4819 20.9948 42.4262 20.8109 42.4262 20.6228C42.4262 20.3706 42.5264 20.1286 42.7047 19.9503C42.8831 19.7719 43.125 19.6717 43.3773 19.6717ZM43.3773 44.3206C43.1892 44.3206 43.0053 44.2648 42.8489 44.1603C42.6925 44.0558 42.5705 43.9072 42.4986 43.7335C42.4266 43.5597 42.4077 43.3684 42.4444 43.1839C42.4811 42.9994 42.5717 42.83 42.7047 42.6969C42.8378 42.5639 43.0072 42.4733 43.1917 42.4366C43.3762 42.3999 43.5675 42.4188 43.7412 42.4908C43.915 42.5628 44.0636 42.6847 44.1681 42.8411C44.2726 42.9975 44.3284 43.1814 44.3284 43.3695C44.3296 43.4951 44.3058 43.6198 44.2586 43.7362C44.2113 43.8526 44.1414 43.9585 44.053 44.0478C43.9645 44.137 43.8593 44.2079 43.7433 44.2562C43.6273 44.3046 43.5029 44.3295 43.3773 44.3295V44.3206Z" fill="#3358FF"/>
<path d="M43.3778 29.1554C42.7922 29.157 42.2215 29.3398 41.744 29.6789C41.2665 30.0179 40.9057 30.4964 40.7111 31.0487H32V32.942H40.7111C40.8869 33.4306 41.1935 33.8615 41.5974 34.1878C42.0013 34.5141 42.4871 34.7232 43.0017 34.7924C43.5163 34.8615 44.04 34.788 44.5157 34.5799C44.9915 34.3717 45.4009 34.037 45.6994 33.6121C45.9979 33.1873 46.174 32.6886 46.2085 32.1705C46.243 31.6524 46.1346 31.1348 45.8951 30.6741C45.6556 30.2134 45.2942 29.8273 44.8503 29.5579C44.4064 29.2885 43.897 29.1462 43.3778 29.1465V29.1554ZM43.3778 32.9509C43.1897 32.9509 43.0058 32.8951 42.8494 32.7906C42.693 32.6861 42.5711 32.5376 42.4991 32.3638C42.4271 32.19 42.4082 31.9988 42.4449 31.8143C42.4816 31.6298 42.5722 31.4603 42.7052 31.3273C42.8383 31.1943 43.0077 31.1037 43.1922 31.067C43.3767 31.0303 43.568 31.0491 43.7418 31.1211C43.9155 31.1931 44.0641 31.315 44.1686 31.4714C44.2731 31.6278 44.3289 31.8117 44.3289 31.9998C44.3289 32.2521 44.2287 32.494 44.0503 32.6724C43.8719 32.8507 43.63 32.9509 43.3778 32.9509Z" fill="#3358FF"/>
<circle cx="62" cy="62" r="17" fill="white" stroke="#3358FF" stroke-width="2"/>
<path d="M61.8628 56.364C62.6908 56.364 63.4048 56.436 64.0048 56.58C64.6048 56.724 65.0668 57 65.3908 57.408C65.7268 57.804 65.8948 58.392 65.8948 59.172C65.8948 59.664 65.8348 60.12 65.7148 60.54C65.5948 60.96 65.3788 61.404 65.0668 61.872C64.7548 62.328 64.3228 62.85 63.7708 63.438L60.3868 67.074C60.6868 67.026 60.9988 66.996 61.3228 66.984C61.6588 66.972 61.9828 66.966 62.2948 66.966H66.2908V69H57.7228V67.74C57.7228 67.548 57.7468 67.38 57.7948 67.236C57.8428 67.08 57.9268 66.936 58.0468 66.804L61.3408 63.168C62.0968 62.364 62.6668 61.656 63.0508 61.044C63.4348 60.42 63.6208 59.862 63.6088 59.37C63.5968 59.046 63.5128 58.812 63.3568 58.668C63.2008 58.512 62.9788 58.41 62.6908 58.362C62.4028 58.314 62.0488 58.29 61.6288 58.29C61.2328 58.29 60.8548 58.296 60.4948 58.308C60.1348 58.32 59.7508 58.344 59.3428 58.38C58.9468 58.404 58.4788 58.446 57.9388 58.506L57.8308 56.814C58.4068 56.682 58.9228 56.586 59.3788 56.526C59.8348 56.466 60.2608 56.424 60.6568 56.4C61.0528 56.376 61.4548 56.364 61.8628 56.364Z" fill="#3358FF"/>
</svg>
