<svg width="80" height="80" viewBox="0 0 80 80" fill="none" xmlns="http://www.w3.org/2000/svg">
<rect width="64" height="64" rx="8" fill="#EBEEFF"/>
<g clip-path="url(#clip0_2526_52471)">
<path d="M22.5625 22.125H29.2818C29.7173 24.262 31.6112 25.875 33.875 25.875H43.25C43.7677 25.875 44.1875 25.4552 44.1875 24.9375V24H47.0625C47.5802 24 48 23.5802 48 23.0625V19.3125C48 18.7947 47.5802 18.375 47.0625 18.375H44.1875V17.4375C44.1875 16.9197 43.7677 16.5 43.25 16.5H33.875C31.6112 16.5 29.7174 18.113 29.2818 20.25H22.5625C18.9439 20.25 16 23.1939 16 26.8125C16 30.4311 18.9439 33.375 22.5625 33.375H41.375C43.9497 33.375 46.125 35.5503 46.125 38.125C46.125 40.6997 43.9497 42.875 41.375 42.875H34.7182C34.2827 40.738 32.3888 39.125 30.125 39.125H20.6875C20.1698 39.125 19.75 39.5448 19.75 40.0625V41H16.9375C16.4197 41 16 41.4198 16 41.9375V45.6875C16 46.2052 16.4197 46.625 16.9375 46.625H19.75V47.5625C19.75 48.0802 20.1698 48.5 20.6875 48.5H30.125C32.3888 48.5 34.2826 46.887 34.7182 44.75H41.375C44.9981 44.75 48 41.7589 48 38.125C48 34.5019 45.0089 31.5 41.375 31.5H22.5625C19.9778 31.5 17.875 29.3972 17.875 26.8125C17.875 24.2278 19.9778 22.125 22.5625 22.125ZM44.1875 20.25H46.125V22.125H44.1875V20.25ZM33.875 18.375H42.3125C42.3125 19.3 42.3125 23.4297 42.3125 24H33.875C32.3242 24 31.0625 22.7383 31.0625 21.1875C31.0625 19.6367 32.3242 18.375 33.875 18.375ZM19.75 44.75H17.875V42.875H19.75V44.75ZM30.125 46.625H21.625C21.625 46.0557 21.625 41.9168 21.625 41H30.125C31.6758 41 32.9375 42.2617 32.9375 43.8125C32.9375 45.3633 31.6758 46.625 30.125 46.625Z" fill="#3358FF"/>
<path d="M30.125 42.875H24.4375C23.9197 42.875 23.5 43.2947 23.5 43.8125C23.5 44.3303 23.9197 44.75 24.4375 44.75H30.125C30.6427 44.75 31.0625 44.3303 31.0625 43.8125C31.0625 43.2947 30.6427 42.875 30.125 42.875Z" fill="#3358FF"/>
<path d="M39.5 20.25H33.875C33.3572 20.25 32.9375 20.6697 32.9375 21.1875C32.9375 21.7053 33.3572 22.125 33.875 22.125H39.5C40.0177 22.125 40.4375 21.7053 40.4375 21.1875C40.4375 20.6697 40.0177 20.25 39.5 20.25Z" fill="#3358FF"/>
</g>
<circle cx="62" cy="62" r="17" fill="white" stroke="#3358FF" stroke-width="2"/>
<path d="M62.5586 56.58L59.3546 63.816C59.2706 64.02 59.2706 64.182 59.3546 64.302C59.4506 64.41 59.5886 64.464 59.7686 64.464H67.0046V65.886L65.4206 66.102H58.2566C57.9206 66.102 57.6326 66.012 57.3926 65.832C57.1646 65.64 57.0146 65.4 56.9426 65.112C56.8706 64.812 56.9006 64.512 57.0326 64.212L60.3986 56.58H62.5586ZM65.4386 58.974V69H63.3506V60.99L63.7286 58.974H65.4386Z" fill="#3358FF"/>
<defs>
<clipPath id="clip0_2526_52471">
<rect width="32" height="32" fill="white" transform="translate(16 16.5)"/>
</clipPath>
</defs>
</svg>
