<svg width="80" height="80" viewBox="0 0 80 80" fill="none" xmlns="http://www.w3.org/2000/svg">
<rect width="64" height="64" rx="8" fill="#EBEEFF"/>
<path d="M23.5003 21C23.235 20.9997 22.9805 21.1052 22.793 21.2927C22.6055 21.4805 22.5 21.7347 22.5 22V22.6745C21.3402 23.0905 20.5 24.2051 20.5 25.5C20.5 27.1448 21.8555 28.5 23.5003 28.5C24.0645 28.5 24.5 28.9358 24.5 29.5C24.5 30.0642 24.0645 30.5 23.5003 30.5C22.9362 30.5 22.5 30.0642 22.5 29.5C22.5003 28.9479 22.0527 28.5 21.5003 28.5C21.235 28.4997 20.9805 28.6052 20.793 28.7927C20.6055 28.9802 20.5 29.2347 20.5 29.5C20.5 30.7952 21.3402 31.9098 22.5 32.3255V33C22.5 33.2653 22.6055 33.5195 22.793 33.707C22.9808 33.8945 23.235 34 23.5003 34C24.0524 33.9997 24.5 33.5521 24.5 33V32.3258C25.6602 31.9098 26.5 30.7952 26.5 29.5C26.5 27.8552 25.1455 26.5 23.5003 26.5C22.9362 26.5 22.5 26.0642 22.5 25.5C22.5 24.9358 22.9362 24.4997 23.5003 24.4997C24.0645 24.4997 24.5 24.9358 24.5 25.5C24.5 25.7653 24.6055 26.0195 24.793 26.207C24.9808 26.3945 25.235 26.5 25.5003 26.5C26.0524 26.4997 26.5 26.0521 26.5 25.5C26.5 24.2048 25.6602 23.0902 24.5 22.6745V22C24.5003 21.4479 24.0527 21 23.5003 21Z" fill="#3358FF"/>
<path d="M21.5003 36C21.235 35.9997 20.9805 36.1052 20.793 36.2927C20.6055 36.4805 20.5 36.7348 20.5 37C20.5 37.2653 20.6055 37.5195 20.793 37.707C20.9808 37.8945 21.235 38 21.5003 38H29.0003C29.5524 37.9997 30 37.5521 30 37C30 36.735 29.8948 36.4805 29.7073 36.293C29.5198 36.1055 29.2657 36 29.0003 36H21.5003Z" fill="#3358FF"/>
<path d="M21.5003 40C21.235 40 20.9805 40.1052 20.793 40.2927C20.6055 40.4805 20.5 40.7348 20.5 41C20.5 41.2652 20.6055 41.5198 20.793 41.7073C20.9808 41.8948 21.235 42 21.5003 42H29.0003C29.5524 41.9997 30 41.5524 30 41C30 40.735 29.8948 40.4805 29.7073 40.293C29.5198 40.1055 29.2657 40 29.0003 40H21.5003Z" fill="#3358FF"/>
<path d="M35.0003 25H45C45.5642 25 46.0003 25.4358 46.0003 26V38C46.0003 38.5642 45.5642 39 45 39H35.0003C34.4362 39 34 38.5642 34 38V26C34 25.4358 34.4362 25 35.0003 25ZM35.0003 23C33.3555 23 32 24.3552 32 26V38C32 39.6448 33.3555 41 35.0003 41H45C46.6452 41 48.0003 39.6448 48.0003 38V26C48.0003 24.3552 46.6452 23 45 23H35.0003Z" fill="#3358FF"/>
<path d="M18.9997 17C17.3548 17 16 18.3555 16 20.0003V44.0003C16 45.6452 17.3548 47 18.9997 47H38C39.6448 47 41 45.6452 41 44.0003V43.0007C41.0003 42.7353 40.8948 42.4808 40.7073 42.2933C40.5195 42.1055 40.2652 42.0003 40 42.0003C39.7348 42.0003 39.4805 42.1058 39.293 42.2933C39.1055 42.4808 39 42.7353 39 43.0007V44.0003C39 44.5645 38.5642 45.0007 38 45.0007H18.9997C18.4356 45.0007 18 44.5645 18 44.0003V20.0003C18 19.4362 18.4356 19 18.9997 19H38C38.5642 19 39 19.4362 39 20.0003V21.0003C39 21.2653 39.1055 21.5198 39.293 21.7073C39.4805 21.8948 39.7348 22.0003 40 22.0003C40.2652 22.0003 40.5195 21.8952 40.7073 21.7077C40.8948 21.5198 41.0003 21.2657 41 21.0003V20.0003C41 18.3555 39.6448 17 38 17H18.9997Z" fill="#3358FF"/>
<path d="M37 27C36.7347 27 36.4805 27.1052 36.2927 27.293C36.1052 27.4805 35.9997 27.735 36 28.0003C36 28.2653 36.1055 28.5198 36.293 28.7073C36.4805 28.8948 36.7351 29 37 29H43.0003C43.5524 29 44 28.5524 44 28.0003C44 27.735 43.8948 27.4805 43.7073 27.293C43.5198 27.1055 43.2653 27 43.0003 27H37Z" fill="#3358FF"/>
<path d="M37 31C36.7347 31 36.4805 31.1052 36.2927 31.293C36.1052 31.4805 35.9997 31.735 36 32.0003C36 32.2658 36.1055 32.5198 36.293 32.7073C36.4805 32.8948 36.7351 33 37 33H38.5C39.0521 33 39.4997 32.5524 39.4997 32.0003C39.5 31.735 39.3945 31.4808 39.207 31.293C39.0195 31.1055 38.7653 31 38.5 31H37Z" fill="#3358FF"/>
<path d="M37 35C36.735 35 36.4805 35.1052 36.293 35.2927C36.1055 35.4802 36 35.7347 36 36C35.9997 36.2653 36.1052 36.5195 36.2927 36.7073C36.4805 36.8948 36.7348 37 37 37H38.5C38.7653 37 39.0195 36.8945 39.207 36.707C39.3945 36.5195 39.5 36.2649 39.4997 36C39.4997 35.4476 39.0521 35.0003 38.5 35H37Z" fill="#3358FF"/>
<path d="M41.4997 31C41.2347 31 40.9802 31.1055 40.7927 31.293C40.6052 31.4808 40.5 31.735 40.5 32.0003C40.5 32.5524 40.9476 33 41.4997 33H43.0003C43.5524 33 44 32.5524 44 32.0003C44 31.735 43.8948 31.4808 43.7073 31.293C43.5198 31.1055 43.2653 31 43.0003 31H41.4997Z" fill="#3358FF"/>
<path d="M41.4997 35C40.9476 35.0003 40.5 35.4476 40.5 36C40.5 36.265 40.6052 36.5195 40.7927 36.707C40.9802 36.8945 41.2347 37 41.4997 37H43.0003C43.2653 37 43.5198 36.8945 43.7073 36.707C43.8948 36.5195 44 36.2649 44 36C44 35.4476 43.5524 35.0003 43.0003 35H41.4997Z" fill="#3358FF"/>
<circle cx="62" cy="62" r="17" fill="white" stroke="#3358FF" stroke-width="2"/>
<path d="M61.7343 56.346C62.6943 56.346 63.4623 56.436 64.0383 56.616C64.6143 56.784 65.0343 57.078 65.2983 57.498C65.5743 57.918 65.7123 58.494 65.7123 59.226C65.7123 59.778 65.6583 60.276 65.5503 60.72C65.4423 61.152 65.2503 61.512 64.9743 61.8C64.7103 62.076 64.3263 62.262 63.8223 62.358V62.43C64.6623 62.562 65.2383 62.892 65.5503 63.42C65.8623 63.948 66.0243 64.656 66.0363 65.544C66.0483 66.396 65.9223 67.098 65.6583 67.65C65.3943 68.19 64.9563 68.592 64.3443 68.856C63.7443 69.108 62.9283 69.234 61.8963 69.234C61.2123 69.234 60.5163 69.198 59.8083 69.126C59.1003 69.066 58.4163 68.994 57.7563 68.91L57.8643 67.218C58.3203 67.242 58.7343 67.266 59.1063 67.29C59.4903 67.314 59.8563 67.332 60.2043 67.344C60.5643 67.356 60.9303 67.362 61.3023 67.362C61.9263 67.362 62.4183 67.302 62.7783 67.182C63.1503 67.062 63.4143 66.846 63.5703 66.534C63.7383 66.222 63.8223 65.802 63.8223 65.274C63.8223 64.854 63.7623 64.5 63.6423 64.212C63.5343 63.912 63.3243 63.684 63.0123 63.528C62.7123 63.36 62.2623 63.282 61.6623 63.294H59.3403V61.728H61.6623C62.0943 61.728 62.4363 61.674 62.6883 61.566C62.9523 61.458 63.1443 61.32 63.2643 61.152C63.3963 60.972 63.4803 60.768 63.5163 60.54C63.5643 60.3 63.5883 60.054 63.5883 59.802C63.5763 59.346 63.5043 59.004 63.3723 58.776C63.2403 58.548 63.0123 58.398 62.6883 58.326C62.3763 58.242 61.9383 58.2 61.3743 58.2C60.7623 58.2 60.1743 58.212 59.6103 58.236C59.0463 58.248 58.5483 58.272 58.1163 58.308L57.9903 56.67C58.6383 56.562 59.2683 56.484 59.8803 56.436C60.5043 56.376 61.1223 56.346 61.7343 56.346Z" fill="#3358FF"/>
</svg>
