<svg width="80" height="80" viewBox="0 0 80 80" fill="none" xmlns="http://www.w3.org/2000/svg">
<rect width="64" height="64" rx="8" fill="#EBEEFF"/>
<g clip-path="url(#clip0_2526_52483)">
<path d="M21.1634 42.1349C21.1634 42.6534 20.7431 43.0738 20.2246 43.0738C19.7061 43.0738 19.2858 42.6535 19.2858 42.1349C19.2858 40.8685 19.3202 39.6554 19.3892 38.51C18.9547 38.6334 18.5115 38.7409 18.0617 38.8309C17.5533 38.9326 17.0587 38.6028 16.957 38.0944C16.8553 37.586 17.185 37.0914 17.6935 36.9897C18.3325 36.8619 18.9554 36.6947 19.554 36.4942C19.7562 34.5728 20.0729 32.9044 20.5054 31.5761C21.5394 28.4002 23.3879 26.942 25.8079 28.1519C28.2255 29.3608 28.2937 31.8833 26.4122 34.2163C25.2441 35.6647 23.4458 36.9421 21.3178 37.835C21.2154 39.1634 21.1634 40.6072 21.1634 42.1349ZM24.9506 33.0376C26.1656 31.5311 26.1354 30.4148 24.9682 29.8313C23.8444 29.2694 23.0191 29.9205 22.2908 32.1573C21.9779 33.1184 21.7285 34.3027 21.5447 35.6626C22.9692 34.938 24.1548 34.0244 24.9506 33.0376ZM34.8567 28.9894L43.306 20.5402C44.0392 19.8069 45.2281 19.8069 45.9613 20.5402L47.4501 22.0289C48.1833 22.7622 48.1833 23.951 47.4501 24.6843L39.0008 33.1335C38.6487 33.4856 38.1711 33.6835 37.6731 33.6835H35.2455C34.727 33.6835 34.3067 33.2632 34.3067 32.7446V30.317C34.3067 29.8191 34.5046 29.3415 34.8567 28.9894ZM37.6731 31.8059L43.3059 26.173L41.8171 24.6843L36.1843 30.3171V31.8059H37.6731ZM46.1224 23.3566L44.6336 21.8679L43.1449 23.3566L44.6336 24.8454L46.1224 23.3566ZM26.564 38.9979C26.2226 39.3881 25.6295 39.4276 25.2393 39.0862C24.8491 38.7448 24.8095 38.1517 25.151 37.7615L27.7476 34.7939C28.2598 34.2086 29.1494 34.1493 29.7347 34.6615C29.9946 34.8889 30.1619 35.2039 30.2047 35.5466L30.2978 36.2916L30.8831 35.6739C31.418 35.1093 32.3093 35.0852 32.8739 35.6201C32.9423 35.685 33.0041 35.7566 33.0582 35.8338L33.7531 36.8245L36.8662 35.9384C37.3649 35.7965 37.8842 36.0856 38.0261 36.5843C38.1681 37.083 37.8789 37.6023 37.3802 37.7443L33.9461 38.7218C33.3694 38.886 32.7519 38.667 32.4076 38.176L31.8509 37.3823L30.9775 38.3042C30.7532 38.541 30.4536 38.6925 30.1299 38.733C29.3582 38.8294 28.6544 38.282 28.5579 37.5103L28.4714 36.818L26.564 38.9979ZM43.2254 32.7446C43.2254 32.2262 43.6457 31.8058 44.1643 31.8058C44.6828 31.8058 45.1031 32.2261 45.1031 32.7446V41.1939C45.1031 42.7494 43.8421 44.0103 42.2867 44.0103H23.9799C23.4614 44.0103 23.041 43.59 23.041 43.0715C23.041 42.553 23.4614 42.1327 23.9799 42.1327H42.2866C42.8051 42.1327 43.2254 41.7124 43.2254 41.1938V32.7446ZM36.1843 22.4178C36.7028 22.4178 37.1232 22.8381 37.1232 23.3566C37.1232 23.8751 36.7029 24.2954 36.1843 24.2954H18.8164C18.298 24.2954 17.8776 24.7157 17.8776 25.2343V32.7448C17.8776 33.2632 17.4573 33.6836 16.9388 33.6836C16.4202 33.6836 16 33.2632 16 32.7446V25.2342C16 23.6787 17.2609 22.4178 18.8164 22.4178H36.1843Z" fill="#3358FF"/>
</g>
<circle cx="62" cy="62" r="17" fill="white" stroke="#3358FF" stroke-width="2"/>
<path d="M65.6817 56.58L65.5917 58.344H60.4077L60.2457 61.134L61.8657 61.296C62.6457 61.356 63.2997 61.482 63.8277 61.674C64.3677 61.866 64.7997 62.124 65.1237 62.448C65.4597 62.772 65.6997 63.168 65.8437 63.636C65.9877 64.092 66.0597 64.626 66.0597 65.238C66.0597 65.754 65.9997 66.252 65.8797 66.732C65.7597 67.212 65.5437 67.638 65.2317 68.01C64.9317 68.382 64.5057 68.676 63.9537 68.892C63.4137 69.108 62.7117 69.216 61.8477 69.216C61.3077 69.216 60.6897 69.18 59.9937 69.108C59.3097 69.048 58.6077 68.946 57.8877 68.802L58.1037 67.056C58.6797 67.128 59.2497 67.194 59.8137 67.254C60.3777 67.302 60.8697 67.326 61.2897 67.326C61.9857 67.326 62.5137 67.248 62.8737 67.092C63.2337 66.924 63.4797 66.684 63.6117 66.372C63.7437 66.048 63.8157 65.652 63.8277 65.184C63.8517 64.716 63.7977 64.344 63.6657 64.068C63.5457 63.792 63.3477 63.582 63.0717 63.438C62.8077 63.294 62.4477 63.192 61.9917 63.132C61.5357 63.072 60.9837 63.024 60.3357 62.988L59.0937 62.862C58.8657 62.826 58.6797 62.73 58.5357 62.574C58.4037 62.418 58.3437 62.226 58.3557 61.998L58.6617 56.58H65.6817Z" fill="#3358FF"/>
<defs>
<clipPath id="clip0_2526_52483">
<rect width="32" height="32" fill="white" transform="translate(16 16)"/>
</clipPath>
</defs>
</svg>
