<svg width="80" height="80" fill="none" xmlns="http://www.w3.org/2000/svg">
  <rect width="64" height="64" rx="8" fill="#EBEEFF"/>
  <path d="m29.709 34.61 2.994-5.764a.874.874 0 0 1 1.16-.37c.426.21.596.716.38 1.13l-2.994 5.766a.878.878 0 0 1-1.16.37.832.832 0 0 1-.38-1.131Zm6.344-4.128a.879.879 0 0 0-1.221 0 .827.827 0 0 0 0 1.191l1.284 1.253-1.284 1.252a.827.827 0 0 0 0 1.191c.168.165.39.247.61.247a.872.872 0 0 0 .61-.247l1.895-1.848a.828.828 0 0 0 0-1.19l-1.894-1.849Zm-6.885 1.627-1.284-1.252 1.284-1.253a.827.827 0 0 0 0-1.19.879.879 0 0 0-1.22 0l-1.895 1.847a.828.828 0 0 0 0 1.191l1.894 1.848c.169.165.39.247.61.247.222 0 .443-.082.611-.247a.827.827 0 0 0 0-1.19ZM42 18.947v26.106C42 46.678 40.645 48 38.978 48H25.022C23.356 48 22 46.678 22 45.053V18.947C22 17.322 23.355 16 25.022 16h13.956C40.644 16 42 17.322 42 18.947Zm-14.367-1.263.601 1.263h7.532l.6-1.263h-8.733Zm12.64 1.263c0-.696-.58-1.263-1.295-1.263h-.708l-1.17 2.46a.865.865 0 0 1-.784.488h-8.633a.865.865 0 0 1-.783-.488l-1.17-2.46h-.708c-.714 0-1.295.567-1.295 1.263v26.106c0 .696.58 1.263 1.295 1.263h13.956c.715 0 1.295-.567 1.295-1.263V18.947ZM34.374 43.65h-4.748a.853.853 0 0 0-.863.842c0 .465.386.842.863.842h4.748a.853.853 0 0 0 .863-.842.853.853 0 0 0-.863-.842Z" fill="#3358FF"/>
  <circle cx="62" cy="62" r="17" fill="#fff" stroke="#3358FF" stroke-width="2"/>
  <path d="m62.559 56.58-3.204 7.236c-.084.204-.084.366 0 .486.096.108.234.162.414.162h7.236v1.422l-1.584.216h-7.164c-.336 0-.624-.09-.864-.27a1.346 1.346 0 0 1-.45-.72c-.072-.3-.042-.6.09-.9l3.366-7.632h2.16Zm2.88 2.394V69H63.35v-8.01l.378-2.016h1.71Z" fill="#3358FF"/>
</svg>
