<svg width="80" height="80" fill="none" xmlns="http://www.w3.org/2000/svg">
  <rect width="64" height="64" rx="8" fill="#EBEEFF"/>
  <path d="M20.626 43a4.75 4.75 0 0 1-2.334-.611 4.44 4.44 0 0 1-1.676-1.623A4.4 4.4 0 0 1 16 38.523V25.484a4.4 4.4 0 0 1 .617-2.248 4.44 4.44 0 0 1 1.68-1.625 4.75 4.75 0 0 1 4.738.043l11.37 6.698c.642.37 1.175.902 1.546 1.542a4.19 4.19 0 0 1 0 4.206 4.227 4.227 0 0 1-1.547 1.541L23.035 42.34c-.728.431-1.56.66-2.409.66Zm0-19.558a2.268 2.268 0 0 0-1.114.296c-.318.17-.584.421-.769.729a1.967 1.967 0 0 0-.281 1.017v13.039a1.967 1.967 0 0 0 1.05 1.747 2.236 2.236 0 0 0 2.261-.02l11.37-6.698c.275-.154.504-.378.664-.649a1.76 1.76 0 0 0-.665-2.435l-11.369-6.705a2.237 2.237 0 0 0-1.147-.316v-.005Zm20.81 17.526V23.039c0-.324-.13-.635-.36-.864a1.235 1.235 0 0 0-1.741 0c-.231.23-.36.54-.36.864v17.929c0 .324.129.635.36.864a1.235 1.235 0 0 0 1.74 0c.231-.23.36-.54.36-.864Zm6.564 0V23.039c0-.324-.13-.635-.36-.864a1.235 1.235 0 0 0-1.741 0c-.23.23-.36.54-.36.864v17.929c0 .324.13.635.36.864a1.235 1.235 0 0 0 1.74 0c.231-.23.361-.54.361-.864Z" fill="#3358FF"/>
  <circle cx="62" cy="62" r="17" fill="#fff" stroke="#3358FF" stroke-width="2"/>
  <path d="M63.944 56.58V69h-2.25v-9.252c0-.204.006-.408.018-.612.024-.204.054-.408.09-.612l-2.988.828-.288-1.512 3.168-1.26h2.25Z" fill="#3358FF"/>
</svg>
