<svg width="80" height="80" fill="none" xmlns="http://www.w3.org/2000/svg">
  <rect width="64" height="64" rx="8" fill="#EBEEFF"/>
  <g clip-path="url(#a)" fill="#3358FF">
    <path d="M41 48H23c-1.653 0-3-1.345-3-3V31c0-1.655 1.347-3 3-3h18c1.653 0 3 1.345 3 3v14c0 1.655-1.347 3-3 3ZM23 30c-.55 0-1 .448-1 1v14c0 .552.45 1 1 1h18c.55 0 1-.448 1-1V31c0-.552-.45-1-1-1H23Z"/>
    <path d="M39 30a1 1 0 0 1-1-1v-5c0-3.308-2.692-6-6-6s-6 2.692-6 6v5a1 1 0 0 1-2 0v-5c0-4.412 3.588-8 8-8s8 3.588 8 8v5a1 1 0 0 1-1 1ZM32 38.666A2.67 2.67 0 0 1 29.333 36 2.67 2.67 0 0 1 32 33.333 2.67 2.67 0 0 1 34.666 36 2.67 2.67 0 0 1 32 38.666Zm0-3.333a.668.668 0 0 0 0 1.333.668.668 0 0 0 0-1.333Z"/>
    <path d="M32 42.667a1 1 0 0 1-1-1V38a1 1 0 0 1 2 0v3.667a1 1 0 0 1-1 1Z"/>
  </g>
  <circle cx="62" cy="62" r="17" fill="#fff" stroke="#3358FF" stroke-width="2"/>
  <path d="M61.734 56.346c.96 0 1.728.09 2.304.27.576.168.996.462 1.26.882.276.42.414.996.414 1.728 0 .552-.054 1.05-.162 1.494a2.35 2.35 0 0 1-.576 1.08c-.264.276-.648.462-1.152.558v.072c.84.132 1.416.462 1.728.99.312.528.474 1.236.486 2.124.012.852-.114 1.554-.378 2.106-.264.54-.702.942-1.314 1.206-.6.252-1.416.378-2.448.378-.684 0-1.38-.036-2.088-.108a49.109 49.109 0 0 1-2.052-.216l.108-1.692c.456.024.87.048 1.242.072a32.962 32.962 0 0 0 2.196.072c.624 0 1.116-.06 1.476-.18.372-.12.636-.336.792-.648.168-.312.252-.732.252-1.26 0-.42-.06-.774-.18-1.062a1.21 1.21 0 0 0-.63-.684c-.3-.168-.75-.246-1.35-.234H59.34v-1.566h2.322c.432 0 .774-.054 1.026-.162.264-.108.456-.246.576-.414.132-.18.216-.384.252-.612.048-.24.072-.486.072-.738-.012-.456-.084-.798-.216-1.026-.132-.228-.36-.378-.684-.45-.312-.084-.75-.126-1.314-.126-.612 0-1.2.012-1.764.036a24.49 24.49 0 0 0-1.494.072l-.126-1.638a21.936 21.936 0 0 1 1.89-.234c.624-.06 1.242-.09 1.854-.09Z" fill="#3358FF"/>
  <defs>
    <clipPath id="a">
      <path fill="#fff" transform="translate(16 16)" d="M0 0h32v32H0z"/>
    </clipPath>
  </defs>
</svg>
