<svg width="80" height="80" viewBox="0 0 80 80" fill="none" xmlns="http://www.w3.org/2000/svg">
<rect width="64" height="64" rx="8" fill="#EBEEFF"/>
<g clip-path="url(#clip0_2011_16335)">
<path d="M36.114 47.9375C35.496 47.9278 34.892 47.7519 34.3654 47.4282C33.8389 47.1045 33.4094 46.6451 33.1219 46.0981L27.9157 36.5872C27.8023 36.3696 27.6247 36.1921 27.407 36.0788L17.8922 30.9494C17.2876 30.6212 16.7932 30.1221 16.4708 29.5146C16.1483 28.9071 16.0121 28.218 16.0792 27.5336C16.1462 26.8491 16.4135 26.1996 16.8477 25.6661C17.2819 25.1327 17.8638 24.7389 18.5205 24.5341L43.3099 16.2644C43.9359 16.0426 44.612 16.0026 45.2598 16.1491C45.9076 16.2955 46.5006 16.6224 46.9703 17.0918C47.4399 17.5612 47.7669 18.154 47.9134 18.8016C48.0599 19.4491 48.0199 20.1249 47.7981 20.7506L39.4651 45.5448C39.2557 46.1914 38.8601 46.7619 38.3279 47.1848C37.7957 47.6078 37.1505 47.8644 36.473 47.9225L36.114 47.9375ZM43.9532 18.4028L19.1638 26.6725C18.9275 26.7485 18.719 26.8927 18.5646 27.087C18.4101 27.2813 18.3167 27.5169 18.2961 27.7642C18.2738 28.0085 18.3244 28.254 18.4416 28.4696C18.5587 28.6852 18.7372 28.8612 18.9544 28.9755L28.4692 34.1048C29.0744 34.4257 29.5695 34.9205 29.8905 35.5255L34.977 45.0364C35.0913 45.2535 35.2674 45.4319 35.4831 45.549C35.6988 45.6661 35.9444 45.7167 36.1888 45.6944C36.4362 45.6738 36.6719 45.5804 36.8663 45.426C37.0606 45.2717 37.2049 45.0632 37.2809 44.827L45.5989 20.0478C45.6957 19.8177 45.7218 19.564 45.6737 19.319C45.6257 19.0741 45.5057 18.849 45.3291 18.6725C45.1526 18.4959 44.9274 18.376 44.6823 18.328C44.4372 18.28 44.1834 18.306 43.9532 18.4028Z" fill="#3358FF"/>
<path d="M28.5037 36.6247C28.3557 36.6281 28.2087 36.6005 28.072 36.5437C27.9353 36.487 27.812 36.4023 27.7099 36.2951C27.6039 36.1918 27.5197 36.0684 27.4621 35.932C27.4046 35.7956 27.375 35.6491 27.375 35.5011C27.375 35.3531 27.4046 35.2066 27.4621 35.0702C27.5197 34.9339 27.6039 34.8104 27.7099 34.7071L45.3237 17.0288C45.5422 16.8103 45.8385 16.6875 46.1475 16.6875C46.4565 16.6875 46.7528 16.8103 46.9713 17.0288C47.1898 17.2473 47.3125 17.5437 47.3125 17.8528C47.3125 18.1618 47.1898 18.4582 46.9713 18.6768L29.2975 36.2951C29.1938 36.4002 29.0701 36.4834 28.9338 36.54C28.7975 36.5966 28.6513 36.6254 28.5037 36.6247Z" fill="#3358FF"/>
</g>
<circle cx="62" cy="62" r="17" fill="white" stroke="#3358FF" stroke-width="2"/>
<path d="M63.9443 56.58V69H61.6943V59.748C61.6943 59.544 61.7003 59.34 61.7123 59.136C61.7363 58.932 61.7663 58.728 61.8023 58.524L58.8143 59.352L58.5263 57.84L61.6943 56.58H63.9443Z" fill="#3358FF"/>
<defs>
<clipPath id="clip0_2011_16335">
<rect width="32" height="32" fill="white" transform="translate(16 16)"/>
</clipPath>
</defs>
</svg>
