<svg width="80" height="80" viewBox="0 0 80 80" fill="none" xmlns="http://www.w3.org/2000/svg">
<rect width="64" height="64" rx="8" fill="#EBEEFF"/>
<g clip-path="url(#clip0_2011_16387)">
<path d="M43.3137 20.6863C40.2917 17.6643 36.2738 16 32 16C27.7262 16 23.7083 17.6643 20.6863 20.6863C17.6643 23.7083 16 27.7262 16 32C16 36.2738 17.6643 40.2917 20.6863 43.3137C23.7083 46.3357 27.7262 48 32 48C36.2738 48 40.2917 46.3357 43.3137 43.3137C46.3357 40.2917 48 36.2738 48 32C48 27.7262 46.3357 23.7083 43.3137 20.6863ZM41.9879 41.9879C39.32 44.6558 35.7729 46.125 32 46.125C28.2271 46.125 24.68 44.6558 22.0121 41.9879C19.3442 39.32 17.875 35.7729 17.875 32C17.875 28.2271 19.3442 24.68 22.0121 22.0121C24.68 19.3442 28.2271 17.875 32 17.875C35.7729 17.875 39.32 19.3442 41.9879 22.0121C44.6558 24.68 46.125 28.2271 46.125 32C46.125 35.7729 44.6558 39.32 41.9879 41.9879Z" fill="#3358FF"/>
<path d="M31.9995 40.4766C28.9434 40.4766 26.1508 38.8358 24.6498 36.2272C24.3915 35.7784 23.8433 35.5584 23.3688 35.7658C22.8944 35.9731 22.6742 36.5285 22.9234 36.9824C24.7299 40.2723 28.1978 42.3516 31.9995 42.3516C35.8012 42.3516 39.2691 40.2723 41.0756 36.9824C41.3248 36.5286 41.1047 35.9731 40.6302 35.7658C40.1558 35.5585 39.6075 35.7784 39.3493 36.2272C37.8482 38.8358 35.0556 40.4766 31.9995 40.4766Z" fill="#3358FF"/>
<path d="M26.3516 27.2891C27.0666 27.2891 27.6899 27.6888 28.0099 28.2765C28.2575 28.7312 28.6581 29.1758 29.1758 29.1758C29.6936 29.1758 30.1253 28.7496 29.9975 28.2478C29.5832 26.6209 28.1057 25.4141 26.3516 25.4141C24.5975 25.4141 23.12 26.6208 22.7057 28.2478C22.5779 28.7495 23.0096 29.1758 23.5274 29.1758C24.0451 29.1758 24.4457 28.7313 24.6933 28.2765C25.0133 27.6888 25.6366 27.2891 26.3516 27.2891Z" fill="#3358FF"/>
<path d="M37.6485 27.2891C38.3634 27.2891 38.9868 27.6888 39.3068 28.2765C39.5544 28.7312 39.955 29.1758 40.4727 29.1758C40.9905 29.1758 41.4222 28.7496 41.2944 28.2478C40.8801 26.6209 39.4026 25.4141 37.6485 25.4141C35.8944 25.4141 34.4168 26.6208 34.0025 28.2478C33.8748 28.7495 34.3065 29.1758 34.8242 29.1758C35.342 29.1758 35.7426 28.7313 35.9902 28.2765C36.3102 27.6888 36.9335 27.2891 37.6485 27.2891Z" fill="#3358FF"/>
</g>
<circle cx="62" cy="62" r="17" fill="white" stroke="#3358FF" stroke-width="2"/>
<path d="M62.5586 56.58L59.3546 63.816C59.2706 64.02 59.2706 64.182 59.3546 64.302C59.4506 64.41 59.5886 64.464 59.7686 64.464H67.0046V65.886L65.4206 66.102H58.2566C57.9206 66.102 57.6326 66.012 57.3926 65.832C57.1646 65.64 57.0146 65.4 56.9426 65.112C56.8706 64.812 56.9006 64.512 57.0326 64.212L60.3986 56.58H62.5586ZM65.4386 58.974V69H63.3506V60.99L63.7286 58.974H65.4386Z" fill="#3358FF"/>
<defs>
<clipPath id="clip0_2011_16387">
<rect width="32" height="32" fill="white" transform="translate(16 16)"/>
</clipPath>
</defs>
</svg>
