<svg width="81" height="80" viewBox="0 0 81 80" fill="none" xmlns="http://www.w3.org/2000/svg">
<rect x="0.333984" width="64" height="64" rx="8" fill="#EBEEFF"/>
<path d="M36.8848 39.8901L26.8848 34.8901L27.7848 33.1101L37.7848 38.1101L36.8848 39.8901Z" fill="#3358FF"/>
<path d="M27.8145 31.8801L26.8145 30.1201L37.8145 24.1201L38.8145 25.8801L27.8145 31.8801Z" fill="#3358FF"/>
<path d="M41.334 28C40.3451 28 39.3784 27.7068 38.5561 27.1573C37.7339 26.6079 37.093 25.827 36.7146 24.9134C36.3362 23.9998 36.2371 22.9945 36.4301 22.0246C36.623 21.0546 37.0992 20.1637 37.7985 19.4645C38.4977 18.7652 39.3886 18.289 40.3585 18.0961C41.3284 17.9031 42.3338 18.0022 43.2474 18.3806C44.161 18.759 44.9419 19.3999 45.4913 20.2222C46.0407 21.0444 46.334 22.0111 46.334 23C46.334 23.6566 46.2047 24.3068 45.9534 24.9134C45.7021 25.52 45.3338 26.0712 44.8695 26.5355C44.4052 26.9998 43.854 27.3681 43.2474 27.6194C42.6408 27.8707 41.9906 28 41.334 28ZM41.334 20C40.7406 20 40.1606 20.1759 39.6673 20.5056C39.1739 20.8352 38.7894 21.3038 38.5623 21.852C38.3353 22.4001 38.2759 23.0033 38.3916 23.5853C38.5074 24.1672 38.7931 24.7018 39.2127 25.1213C39.6322 25.5409 40.1668 25.8266 40.7487 25.9424C41.3307 26.0581 41.9339 25.9987 42.482 25.7716C43.0302 25.5446 43.4988 25.1601 43.8284 24.6667C44.158 24.1734 44.334 23.5933 44.334 23C44.334 22.2044 44.0179 21.4413 43.4553 20.8787C42.8927 20.3161 42.1296 20 41.334 20Z" fill="#3358FF"/>
<path d="M23.334 37C22.3451 37 21.3784 36.7068 20.5561 36.1574C19.7339 35.6079 19.093 34.8271 18.7146 33.9134C18.3362 32.9998 18.2371 31.9945 18.4301 31.0246C18.623 30.0546 19.0992 29.1637 19.7985 28.4645C20.4977 27.7652 21.3886 27.289 22.3585 27.0961C23.3284 26.9031 24.3338 27.0022 25.2474 27.3806C26.161 27.759 26.9419 28.3999 27.4913 29.2222C28.0407 30.0444 28.334 31.0111 28.334 32C28.334 32.6566 28.2047 33.3068 27.9534 33.9134C27.7021 34.52 27.3338 35.0712 26.8695 35.5355C26.4052 35.9998 25.854 36.3681 25.2474 36.6194C24.6408 36.8707 23.9906 37 23.334 37ZM23.334 29C22.7406 29 22.1606 29.176 21.6673 29.5056C21.1739 29.8352 20.7894 30.3038 20.5623 30.852C20.3353 31.4001 20.2759 32.0033 20.3916 32.5853C20.5074 33.1672 20.7931 33.7018 21.2127 34.1213C21.6322 34.5409 22.1668 34.8266 22.7487 34.9424C23.3307 35.0581 23.9339 34.9987 24.482 34.7716C25.0302 34.5446 25.4988 34.1601 25.8284 33.6667C26.158 33.1734 26.334 32.5933 26.334 32C26.334 31.2044 26.0179 30.4413 25.4553 29.8787C24.8927 29.3161 24.1296 29 23.334 29Z" fill="#3358FF"/>
<path d="M41.334 46C40.3451 46 39.3784 45.7068 38.5561 45.1574C37.7339 44.6079 37.093 43.8271 36.7146 42.9134C36.3362 41.9998 36.2371 40.9945 36.4301 40.0245C36.623 39.0546 37.0992 38.1637 37.7985 37.4645C38.4977 36.7652 39.3886 36.289 40.3585 36.0961C41.3284 35.9031 42.3338 36.0022 43.2474 36.3806C44.161 36.759 44.9419 37.3999 45.4913 38.2222C46.0407 39.0444 46.334 40.0111 46.334 41C46.334 42.3261 45.8072 43.5979 44.8695 44.5355C43.9318 45.4732 42.6601 46 41.334 46ZM41.334 38C40.7406 38 40.1606 38.1759 39.6673 38.5056C39.1739 38.8352 38.7894 39.3038 38.5623 39.852C38.3353 40.4001 38.2759 41.0033 38.3916 41.5853C38.5074 42.1672 38.7931 42.7018 39.2127 43.1213C39.6322 43.5409 40.1668 43.8266 40.7487 43.9424C41.3307 44.0581 41.9339 43.9987 42.482 43.7716C43.0302 43.5446 43.4988 43.1601 43.8284 42.6667C44.158 42.1734 44.334 41.5933 44.334 41C44.334 40.2044 44.0179 39.4413 43.4553 38.8787C42.8927 38.3161 42.1296 38 41.334 38Z" fill="#3358FF"/>
<circle cx="62.334" cy="62" r="17" fill="white" stroke="#3358FF" stroke-width="2"/>
<path d="M62.0683 56.346C63.0283 56.346 63.7963 56.436 64.3723 56.616C64.9483 56.784 65.3683 57.078 65.6323 57.498C65.9083 57.918 66.0463 58.494 66.0463 59.226C66.0463 59.778 65.9923 60.276 65.8843 60.72C65.7763 61.152 65.5843 61.512 65.3083 61.8C65.0443 62.076 64.6603 62.262 64.1563 62.358V62.43C64.9963 62.562 65.5723 62.892 65.8843 63.42C66.1963 63.948 66.3583 64.656 66.3703 65.544C66.3823 66.396 66.2563 67.098 65.9923 67.65C65.7283 68.19 65.2903 68.592 64.6783 68.856C64.0783 69.108 63.2623 69.234 62.2303 69.234C61.5463 69.234 60.8503 69.198 60.1423 69.126C59.4343 69.066 58.7503 68.994 58.0903 68.91L58.1983 67.218C58.6543 67.242 59.0683 67.266 59.4403 67.29C59.8243 67.314 60.1903 67.332 60.5383 67.344C60.8983 67.356 61.2643 67.362 61.6363 67.362C62.2603 67.362 62.7523 67.302 63.1123 67.182C63.4843 67.062 63.7483 66.846 63.9043 66.534C64.0723 66.222 64.1563 65.802 64.1563 65.274C64.1563 64.854 64.0963 64.5 63.9763 64.212C63.8683 63.912 63.6583 63.684 63.3463 63.528C63.0463 63.36 62.5963 63.282 61.9963 63.294H59.6743V61.728H61.9963C62.4283 61.728 62.7703 61.674 63.0223 61.566C63.2863 61.458 63.4783 61.32 63.5983 61.152C63.7303 60.972 63.8143 60.768 63.8503 60.54C63.8983 60.3 63.9223 60.054 63.9223 59.802C63.9103 59.346 63.8383 59.004 63.7063 58.776C63.5743 58.548 63.3463 58.398 63.0223 58.326C62.7103 58.242 62.2723 58.2 61.7083 58.2C61.0963 58.2 60.5083 58.212 59.9443 58.236C59.3803 58.248 58.8823 58.272 58.4503 58.308L58.3243 56.67C58.9723 56.562 59.6023 56.484 60.2143 56.436C60.8383 56.376 61.4563 56.346 62.0683 56.346Z" fill="#3358FF"/>
</svg>
