<svg width="81" height="80" viewBox="0 0 81 80" fill="none" xmlns="http://www.w3.org/2000/svg">
<rect x="0.666016" width="64" height="64" rx="8" fill="#EBEEFF"/>
<path d="M40.1152 36.9299C39.8365 36.6502 39.5053 36.4283 39.1407 36.2769C38.776 36.1255 38.385 36.0475 37.9902 36.0475C37.5954 36.0475 37.2044 36.1255 36.8397 36.2769C36.4751 36.4283 36.1439 36.6502 35.8652 36.9299L34.4152 38.3799C32.7826 37.3438 31.27 36.1297 29.9052 34.7599C28.5383 33.3925 27.3245 31.8802 26.2852 30.2499L27.7352 28.7999C28.0149 28.5212 28.2368 28.19 28.3882 27.8254C28.5396 27.4607 28.6176 27.0697 28.6176 26.6749C28.6176 26.2801 28.5396 25.8891 28.3882 25.5244C28.2368 25.1598 28.0149 24.8286 27.7352 24.5499L24.9052 21.7299C24.6304 21.4493 24.302 21.2268 23.9396 21.0756C23.5771 20.9244 23.1879 20.8477 22.7952 20.8499C22.3997 20.8489 22.0079 20.9262 21.6423 21.0772C21.2768 21.2282 20.9447 21.4501 20.6652 21.7299L19.3052 23.0799C18.657 23.7769 18.1732 24.6102 17.8894 25.5188C17.6056 26.4273 17.529 27.3879 17.6652 28.3299C17.9852 32.0799 20.4452 36.5899 24.2352 40.3899C28.0252 44.1899 32.5852 46.6399 36.3352 46.9999C36.615 47.0149 36.8954 47.0149 37.1752 46.9999C37.9824 47.0338 38.7883 46.9062 39.5456 46.6246C40.3028 46.343 40.9963 45.913 41.5852 45.3599L42.9352 43.9999C43.2151 43.7204 43.4369 43.3883 43.5879 43.0228C43.7389 42.6572 43.8162 42.2654 43.8152 41.8699C43.8174 41.4772 43.7407 41.088 43.5895 40.7255C43.4383 40.3631 43.2158 40.0347 42.9352 39.7599L40.1152 36.9299ZM41.5252 42.5899L40.1652 43.9399C39.6623 44.359 39.0753 44.6651 38.4439 44.8377C37.8124 45.0102 37.1513 45.0451 36.5052 44.9399C33.2552 44.6599 29.1152 42.3599 25.6952 38.9399C22.2752 35.5199 19.9752 31.4099 19.6652 28.1599C19.5574 27.5138 19.5909 26.852 19.7636 26.2202C19.9362 25.5883 20.2438 25.0014 20.6652 24.4999L22.0752 23.1399C22.1686 23.0472 22.2795 22.9739 22.4013 22.9241C22.5231 22.8744 22.6536 22.8491 22.7852 22.8499C22.9168 22.8491 23.0473 22.8744 23.1691 22.9241C23.2909 22.9739 23.4018 23.0472 23.4952 23.1399L26.3252 25.9999C26.5115 26.1873 26.616 26.4407 26.616 26.7049C26.616 26.9691 26.5115 27.2225 26.3252 27.4099L24.3252 29.4099C24.1687 29.5656 24.0681 29.7688 24.0392 29.9877C24.0102 30.2065 24.0546 30.4288 24.1652 30.6199C25.3626 32.6583 26.8179 34.5338 28.4952 36.1999C30.1613 37.8772 32.0368 39.3325 34.0752 40.5299C34.2663 40.6405 34.4886 40.6849 34.7074 40.6559C34.9263 40.627 35.1295 40.5264 35.2852 40.3699L37.2852 38.3699C37.4726 38.1837 37.726 38.0791 37.9902 38.0791C38.2544 38.0791 38.5078 38.1837 38.6952 38.3699L41.5252 41.1999C41.6179 41.2933 41.6912 41.4042 41.741 41.526C41.7907 41.6478 41.816 41.7783 41.8152 41.9099C41.8089 42.1653 41.7052 42.4086 41.5252 42.5899Z" fill="#3358FF"/>
<path d="M43.266 21.39C41.8763 19.995 40.2241 18.8889 38.4049 18.1354C36.5856 17.382 34.6351 16.9961 32.666 17C32.4008 17 32.1464 17.1054 31.9589 17.2929C31.7714 17.4805 31.666 17.7348 31.666 18C31.666 18.2652 31.7714 18.5196 31.9589 18.7071C32.1464 18.8947 32.4008 19 32.666 19C34.3825 19 36.082 19.3398 37.6664 20C39.2509 20.6602 40.6889 21.6276 41.8975 22.8465C43.1061 24.0653 44.0614 25.5114 44.7082 27.1014C45.355 28.6913 45.6805 30.3936 45.666 32.11C45.666 32.3752 45.7714 32.6296 45.9589 32.8171C46.1464 33.0047 46.4008 33.11 46.666 33.11C46.9312 33.11 47.1856 33.0047 47.3731 32.8171C47.5607 32.6296 47.666 32.3752 47.666 32.11C47.6852 30.12 47.3057 28.1462 46.55 26.3051C45.7944 24.464 44.6777 22.7928 43.266 21.39Z" fill="#3358FF"/>
<path d="M37.5757 27.1101C38.1432 27.6742 38.5922 28.3461 38.8961 29.0862C39.2001 29.8264 39.353 30.6199 39.3457 31.4201C39.3457 31.6853 39.4511 31.9396 39.6386 32.1272C39.8261 32.3147 40.0805 32.4201 40.3457 32.4201C40.6109 32.4201 40.8653 32.3147 41.0528 32.1272C41.2403 31.9396 41.3457 31.6853 41.3457 31.4201C41.3589 30.3611 41.1618 29.3101 40.7657 28.3279C40.3696 27.3457 39.7824 26.452 39.0382 25.6985C38.294 24.945 37.4076 24.3467 36.4304 23.9385C35.4533 23.5302 34.4047 23.32 33.3457 23.3201C33.0805 23.3201 32.8261 23.4254 32.6386 23.613C32.4511 23.8005 32.3457 24.0549 32.3457 24.3201C32.3457 24.5853 32.4511 24.8396 32.6386 25.0272C32.8261 25.2147 33.0805 25.3201 33.3457 25.3201C34.1338 25.326 34.913 25.4871 35.6388 25.7943C36.3646 26.1014 37.0227 26.5485 37.5757 27.1101Z" fill="#3358FF"/>
<circle cx="62.666" cy="62" r="17" fill="white" stroke="#3358FF" stroke-width="2"/>
<path d="M62.5288 56.364C63.3568 56.364 64.0708 56.436 64.6708 56.58C65.2708 56.724 65.7328 57 66.0568 57.408C66.3928 57.804 66.5608 58.392 66.5608 59.172C66.5608 59.664 66.5008 60.12 66.3808 60.54C66.2608 60.96 66.0448 61.404 65.7328 61.872C65.4208 62.328 64.9888 62.85 64.4368 63.438L61.0528 67.074C61.3528 67.026 61.6648 66.996 61.9888 66.984C62.3248 66.972 62.6488 66.966 62.9608 66.966H66.9568V69H58.3888V67.74C58.3888 67.548 58.4128 67.38 58.4608 67.236C58.5088 67.08 58.5928 66.936 58.7128 66.804L62.0068 63.168C62.7628 62.364 63.3328 61.656 63.7168 61.044C64.1008 60.42 64.2868 59.862 64.2748 59.37C64.2628 59.046 64.1788 58.812 64.0228 58.668C63.8668 58.512 63.6448 58.41 63.3568 58.362C63.0688 58.314 62.7148 58.29 62.2948 58.29C61.8988 58.29 61.5208 58.296 61.1608 58.308C60.8008 58.32 60.4168 58.344 60.0088 58.38C59.6128 58.404 59.1448 58.446 58.6048 58.506L58.4968 56.814C59.0728 56.682 59.5888 56.586 60.0448 56.526C60.5008 56.466 60.9268 56.424 61.3228 56.4C61.7188 56.376 62.1208 56.364 62.5288 56.364Z" fill="#3358FF"/>
</svg>
