<svg width="74" height="74" fill="none" xmlns="http://www.w3.org/2000/svg">
  <path d="M36.999.183C16.698.183.182 16.699.182 37.003c0 20.302 16.516 36.818 36.817 36.818 20.3 0 36.816-16.516 36.816-36.819C73.815 16.7 57.3.183 37 .183Zm0 69.621c-18.089 0-32.805-14.714-32.805-32.802S18.91 4.2 36.999 4.2c18.088 0 32.804 14.714 32.804 32.802S55.087 69.804 37 69.804Z" fill="#3358FF" stroke="#3358FF" stroke-width=".3"/>
  <path d="M23.936 54.028a2.003 2.003 0 0 0 .399 2.807c.885.67 2.143.494 2.81-.397a12.39 12.39 0 0 1 9.851-4.926c3.85 0 7.532 1.84 9.851 4.927.395.524.997.803 1.605.803.42 0 .844-.133 1.205-.406a2.003 2.003 0 0 0 .399-2.807c-3.074-4.09-7.955-6.534-13.06-6.534-5.104 0-9.986 2.443-13.06 6.533ZM24.968 32.555a1.988 1.988 0 0 1 2.746.714l-2.746-.714Zm0 0c-4.12 2.414-7.03 1.263-7.196 1.196a2.005 2.005 0 0 0-1.653 3.655c.129.062 1.536.681 3.753.681 1.888 0 4.36-.45 7.126-2.074a2.004 2.004 0 0 0 .717-2.743l-2.747-.715ZM58.866 34.775a1.996 1.996 0 0 1-.983 2.631c-.128.061-1.535.68-3.753.68-1.888 0-4.36-.45-7.125-2.073a2.004 2.004 0 0 1-.715-2.744l12.576 1.506Zm0 0a2.01 2.01 0 0 0-2.63-1.025m2.63 1.025-2.63-1.025m0 0-.006.002c-.217.083-3.11 1.193-7.193-1.198a1.997 1.997 0 0 0-2.747.715l9.945.481Z" fill="#3358FF" stroke="#3358FF" stroke-width=".3"/>
</svg>
