<svg width="33" height="33" fill="none" xmlns="http://www.w3.org/2000/svg">
  <mask id="a" style="mask-type:luminance" maskUnits="userSpaceOnUse" x="0" y="0" width="33" height="33">
    <path d="M.5.5h32v32H.5V.5Z" fill="#fff"/>
  </mask>
  <g mask="url(#a)">
    <path d="M24.648 21.063h1.707a5.52 5.52 0 0 0 1.87-10.716A8.09 8.09 0 0 0 12.68 7.804a4.693 4.693 0 0 0-7.8 2.506 5.52 5.52 0 0 0 1.766 10.752h1.74" stroke="#030317" stroke-width="1.6" stroke-miterlimit="10" stroke-linecap="round" stroke-linejoin="round"/>
    <path d="M24.648 21.063h1.707a5.52 5.52 0 0 0 1.87-10.716A8.09 8.09 0 0 0 12.68 7.804a4.693 4.693 0 0 0-7.8 2.506 5.52 5.52 0 0 0 1.766 10.752h1.74" stroke="#000" stroke-opacity=".2" stroke-width="1.6" stroke-miterlimit="10" stroke-linecap="round" stroke-linejoin="round"/>
    <path d="M8.25 13.633v5.141c0 5.194 3.361 9.798 8.25 11.413a12.047 12.047 0 0 0 8.25-11.413v-5.141a25.116 25.116 0 0 1-8.25-2.23 25.116 25.116 0 0 1-8.25 2.23Z" stroke="#030317" stroke-width="1.6" stroke-miterlimit="10" stroke-linecap="round" stroke-linejoin="round"/>
    <path d="M8.25 13.633v5.141c0 5.194 3.361 9.798 8.25 11.413a12.047 12.047 0 0 0 8.25-11.413v-5.141a25.116 25.116 0 0 1-8.25-2.23 25.116 25.116 0 0 1-8.25 2.23Z" stroke="#000" stroke-opacity=".2" stroke-width="1.6" stroke-miterlimit="10" stroke-linecap="round" stroke-linejoin="round"/>
    <path d="M18.576 18.398v-.692a2.076 2.076 0 1 0-4.152 0v.692" stroke="#030317" stroke-width="1.6" stroke-miterlimit="10" stroke-linecap="round" stroke-linejoin="round"/>
    <path d="M18.576 18.398v-.692a2.076 2.076 0 1 0-4.152 0v.692" stroke="#000" stroke-opacity=".2" stroke-width="1.6" stroke-miterlimit="10" stroke-linecap="round" stroke-linejoin="round"/>
    <path d="M17.195 21.96v1.242H15.82V21.96a1 1 0 1 1 1.375 0Zm2.073-3.563h-5.536c-.611 0-1.107.496-1.107 1.107v4.429c0 .611.496 1.107 1.107 1.107h5.536c.611 0 1.107-.496 1.107-1.107v-4.429c0-.611-.496-1.107-1.107-1.107Z" fill="#030317"/>
    <path d="M17.195 21.96v1.242H15.82V21.96a1 1 0 1 1 1.375 0Zm2.073-3.563h-5.536c-.611 0-1.107.496-1.107 1.107v4.429c0 .611.496 1.107 1.107 1.107h5.536c.611 0 1.107-.496 1.107-1.107v-4.429c0-.611-.496-1.107-1.107-1.107Z" fill="#000" fill-opacity=".2"/>
  </g>
</svg>
