<svg width="32" height="32" viewBox="0 0 32 32" fill="none" xmlns="http://www.w3.org/2000/svg">
<path d="M27.3333 4.5H4.66667C2.094 4.5 0 6.59333 0 9.16667V22.5C0 25.0733 2.094 27.1667 4.66667 27.1667H27.3333C29.906 27.1667 32 25.0733 32 22.5V9.16667C32 6.59333 29.906 4.5 27.3333 4.5ZM4.66667 7.16667H27.3333C28.436 7.16667 29.3333 8.064 29.3333 9.16667V10.5067H2.66667V9.16667C2.66667 8.064 3.564 7.16667 4.66667 7.16667ZM27.3333 24.5H4.66667C3.564 24.5 2.66667 23.6027 2.66667 22.5V14.5H29.3333V22.5C29.3333 23.6027 28.436 24.5 27.3333 24.5Z" fill="#3358FF"/>
<path d="M14.0003 19.2617H6.00033C5.26433 19.2617 4.66699 19.8591 4.66699 20.5951C4.66699 21.3311 5.26433 21.9284 6.00033 21.9284H14.0003C14.7363 21.9284 15.3337 21.3311 15.3337 20.5951C15.3337 19.8591 14.7363 19.2617 14.0003 19.2617Z" fill="#3358FF"/>
<path d="M25.333 22.5C26.4376 22.5 27.333 21.6046 27.333 20.5C27.333 19.3954 26.4376 18.5 25.333 18.5C24.2284 18.5 23.333 19.3954 23.333 20.5C23.333 21.6046 24.2284 22.5 25.333 22.5Z" fill="#3358FF"/>
</svg>
