<svg width="138" height="27" viewBox="0 0 138 27" fill="none" xmlns="http://www.w3.org/2000/svg">
<path d="M54.8818 10.4089V10.3428C54.8818 8.88869 56.0431 7.72099 57.4892 7.72099C58.9353 7.72099 60.0966 8.88869 60.0966 10.3428C60.0966 11.7749 58.9353 12.9426 57.5111 12.9646V16.4898C60.8854 16.4898 63.6243 13.7137 63.6243 10.3208C63.6243 6.92783 60.8635 4.17383 57.4892 4.17383C54.1149 4.17383 51.376 6.92783 51.376 10.3208L54.8818 10.4089Z" fill="#F9C623"/>
<path d="M103 5.86998V25.3904H98.2886V5.84795H93.0737V1.70591H108.302V5.86998H103ZM19.6493 1.68389V25.3904H14.9384V5.84795H5.51657V25.3904H0.805664V1.68389H19.6493ZM29.0492 12.6118H30.8021C31.8538 12.7219 32.9056 12.4576 33.8039 11.8627C34.6366 11.1797 35.0967 10.1442 35.0748 9.06463C35.1186 8.00709 34.6366 6.99361 33.8039 6.35468C32.8179 5.78185 31.6785 5.51746 30.5611 5.60559H29.0711V12.6118H29.0492ZM31.2622 1.68389C33.9135 1.68389 35.754 1.9703 37.485 3.49051C39.0626 4.96666 39.9391 7.03767 39.8733 9.19682C39.9172 11.1356 39.216 13.0304 37.9232 14.4845C36.3018 15.9827 34.1545 16.7318 31.9634 16.5776H29.0492V25.3463H24.3383V1.68389H31.2622ZM88.3628 24.5311C86.5661 25.4785 84.5503 25.9412 82.5344 25.9192C79.3354 26.0514 76.224 24.8616 73.9233 22.6143C71.4035 20.301 70.0012 16.9962 70.1108 13.5592C70.0231 10.0561 71.4035 6.68516 73.9233 4.28367C77.955 0.824635 83.6738 0.163671 88.3847 2.60923V8.02912C86.9605 6.35468 84.8789 5.38527 82.7097 5.36324C78.3494 5.4073 74.8655 8.9765 74.8874 13.3609V13.6473C74.756 17.9876 78.1303 21.6009 82.4249 21.7551H82.8631C84.9885 21.7771 87.0043 20.8298 88.3628 19.1994V24.5532V24.5311ZM112.969 25.3684H117.68V1.66185H112.969V25.3684ZM127.08 12.6118H128.855C129.906 12.6999 130.98 12.4576 131.857 11.8627C132.667 11.1797 133.127 10.1442 133.127 9.08666C133.149 8.02912 132.689 7.03768 131.857 6.39875C130.871 5.82591 129.731 5.56153 128.614 5.64966H127.102L127.08 12.6118ZM129.227 1.66185C131.878 1.66185 133.697 1.94827 135.45 3.46848C137.028 4.94463 137.904 7.03767 137.86 9.19682C137.904 11.1356 137.203 13.0304 135.91 14.4845C134.289 15.9827 132.119 16.7318 129.928 16.5996H127.08V25.3684H122.369V1.68389L129.227 1.66185ZM63.2307 9.4612C65.4875 14.0439 63.6032 19.596 59.0456 21.8432C54.4881 24.1125 48.9665 22.2178 46.7315 17.6351C44.4747 13.0524 46.3591 7.50035 50.9166 5.25308C50.9166 5.25308 50.9166 5.25308 50.9385 5.25308C52.034 4.72431 53.2173 4.39383 54.4443 4.32774L56.745 0.758539C49.7115 -0.232904 43.2257 4.70228 42.2617 11.7746C41.2757 18.8469 46.1838 25.3684 53.2173 26.3378C60.2508 27.3292 66.7365 22.394 67.7006 15.3217C68.1607 12.061 67.35 8.75618 65.4656 6.06827L63.2307 9.4612Z" fill="#054279"/>
</svg>
