<svg width="60" height="26" viewBox="0 0 60 26" fill="none" xmlns="http://www.w3.org/2000/svg">
<path d="M24.0852 13.9615L21.1073 22.0511L20.7882 20.4052C20.0438 18.389 18.4321 16.274 16.5586 15.4099L19.2911 25.8038H22.5226L27.325 13.945H24.0852V13.9615ZM26.6459 25.8285L28.5521 13.945H31.6037L29.6975 25.8285H26.6459ZM40.7584 14.2413C40.153 14.0026 39.2039 13.7393 38.0259 13.7393C35.007 13.7393 32.8881 15.3523 32.8718 17.6565C32.8554 19.3683 34.3853 20.3147 35.5388 20.8825C36.7332 21.4668 37.1259 21.8372 37.1259 22.3556C37.1178 23.1539 36.1769 23.516 35.3015 23.516C34.0826 23.516 33.4363 23.335 32.43 22.8988L32.0373 22.7095L31.6119 25.3677C32.3236 25.6968 33.6408 25.9849 35.0152 26.0013C38.214 26.0013 40.3002 24.4048 40.3248 21.9442C40.3411 20.5863 39.523 19.5658 37.7641 18.7182C36.7005 18.1668 36.046 17.8047 36.0542 17.2451C36.0542 16.7513 36.6023 16.2246 37.805 16.2246C38.8031 16.2081 39.523 16.4386 40.0875 16.6854L40.3575 16.8254L40.7584 14.2413ZM48.5795 13.9615H46.2234C45.4952 13.9615 44.9471 14.1672 44.6199 14.949L40.0957 25.8367H43.2945C43.2945 25.8367 43.8181 24.3719 43.9408 24.0509C44.2926 24.0509 47.4014 24.0592 47.8432 24.0592C47.9414 24.4706 48.2114 25.8367 48.2114 25.8367H51.0502L48.5795 13.9615ZM44.8162 21.615C45.0698 20.9319 46.027 18.2902 46.027 18.2902C46.0106 18.3231 46.2806 17.6072 46.4361 17.1545L46.6406 18.175C46.6406 18.175 47.2296 21.0142 47.3523 21.6067C46.8778 21.615 45.4134 21.615 44.8162 21.615Z" fill="#11559C"/>
<path d="M18.3343 13.9521H13.4175L13.3848 14.1579C17.2054 15.1454 19.7333 17.5567 20.7805 20.4124L19.717 14.9479C19.537 14.199 18.997 13.9768 18.3343 13.9521Z" fill="#F2A724"/>
<path d="M4.18874 11.0804H2.24981L0 0.908631L2.15164 0.54653L3.68969 8.50453L7.60026 0.653513H9.66191L4.18874 11.0804ZM14.3088 7.75564H9.67009C9.53919 9.17113 10.1937 9.78835 11.3063 9.78835C12.2308 9.78835 13.0489 9.44271 13.9243 8.88309L13.9161 10.2986C13.0571 10.8417 12.059 11.1874 10.8891 11.1874C8.86834 11.1874 7.53481 10.027 7.93569 7.41C8.29566 5.04811 9.9237 3.61616 11.8054 3.61616C13.9734 3.61616 14.6933 5.25385 14.3824 7.31947C14.3661 7.46761 14.317 7.64866 14.3088 7.75564ZM11.5763 4.86706C10.8564 4.86706 10.1855 5.4349 9.87462 6.62819H12.7462C12.7953 5.50074 12.4435 4.86706 11.5763 4.86706ZM17.3276 6.86685L16.6895 11.031H14.8978L16.0105 3.7643H17.5403V5.22093C18.1457 4.38151 18.972 3.67377 20.1092 3.60793L20.1174 5.40198C18.972 5.48428 17.9576 6.08504 17.3276 6.86685ZM20.0847 11.031L21.1973 3.7643H22.989L21.8845 11.031H20.0847ZM22.2936 2.54632C21.6963 2.54632 21.2791 2.12661 21.3773 1.52585C21.4754 0.908631 22.0154 0.472463 22.6126 0.472463C23.1935 0.472463 23.6107 0.908631 23.5125 1.52585C23.4226 2.12661 22.8826 2.54632 22.2936 2.54632ZM27.9631 1.78097C27.3495 1.78097 26.9813 2.05254 26.8832 2.70268L26.7195 3.77252H28.094V5.24562H26.4905L25.6069 11.031H23.8234L24.707 5.23739H23.6598L23.8889 3.7643H24.9361L25.1242 2.5134C25.3697 0.900401 26.4823 0.299643 27.9631 0.299643C28.274 0.299643 28.5112 0.332561 28.6912 0.357249L28.7076 1.83035C28.5276 1.81389 28.2658 1.78097 27.9631 1.78097ZM27.9794 11.031L29.0921 3.7643H30.8837L29.7793 11.031H27.9794ZM30.1965 2.54632C29.5993 2.54632 29.1821 2.12661 29.2721 1.52585C29.3702 0.908631 29.9102 0.472463 30.5074 0.472463C31.0883 0.472463 31.5055 0.908631 31.4073 1.52585C31.3173 2.12661 30.7774 2.54632 30.1965 2.54632ZM37.8541 7.75564H33.2154C33.0926 9.17113 33.739 9.78835 34.8516 9.78835C35.7761 9.78835 36.5942 9.44271 37.4695 8.88309L37.4614 10.2986C36.6023 10.8417 35.6042 11.1874 34.4343 11.1874C32.4136 11.1874 31.0801 10.027 31.481 7.41C31.8409 5.04811 33.469 3.61616 35.3506 3.61616C37.5186 3.61616 38.2386 5.25385 37.9277 7.31947C37.9113 7.46761 37.8622 7.64866 37.8541 7.75564ZM35.1216 4.86706C34.4016 4.86706 33.7308 5.4349 33.4199 6.62819H36.2915C36.3405 5.50074 35.9888 4.86706 35.1216 4.86706ZM43.1636 11.031L43.1718 10.0188C42.5664 10.636 41.781 11.1791 40.7829 11.1791C39.2694 11.1791 38.2304 10.0517 38.6067 7.59928C39.024 4.89175 40.6847 3.69023 42.3619 3.69023C43.0491 3.69023 43.589 3.81367 43.9981 3.96181L44.538 0.456004L46.3788 0.167969L44.718 11.031H43.1636ZM43.769 5.45136C43.3518 5.23739 43.0245 5.13863 42.4109 5.13863C41.4701 5.13863 40.6602 5.90399 40.4229 7.50053C40.2102 8.91601 40.7011 9.57438 41.4947 9.57438C42.1491 9.57438 42.7218 9.17936 43.2945 8.5786L43.769 5.45136ZM50.2076 11.1051C49.3567 11.1051 48.6613 10.9652 48.0232 10.743L49.2013 3.02363L50.5921 2.80966L50.0848 6.15087C50.4939 5.78877 51.0584 5.41844 51.7456 5.41844C52.8991 5.41844 53.6763 6.28255 53.39 8.1342C53.0791 10.1587 51.8356 11.1051 50.2076 11.1051ZM51.2138 6.61996C50.7639 6.61996 50.3057 6.92445 49.9049 7.33593L49.5203 9.8295C49.7903 9.92825 49.9703 9.97763 50.3548 9.97763C51.2138 9.97763 51.8192 9.45094 52.0074 8.20004C52.171 7.14665 51.8192 6.61996 51.2138 6.61996ZM56.597 11.3355C55.9016 12.6934 55.2144 13.1131 54.159 13.1131C53.9218 13.1131 53.7909 13.0884 53.6682 13.0555L53.66 11.928C53.8318 11.9774 54.02 12.0103 54.2818 12.0103C54.6744 12.0103 55.0262 11.8293 55.2553 11.426L55.4353 11.0639L54.2818 5.64064L55.7298 5.45959L56.4007 9.37687L58.2087 5.53366H59.5586L56.597 11.3355Z" fill="#11559C"/>
</svg>
