<svg aria-hidden="true" style="position:absolute;width:0;height:0;overflow:hidden" xmlns="http://www.w3.org/2000/svg">
  <defs>
    <symbol id="icon-wi-fi" viewBox="0 0 38 32">
      <path d="M31.198 18.488H6.367A6.374 6.374 0 0 0 0 24.855v.401a6.374 6.374 0 0 0 6.367 6.367h24.831a6.374 6.374 0 0 0 6.367-6.367v-.401a6.374 6.374 0 0 0-6.367-6.367zm4.457 6.768a4.459 4.459 0 0 1-4.457 4.457H6.367a4.459 4.459 0 0 1-4.457-4.457v-.401a4.459 4.459 0 0 1 4.457-4.457h24.831a4.459 4.459 0 0 1 4.457 4.457v.401z"/>
      <path d="M6.566 26.706a1.65 1.65 0 1 0 0-3.302 1.65 1.65 0 0 0 0 3.302zM11.52 26.706a1.65 1.65 0 1 0 0-3.302 1.65 1.65 0 0 0 0 3.302zM16.471 26.706a1.65 1.65 0 1 0 0-3.302 1.65 1.65 0 0 0 0 3.302zM31.658 24.1h-7.923a.955.955 0 0 0 0 1.91h7.923a.955.955 0 0 0 0-1.91zM7.968 6.497C9.008 5.421 12.86 1.91 18.781 1.91c1.496 0 6.699.331 10.813 4.587a.956.956 0 0 0 1.373-1.327C26.331.372 20.468 0 18.781 0 12.108 0 7.766 3.957 6.595 5.17a.958.958 0 0 0 .033 1.34.953.953 0 0 0 1.34-.013z"/>
      <path d="M26.997 10.971a.951.951 0 0 0 .879-.582.959.959 0 0 0-.192-1.036 12.7 12.7 0 0 0-8.9-3.776 12.7 12.7 0 0 0-8.901 3.776.949.949 0 0 0-.191 1.045.947.947 0 0 0 .527.509.945.945 0 0 0 .733-.014.945.945 0 0 0 .306-.214 10.741 10.741 0 0 1 7.528-3.193 10.741 10.741 0 0 1 7.528 3.193.94.94 0 0 0 .686.292z"/>
      <path d="M14.809 12.837a.958.958 0 0 0 .022 1.351.958.958 0 0 0 1.351-.022 3.624 3.624 0 0 1 2.599-1.103 3.626 3.626 0 0 1 2.599 1.103.954.954 0 0 0 1.642-.648.955.955 0 0 0-.268-.68 5.536 5.536 0 0 0-6.131-1.246c-.682.29-1.3.713-1.815 1.246z"/>
    </symbol>
    <symbol id="icon-Vector-1" viewBox="0 0 32 32">
      <path d="M6.563 5.625h6.719a4.695 4.695 0 0 0 4.593 3.75h9.375c.518 0 .937-.42.937-.937V7.5h2.875c.518 0 .937-.42.937-.937v-3.75a.938.938 0 0 0-.937-.938h-2.875V.937a.938.938 0 0 0-.937-.938h-9.375a4.695 4.695 0 0 0-4.593 3.75H6.563C2.944 3.749 0 6.693 0 10.311s2.944 6.563 6.563 6.563h18.813c2.575 0 4.75 2.175 4.75 4.75s-2.175 4.75-4.75 4.75h-6.657a4.695 4.695 0 0 0-4.593-3.75H4.689a.938.938 0 0 0-.938.937v.938H.938a.938.938 0 0 0-.938.937v3.75c0 .518.42.937.938.937h2.813v.938c0 .518.42.937.938.937h9.437a4.695 4.695 0 0 0 4.593-3.75h6.657c3.623 0 6.625-2.991 6.625-6.625 0-3.623-2.991-6.625-6.625-6.625H6.563c-2.585 0-4.688-2.103-4.688-4.688s2.103-4.687 4.688-4.687zM28.188 3.75h1.937v1.875h-1.937V3.75zM17.875 1.875h8.437V7.5h-8.437c-1.551 0-2.813-1.262-2.813-2.812s1.262-2.813 2.813-2.813zM3.75 28.25H1.875v-1.875H3.75v1.875zm10.375 1.875h-8.5V24.5h8.5c1.551 0 2.813 1.262 2.813 2.812s-1.262 2.813-2.813 2.813z"/>
      <path d="M14.125 26.375H8.438a.938.938 0 1 0 0 1.875h5.687a.938.938 0 0 0 0-1.875zM23.5 3.75h-5.625a.938.938 0 0 0 0 1.876H23.5a.938.938 0 0 0 0-1.876z"/>
    </symbol>
    <symbol id="icon-Vector-2" viewBox="0 0 31 32">
      <path d="M6.877 8.645a.963.963 0 0 0 .874.556h4.689v1.656a.962.962 0 0 0 1.646.682.962.962 0 0 0 .282-.682V9.201h.444a.962.962 0 0 0 .682-1.646.962.962 0 0 0-.682-.282h-.444V1.486a.96.96 0 0 0-.635-.906.965.965 0 0 0-1.069.287L7.01 7.618a.965.965 0 0 0-.135 1.027zm5.562-4.506v3.133H9.815l2.624-3.133zm4.88 20.483 5.052-7.887h-3.72a.962.962 0 0 1-.682-1.646.962.962 0 0 1 .682-.282h5.482a.968.968 0 0 1 .846.502.965.965 0 0 1-.034.983l-6.003 9.372a.966.966 0 0 1-1.763-.689.97.97 0 0 1 .138-.351zm5.048-17.719a.963.963 0 0 1 0 1.364L8.152 22.482a.963.963 0 0 1-1.642-.683.97.97 0 0 1 .278-.681L21.002 6.903a.955.955 0 0 1 .682-.282.971.971 0 0 1 .682.282zM5.454 4.883c.244-.894.089-1.567-.46-2.002-.615-.486-1.638-.573-2.33-.196-.526.286-.759.781-.692 1.471a.966.966 0 0 1-1.574.836.96.96 0 0 1-.346-.652C-.089 2.873.527 1.653 1.742.991c1.364-.743 3.235-.584 4.449.377 1.161.919 1.571 2.385 1.123 4.022-.302 1.105-1.335 1.911-2.531 2.845-.646.504-1.342 1.047-1.926 1.657h3.995a.962.962 0 0 1 .682 1.646.962.962 0 0 1-.682.282H.985a.956.956 0 0 1-.817-.453.967.967 0 0 1-.051-.933c.785-1.618 2.217-2.735 3.48-3.721.848-.662 1.725-1.346 1.858-1.833zM30.857 16.05a15.433 15.433 0 0 1-9.524 14.255A15.428 15.428 0 0 1 4.519 26.96 15.321 15.321 0 0 1 0 16.051a.962.962 0 0 1 1.646-.682c.181.18.282.426.282.682 0 7.444 6.056 13.5 13.5 13.5s13.5-6.056 13.5-13.5c0-6.758-5.045-12.513-11.736-13.385a.976.976 0 0 1-.649-.364.958.958 0 0 1-.196-.718.95.95 0 0 1 .373-.643.969.969 0 0 1 .721-.186 15.429 15.429 0 0 1 13.415 15.298z"/>
    </symbol>
    <symbol id="icon-Vector-3" viewBox="0 0 35 32">
      <path fill="#d9d9d9" style="fill:var(--color1, #d9d9d9)" d="M31.523 27.767H3.038a2.025 2.025 0 0 1-2.025-2.025v-8.1h32.535v8.1a2.025 2.025 0 0 1-2.025 2.025zM11.555 5.842c1.467-1.467 3.492-2.375 5.725-2.375s4.258.908 5.725 2.375zM14.418 8.703c.733-.733 1.745-1.186 2.864-1.186s2.131.453 2.864 1.186z"/>
      <path style="fill:var(--color2, #000)" d="M1.012 17.642v-.96h-.96v.96h.96zm32.536 0h.96v-.96h-.96v.96zM32.386 1.674a.96.96 0 1 0-1.863-.465l1.863.466zm-28.35-.465a.961.961 0 0 0-1.863.465l1.863-.466zm.081 19.523a.96.96 0 0 0 0 1.92v-1.92zm6.076 1.92a.96.96 0 0 0 0-1.92v1.92zm-3.998 2.077a.96.96 0 0 0 1.92 0h-1.92zm8.047-3.997a.96.96 0 0 0 0 1.92v-1.92zm6.075 1.92a.96.96 0 0 0 0-1.92v1.92zm-3.997 2.077a.96.96 0 0 0 1.92 0h-1.92zm8.047-3.997a.96.96 0 0 0 0 1.92v-1.92zm6.075 1.92a.96.96 0 0 0 0-1.92v1.92zm-3.997 2.077a.96.96 0 0 0 1.92 0h-1.92zM4.103 30.804a.96.96 0 0 0 1.92 0h-1.92zm24.434 0a.96.96 0 0 0 1.92 0h-1.92zM16.268 10.607a.96.96 0 0 0 0 1.92v-1.92zm2.025 1.92a.96.96 0 0 0 0-1.92v1.92zm-7.417-7.364a.96.96 0 0 0 1.358 1.358l-1.358-1.358zm11.45 1.358a.96.96 0 0 0 1.358-1.358l-1.358 1.358zm-8.587 1.503a.96.96 0 0 0 1.358 1.358l-1.358-1.358zm5.727 1.358a.96.96 0 0 0 1.358-1.358l-1.358 1.358zm12.057 17.425H3.038v1.92h28.485v-1.92zm-28.485 0a1.065 1.065 0 0 1-1.065-1.065H.053a2.984 2.984 0 0 0 2.985 2.985v-1.92zm-1.066-1.065v-8.1H.052v8.1h1.92zm-.96-7.14h32.535v-1.92H1.012v1.92zm31.576-.96v8.1h1.92v-8.1h-1.92zm0 8.1c0 .588-.477 1.065-1.065 1.065v1.92a2.984 2.984 0 0 0 2.985-2.985h-1.92zM30.524 1.209l-4.05 16.2 1.863.466 4.05-16.2-1.863-.466zm-28.35.465 4.05 16.2 1.863-.466-4.05-16.2-1.863.466zm1.943 20.978h6.075v-1.92H4.117v1.92zm2.078-.96v3.038h1.92v-3.038h-1.92zm8.047.96h6.075v-1.92h-6.075v1.92zm2.078-.96v3.038h1.92v-3.038h-1.92zm8.047.96h6.075v-1.92h-6.075v1.92zm2.078-.96v3.038h1.92v-3.038h-1.92zM6.022 30.804v-3.037h-1.92v3.037h1.92zm24.435 0v-3.037h-1.92v3.037h1.92zM16.268 12.527h2.025v-1.92h-2.025v1.92zm-4.034-6.006a7.115 7.115 0 0 1 5.046-2.094v-1.92a9.039 9.039 0 0 0-6.404 2.656l1.358 1.358zm5.046-2.094c1.967 0 3.751.799 5.046 2.094l1.358-1.358a9.034 9.034 0 0 0-6.404-2.656v1.92zm-2.184 4.955a3.077 3.077 0 0 1 2.185-.905v-1.92a5.001 5.001 0 0 0-3.543 1.467l1.358 1.358zm2.185-.905c.854 0 1.625.345 2.185.905l1.358-1.358a4.996 4.996 0 0 0-3.543-1.467v1.92z"/>
    </symbol>
    <symbol id="icon-Vector-4" viewBox="0 0 36 32">
      <path d="M34.871 0H1.127C.504 0-.001.505-.001 1.128v18.675c0 .623.505 1.128 1.128 1.128h3.95v5.26c0 .623.505 1.128 1.128 1.128h3.049v3.459c0 .623.505 1.128 1.128 1.128h15.233c.623 0 1.128-.505 1.128-1.128v-3.459h3.05c.623 0 1.128-.505 1.128-1.128v-5.26h3.95c.623 0 1.128-.505 1.128-1.128V1.128A1.129 1.129 0 0 0 34.87 0zm-1.127 18.675h-3.95c-.623 0-1.128.505-1.128 1.128v5.26h-3.049c-.623 0-1.128.505-1.128 1.128v3.459H11.511v-3.459c0-.623-.505-1.128-1.128-1.128H7.334v-5.26c0-.623-.505-1.128-1.128-1.128h-3.95V2.256h31.489l-.001 16.419z"/>
      <path d="M29.058 13.477c.623 0 1.128-.505 1.128-1.128V6.616a1.128 1.128 0 1 0-2.256 0v5.733c0 .623.505 1.128 1.128 1.128zM23.529 13.477c.623 0 1.128-.505 1.128-1.128V6.616a1.128 1.128 0 1 0-2.256 0v5.733c0 .623.504 1.128 1.128 1.128zM18 13.477c.623 0 1.128-.505 1.128-1.128V6.616a1.127 1.127 0 1 0-2.256 0v5.733c0 .623.505 1.128 1.128 1.128zM12.472 13.477c.623 0 1.128-.505 1.128-1.128V6.616a1.128 1.128 0 1 0-2.256 0v5.733c0 .623.505 1.128 1.128 1.128zM6.943 13.477c.623 0 1.128-.505 1.128-1.128V6.616a1.128 1.128 0 1 0-2.256 0v5.733c0 .623.505 1.128 1.128 1.128z"/>
    </symbol>
    <symbol id="icon-Vector-5" viewBox="0 0 32 32">
      <path d="M6.838 5.568H.941a.941.941 0 0 1 0-1.882h5.897a.941.941 0 0 1 0 1.882z"/>
      <path d="M10.209 8.938c-2.377 0-4.311-1.934-4.311-4.311S7.832.316 10.209.316 14.52 2.25 14.52 4.627a4.316 4.316 0 0 1-4.311 4.311zm0-6.74c-1.339 0-2.429 1.09-2.429 2.429s1.089 2.428 2.429 2.428c1.339 0 2.429-1.089 2.429-2.428s-1.089-2.429-2.429-2.429zM31.059 5.568H16.992a.941.941 0 0 1 0-1.882h14.067a.941.941 0 0 1 0 1.882zM22.843 20.311c-2.377 0-4.311-1.934-4.311-4.311s1.934-4.311 4.311-4.311 4.311 1.934 4.311 4.311-1.934 4.311-4.311 4.311zm0-6.739c-1.339 0-2.429 1.089-2.429 2.428s1.089 2.428 2.429 2.428c1.339 0 2.429-1.089 2.429-2.428s-1.089-2.428-2.429-2.428zM16.061 16.941H.941a.941.941 0 0 1 0-1.882h15.12a.941.941 0 0 1 0 1.882z"/>
      <path d="M31.058 16.941h-4.844a.941.941 0 0 1 0-1.882h4.844a.941.941 0 0 1 0 1.882zM9.156 31.684c-2.377 0-4.311-1.934-4.311-4.311s1.934-4.311 4.311-4.311 4.311 1.934 4.311 4.311-1.934 4.311-4.311 4.311zm0-6.739c-1.339 0-2.429 1.089-2.429 2.428s1.089 2.429 2.429 2.429c1.339 0 2.429-1.09 2.429-2.429s-1.089-2.428-2.429-2.428zM31.059 28.314h-15.12a.941.941 0 0 1 0-1.882h15.12a.941.941 0 0 1 0 1.882z"/>
      <path d="M5.785 28.314H.941a.941.941 0 0 1 0-1.882h4.844a.941.941 0 0 1 0 1.882z"/>
    </symbol>
  </defs>
</svg>
