<svg width="80" height="80" viewBox="0 0 80 80" fill="none" xmlns="http://www.w3.org/2000/svg">
<rect width="64" height="64" rx="8" fill="#EBEEFF"/>
<path d="M22.347 41.0805C22.347 41.0805 22.4537 41.0805 22.4937 41.0805L26.4003 40.7205C26.947 40.6671 27.4537 40.4271 27.8403 40.0405L42.587 25.2938C43.2803 24.6005 43.667 23.6805 43.667 22.7071C43.667 21.7338 43.2803 20.8138 42.587 20.1205L41.6403 19.1738C40.2537 17.7871 37.8403 17.7871 36.4537 19.1738L34.5737 21.0538L21.7203 33.9071C21.3337 34.2938 21.0937 34.8005 21.0537 35.3471L20.6937 39.2538C20.6537 39.7471 20.827 40.2271 21.1737 40.5871C21.4937 40.9071 21.907 41.0805 22.347 41.0805ZM39.0537 20.0938C39.4803 20.0938 39.907 20.2538 40.227 20.5871L41.1737 21.5338C41.4937 21.8538 41.667 22.2671 41.667 22.7071C41.667 23.1471 41.4937 23.5738 41.1737 23.8805L40.0003 25.0538L36.707 21.7605L37.8803 20.5871C38.2003 20.2671 38.627 20.0938 39.0537 20.0938ZM23.0403 35.5338C23.0403 35.4538 23.0803 35.3871 23.1337 35.3338L35.2803 23.1738L38.5737 26.4671L26.427 38.6138C26.427 38.6138 26.2937 38.7071 26.227 38.7071L22.7203 39.0271L23.0403 35.5205V35.5338ZM46.3337 45.3338C46.3337 45.8805 45.8803 46.3338 45.3337 46.3338H18.667C18.1203 46.3338 17.667 45.8805 17.667 45.3338C17.667 44.7871 18.1203 44.3338 18.667 44.3338H45.3337C45.8803 44.3338 46.3337 44.7871 46.3337 45.3338Z" fill="#3358FF"/>
<circle cx="62" cy="62" r="17" fill="white" stroke="#3358FF" stroke-width="2"/>
<path d="M63.9443 56.58V69H61.6943V59.748C61.6943 59.544 61.7003 59.34 61.7123 59.136C61.7363 58.932 61.7663 58.728 61.8023 58.524L58.8143 59.352L58.5263 57.84L61.6943 56.58H63.9443Z" fill="#3358FF"/>
</svg>
