<svg width="320" height="42" viewBox="0 0 320 42" fill="none" xmlns="http://www.w3.org/2000/svg">
<g clip-path="url(#clip0_2228_70803)">
<path d="M0 5.97948H6.51584V9.77116C8.39819 7.00033 11.4389 5.25033 14.7692 5.39616C17.8099 5.39616 20.7059 6.70866 22.5882 9.04199C24.7602 11.3753 25.7738 14.7295 25.7738 18.9587C25.7738 23.3337 24.7602 26.6878 22.5882 29.167C20.5611 31.5003 17.8099 32.8128 14.7692 32.8128C13.4661 32.8128 12.0181 32.5212 10.8597 31.9378C9.41177 31.2087 8.1086 30.1878 7.09503 29.0212V42.1462H0V5.97948ZM6.95023 18.5212C6.95023 21.4378 7.52941 23.6253 8.68778 25.0837C9.70136 26.3962 11.2941 27.2712 13.0317 27.1253C14.6244 27.1253 16.0724 26.3961 17.086 25.2295C18.0996 23.917 18.6787 21.8753 18.6787 18.9587C18.6787 16.1878 18.0995 14.1461 16.9412 12.8336C15.9276 11.5211 14.4796 10.792 12.7421 10.792C11.1493 10.792 9.55656 11.5212 8.54299 12.6878C7.52941 14.0003 6.95023 16.042 6.95023 18.5212ZM28.5249 18.667C28.5249 16.3336 29.1041 14.0003 30.2624 11.9587C31.4208 9.91699 33.0136 8.16698 35.1855 7.00031C37.3575 5.83365 39.819 5.25032 42.2805 5.25032C45.9004 5.10448 49.5204 6.56283 52.1267 9.04199C54.733 11.667 56.0362 15.167 56.0362 18.8128C56.181 26.2503 50.5339 32.3753 43.1493 32.5211H42.4253C39.9638 32.5211 37.6471 31.9378 35.4751 30.917C33.3032 29.8962 31.5656 28.292 30.4072 26.1045C28.9593 23.917 28.3801 21.292 28.5249 18.667ZM35.7647 18.9587C35.7647 21.5837 36.3439 23.4795 37.6471 24.9378C39.9638 27.5628 43.8733 27.7087 46.3348 25.3753L46.7692 24.9378C48.0724 23.6253 48.6516 21.5837 48.6516 18.9587C48.6516 16.3337 48.0724 14.4378 46.7692 12.9795C44.4525 10.3545 40.543 10.2087 38.0815 12.542L37.6471 12.9795C36.3439 14.4378 35.7647 16.3337 35.7647 18.9587ZM91.3665 5.97948V11.5212H86.5882V22.0212C86.5882 23.3337 86.5882 24.5003 86.733 25.8128C86.8778 26.1045 87.0226 26.542 87.3122 26.6878C87.6018 26.9795 88.0362 26.9795 88.4706 26.9795C89.4842 26.9795 90.3529 26.6878 91.2217 26.2503L91.8009 31.6462C90.0633 32.3753 88.181 32.667 86.2987 32.667C85.1403 32.667 83.9819 32.5212 82.8235 32.0837C81.9548 31.792 81.2308 31.2087 80.6516 30.4795C80.0724 29.6045 79.7828 28.7295 79.638 27.8545C79.4932 26.2503 79.3484 24.6461 79.3484 23.042V11.667H76.1629V6.12533H79.3484V2.62531L86.4434 0.291992V6.27115H91.3665V5.97948ZM95.1312 5.97948H101.647V9.62532C103.964 6.85448 106.715 5.39616 109.9 5.39616C111.493 5.39616 112.941 5.68782 114.389 6.41699C115.692 7.14615 116.706 8.167 117.43 9.4795C118.443 8.167 119.747 7.14615 121.195 6.41699C122.498 5.68782 124.09 5.39616 125.538 5.39616C127.276 5.39616 129.014 5.68783 130.462 6.56283C131.765 7.292 132.923 8.60449 133.502 10.0628C133.937 11.2295 134.226 12.9795 134.226 15.4587V32.2295H127.131V17.2086C127.131 14.5836 126.842 12.9795 126.407 12.2503C125.683 11.2295 124.525 10.6462 123.367 10.792C121.195 10.792 119.312 12.2503 118.733 14.292C118.299 16.042 118.009 17.9378 118.154 19.6878V32.2295H111.059V17.9378C111.059 15.4586 110.914 13.7087 110.624 12.9795C110.48 12.2503 110.045 11.667 109.466 11.3753C108.887 10.9378 108.018 10.792 107.294 10.792C106.281 10.792 105.267 11.0837 104.398 11.667C103.529 12.2503 102.805 13.1253 102.516 14.1462C102.081 15.8962 101.937 17.792 101.937 19.542V32.2295H94.8416L95.1312 5.97948ZM136.833 18.667C136.833 16.3336 137.412 14.0003 138.57 11.9587C139.729 9.91699 141.321 8.16698 143.493 7.00031C145.665 5.83365 148.127 5.25032 150.588 5.25032C154.643 5.25032 157.828 6.56283 160.434 9.04199C163.041 11.667 164.344 15.167 164.344 18.8128C164.489 26.2503 158.842 32.3753 151.457 32.5211H150.733C148.271 32.5211 145.955 31.9378 143.783 30.917C141.611 29.8962 139.873 28.292 138.715 26.1045C137.412 23.917 136.833 21.292 136.833 18.667ZM144.072 18.9587C144.072 21.5837 144.652 23.4795 145.955 24.9378C148.271 27.5628 152.181 27.7087 154.643 25.3753L155.077 24.9378C156.38 23.6253 156.959 21.5837 156.959 18.9587C156.959 16.3337 156.38 14.4378 155.077 12.9795C152.76 10.3545 148.851 10.2087 146.389 12.542L145.955 12.9795C144.652 14.4378 144.072 16.3337 144.072 18.9587ZM191.131 32.0837H184.181V18.667C184.181 15.8961 184.036 14.0003 183.747 13.1253C183.457 12.3962 183.023 11.667 182.299 11.2295C181.575 10.792 180.706 10.5003 179.837 10.5003C178.679 10.5003 177.52 10.792 176.507 11.5212C175.638 12.1045 174.914 13.1253 174.48 14.1462C174.19 15.167 173.9 17.2086 173.9 20.1253V31.9378H166.805V5.83366H173.321V9.62532C175.348 6.85448 178.679 5.10448 182.009 5.25032C183.457 5.25032 184.905 5.54199 186.208 6.12533C187.367 6.56283 188.38 7.29198 189.104 8.16698C189.828 9.04198 190.262 10.0628 190.407 11.0837C190.697 12.6878 190.842 14.1461 190.842 15.7503L191.131 32.0837ZM211.982 23.7711L218.932 24.9378C218.208 27.2712 216.615 29.3128 214.733 30.7712C212.561 32.2295 209.955 32.8128 207.493 32.8128C202.86 32.8128 199.529 31.3545 197.213 28.292C195.475 25.9587 194.606 22.8962 194.606 19.2503C194.606 14.8753 195.765 11.5212 198.081 9.04199C200.253 6.56283 203.439 5.25033 206.769 5.39616C210.679 5.39616 213.864 6.70865 216.036 9.18781C218.353 11.8128 219.367 15.7503 219.367 21.0003H201.846C201.846 22.7503 202.425 24.5003 203.584 25.8128C204.597 26.9795 206.045 27.5628 207.638 27.5628C208.652 27.5628 209.665 27.2711 210.389 26.6878C211.113 25.8128 211.692 24.792 211.982 23.7711ZM212.416 16.7712C212.416 14.7295 211.837 13.2712 210.824 12.2503C208.796 10.2087 205.611 10.2086 203.584 12.1045L203.439 12.2503C202.425 13.5628 201.846 15.167 201.991 16.7712H212.416ZM71.5294 12.1045C68.3439 12.1045 65.8824 14.1461 65.8824 18.667V32.2295H58.7873V6.12533H64.8688V10.6461H65.0136C66.3167 7.29198 69.0679 5.54198 71.5294 5.54198C72.1086 5.54198 72.543 5.54199 73.1222 5.68782V12.2503C72.6878 12.1045 72.1086 11.9586 71.5294 12.1045Z" fill="#FF0000"/>
<path d="M223.565 31.792V26.8337H228.633V31.9378H223.565V31.792ZM250.208 22.3128L254.697 22.8962C254.407 25.667 253.104 28.1462 250.932 29.8962C248.905 31.6462 246.298 32.5212 243.692 32.3753C240.072 32.3753 237.176 31.2087 235.004 28.8753C232.832 26.542 231.674 23.1878 231.674 18.8128C231.674 16.3337 232.108 13.7086 233.122 11.3753C233.991 9.33365 235.439 7.7295 237.466 6.56283C239.348 5.542 241.52 4.95866 243.837 4.95866C246.298 4.81283 248.905 5.54199 250.932 7.14616C252.814 8.60449 254.117 10.792 254.407 13.2712L250.063 13.8545C249.774 12.3962 249.05 10.9378 247.891 9.91698C246.878 9.04198 245.43 8.60449 244.127 8.60449C242.099 8.45866 240.072 9.4795 238.624 10.9378C237.176 12.542 236.452 15.0212 236.452 18.5212C236.452 22.0212 237.176 24.6462 238.479 26.1045C239.783 27.7087 241.81 28.5837 243.837 28.4378C245.43 28.4378 247.022 27.8545 248.181 26.8337C249.194 26.1045 249.918 24.5003 250.208 22.3128ZM256.724 18.8128C256.724 14.0003 258.027 10.3545 260.778 8.02117C263.095 6.12533 266.136 5.1045 269.031 5.1045C272.362 4.95867 275.547 6.27116 278.009 8.60449C280.326 10.9378 281.484 14.1462 281.484 18.3753C281.484 21.7295 280.905 24.3545 279.891 26.2503C278.878 28.1462 277.285 29.7503 275.403 30.7712C273.375 31.792 271.203 32.3753 269.031 32.3753C265.267 32.3753 262.371 31.2087 260.054 28.8753C257.882 26.542 256.724 23.1878 256.724 18.8128ZM261.357 18.8128C261.357 22.167 262.081 24.6462 263.529 26.3962C266.28 29.4587 271.059 29.7503 274.099 26.9795L274.679 26.3962C276.127 24.6462 276.851 22.167 276.851 18.8128C276.851 15.6045 276.127 13.1253 274.679 11.5212C271.927 8.45866 267.149 8.167 264.108 10.9378C263.964 11.0837 263.674 11.2295 263.529 11.5212C262.081 12.9795 261.357 15.4587 261.357 18.8128ZM284.09 31.792V5.68783H288.145V9.33366C289.013 8.02116 290.172 7.00032 291.475 6.27115C292.923 5.54198 294.516 5.1045 296.108 5.1045C297.846 5.1045 299.439 5.39615 300.887 6.27115C302.19 7.00032 303.059 8.31282 303.493 9.62532C305.665 6.56282 308.271 5.1045 311.746 5.1045C314.353 5.1045 316.38 5.83367 317.828 7.292C319.276 8.75033 320 10.9378 320 13.8545V31.792H315.511V15.3128C315.511 14.0003 315.366 12.6878 315.077 11.5212C314.787 10.792 314.208 10.0628 313.484 9.62532C312.615 9.18782 311.746 8.89615 310.733 8.89615C308.995 8.89615 307.258 9.47949 306.099 10.792C304.941 11.9587 304.217 14.0003 304.217 16.6253V31.792H299.728V14.8753C299.728 12.8337 299.294 11.3753 298.57 10.5003C297.846 9.4795 296.688 9.042 294.95 9.042C293.647 9.042 292.489 9.33366 291.475 10.0628C290.461 10.792 289.593 11.667 289.158 12.9795C288.579 14.7295 288.289 16.6253 288.434 18.3753V31.9378L284.09 31.792Z" fill="#A7A9AB"/>
</g>
<defs>
<clipPath id="clip0_2228_70803">
<rect width="320" height="42" fill="white"/>
</clipPath>
</defs>
</svg>
