<svg aria-hidden="true" style="position:absolute;width:0;height:0;overflow:hidden" xmlns="http://www.w3.org/2000/svg">
  <defs>
    <symbol id="icon-document" viewBox="0 0 32 32">
      <path d="M27.112 6.642 21.086.941a3.425 3.425 0 0 0-2.362-.94H7.25a3.442 3.442 0 0 0-3.438 3.438v25.125a3.441 3.441 0 0 0 3.438 3.437h17.5a3.441 3.441 0 0 0 3.437-3.437V9.14a3.45 3.45 0 0 0-1.075-2.497zm-1.821.858h-4.666a.313.313 0 0 1-.313-.313V2.789l4.979 4.71zm-.541 22.625H7.25a1.565 1.565 0 0 1-1.563-1.563V3.437c0-.862.701-1.563 1.563-1.563h11.187v5.313a2.19 2.19 0 0 0 2.188 2.188h5.687v19.188c0 .861-.701 1.563-1.563 1.563z"/>
      <path d="M22.687 12.5H8.937a.938.938 0 1 0 0 1.874h13.75a.938.938 0 1 0 0-1.874zM22.687 17.5H8.937a.938.938 0 1 0 0 1.874h13.75a.938.938 0 1 0 0-1.874zM13.483 22.5H8.938a.938.938 0 1 0 0 1.874h4.545a.937.937 0 1 0 0-1.874z"/>
    </symbol>
    <symbol id="icon-download" viewBox="0 0 32 32">
      <path d="M13.171 24.163a4 4 0 0 0 5.657.002l.002-.002 4.281-4.281a1.333 1.333 0 0 0-1.886-1.881l-3.901 3.903.009-20.569a1.333 1.333 0 0 0-2.666 0l-.012 20.544-3.88-3.877a1.333 1.333 0 1 0-1.885 1.887l4.281 4.276z"/>
      <path d="M30.667 21.333c-.736 0-1.333.597-1.333 1.333v5.333c0 .736-.597 1.333-1.333 1.333h-24a1.333 1.333 0 0 1-1.333-1.333v-5.333a1.333 1.333 0 0 0-2.666 0v5.333a4 4 0 0 0 4 4h24a4 4 0 0 0 4-4v-5.333c0-.736-.597-1.333-1.333-1.333z"/>
    </symbol>
  </defs>
</svg>
