<svg width="68" height="30" viewBox="0 0 68 30" fill="none" xmlns="http://www.w3.org/2000/svg">
<path d="M29.409 28.7477C25.6516 28.8465 22.1099 28.7184 18.9199 28.3809V29.1449C22.317 29.4 26.0313 29.4597 29.9419 29.3088C29.738 29.1395 29.56 28.9517 29.409 28.7477Z" fill="white"/>
<path d="M25.7799 9.21053V8.33142C23.8456 8.63857 21.9642 8.99672 20.1572 9.39937C20.5326 9.62512 20.8876 9.87474 21.2134 10.1504C22.6859 9.80202 24.2135 9.48837 25.7799 9.21053Z" fill="white"/>
<path d="M3.35123 20.8393C3.11821 17.6495 7.62538 14.5021 14.453 12.1014C13.9503 11.8735 13.4551 11.6217 12.9751 11.3525C5.00933 13.9779 -0.249761 17.5074 0.00914779 21.0564C0.218432 23.9281 3.52815 26.1378 8.82607 27.5585V26.1508C5.51636 24.8289 3.51197 23.036 3.35123 20.8393Z" fill="white"/>
<path d="M38.7568 28.0557C38.7763 28.0764 38.7968 28.097 38.814 28.1198C38.9057 28.237 38.9715 28.3824 39.0071 28.5496C39.0104 28.5648 39.0114 28.5821 39.0147 28.5973C43.4388 28.0579 47.5824 27.2493 51.2762 26.2433V25.4249C47.5964 26.5689 43.346 27.4794 38.7568 28.0557Z" fill="white"/>
<path d="M34.2197 8.12055V7.34998C33.0082 7.44006 31.8043 7.55184 30.6133 7.68208V8.48847C31.8043 8.34195 33.0093 8.21931 34.2197 8.12055Z" fill="white"/>
<path d="M12.1826 27.223V28.3051C13.256 28.5015 14.3855 28.6719 15.5635 28.8163V27.9263C14.3661 27.7266 13.2355 27.4911 12.1826 27.223Z" fill="white"/>
<path d="M67.9839 14.7898C67.6958 11.5762 63.4357 9.24061 56.457 8.00769C56.5714 8.29747 56.6663 8.60136 56.7408 8.91936C56.7612 9.00944 56.7817 9.1006 56.8001 9.19177C61.6687 10.4388 64.5231 12.4694 64.7615 15.1458C65.0161 18.0045 62.0689 20.8589 57.073 23.2097C57.1334 23.251 57.1906 23.2987 57.2424 23.353C57.3611 23.4767 57.4463 23.6308 57.4959 23.8077C57.5272 23.9217 57.5423 24.0443 57.5445 24.1811C64.2254 21.5275 68.2859 18.1543 67.9839 14.7898Z" fill="white"/>
<path d="M17.5206 24.1531C17.2164 23.9262 16.8183 23.7439 16.3372 23.6115C15.8636 23.4812 15.2789 23.415 14.596 23.415C14.0081 23.415 13.4169 23.4997 12.8408 23.6679C12.3942 23.7982 11.9433 23.987 11.4945 24.2334V23.949C11.4945 23.8416 11.4503 23.7439 11.3661 23.6701C11.3122 23.6245 11.241 23.5876 11.1493 23.5583C11.0705 23.5333 10.9691 23.5181 10.8386 23.5105C10.7275 23.504 10.5883 23.5008 10.4211 23.5008C10.2453 23.5008 10.1039 23.504 9.99713 23.5105C9.87415 23.5181 9.77382 23.5333 9.69076 23.5561C9.57856 23.5865 9.49981 23.6278 9.44371 23.6853C9.37467 23.7558 9.33691 23.8492 9.33691 23.949V29.4765C9.33691 29.584 9.38222 29.6817 9.46313 29.7533C9.52247 29.8054 9.60337 29.8423 9.71773 29.8683C9.80187 29.8879 9.90651 29.902 10.0392 29.9117C10.1611 29.9204 10.3143 29.9248 10.4988 29.9248C10.6897 29.9248 10.8461 29.9204 10.9691 29.9117C11.1029 29.9031 11.2075 29.8879 11.2884 29.8683C11.392 29.8423 11.4675 29.8097 11.5269 29.7641C11.6196 29.6925 11.6714 29.5905 11.6714 29.4776V25.7506C12.1137 25.4522 12.542 25.221 12.9444 25.0615C13.3694 24.8943 13.7988 24.8097 14.2206 24.8097C14.5496 24.8097 14.8409 24.8433 15.0868 24.9106C15.3199 24.9746 15.5087 25.0658 15.65 25.1808C15.7902 25.297 15.8938 25.4294 15.9661 25.5868C16.0383 25.7441 16.075 25.9645 16.075 26.2412V29.4776C16.075 29.5916 16.1268 29.6936 16.2196 29.7641C16.2789 29.8097 16.3544 29.8423 16.458 29.8683C16.5389 29.8879 16.6435 29.9031 16.7773 29.9117C16.8992 29.9204 17.0567 29.9248 17.2477 29.9248C17.4311 29.9248 17.5842 29.9204 17.7072 29.9117C17.841 29.9031 17.9456 29.8879 18.0265 29.8683C18.1301 29.8434 18.2045 29.8097 18.265 29.7641C18.3577 29.6925 18.4095 29.5905 18.4095 29.4776V26.1055C18.4095 25.679 18.3415 25.3046 18.2056 24.9931C18.0654 24.6708 17.8356 24.3886 17.5206 24.1531Z" fill="white"/>
<path d="M38.4097 28.4339C38.3568 28.3655 38.2856 28.3156 38.1983 28.2841C38.0386 28.2277 37.8584 28.2363 37.5197 28.3199C37.3492 28.3622 37.1313 28.4089 36.866 28.4621C36.6027 28.5142 36.2866 28.5619 35.9263 28.6032C35.5671 28.6444 35.1518 28.6661 34.69 28.6661C34.1129 28.6661 33.6199 28.6205 33.2261 28.5315C32.8453 28.4447 32.5346 28.321 32.3027 28.1636C32.0848 28.0149 31.9283 27.838 31.8377 27.6372C31.7741 27.4962 31.7309 27.3399 31.7104 27.1716H37.9857C38.2069 27.1716 38.4097 27.1293 38.5877 27.0457C38.8229 26.9361 38.9523 26.7321 38.9523 26.4716V26.2871C38.9523 25.8866 38.8585 25.5046 38.674 25.1508C38.4884 24.7959 38.1983 24.4855 37.8099 24.2261C37.4334 23.9765 36.9523 23.7746 36.3783 23.6292C35.812 23.4848 35.1205 23.4121 34.3222 23.4121C33.5756 23.4121 32.8906 23.4859 32.2854 23.6313C31.6716 23.7779 31.1387 23.9938 30.7007 24.2717C30.2519 24.556 29.9024 24.9098 29.6607 25.3234C29.4169 25.7412 29.2939 26.2155 29.2939 26.7343C29.2939 27.2769 29.4137 27.7621 29.6478 28.1756C29.8819 28.5891 30.2325 28.9375 30.6899 29.2088C31.1322 29.4714 31.6802 29.6722 32.321 29.8046C32.95 29.9349 33.69 30 34.5207 30C34.9964 30 35.4527 29.9794 35.8756 29.9403C36.2953 29.9012 36.6696 29.8556 36.99 29.8068C37.3126 29.7569 37.5812 29.7048 37.7872 29.6516C38.0753 29.5778 38.1583 29.5431 38.2058 29.517C38.2641 29.4845 38.3148 29.4486 38.359 29.4063C38.4129 29.3542 38.4528 29.2934 38.4766 29.2283C38.4928 29.1849 38.5057 29.1361 38.5176 29.0785C38.5262 29.0265 38.5327 28.9657 38.5327 28.8951C38.5327 28.805 38.5251 28.7236 38.51 28.6531C38.4874 28.5652 38.455 28.4914 38.4097 28.4339ZM31.8658 25.6576C31.9726 25.4829 32.1258 25.3266 32.3243 25.1931C32.5292 25.0542 32.7924 24.9392 33.1053 24.8534C33.4214 24.7655 33.799 24.721 34.2272 24.721C35.0525 24.721 35.676 24.8588 36.0795 25.1323C36.3794 25.3342 36.5488 25.5925 36.5941 25.9149H31.746C31.7752 25.8269 31.8151 25.7423 31.8658 25.6576Z" fill="white"/>
<path d="M56.8729 23.7064C56.8114 23.6412 56.7359 23.5935 56.6496 23.5642C56.5806 23.5414 56.5018 23.5305 56.4166 23.5305H54.1209V22.4734C54.1209 22.3682 54.0724 22.2694 53.9839 22.1956C53.9246 22.1468 53.8491 22.1099 53.7455 22.0816C53.6624 22.0578 53.5546 22.0426 53.4186 22.0328C53.2967 22.0241 53.1392 22.0198 52.9483 22.0198C52.7649 22.0198 52.6106 22.0241 52.4898 22.0328C52.355 22.0426 52.2471 22.0578 52.1608 22.0806C52.0453 22.1109 51.9644 22.1511 51.9051 22.2075C51.8296 22.2803 51.7875 22.3747 51.7875 22.4734V23.5305H50.6623C50.5782 23.5305 50.4994 23.5414 50.4282 23.5631C50.3322 23.5924 50.2524 23.6434 50.192 23.7161C50.1413 23.7747 50.1014 23.8475 50.0733 23.931C50.0453 24.0124 50.0312 24.1047 50.0312 24.2121C50.0312 24.4303 50.0906 24.5996 50.2071 24.7146C50.3204 24.8264 50.4746 24.8861 50.6516 24.8861H51.7875V27.8599C51.7875 28.2148 51.849 28.5306 51.9709 28.7987C52.0971 29.0776 52.3021 29.3109 52.5783 29.4911C52.8393 29.6615 53.1738 29.7896 53.5718 29.871C53.9548 29.9502 54.4176 29.9903 54.9484 29.9903C55.122 29.9903 55.299 29.9838 55.4748 29.9708C55.6485 29.9578 55.8125 29.9426 55.9678 29.9241C56.1264 29.9046 56.272 29.8796 56.4004 29.8482C56.5417 29.8134 56.6496 29.7755 56.7284 29.731C56.8373 29.6713 56.9215 29.5747 56.9732 29.4531C57.0164 29.35 57.038 29.2252 57.038 29.07C57.038 28.9701 57.0272 28.8855 57.0045 28.8106C56.983 28.7379 56.9571 28.6793 56.9247 28.6294C56.874 28.5501 56.7985 28.4937 56.7079 28.4655C56.5773 28.4253 56.4306 28.4329 56.2677 28.4742C56.1976 28.4915 56.1135 28.51 56.0142 28.5295C55.915 28.549 55.8028 28.5675 55.6755 28.5849C55.5546 28.6011 55.4144 28.6098 55.258 28.6098C54.6948 28.6098 54.451 28.4894 54.3464 28.3895C54.1954 28.2441 54.122 28.0227 54.122 27.7123V24.8861H56.4177C56.5946 24.8861 56.7489 24.8264 56.8621 24.7146C56.9786 24.5996 57.038 24.4303 57.038 24.2121C57.038 24.1101 57.0283 24.0233 57.0067 23.9451C56.9786 23.8507 56.9333 23.7704 56.8729 23.7064Z" fill="white"/>
<path d="M16.3591 12.3976C16.8575 12.6233 17.3052 12.874 17.6914 13.1432C18.0431 13.3885 18.3279 13.6739 18.5383 13.9919C18.7238 14.2741 18.8187 14.629 18.8187 15.0479C18.8187 15.4614 18.7454 15.8294 18.6008 16.1408C18.4595 16.4458 18.2535 16.7074 17.9892 16.9179C17.7108 17.1404 17.3678 17.3151 16.9697 17.44C16.5598 17.568 16.0948 17.6342 15.5899 17.6342C14.8995 17.6342 14.2878 17.5561 13.7733 17.4009C13.2296 17.2381 12.7635 17.0623 12.3881 16.8799C12.004 16.6943 11.689 16.5218 11.4517 16.3677C10.8497 15.978 10.3751 15.9118 9.95975 16.1473C9.77959 16.2505 9.63935 16.4089 9.54334 16.6195C9.47645 16.7649 9.43007 16.9353 9.40094 17.1404C9.37613 17.3141 9.36426 17.5203 9.36426 17.7721C9.36426 18.1454 9.40094 18.446 9.47537 18.6902C9.5606 18.9703 9.70084 19.2101 9.88963 19.4011C10.0525 19.5661 10.2974 19.7387 10.662 19.9416C10.9943 20.1272 11.4042 20.3074 11.88 20.4778C12.3514 20.646 12.8951 20.7892 13.4949 20.9054C14.1001 21.0215 14.7636 21.0801 15.467 21.0801C16.4767 21.0801 17.4357 20.9455 18.3171 20.6807C19.2168 20.4105 20.013 19.9981 20.684 19.4576C21.3625 18.9095 21.9008 18.2333 22.2827 17.4497C22.6657 16.6629 22.8599 15.761 22.8599 14.7668C22.8599 13.9149 22.7089 13.1584 22.41 12.518C22.1177 11.8907 21.7272 11.3372 21.2493 10.8738C20.7865 10.4256 20.2535 10.0316 19.6656 9.70273C19.1089 9.39233 18.535 9.10364 17.9579 8.84425C17.3969 8.59245 16.8456 8.34175 16.3041 8.09429C15.7992 7.86312 15.3461 7.60807 14.9556 7.33349C14.5985 7.08278 14.3105 6.79409 14.1001 6.47609C13.9113 6.19065 13.8196 5.84986 13.8196 5.43527C13.8196 5.14983 13.8714 4.8785 13.9739 4.62671C14.071 4.38685 14.2134 4.18498 14.4097 4.01025C14.6115 3.83008 14.8801 3.67922 15.208 3.56418C15.5468 3.4448 15.96 3.3851 16.4357 3.3851C16.9622 3.3851 17.439 3.44805 17.8522 3.57286C18.2912 3.70527 18.6731 3.85179 18.986 4.00916C19.3204 4.1763 19.6063 4.32824 19.8339 4.45957C20.1866 4.66361 20.4499 4.75477 20.6872 4.75477C20.9051 4.75477 21.1101 4.68314 21.2816 4.54748C21.4359 4.42484 21.5492 4.25444 21.6182 4.04281C21.6624 3.90714 21.6937 3.75194 21.7142 3.56852C21.7325 3.40789 21.7412 3.22448 21.7412 3.02369C21.7412 2.82074 21.7347 2.64709 21.7239 2.50925C21.711 2.35839 21.6905 2.22815 21.6624 2.10986C21.6279 1.96876 21.5826 1.84938 21.5233 1.7441C21.4618 1.63449 21.3658 1.51836 21.2201 1.37727C21.0702 1.23292 20.835 1.08315 20.4553 0.893216C20.1198 0.724991 19.7346 0.571961 19.3085 0.438467C18.8856 0.306059 18.4325 0.198613 17.9622 0.12047C17.4832 0.0401568 17.001 0 16.5274 0C15.6083 0 14.7377 0.121555 13.9383 0.362496C13.1228 0.607777 12.4043 0.973528 11.8056 1.4489C11.195 1.93403 10.7117 2.54181 10.3708 3.25486C10.0299 3.96683 9.85726 4.78082 9.85726 5.67404C9.85726 6.54555 10.0083 7.31178 10.3071 7.9532C10.5984 8.57835 10.9846 9.13294 11.4549 9.59963C11.9113 10.0533 12.4356 10.4527 13.0127 10.7859C13.5607 11.1028 14.1325 11.3958 14.7129 11.6563C15.2728 11.907 15.8219 12.1545 16.3591 12.3976Z" fill="white"/>
<path d="M26.9402 20.7198C27.0902 20.7816 27.2725 20.824 27.4969 20.8522C27.6835 20.875 27.9165 20.8869 28.1895 20.8869C28.4732 20.8869 28.7041 20.8761 28.8982 20.8522C29.1248 20.824 29.3082 20.7795 29.4581 20.7154C29.6534 20.6319 29.8077 20.5157 29.9177 20.3703C30.0385 20.2075 30.1032 20.0089 30.1032 19.7973V6.40118C30.1032 6.208 30.0439 6.01915 29.9317 5.85418C29.8228 5.69573 29.6631 5.56983 29.4581 5.48192C29.3093 5.41789 29.1259 5.37339 28.8972 5.34517C28.7051 5.32238 28.4732 5.31152 28.1906 5.31152C27.9209 5.31152 27.6878 5.32346 27.498 5.34625C27.2747 5.37339 27.0923 5.4168 26.9402 5.47866C26.7126 5.572 26.5432 5.70875 26.4364 5.88674C26.3415 6.04411 26.293 6.21776 26.293 6.40118V19.7962C26.293 19.9991 26.3458 20.1815 26.4483 20.3377C26.5551 20.5027 26.7202 20.6308 26.9402 20.7198Z" fill="white"/>
<path d="M35.38 20.7194C35.5321 20.7812 35.7133 20.8236 35.9367 20.8518C36.1233 20.8746 36.3563 20.8865 36.6292 20.8865C36.913 20.8865 37.1438 20.8757 37.338 20.8518C37.5656 20.8236 37.749 20.7791 37.8979 20.715C38.0931 20.6315 38.2474 20.5153 38.3553 20.371C38.4772 20.2082 38.5419 20.0096 38.5419 19.7958V10.6596C39.1471 9.94327 39.7113 9.39193 40.2194 9.0175C40.6963 8.66585 41.1623 8.48786 41.6014 8.48786C41.9638 8.48786 42.2745 8.55298 42.5226 8.68213C42.7708 8.81129 42.9725 8.99579 43.1397 9.24541C43.3231 9.52 43.4633 9.85753 43.5583 10.2504C43.6586 10.6683 43.7093 11.1404 43.7093 11.6537V19.7947C43.7093 19.9976 43.7622 20.18 43.8647 20.3363C43.9725 20.5002 44.1376 20.6293 44.3566 20.7172C44.5076 20.7791 44.6932 20.8225 44.924 20.8496C45.1161 20.8724 45.3458 20.8833 45.6058 20.8833C45.8788 20.8833 46.1053 20.8724 46.2995 20.8485C46.5217 20.8214 46.704 20.778 46.8551 20.7161C47.0611 20.6326 47.2218 20.5153 47.333 20.3677C47.4549 20.2049 47.5196 20.0063 47.5196 19.7925V10.6596C48.1345 9.94219 48.7019 9.38867 49.2068 9.01424C49.6793 8.66368 50.141 8.48678 50.579 8.48678C50.9437 8.48678 51.2565 8.55298 51.5111 8.68322C51.7635 8.81237 51.9663 8.99579 52.1314 9.24433C52.3116 9.51566 52.4464 9.84993 52.5316 10.2374C52.6244 10.6596 52.6708 11.1349 52.6708 11.6526V19.7936C52.6708 20.0074 52.7344 20.2049 52.8542 20.3645C52.9653 20.5143 53.126 20.6326 53.3343 20.7172C53.4853 20.7791 53.6665 20.8225 53.8909 20.8496C54.0775 20.8724 54.3159 20.8844 54.5986 20.8844C54.8715 20.8844 55.0981 20.8735 55.2922 20.8496C55.5199 20.8214 55.7022 20.7769 55.8511 20.7129C56.0474 20.6293 56.2017 20.5132 56.3106 20.3688C56.4325 20.206 56.4973 20.0074 56.4973 19.7936V11.3249C56.4973 10.5272 56.412 9.7566 56.2427 9.03377C56.0647 8.27297 55.7615 7.5979 55.3386 7.02702C54.9082 6.44312 54.3386 5.97101 53.646 5.62371C52.9545 5.27749 52.1034 5.10167 51.1152 5.10167C50.6934 5.10167 50.2694 5.15594 49.8552 5.26338C49.442 5.37083 49.0159 5.54231 48.5897 5.77457C48.1744 5.99923 47.7386 6.29769 47.2941 6.6591C47.0568 6.85229 46.8097 7.07152 46.5562 7.31246C46.4721 7.1768 46.3815 7.04656 46.2865 6.92175C45.9996 6.54623 45.65 6.21738 45.2444 5.94605C44.842 5.67689 44.3749 5.46525 43.856 5.31873C43.3447 5.17439 42.7665 5.10059 42.1375 5.10059C41.2864 5.10059 40.4374 5.32416 39.6142 5.7648C39.1827 5.99597 38.7404 6.30095 38.2949 6.67647V6.39971C38.2949 6.19893 38.242 6.01659 38.1374 5.85488C38.0435 5.71379 37.9087 5.59441 37.735 5.4989C37.5753 5.41207 37.3822 5.35781 37.1449 5.33393C36.9744 5.31656 36.7695 5.30788 36.5203 5.30788C36.2592 5.30788 36.0521 5.31656 35.8849 5.33393C35.6637 5.35672 35.4771 5.40665 35.3174 5.4837C35.106 5.58572 34.9506 5.72247 34.8557 5.89178C34.7716 6.04047 34.7295 6.21086 34.7295 6.39862V19.7958C34.7295 19.9987 34.7824 20.1811 34.8848 20.3374C34.9949 20.5023 35.161 20.6304 35.38 20.7194Z" fill="white"/>
<path d="M26.6606 3.17024C27.0004 3.6912 27.5851 4.03633 28.2507 4.03633C29.0361 4.03633 29.7093 3.5577 29.9995 2.87504C30.8172 2.62324 31.3436 2.26075 31.3113 1.90042C31.2811 1.56289 30.7622 1.33389 29.938 1.24381C29.6208 0.630602 28.9854 0.21167 28.2518 0.21167C27.3942 0.21167 26.6703 0.782546 26.433 1.56723C25.6746 1.806 25.1665 2.13377 25.1913 2.46479C25.2172 2.82837 25.8019 3.07474 26.6606 3.17024ZM31.0211 1.93081C31.0491 2.24013 30.6597 2.54836 30.0351 2.77844C30.1095 2.57332 30.1526 2.353 30.1526 2.12291C30.1526 1.83965 30.0901 1.57266 29.98 1.33063C30.6133 1.42831 30.9941 1.63561 31.0211 1.93081ZM26.4006 1.68987C26.3683 1.82879 26.3499 1.97423 26.3499 2.12291C26.3499 2.47347 26.4459 2.80124 26.6099 3.0845C25.9508 2.97706 25.5149 2.75565 25.4923 2.44308C25.4718 2.17067 25.8375 1.90151 26.4006 1.68987Z" fill="white"/>
</svg>
