<svg aria-hidden="true" style="position:absolute;width:0;height:0;overflow:hidden" xmlns="http://www.w3.org/2000/svg">
  <defs>
    <symbol id="icon-shopping" viewBox="0 0 32 32">
      <path d="M30.284 5.436A3.994 3.994 0 0 0 27.214 4H5.657l-.056-.468A4.001 4.001 0 0 0 1.63 0h-.296a1.335 1.335 0 0 0-.943 2.277c.251.25.589.391.943.391h.296a1.332 1.332 0 0 1 1.324 1.177l1.835 15.6a6.665 6.665 0 0 0 6.622 5.889h13.924a1.334 1.334 0 0 0 0-2.668H11.411A4.001 4.001 0 0 1 7.651 20h15.893a6.67 6.67 0 0 0 6.562-5.484l1.047-5.805a3.981 3.981 0 0 0-.867-3.275zm-1.751 2.801-1.048 5.805a4.004 4.004 0 0 1-3.943 3.291H7.225L5.97 6.666h21.243a1.334 1.334 0 0 1 1.32 1.57zM9.335 31.999a2.667 2.667 0 1 0 0-5.334 2.667 2.667 0 0 0 0 5.334zM22.667 31.999a2.667 2.667 0 1 0 0-5.334 2.667 2.667 0 0 0 0 5.334z"/>
    </symbol>
    <symbol id="icon-region" viewBox="0 0 32 32">
      <path d="M30.667 15.999c-.737 0-1.333.596-1.333 1.333v4h-8.115l-7.885-7.885V2.666h1.333a1.333 1.333 0 1 0 0-2.666h-8A6.675 6.675 0 0 0 0 6.667v18.667a6.675 6.675 0 0 0 6.667 6.667h18.667a6.675 6.675 0 0 0 6.667-6.667v-8c0-.737-.596-1.333-1.333-1.333zm-24-13.333h4v10.533l-8 4.265V6.665c0-2.205 1.795-4 4-4zm-4 22.667v-4.844l9.089-4.848 7.149 7.149L14 29.331H6.667c-2.205 0-4-1.793-4-3.999zm22.666 4h-8l4-5.333h8v1.333c0 2.205-1.795 4-4 4zm-3.398-14.415a3.888 3.888 0 0 0 2.732 1.104c.989 0 1.979-.367 2.732-1.104l2.453-2.401A7.28 7.28 0 0 0 32 7.332a7.28 7.28 0 0 0-2.148-5.185C28.467.762 26.625-.001 24.667-.001s-3.801.763-5.185 2.148a7.28 7.28 0 0 0-2.148 5.185c0 1.96.763 3.801 2.159 5.195l2.443 2.392zm-.568-10.885c.881-.881 2.052-1.367 3.3-1.367s2.417.485 3.3 1.367c.883.881 1.367 2.053 1.367 3.3s-.485 2.417-1.357 3.289l-2.443 2.391a1.248 1.248 0 0 1-1.735 0l-2.432-2.38C20.486 9.752 20 8.58 20 7.333s.485-2.417 1.367-3.3zm1.298 3.292a2 2 0 1 1 4.001.001 2 2 0 0 1-4.001-.001z"/>
    </symbol>
    <symbol id="icon-location" viewBox="0 0 32 32">
      <path d="M16 0C9.384 0 4 5.421 4 12.087c0 9.471 10.872 19.249 11.335 19.66a1 1 0 0 0 1.33.001C17.128 31.336 28 21.557 28 12.087 28 5.422 22.616 0 16 0zm0 18.667c-3.676 0-6.667-2.991-6.667-6.667S12.324 5.333 16 5.333c3.676 0 6.667 2.991 6.667 6.667S19.676 18.667 16 18.667z"/>
    </symbol>
    <symbol id="icon-enter" viewBox="0 0 32 32">
      <path d="M10.671 28H4.55a.546.546 0 0 1-.545-.545V4.546a.546.546 0 0 1 .545-.545h6.121a2 2 0 1 0 0-4H4.55A4.55 4.55 0 0 0 .005 4.546v22.909A4.55 4.55 0 0 0 4.55 32h6.121a2 2 0 1 0 0-4z"/>
      <path d="m30.002 14-18.187.036 4.621-4.621a2 2 0 0 0-2.828-2.83l-5.172 5.172a6 6 0 0 0 0 8.485l5.172 5.172a2 2 0 1 0 2.828-2.83l-4.551-4.549 18.116-.036a2 2 0 1 0-.008-4h.008z"/>
    </symbol>
    <symbol id="icon-bag" viewBox="0 0 32 32">
      <path d="M25.333 5.333h-1.467A6.673 6.673 0 0 0 17.333 0h-2.667a6.677 6.677 0 0 0-6.533 5.333H6.666A6.675 6.675 0 0 0-.001 12v13.333A6.675 6.675 0 0 0 6.666 32h18.667A6.675 6.675 0 0 0 32 25.333V12a6.675 6.675 0 0 0-6.667-6.667zM14.667 2.667h2.667a3.994 3.994 0 0 1 3.755 2.667H10.913a4.002 4.002 0 0 1 3.755-2.667zM6.667 8h18.667a4.003 4.003 0 0 1 4 4v4H2.667v-4a4.003 4.003 0 0 1 4-4zm18.666 21.333H6.666a4.003 4.003 0 0 1-4-4v-6.667h12v1.333a1.335 1.335 0 0 0 2.277.943c.25-.25.391-.589.391-.943v-1.333h12v6.667a4.003 4.003 0 0 1-4 4z"/>
    </symbol>
    <symbol id="icon-card" viewBox="0 0 32 32">
      <path d="M27.333 4.5H4.666A4.672 4.672 0 0 0-.001 9.167V22.5a4.673 4.673 0 0 0 4.667 4.667h22.667A4.672 4.672 0 0 0 32 22.5V9.167A4.673 4.673 0 0 0 27.333 4.5zM4.667 7.167h22.667c1.103 0 2 .897 2 2v1.34H2.667v-1.34c0-1.103.897-2 2-2zM27.333 24.5H4.666c-1.103 0-2-.897-2-2v-8h26.667v8c0 1.103-.897 2-2 2z"/>
      <path d="M14.001 19.262h-8a1.333 1.333 0 0 0 0 2.666h8a1.333 1.333 0 0 0 0-2.666zM25.332 22.5a2 2 0 1 0 .001-3.999 2 2 0 0 0-.001 3.999z"/>
    </symbol>
    <symbol id="icon-bolt" viewBox="0 0 32 32">
      <path d="M14.986 32a3.032 3.032 0 0 1-1.264-.282 2.907 2.907 0 0 1-1.6-3.496l2.081-6.888H9.299a3.997 3.997 0 0 1-3.945-3.313 4.005 4.005 0 0 1 .112-1.846L9.498 2.842A3.978 3.978 0 0 1 13.333 0h4.924a3.46 3.46 0 0 1 2.847 1.492 3.472 3.472 0 0 1 .398 3.189l-2.244 5.985h3.409a4 4 0 0 1 3.311 6.245l-8.533 13.733a2.932 2.932 0 0 1-2.457 1.354z"/>
    </symbol>
    <symbol id="icon-phone-call" viewBox="0 0 32 32">
      <path d="m31.131 23.485-4.466-4.466c-1.595-1.595-4.306-.957-4.944 1.117-.479 1.435-2.073 2.233-3.509 1.914-3.19-.797-7.496-4.944-8.293-8.293-.478-1.435.478-3.03 1.914-3.509 2.073-.638 2.711-3.349 1.116-4.944L8.483.838c-1.276-1.116-3.19-1.116-4.306 0l-3.03 3.03c-3.03 3.19.319 11.643 7.815 19.139s15.949 11.005 19.139 7.815l3.03-3.03c1.116-1.276 1.116-3.19 0-4.306z"/>
      <path d="m31.131 23.485-4.466-4.466c-1.595-1.595-4.306-.957-4.944 1.117-.479 1.435-2.073 2.233-3.509 1.914-3.19-.797-7.496-4.944-8.293-8.293-.478-1.435.478-3.03 1.914-3.509 2.073-.638 2.711-3.349 1.116-4.944L8.483.838c-1.276-1.116-3.19-1.116-4.306 0l-3.03 3.03c-3.03 3.19.319 11.643 7.815 19.139s15.949 11.005 19.139 7.815l3.03-3.03c1.116-1.276 1.116-3.19 0-4.306z"/>
    </symbol>
    <symbol id="icon-house" viewBox="0 0 32 32">
      <path d="M29.333 7.632V2.667a1.333 1.333 0 1 0-2.666 0v3.155L19.73 1.141a6.642 6.642 0 0 0-7.459 0L2.938 7.44a6.658 6.658 0 0 0-2.937 5.527v12.368a6.675 6.675 0 0 0 6.667 6.667h4c.737 0 1.333-.597 1.333-1.333V20.002c0-.735.597-1.333 1.333-1.333h5.333c.736 0 1.333.599 1.333 1.333v10.667c0 .736.596 1.333 1.333 1.333h4A6.675 6.675 0 0 0 32 25.335V12.967a6.659 6.659 0 0 0-2.667-5.333zm0 17.701c0 2.205-1.795 4-4 4h-2.667V20c0-2.205-1.795-4-4-4h-5.333c-2.205 0-4 1.795-4 4v9.333H6.666c-2.205 0-4-1.795-4-4V12.965c0-1.332.659-2.572 1.763-3.316l9.333-6.299a3.98 3.98 0 0 1 4.473 0l9.333 6.299a3.993 3.993 0 0 1 1.763 3.316l.001 12.368z"/>
    </symbol>
  </defs>
</svg>
