<svg aria-hidden="true" style="position:absolute;width:0;height:0;overflow:hidden" xmlns="http://www.w3.org/2000/svg">
  <defs>
    <symbol id="icon-chek-mark" viewBox="0 0 32 32">
      <path d="M16 0C7.178 0 0 7.178 0 16s7.178 16 16 16 16-7.178 16-16S24.822 0 16 0zm8.942 11.79L14.716 21.935a1.572 1.572 0 0 1-2.205.04l-5.414-4.932a1.626 1.626 0 0 1-.12-2.246 1.586 1.586 0 0 1 2.246-.08l4.291 3.93 9.143-9.143c.642-.642 1.644-.642 2.286 0s.642 1.644 0 2.286z"/>
    </symbol>
    <symbol id="icon-tv" viewBox="0 0 33 32">
      <path d="M13.756 8.296H6.881c-1.632 0-3.198.625-4.351 1.736S.728 12.651.728 14.222v11.852c0 1.572.649 3.079 1.802 4.19S5.249 32 6.881 32h19.692c1.632 0 3.198-.625 4.351-1.736s1.802-2.619 1.802-4.19V14.222c0-1.572-.649-3.079-1.802-4.19s-2.719-1.736-4.351-1.736h-6.875l6.514-6.273c.481-.462.481-1.214 0-1.676s-1.26-.463-1.74 0l-7.745 7.458L8.982.347c-.48-.463-1.26-.463-1.74 0s-.481 1.214 0 1.676l6.514 6.273zm16.51 5.926v11.852c0 .943-.389 1.847-1.081 2.514s-1.632 1.041-2.611 1.041H6.882c-.979 0-1.918-.375-2.611-1.041S3.19 27.016 3.19 26.074V14.222c0-.943.389-1.847 1.081-2.514s1.632-1.041 2.611-1.041h19.692c.979 0 1.918.375 2.611 1.041s1.081 1.572 1.081 2.514z"/>
      <path d="M10.936 26.182a1.012 1.012 0 0 1-1.012-1.012v-8.572H7.572a1.026 1.026 0 1 1 0-2.052H14.3a1.026 1.026 0 0 1 0 2.052h-2.352v8.572c0 .559-.453 1.012-1.012 1.012zM22.098 26.182a1.959 1.959 0 0 1-1.886-1.429l-2.514-8.934a1.002 1.002 0 1 1 1.93-.542l2.474 8.836 2.516-8.839a1.004 1.004 0 0 1 1.932.547l-2.513 8.932a1.96 1.96 0 0 1-1.886 1.429h-.052z"/>
    </symbol>
  </defs>
</svg>
