<svg width="145" height="32" fill="none" xmlns="http://www.w3.org/2000/svg">
  <g clip-path="url(#a)">
    <path d="M47.053 22.764h-3.314V11.708h-4.053V9.146h11.453v2.562h-4.086v11.056Z" fill="url(#b)"/>
    <path d="M53.986 23.113c-.856 0-2.45-.157-3.494-1.211-.849-.86-1.28-2.118-1.28-3.738 0-2.084.695-3.609 2.063-4.53a5.107 5.107 0 0 1 2.786-.804c1.062 0 2.992.304 4.018 2.338.536 1.146.637 2.413.577 3.654h-6.39c.025.957.219 2.083 1.757 2.114.838.02 1.312-.386 1.515-1.283h2.895l-.017.196a3.235 3.235 0 0 1-.956 2.126c-.705.724-1.972 1.139-3.475 1.139l.001-.001Zm1.453-6.357c-.036-.819-.336-1.71-1.472-1.71-1.226 0-1.524 1.079-1.592 1.71h3.064Z" fill="url(#c)"/>
    <path d="M63.347 22.984c-2.177.074-3.368-1.246-3.394-2.949 0-.78.276-2.212 2.128-3.043 1.083-.355 1.458-.443 3.668-.529l.03 1.941c-3.17-.067-3.071 1.613-2.273 2.252.73.583 2.382.208 2.267-2.257l-.064-1.937c-.004-.478-.03-.719-.122-.991-.223-.616-.93-.647-1.07-.647-.374 0-.712.162-.904.435-.175.263-.175.518-.175.723v.18h-3.116l.007-.187c.018-.467.06-1.56 1.154-2.322.748-.521 1.756-.786 2.997-.786.905 0 2.57.163 3.538 1.255.706.826.706 2.005.706 2.392l.02 3.725c0 .875.072 1.632.222 2.31l.048.219-2.883.01c-.064-.093-.122-.94-.122-.94l-.021.001c-.039.192-1.099 1.099-2.284 1.147" fill="url(#d)"/>
    <path d="M83.037 22.762v-5.628c0-1.146-.241-1.91-1.419-1.91-1.42 0-1.532 1.178-1.532 2.717v4.819h-3.185v-5.681c0-.898-.107-1.855-1.381-1.855-1.57 0-1.57 1.29-1.57 1.91v5.628h-3.185v-7.7c0-.515-.03-1.063-.094-1.725l-.019-.198h3.076l.071.9c.438-.474 1.263-1.101 2.796-1.101 1.006 0 2.308.275 3.017 1.534.663-1.02 1.66-1.516 3.044-1.516 1.964 0 2.801 1.104 3.07 1.579.5.792.497 1.875.495 2.663v5.563h-3.185l.001.002Z" fill="url(#e)"/>
    <path d="m93.154 20.898 4.215-11.734h1.64l-5.083 13.6h-1.64l-5.116-13.6h1.737l4.247 11.734Z" fill="url(#f)"/>
    <path d="M100.184 22.763v-9.566h1.505v9.566h-1.505Zm-.094-11.866V9.161h1.693v1.736h-1.693Z" fill="url(#g)"/>
    <path d="M108.002 23.04c-2.997 0-4.34-2.54-4.34-5.059 0-2.437 1.382-5.06 4.414-5.06 2.947.027 4.511 1.937 4.511 5.495h-7.32c.059 1.108.507 3.25 3.093 3.25a2.611 2.611 0 0 0 2.556-2.059l.032-.142h1.579c-.762 3.219-2.826 3.528-4.526 3.569l.001.007Zm2.968-5.99c-.195-1.755-1.234-2.757-2.874-2.757-1.772 0-2.59 1.443-2.774 2.757h5.648Z" fill="url(#h)"/>
    <path d="M120.179 13.198h1.577l2.702 7.369 2.606-7.369h1.673l-3.667 9.566h-1.352l-2.799-7.638-2.863 7.638h-1.383l-3.636-9.566h1.641l2.735 7.45 2.766-7.45Z" fill="url(#i)"/>
    <path d="M133.449 23.04c-2.997 0-4.34-2.54-4.34-5.059 0-2.437 1.382-5.06 4.414-5.06 3.107.004 4.543 2.213 4.511 5.495h-7.319c.058 1.108.506 3.25 3.092 3.25 1.242-.03 2.236-.681 2.588-2.201h1.579c-.773 3.153-2.848 3.54-4.526 3.569l.001.007Zm2.969-5.99c-.196-1.755-1.235-2.757-2.874-2.757-1.772 0-2.591 1.443-2.775 2.757h5.649Z" fill="url(#j)"/>
    <path d="M140.174 22.763V15.45c.013-.73-.054-1.392-.094-2.061l-.012-.191h1.546l.037.891c.458-.687 1.205-1.135 2.005-1.166.112-.006.225-.008.339-.008.271 0 .543.013.807.026l.176.008.004.172v1.26c-2.635-.437-3.224 1.233-3.256 2.425l-.064 5.956" fill="url(#k)"/>
    <path d="M29.502 0H3.404A3.523 3.523 0 0 0 .988.99 3.236 3.236 0 0 0 0 3.321v25.356a3.237 3.237 0 0 0 .995 2.34A3.524 3.524 0 0 0 3.423 32h26.098a3.524 3.524 0 0 0 2.428-.983c.642-.622 1-1.464.995-2.339V3.322a3.186 3.186 0 0 0-.257-1.269 3.3 3.3 0 0 0-.745-1.077c-.32-.309-.7-.554-1.119-.721A3.577 3.577 0 0 0 29.502 0ZM16.459 29.231c-3.634-.027-7.108-1.435-9.66-3.916C4.25 22.834 2.83 19.483 2.855 16 2.829 12.517 4.249 9.166 6.8 6.685c2.551-2.48 6.025-3.89 9.66-3.916 3.635.024 7.112 1.432 9.665 3.913 2.553 2.481 3.974 5.833 3.95 9.318.024 3.485-1.397 6.837-3.95 9.318s-6.03 3.889-9.666 3.913Z" fill="url(#l)"/>
    <path d="m29.09 16-9.442-4.24.759 2.717h-7.89l.76-2.717-9.443 4.243 9.449 4.241-.759-2.717h7.889l-.759 2.717 9.436-4.24" fill="url(#m)"/>
  </g>
  <defs>
    <linearGradient id="b" x1="44.759" y1="22.765" x2="44.759" y2="9.144" gradientUnits="userSpaceOnUse">
      <stop stop-color="#096FD2"/>
      <stop offset="1" stop-color="#0E8EE9"/>
    </linearGradient>
    <linearGradient id="c" x1="53.989" y1="23.111" x2="54.056" y2="12.831" gradientUnits="userSpaceOnUse">
      <stop stop-color="#096FD2"/>
      <stop offset="1" stop-color="#0E8EE9"/>
    </linearGradient>
    <linearGradient id="d" x1="64.554" y1="22.975" x2="64.554" y2="12.862" gradientUnits="userSpaceOnUse">
      <stop stop-color="#096FD2"/>
      <stop offset="1" stop-color="#0E8EE9"/>
    </linearGradient>
    <linearGradient id="e" x1="78.163" y1="22.759" x2="78.163" y2="12.938" gradientUnits="userSpaceOnUse">
      <stop stop-color="#096FD2"/>
      <stop offset="1" stop-color="#0E8EE9"/>
    </linearGradient>
    <linearGradient id="f" x1="93.093" y1="22.754" x2="93.093" y2="9.164" gradientUnits="userSpaceOnUse">
      <stop stop-color="#096FD2"/>
      <stop offset="1" stop-color="#0E8EE9"/>
    </linearGradient>
    <linearGradient id="g" x1="100.863" y1="22.76" x2="100.863" y2="9.16" gradientUnits="userSpaceOnUse">
      <stop stop-color="#096FD2"/>
      <stop offset="1" stop-color="#0E8EE9"/>
    </linearGradient>
    <linearGradient id="h" x1="106.789" y1="23.043" x2="106.789" y2="12.922" gradientUnits="userSpaceOnUse">
      <stop stop-color="#096FD2"/>
      <stop offset="1" stop-color="#0E8EE9"/>
    </linearGradient>
    <linearGradient id="i" x1="117.216" y1="22.756" x2="117.216" y2="13.2" gradientUnits="userSpaceOnUse">
      <stop stop-color="#096FD2"/>
      <stop offset="1" stop-color="#0E8EE9"/>
    </linearGradient>
    <linearGradient id="j" x1="133.266" y1="23.042" x2="133.266" y2="12.925" gradientUnits="userSpaceOnUse">
      <stop stop-color="#096FD2"/>
      <stop offset="1" stop-color="#0E8EE9"/>
    </linearGradient>
    <linearGradient id="k" x1="140.978" y1="22.762" x2="140.978" y2="12.916" gradientUnits="userSpaceOnUse">
      <stop stop-color="#096FD2"/>
      <stop offset="1" stop-color="#0E8EE9"/>
    </linearGradient>
    <linearGradient id="l" x1="16.46" y1="32.091" x2="16.46" y2="-.01" gradientUnits="userSpaceOnUse">
      <stop stop-color="#096FD2"/>
      <stop offset="1" stop-color="#0E8EE9"/>
    </linearGradient>
    <linearGradient id="m" x1="13.286" y1="20.253" x2="13.283" y2="11.764" gradientUnits="userSpaceOnUse">
      <stop stop-color="#096FD2"/>
      <stop offset="1" stop-color="#0E8EE9"/>
    </linearGradient>
    <clipPath id="a">
      <path fill="#fff" d="M0 0h145v32H0z"/>
    </clipPath>
  </defs>
</svg>
