<svg width="80" height="80" viewBox="0 0 80 80" fill="none" xmlns="http://www.w3.org/2000/svg">
<rect width="64" height="64" rx="8" fill="#EBEEFF"/>
<g clip-path="url(#clip0_2227_70750)">
<path d="M47.8429 29.7574C47.2658 25.5545 45.0428 21.753 41.6628 19.1892C38.2829 16.6253 34.0228 15.5092 29.8199 16.0863C25.617 16.6633 21.8155 18.8864 19.2517 22.2664C16.6878 25.6463 15.5717 29.9063 16.1488 34.1093C16.6224 37.5875 18.2199 40.8157 20.6981 43.3019C23.1763 45.7882 26.3992 47.3962 29.8759 47.8812C30.5886 47.9738 31.3065 48.0201 32.0252 48.0198C34.9245 48.025 37.7696 47.234 40.2501 45.733C40.3773 45.6646 40.4892 45.5711 40.5792 45.4581C40.6691 45.3452 40.7351 45.2151 40.7733 45.0759C40.8115 44.9366 40.8209 44.7911 40.8012 44.6481C40.7814 44.505 40.7328 44.3675 40.6582 44.2439C40.5837 44.1202 40.4849 44.0129 40.3677 43.9286C40.2505 43.8443 40.1173 43.7847 39.9764 43.7534C39.8355 43.7221 39.6896 43.7197 39.5477 43.7464C39.4059 43.7731 39.2709 43.8284 39.151 43.9089C36.3407 45.5982 33.0227 46.237 29.7861 45.7119C26.5494 45.1868 23.6036 43.5318 21.4715 41.0406C19.3395 38.5495 18.1592 35.3834 18.1402 32.1045C18.1212 28.8256 19.2647 25.646 21.3677 23.1303C23.4708 20.6146 26.3972 18.9255 29.6276 18.3629C32.8579 17.8003 36.1831 18.4007 39.0128 20.0573C41.8424 21.714 43.9935 24.3198 45.0841 27.4121C46.1747 30.5043 46.1342 33.883 44.9698 36.9483C44.7797 37.4489 44.4201 37.8672 43.9537 38.1303C43.4873 38.3934 42.9434 38.4849 42.4166 38.3887C41.8897 38.2925 41.4132 38.0149 41.0699 37.6039C40.7265 37.1929 40.5379 36.6747 40.5369 36.1391V24.5655C40.5369 24.2828 40.4246 24.0116 40.2247 23.8117C40.0247 23.6117 39.7536 23.4994 39.4708 23.4994C39.1881 23.4994 38.9169 23.6117 38.717 23.8117C38.517 24.0116 38.4047 24.2828 38.4047 24.5655V26.4056C37.251 25.0927 35.7218 24.166 34.0241 23.7508C32.3263 23.3356 30.542 23.4521 28.9126 24.0844C27.2833 24.7167 25.8875 25.8343 24.9141 27.2859C23.9408 28.7376 23.437 30.4533 23.4709 32.2007C23.5047 33.9481 24.0746 35.643 25.1034 37.0559C26.1322 38.4688 27.5702 39.5315 29.2229 40.1002C30.8755 40.6689 32.663 40.7162 34.3434 40.2355C36.0238 39.7549 37.5159 38.7697 38.6179 37.4131C38.8824 38.2965 39.4172 39.0747 40.1472 39.6383C40.8771 40.2018 41.7653 40.5222 42.6869 40.5544C43.6085 40.5867 44.517 40.3291 45.2845 39.818C46.052 39.3069 46.64 38.568 46.9655 37.7052C47.9173 35.1708 48.2189 32.4384 47.8429 29.7574ZM32.0081 38.4248C30.743 38.4248 29.5062 38.0497 28.4543 37.3468C27.4024 36.6439 26.5825 35.6449 26.0984 34.4761C25.6143 33.3073 25.4876 32.0211 25.7344 30.7803C25.9812 29.5395 26.5904 28.3997 27.485 27.5051C28.3796 26.6105 29.5194 26.0013 30.7602 25.7545C32.001 25.5077 33.2872 25.6344 34.456 26.1185C35.6248 26.6027 36.6238 27.4225 37.3267 28.4745C38.0296 29.5264 38.4047 30.7631 38.4047 32.0282C38.403 33.7242 37.7286 35.3502 36.5293 36.5494C35.3301 37.7487 33.7041 38.4231 32.0081 38.4248Z" fill="#3358FF"/>
</g>
<circle cx="62" cy="62" r="17" fill="white" stroke="#3358FF" stroke-width="2"/>
<path d="M61.7343 56.346C62.6943 56.346 63.4623 56.436 64.0383 56.616C64.6143 56.784 65.0343 57.078 65.2983 57.498C65.5743 57.918 65.7123 58.494 65.7123 59.226C65.7123 59.778 65.6583 60.276 65.5503 60.72C65.4423 61.152 65.2503 61.512 64.9743 61.8C64.7103 62.076 64.3263 62.262 63.8223 62.358V62.43C64.6623 62.562 65.2383 62.892 65.5503 63.42C65.8623 63.948 66.0243 64.656 66.0363 65.544C66.0483 66.396 65.9223 67.098 65.6583 67.65C65.3943 68.19 64.9563 68.592 64.3443 68.856C63.7443 69.108 62.9283 69.234 61.8963 69.234C61.2123 69.234 60.5163 69.198 59.8083 69.126C59.1003 69.066 58.4163 68.994 57.7563 68.91L57.8643 67.218C58.3203 67.242 58.7343 67.266 59.1063 67.29C59.4903 67.314 59.8563 67.332 60.2043 67.344C60.5643 67.356 60.9303 67.362 61.3023 67.362C61.9263 67.362 62.4183 67.302 62.7783 67.182C63.1503 67.062 63.4143 66.846 63.5703 66.534C63.7383 66.222 63.8223 65.802 63.8223 65.274C63.8223 64.854 63.7623 64.5 63.6423 64.212C63.5343 63.912 63.3243 63.684 63.0123 63.528C62.7123 63.36 62.2623 63.282 61.6623 63.294H59.3403V61.728H61.6623C62.0943 61.728 62.4363 61.674 62.6883 61.566C62.9523 61.458 63.1443 61.32 63.2643 61.152C63.3963 60.972 63.4803 60.768 63.5163 60.54C63.5643 60.3 63.5883 60.054 63.5883 59.802C63.5763 59.346 63.5043 59.004 63.3723 58.776C63.2403 58.548 63.0123 58.398 62.6883 58.326C62.3763 58.242 61.9383 58.2 61.3743 58.2C60.7623 58.2 60.1743 58.212 59.6103 58.236C59.0463 58.248 58.5483 58.272 58.1163 58.308L57.9903 56.67C58.6383 56.562 59.2683 56.484 59.8803 56.436C60.5043 56.376 61.1223 56.346 61.7343 56.346Z" fill="#3358FF"/>
<defs>
<clipPath id="clip0_2227_70750">
<rect width="32" height="32" fill="white" transform="translate(16 16)"/>
</clipPath>
</defs>
</svg>
