<svg width="80" height="80" viewBox="0 0 80 80" fill="none" xmlns="http://www.w3.org/2000/svg">
<rect width="64" height="64" rx="8" fill="#EBEEFF"/>
<g clip-path="url(#clip0_2227_70732)">
<path d="M21.4525 42.9283H37.4882C38.1011 42.9283 38.5981 42.4312 38.5981 41.8183C38.5981 41.2055 38.1011 40.7084 37.4882 40.7084H21.4525C19.6728 40.7084 18.2252 39.2609 18.2252 37.4812V29.0252H44.7903V32.9013C44.7903 33.5142 45.2873 34.0112 45.9002 34.0112C46.5131 34.0112 47.0101 33.5142 47.0101 32.9013V25.9471C47.0101 22.9436 44.5665 20.5 41.5631 20.5H21.4525C18.449 20.5 16.0054 22.9437 16.0054 25.9471V27.8886C16.0052 27.8981 16 27.9059 16 27.9155C16 27.925 16.0051 27.9328 16.0054 27.9423V37.4814C16.0054 40.4847 18.449 42.9283 21.4525 42.9283ZM21.4525 22.7197H41.563C43.3427 22.7197 44.7902 24.1672 44.7902 25.947V26.8054H18.2252V25.947C18.2252 24.1672 19.6728 22.7197 21.4525 22.7197Z" fill="#3358FF"/>
<path d="M21.2437 36.6748C20.6308 36.6748 20.1338 37.1718 20.1338 37.7847C20.1338 38.3976 20.6308 38.8946 21.2437 38.8946H26.4334C27.0463 38.8946 27.5433 38.3976 27.5433 37.7847C27.5433 37.1718 27.0463 36.6748 26.4334 36.6748H21.2437Z" fill="#3358FF"/>
<path d="M46.1057 37.0772L42.4242 40.7587L40.8927 39.2276C40.4592 38.7941 39.7569 38.7941 39.3232 39.2276C38.8896 39.6611 38.8897 40.364 39.3232 40.7971L41.6395 43.1128C41.8563 43.3296 42.1403 43.438 42.4242 43.438C42.7081 43.438 42.9921 43.3296 43.2089 43.1128L47.675 38.6467C48.1086 38.2132 48.1086 37.5108 47.675 37.0772C47.2415 36.6435 46.5393 36.6435 46.1057 37.0772Z" fill="#3358FF"/>
</g>
<circle cx="62" cy="62" r="17" fill="white" stroke="#3358FF" stroke-width="2"/>
<path d="M61.8628 56.364C62.6908 56.364 63.4048 56.436 64.0048 56.58C64.6048 56.724 65.0668 57 65.3908 57.408C65.7268 57.804 65.8948 58.392 65.8948 59.172C65.8948 59.664 65.8348 60.12 65.7148 60.54C65.5948 60.96 65.3788 61.404 65.0668 61.872C64.7548 62.328 64.3228 62.85 63.7708 63.438L60.3868 67.074C60.6868 67.026 60.9988 66.996 61.3228 66.984C61.6588 66.972 61.9828 66.966 62.2948 66.966H66.2908V69H57.7228V67.74C57.7228 67.548 57.7468 67.38 57.7948 67.236C57.8428 67.08 57.9268 66.936 58.0468 66.804L61.3408 63.168C62.0968 62.364 62.6668 61.656 63.0508 61.044C63.4348 60.42 63.6208 59.862 63.6088 59.37C63.5968 59.046 63.5128 58.812 63.3568 58.668C63.2008 58.512 62.9788 58.41 62.6908 58.362C62.4028 58.314 62.0488 58.29 61.6288 58.29C61.2328 58.29 60.8548 58.296 60.4948 58.308C60.1348 58.32 59.7508 58.344 59.3428 58.38C58.9468 58.404 58.4788 58.446 57.9388 58.506L57.8308 56.814C58.4068 56.682 58.9228 56.586 59.3788 56.526C59.8348 56.466 60.2608 56.424 60.6568 56.4C61.0528 56.376 61.4548 56.364 61.8628 56.364Z" fill="#3358FF"/>
<defs>
<clipPath id="clip0_2227_70732">
<rect width="32" height="32" fill="white" transform="translate(16 16)"/>
</clipPath>
</defs>
</svg>
