<svg width="80" height="80" viewBox="0 0 80 80" fill="none" xmlns="http://www.w3.org/2000/svg">
<rect width="64" height="64" rx="8" fill="#EBEEFF"/>
<g clip-path="url(#clip0_2227_70767)">
<path d="M22.7835 37.6751L19.7484 40.7103C18.7723 41.6863 18.7723 43.2688 19.7484 44.2448C20.7244 45.2209 22.3069 45.2209 23.2829 44.2448L26.318 41.2097L28.0572 45.2367C28.1787 45.5183 28.3546 45.782 28.5847 46.0121C29.5607 46.9881 31.1432 46.9881 32.1192 46.0121C32.4512 45.6801 32.6703 45.278 32.7764 44.8533L36.311 30.7153C36.5169 29.8916 36.2979 28.9835 35.6538 28.3395C35.0097 27.6954 34.1017 27.4763 33.278 27.6823L19.1398 31.2168C18.7152 31.323 18.3131 31.542 17.981 31.874C17.005 32.85 17.005 34.4325 17.981 35.4085C18.2111 35.6386 18.4749 35.8144 18.7564 35.9361L22.7835 37.6751Z" stroke="#3358FF" stroke-width="1.87446" stroke-miterlimit="10" stroke-linecap="round" stroke-linejoin="round"/>
<path d="M41.752 29.0928H46.7505" stroke="#3358FF" stroke-width="1.87446" stroke-miterlimit="10" stroke-linecap="round" stroke-linejoin="round"/>
<path d="M39.5557 34.3955L43.0902 37.9301" stroke="#3358FF" stroke-width="1.87446" stroke-miterlimit="10" stroke-linecap="round" stroke-linejoin="round"/>
<path d="M25.9902 20.9131L29.5248 24.4476" stroke="#3358FF" stroke-width="1.87446" stroke-miterlimit="10" stroke-linecap="round" stroke-linejoin="round"/>
<path d="M34.8262 17.2529V22.2515" stroke="#3358FF" stroke-width="1.87446" stroke-miterlimit="10" stroke-linecap="round" stroke-linejoin="round"/>
<path d="M43.6625 20.9131L40.1279 24.4476" stroke="#3358FF" stroke-width="1.87446" stroke-miterlimit="10" stroke-linecap="round" stroke-linejoin="round"/>
</g>
<circle cx="62" cy="62" r="17" fill="white" stroke="#3358FF" stroke-width="2"/>
<path d="M62.5586 56.58L59.3546 63.816C59.2706 64.02 59.2706 64.182 59.3546 64.302C59.4506 64.41 59.5886 64.464 59.7686 64.464H67.0046V65.886L65.4206 66.102H58.2566C57.9206 66.102 57.6326 66.012 57.3926 65.832C57.1646 65.64 57.0146 65.4 56.9426 65.112C56.8706 64.812 56.9006 64.512 57.0326 64.212L60.3986 56.58H62.5586ZM65.4386 58.974V69H63.3506V60.99L63.7286 58.974H65.4386Z" fill="#3358FF"/>
<defs>
<clipPath id="clip0_2227_70767">
<rect width="32" height="32" fill="white" transform="translate(16 16)"/>
</clipPath>
</defs>
</svg>
