<svg width="70" height="26" viewBox="0 0 70 26" fill="none" xmlns="http://www.w3.org/2000/svg">
<g clip-path="url(#clip0_2223_52615)">
<path fill-rule="evenodd" clip-rule="evenodd" d="M49.6954 0.744719L49.2821 3.22069C48.4554 2.80803 47.8767 2.64296 47.2154 2.64296C45.4794 2.64296 44.3221 4.37614 44.3221 6.85212C44.3221 8.5853 45.1488 9.57568 46.4714 9.57568C47.0501 9.57568 47.6287 9.41062 48.4554 8.99796L48.0421 11.5565C47.2154 11.8041 46.6368 11.8866 45.9754 11.8866C43.4955 11.8866 41.9248 9.98835 41.9248 7.01718C41.9248 2.97309 44.0741 0.166992 47.1327 0.166992C47.5461 0.166992 47.8767 0.166992 48.2074 0.249525L49.1167 0.497122C49.4474 0.662186 49.5301 0.662186 49.6954 0.744719Z" fill="#E30016"/>
<path fill-rule="evenodd" clip-rule="evenodd" d="M42.0897 2.39551C42.0071 2.39551 41.9244 2.39551 41.8417 2.39551C41.0977 2.39551 40.6844 2.80817 39.9404 3.88109L40.1058 2.47804H38.0391L36.6338 11.6391H38.9484C39.7751 6.02693 40.0231 5.11908 41.0977 5.11908C41.1804 5.11908 41.1804 5.11908 41.2631 5.11908C41.5111 3.96362 41.7591 3.1383 42.0897 2.39551Z" fill="#E30016"/>
<path fill-rule="evenodd" clip-rule="evenodd" d="M28.2854 11.4738C27.6241 11.6388 27.1281 11.8039 26.6321 11.8039C25.4748 11.8039 24.8135 11.0611 24.8135 9.82313C24.8135 9.57553 24.8135 9.32793 24.8961 8.9978L25.0615 8.08995L25.1441 7.34716L26.1361 1.15723H28.4508L28.2028 2.47774H29.3601L29.0294 4.70612H27.8721L27.2935 8.50261C27.2935 8.66767 27.2935 8.83274 27.2935 8.91527C27.2935 9.41047 27.5414 9.57553 28.0374 9.57553C28.2854 9.57553 28.5334 9.57553 28.6988 9.493L28.2854 11.4738Z" fill="#E30016"/>
<path fill-rule="evenodd" clip-rule="evenodd" d="M19.1925 5.3667C19.1925 6.52215 19.6885 7.34748 20.9285 7.9252C21.8378 8.4204 22.0032 8.50293 22.0032 8.91559C22.0032 9.49332 21.5898 9.74092 20.6805 9.74092C20.0192 9.74092 19.3579 9.65838 18.6139 9.41079L18.2832 11.4741L18.7792 11.5566C18.9445 11.5566 19.1099 11.6392 19.3579 11.6392C19.9365 11.7217 20.3498 11.7217 20.5978 11.7217C22.9952 11.7217 24.1525 10.7313 24.1525 8.668C24.1525 7.43001 23.6565 6.68722 22.4992 6.10949C21.5072 5.6143 21.4245 5.53176 21.4245 5.1191C21.4245 4.62391 21.8378 4.37631 22.5818 4.37631C23.0778 4.37631 23.6565 4.45884 24.2351 4.54138L24.5658 2.39553C23.9871 2.313 23.0778 2.23047 22.4992 2.23047C20.1019 2.313 19.1925 3.71605 19.1925 5.3667Z" fill="#E30016"/>
<path fill-rule="evenodd" clip-rule="evenodd" d="M68.0474 11.6399H65.8981L65.9808 10.7321C65.4021 11.3923 64.7408 11.7225 63.9142 11.7225C62.2608 11.7225 61.1035 10.2369 61.1035 7.92599C61.1035 4.87229 62.8395 2.31378 64.8235 2.31378C65.7328 2.31378 66.3941 2.72645 67.0555 3.55177L67.5515 0.333008H69.7834L68.0474 11.6399ZM64.6581 9.4941C65.7328 9.4941 66.4768 8.25612 66.4768 6.4404C66.4768 5.28495 66.0635 4.62469 65.2368 4.62469C64.1622 4.62469 63.4182 5.86268 63.4182 7.67839C63.5008 8.83384 63.9142 9.4941 64.6581 9.4941Z" fill="#E30016"/>
<path fill-rule="evenodd" clip-rule="evenodd" d="M35.5599 11.3916C34.7333 11.6392 33.9893 11.8042 33.1626 11.7217C30.6 11.7217 29.2773 10.3186 29.2773 7.67761C29.2773 4.54138 31.0133 2.23047 33.328 2.23047C35.2293 2.23047 36.4693 3.55099 36.4693 5.53176C36.4693 6.19202 36.3866 6.85228 36.2213 7.76014H31.6747C31.6747 7.9252 31.6747 7.9252 31.6747 8.00774C31.6747 9.08066 32.336 9.57585 33.6586 9.57585C34.4853 9.57585 35.2293 9.41079 36.0559 8.99812L35.5599 11.3916ZM34.32 6.02696C34.32 5.86189 34.32 5.69683 34.32 5.53176C34.32 4.78897 33.9066 4.37631 33.2453 4.37631C32.5013 4.37631 32.0053 4.95404 31.7573 6.02696H34.32Z" fill="#E30016"/>
<path fill-rule="evenodd" clip-rule="evenodd" d="M9.93337 11.6394H7.61873L8.94139 3.05608L6.04808 11.6394H4.47743L4.22943 3.05608L2.90678 11.6394H0.674805L2.49345 0.415039H5.80008L5.88275 7.34776L8.11473 0.415039H11.6694L9.93337 11.6394Z" fill="#E30016"/>
<path fill-rule="evenodd" clip-rule="evenodd" d="M15.8861 7.59555C15.6381 7.59555 15.5555 7.59555 15.3901 7.59555C14.0675 7.59555 13.4061 8.09074 13.4061 8.9986C13.4061 9.57633 13.7368 9.90646 14.2328 9.90646C15.1421 9.82393 15.8035 8.91607 15.8861 7.59555ZM17.5394 11.6396H15.6381L15.7208 10.7318C15.1421 11.4746 14.3981 11.8047 13.3235 11.8047C12.0835 11.8047 11.2568 10.8143 11.2568 9.32873C11.2568 7.10036 12.7448 5.77984 15.3075 5.77984C15.5555 5.77984 15.8861 5.77984 16.2168 5.86237C16.2994 5.53224 16.2994 5.44971 16.2994 5.28464C16.2994 4.70692 15.8861 4.45932 14.8115 4.45932C14.1501 4.45932 13.4061 4.54185 12.9102 4.70692L12.5795 4.78945L12.3315 4.87198L12.6622 2.80867C13.8195 2.47854 14.5635 2.31348 15.3901 2.31348C17.3741 2.31348 18.4488 3.22133 18.4488 4.95451C18.4488 5.36718 18.4488 5.77984 18.2834 6.77023L17.7874 9.98899L17.7048 10.5667L17.6221 11.0619V11.392L17.5394 11.6396Z" fill="#E30016"/>
<path fill-rule="evenodd" clip-rule="evenodd" d="M53.6635 7.59555C53.4155 7.59555 53.3328 7.59555 53.1675 7.59555C51.8448 7.59555 51.1835 8.09074 51.1835 8.9986C51.1835 9.57633 51.5142 9.90646 52.0101 9.90646C53.0021 9.82393 53.6635 8.91607 53.6635 7.59555ZM55.3994 11.6396H53.4981L53.5808 10.7318C53.0021 11.4746 52.2581 11.8047 51.1835 11.8047C49.9435 11.8047 49.0342 10.8143 49.0342 9.32873C49.0342 7.10036 50.5222 5.77984 53.0848 5.77984C53.3328 5.77984 53.6635 5.77984 53.9941 5.86237C54.0768 5.53224 54.0768 5.44971 54.0768 5.28464C54.0768 4.70692 53.6635 4.45932 52.5888 4.45932C51.9275 4.45932 51.1835 4.54185 50.6875 4.70692L50.3568 4.78945L50.1088 4.87198L50.4395 2.80867C51.5968 2.47854 52.3408 2.31348 53.1675 2.31348C55.1514 2.31348 56.2261 3.22133 56.2261 4.95451C56.2261 5.36718 56.2261 5.77984 56.0608 6.77023L55.5648 9.98899L55.4821 10.5667L55.3994 11.0619V11.392V11.6396Z" fill="#E30016"/>
<path fill-rule="evenodd" clip-rule="evenodd" d="M61.8469 2.39551C61.7642 2.39551 61.6816 2.39551 61.5989 2.39551C60.8549 2.39551 60.4416 2.80817 59.6976 3.88109L59.9456 2.47804H57.8789L56.4736 11.6391H58.7883C59.6149 6.02693 59.8629 5.11908 60.9376 5.11908C61.0203 5.11908 61.0203 5.11908 61.1029 5.11908C61.1856 3.96362 61.5162 3.1383 61.8469 2.39551Z" fill="#E30016"/>
<path fill-rule="evenodd" clip-rule="evenodd" d="M52.1751 20.4708C52.1751 22.5342 51.5138 23.7721 50.5218 23.7721C49.7778 23.7721 49.3644 22.9468 49.3644 21.7088C49.3644 20.2232 50.0258 18.5726 51.1004 18.5726C51.8444 18.6551 52.1751 19.563 52.1751 20.4708ZM54.4071 20.4708C54.4071 18.1599 53.2497 16.4268 51.1004 16.4268C48.6205 16.4268 47.0498 18.5726 47.0498 21.7914C47.0498 24.1023 47.9591 26.0005 50.3564 26.0005C52.6711 26.0005 54.4071 24.3499 54.4071 20.4708Z" fill="#F49200"/>
<path fill-rule="evenodd" clip-rule="evenodd" d="M47.7948 14.776L47.4641 17.2519C46.7201 16.8393 46.1415 16.6742 45.5628 16.6742C43.9922 16.6742 42.8349 18.4074 42.8349 20.8834C42.8349 22.6165 43.5788 23.6069 44.8188 23.6069C45.3975 23.6069 45.9762 23.4419 46.6375 23.0292L46.3068 25.5877C45.4802 25.8353 44.9842 25.9178 44.4055 25.9178C42.0909 25.9178 40.6855 24.0196 40.6855 21.0484C40.6855 17.0043 42.6695 14.1982 45.5628 14.1982C45.8935 14.1982 46.2242 14.2808 46.5548 14.2808L47.4641 14.5284C47.5468 14.6934 47.5468 14.6934 47.7948 14.776Z" fill="#F49200"/>
<path fill-rule="evenodd" clip-rule="evenodd" d="M33.4934 16.5088C33.4108 16.5088 33.3281 16.5088 33.2454 16.5088C32.5841 16.5088 32.1708 16.9215 31.5095 17.9944L31.6748 16.5913H29.6908L28.3682 25.7524H30.5175C31.2615 20.1402 31.5095 19.2324 32.5015 19.2324C32.5841 19.2324 32.5841 19.2324 32.6668 19.2324C32.9974 18.0769 33.2454 17.2516 33.4934 16.5088Z" fill="#F49200"/>
<path fill-rule="evenodd" clip-rule="evenodd" d="M61.5999 25.5872H59.5333L59.616 24.6794C59.0373 25.4221 58.4586 25.6697 57.632 25.6697C56.0613 25.6697 55.0693 24.1842 55.0693 21.8733C55.0693 18.8196 56.64 16.2611 58.5413 16.2611C59.368 16.2611 60.0293 16.6737 60.6079 17.499L61.1039 14.2803H63.2532L61.5999 25.5872ZM58.4586 23.4414C59.4506 23.4414 60.1946 22.2034 60.1946 20.3877C60.1946 19.2322 59.7813 18.572 59.0373 18.572C58.0453 18.572 57.384 19.8099 57.384 21.6257C57.3013 22.8636 57.7146 23.4414 58.4586 23.4414Z" fill="#F49200"/>
<path fill-rule="evenodd" clip-rule="evenodd" d="M13.3224 25.5879C12.5784 25.8354 11.9171 25.918 11.0904 25.918C8.69311 25.918 7.45312 24.5149 7.45312 21.8739C7.45312 18.7377 9.02378 16.4268 11.1731 16.4268C12.9091 16.4268 14.0664 17.7473 14.0664 19.7281C14.0664 20.3883 13.9837 21.0486 13.8184 21.9564H9.51977C9.51977 22.1215 9.51977 22.1215 9.51977 22.204C9.51977 23.2769 10.1811 23.7721 11.4211 23.7721C12.1651 23.7721 12.9091 23.6071 13.6531 23.1944L13.3224 25.5879ZM12.1651 20.1407C12.1651 19.9757 12.1651 19.8106 12.1651 19.6455C12.1651 18.9027 11.7517 18.4901 11.1731 18.4901C10.5118 18.4901 10.0158 19.0678 9.76777 20.1407H12.1651Z" fill="#F49200"/>
<path fill-rule="evenodd" clip-rule="evenodd" d="M38.9493 25.5879C38.2054 25.8354 37.4614 25.918 36.7174 25.918C34.3201 25.918 33.0801 24.5149 33.0801 21.8739C33.0801 18.7377 34.6507 16.4268 36.8 16.4268C38.536 16.4268 39.6933 17.7473 39.6933 19.7281C39.6933 20.3883 39.6107 21.0486 39.4453 21.9564H35.1467C35.1467 22.1215 35.1467 22.1215 35.1467 22.204C35.1467 23.2769 35.808 23.7721 37.048 23.7721C37.792 23.7721 38.536 23.6071 39.28 23.1944L38.9493 25.5879ZM37.7094 20.1407C37.7094 19.9757 37.7094 19.8106 37.7094 19.6455C37.7094 18.9027 37.296 18.4901 36.7174 18.4901C36.056 18.4901 35.5601 19.0678 35.3121 20.1407H37.7094Z" fill="#F49200"/>
<path fill-rule="evenodd" clip-rule="evenodd" d="M68.9572 25.5879C68.2132 25.8354 67.4692 25.918 66.7252 25.918C64.3279 25.918 63.0879 24.5149 63.0879 21.8739C63.0879 18.7377 64.6585 16.4268 66.8079 16.4268C68.5438 16.4268 69.7012 17.7473 69.7012 19.7281C69.7012 20.3883 69.6185 21.0486 69.4532 21.9564H65.1545C65.1545 22.1215 65.1545 22.1215 65.1545 22.204C65.1545 23.2769 65.8159 23.7721 67.0559 23.7721C67.7998 23.7721 68.5438 23.6071 69.2878 23.1944L68.9572 25.5879ZM67.7172 20.1407C67.7172 19.9757 67.7172 19.8106 67.7172 19.6455C67.7172 18.9027 67.3038 18.4901 66.7252 18.4901C66.0639 18.4901 65.5679 19.0678 65.3199 20.1407H67.7172Z" fill="#F49200"/>
<path fill-rule="evenodd" clip-rule="evenodd" d="M6.95731 16.9218C6.54398 16.6742 5.96532 16.4266 5.13866 16.4266C4.22934 16.4266 3.56801 16.5917 3.56801 17.4995C3.56801 19.1502 6.70931 18.4899 6.70931 21.9563C6.70931 25.0925 4.64266 25.9178 2.74135 25.9178C1.91469 25.9178 0.922703 25.6702 0.178711 25.3401L0.674706 23.0292C1.08803 23.4419 1.99736 23.6895 2.65868 23.6895C3.32001 23.6895 4.39467 23.5244 4.39467 22.3689C4.39467 20.5532 1.25337 21.2135 1.25337 17.9947C1.25337 15.0236 3.07201 14.1982 4.89066 14.1982C5.88265 14.1982 6.87464 14.3633 7.37064 14.6934L6.95731 16.9218Z" fill="#F49200"/>
<path fill-rule="evenodd" clip-rule="evenodd" d="M19.6055 25.5879C19.1921 25.7529 18.5308 25.918 17.7041 25.918C15.8028 25.918 14.6455 24.0197 14.6455 21.7914C14.6455 18.8202 16.2988 16.4268 18.7788 16.4268C19.3575 16.4268 20.1841 16.6744 20.8454 17.0045L20.3494 19.1503C19.8535 18.8202 19.4401 18.6551 18.9441 18.6551C17.7868 18.6551 16.9602 19.7281 16.9602 21.5438C16.9602 22.6167 17.5388 23.5245 18.5308 23.5245C19.1095 23.5245 19.5228 23.3595 19.9361 23.1119L19.6055 25.5879Z" fill="#F49200"/>
<path fill-rule="evenodd" clip-rule="evenodd" d="M27.707 23.2759C27.6243 24.0187 27.459 24.8441 27.459 25.6694H25.3924L25.5577 24.1838C24.8964 25.1742 24.2351 25.8344 23.0777 25.8344C21.7551 25.8344 21.0938 24.5139 21.0938 22.6982C21.0938 22.1205 21.0937 21.7904 21.2591 20.8L21.8377 16.5908H24.1524L23.4084 20.8C23.3257 21.2952 23.2431 21.7078 23.2431 22.203C23.2431 22.6982 23.4911 23.2759 24.0697 23.2759C24.979 23.2759 25.5577 22.1205 25.723 20.8L26.3844 16.6734H28.6163L27.707 23.2759Z" fill="#F49200"/>
</g>
<defs>
<clipPath id="clip0_2223_52615">
<rect width="69.6046" height="25.8326" fill="white" transform="translate(0.261719 0.166992)"/>
</clipPath>
</defs>
</svg>
