<svg width="148" height="27" viewBox="0 0 148 27" fill="none" xmlns="http://www.w3.org/2000/svg">
<g clip-path="url(#clip0_2223_52608)">
<path fill-rule="evenodd" clip-rule="evenodd" d="M-1055.85 -562.196H44632.4V1350.71H-1055.85V-562.196Z" stroke="#979797" stroke-width="0.717573"/>
<path fill-rule="evenodd" clip-rule="evenodd" d="M15.21 23.6696H26.4852V3.38965H15.21V23.6696Z" fill="#FF5F00"/>
<path fill-rule="evenodd" clip-rule="evenodd" d="M15.9258 13.5294C15.9258 9.41559 17.8504 5.75059 20.8473 3.38948C18.5788 1.59909 15.7731 0.62744 12.8844 0.631851C5.76797 0.631851 0 6.40674 0 13.5294C0 20.6528 5.76797 26.427 12.8844 26.427C15.8903 26.427 18.6556 25.397 20.8473 23.6694C17.8504 21.3076 15.9258 17.6433 15.9258 13.5294Z" fill="#EB001B"/>
<path fill-rule="evenodd" clip-rule="evenodd" d="M41.6949 13.5294C41.6949 20.6528 35.9263 26.427 28.8105 26.427C25.9218 26.4315 23.116 25.4599 20.8477 23.6694C23.8445 21.3083 25.7691 17.6439 25.7691 13.5294C25.7691 9.4156 23.8445 5.75123 20.8477 3.38949C23.116 1.599 25.9218 0.62734 28.8105 0.631852C35.9263 0.631852 41.6949 6.40609 41.6949 13.5294Z" fill="#F79E1B"/>
<path fill-rule="evenodd" clip-rule="evenodd" d="M56.0393 24.2687H55.0792L56.2948 22.1478L54.5366 18.9885H55.5089L56.7838 21.2721L58.0129 18.9885H58.9646L56.0393 24.2687ZM52.4133 19.7028C52.1709 19.6965 51.9328 19.7675 51.7333 19.9055C51.5339 20.0436 51.3834 20.2415 51.3036 20.4707C51.2455 20.6257 51.2172 20.7949 51.2172 20.9776C51.2172 21.1597 51.2462 21.3283 51.3036 21.4839C51.3617 21.6389 51.443 21.7733 51.5488 21.8869C51.6533 22.0006 51.7785 22.0891 51.9249 22.1537C52.0714 22.2195 52.2346 22.2518 52.4133 22.2518C52.5979 22.2518 52.765 22.2176 52.914 22.1504C53.063 22.082 53.1888 21.9909 53.2908 21.8759C53.3927 21.761 53.4708 21.6267 53.5263 21.471C53.5823 21.3126 53.6105 21.1457 53.6095 20.9776C53.6095 20.8032 53.5818 20.6386 53.5256 20.4836C53.4743 20.3346 53.3945 20.1971 53.2908 20.0786C53.1858 19.9619 53.0574 19.8686 52.914 19.8048C52.7564 19.7352 52.5856 19.7004 52.4133 19.7028ZM52.5166 18.8852C52.7785 18.8835 53.0382 18.9348 53.2799 19.036C53.5216 19.1372 53.7403 19.2862 53.9231 19.4742C54.1037 19.6595 54.2437 19.881 54.3457 20.1368C54.4483 20.3932 54.4992 20.6728 54.4992 20.9776C54.4992 21.2818 54.4476 21.5614 54.3457 21.8178C54.2502 22.0644 54.1067 22.2897 53.9237 22.4804C53.741 22.6685 53.5223 22.8176 53.2806 22.919C53.0389 23.0203 52.7792 23.0717 52.5172 23.0701C52.2327 23.0701 51.9888 23.0171 51.7856 22.9118C51.5871 22.8105 51.4128 22.6675 51.2746 22.4927V22.9661H50.41V17.3862H51.2746V19.4619C51.4126 19.2875 51.5836 19.148 51.7856 19.0428C51.9888 18.9375 52.2327 18.8852 52.5166 18.8852ZM69.1991 20.9757C69.1991 20.2756 69.6559 19.7015 70.4024 19.7015C71.1173 19.7015 71.598 20.2511 71.598 20.9757C71.598 21.7003 71.1173 22.2499 70.4024 22.2499C69.6559 22.2499 69.1991 21.6751 69.1991 20.9757ZM72.4122 20.9757V18.9866H71.5489V19.469C71.2747 19.1112 70.8599 18.8865 70.2947 18.8865C69.1824 18.8865 68.3107 19.7609 68.3107 20.9763C68.3107 22.1924 69.1824 23.0662 70.2947 23.0662C70.8599 23.0662 71.2747 22.8414 71.5489 22.4837V22.9667H72.4122V20.9757ZM101.568 20.9757C101.568 20.2756 102.025 19.7015 102.772 19.7015C103.486 19.7015 103.968 20.2511 103.968 20.9757C103.968 21.7003 103.486 22.2499 102.772 22.2499C102.025 22.2499 101.568 21.6751 101.568 20.9757ZM104.781 20.9757V17.3869H103.918V19.4683C103.644 19.1106 103.229 18.8858 102.664 18.8858C101.552 18.8858 100.68 19.7603 100.68 20.9757C100.68 22.1918 101.551 23.0655 102.664 23.0655C103.229 23.0655 103.644 22.8408 103.918 22.483V22.9661H104.781L104.781 20.9757ZM83.1216 19.6602C83.6778 19.6602 84.0346 20.0095 84.1262 20.6263H82.0667C82.1584 20.0515 82.5068 19.6602 83.1216 19.6602ZM83.1378 18.8858C81.9758 18.8858 81.1622 19.7351 81.1622 20.9757C81.1622 22.2415 82.0093 23.0655 83.1965 23.0655C83.7939 23.0655 84.3417 22.9164 84.8236 22.5082L84.4004 21.8669C84.0726 22.1308 83.6661 22.2774 83.2455 22.2835C82.69 22.2835 82.1829 22.0251 82.0584 21.3083H85.0056C85.014 21.2004 85.0223 21.0926 85.0223 20.9757C85.014 19.7357 84.2501 18.8858 83.1384 18.8858H83.1378ZM93.5569 20.9757C93.5569 20.2756 94.0137 19.7015 94.7608 19.7015C95.4744 19.7015 95.9557 20.2511 95.9557 20.9757C95.9557 21.7003 95.4744 22.2499 94.7608 22.2499C94.0137 22.2499 93.5569 21.6751 93.5569 20.9757ZM96.7699 20.9757V18.9866H95.9066V19.469C95.6331 19.1112 95.2176 18.8865 94.653 18.8865C93.5401 18.8865 92.6684 19.7609 92.6684 20.9763C92.6684 22.1924 93.5401 23.0662 94.653 23.0662C95.2176 23.0662 95.6331 22.8414 95.9066 22.4837V22.9667H96.7699V20.9757ZM88.6838 20.9757C88.6838 22.1834 89.5225 23.0655 90.8 23.0655C91.3987 23.0655 91.7968 22.9325 92.2284 22.5915L91.8136 21.8914C91.4903 22.1252 91.149 22.2499 90.7755 22.2499C90.0871 22.2408 89.5806 21.7416 89.5806 20.9757C89.5806 20.2097 90.0871 19.7099 90.7755 19.7015C91.149 19.7015 91.4903 19.8261 91.8142 20.0599L92.2284 19.3605C91.7962 19.0189 91.3987 18.8858 90.8006 18.8858C89.5232 18.8858 88.6838 19.7687 88.6838 20.9757ZM99.8087 18.8858C99.31 18.8858 98.9861 19.1183 98.7622 19.4683V18.9859H97.9067V22.9661H98.7706V20.7348C98.7706 20.0761 99.0532 19.7099 99.6171 19.7099C99.792 19.7099 99.9739 19.7357 100.157 19.81L100.422 18.9943C100.225 18.9234 100.018 18.8867 99.8087 18.8858ZM76.6788 19.3024C76.2639 19.0273 75.6917 18.8858 75.06 18.8858C74.0561 18.8858 73.4083 19.3682 73.4083 20.16C73.4083 20.8091 73.8897 21.2088 74.7774 21.3335L75.1845 21.3922C75.6575 21.4588 75.8826 21.5834 75.8826 21.8088C75.8826 22.1162 75.5665 22.2912 74.9774 22.2912C74.38 22.2912 73.9477 22.1 73.6574 21.8747L73.2503 22.5495C73.7238 22.8996 74.3213 23.0662 74.9691 23.0662C76.1149 23.0662 76.7788 22.5243 76.7788 21.7668C76.7788 21.0674 76.2562 20.7012 75.3923 20.5759L74.9858 20.5178C74.6116 20.4674 74.3129 20.3932 74.3129 20.1264C74.3129 19.8345 74.5955 19.6602 75.0684 19.6602C75.5755 19.6602 76.0646 19.852 76.3052 20.0018L76.6788 19.3024ZM87.8121 18.8858C87.3134 18.8858 86.9902 19.1183 86.7656 19.4683V18.9859H85.9108V22.9661H86.774V20.7348C86.774 20.0761 87.0566 19.7099 87.6212 19.7099C87.7954 19.7099 87.9779 19.7357 88.1605 19.81L88.427 18.9943C88.2297 18.9234 88.0218 18.8867 87.8121 18.8858ZM80.448 18.9859H79.0376V17.7782H78.166V18.9859H77.3595V19.7764H78.166V21.5924C78.166 22.516 78.5227 23.0655 79.5434 23.0655C79.9176 23.0655 80.348 22.9493 80.6228 22.7575L80.3738 22.0167C80.1157 22.1666 79.8344 22.2408 79.6099 22.2408C79.1782 22.2408 79.0376 21.9748 79.0376 21.575V19.7764H80.448V18.9859ZM67.5468 22.9661V20.4674C67.5468 19.5271 66.9494 18.8942 65.9868 18.8858C65.4796 18.8774 64.9564 19.0357 64.5919 19.593C64.3183 19.1519 63.886 18.8858 63.2802 18.8858C62.8563 18.8858 62.4415 19.0105 62.1176 19.4767V18.9859H61.255V22.9661H62.126V20.7593C62.126 20.0683 62.5079 19.7015 63.097 19.7015C63.6705 19.7015 63.9602 20.0761 63.9602 20.7509V22.9661H64.8319V20.7593C64.8319 20.0683 65.2313 19.7015 65.8035 19.7015C66.3932 19.7015 66.6752 20.0761 66.6752 20.7509V22.9661H67.5468ZM146.642 6.83748C145.756 6.25108 144.534 5.94884 143.188 5.94884C141.045 5.94884 139.663 6.97956 139.663 8.66772C139.663 10.0536 140.69 10.9061 142.585 11.1735L143.454 11.2975C144.463 11.4396 144.941 11.7063 144.941 12.1861C144.941 12.8429 144.269 13.2168 143.011 13.2168C141.735 13.2168 140.814 12.8074 140.194 12.3282L139.326 13.7671C140.335 14.5136 141.612 14.8688 142.993 14.8688C145.438 14.8688 146.855 13.7141 146.855 12.097C146.855 10.6039 145.739 9.82309 143.897 9.55636L143.028 9.43172C142.231 9.32516 141.594 9.165 141.594 8.59668C141.594 7.97412 142.196 7.60148 143.206 7.60148C144.287 7.60148 145.331 8.01028 145.845 8.32996L146.642 6.83813V6.83748ZM137.802 6.83748C136.917 6.25108 135.695 5.94884 134.348 5.94884C132.204 5.94884 130.823 6.97956 130.823 8.66772C130.823 10.0536 131.85 10.9061 133.746 11.1735L134.614 11.2975C135.624 11.4396 136.102 11.7063 136.102 12.1861C136.102 12.8429 135.429 13.2168 134.171 13.2168C132.895 13.2168 131.974 12.8074 131.354 12.3282L130.486 13.7671C131.496 14.5136 132.771 14.8688 134.153 14.8688C136.598 14.8688 138.015 13.7141 138.015 12.097C138.015 10.6039 136.899 9.82309 135.057 9.55636L134.189 9.43172C133.391 9.32516 132.753 9.165 132.753 8.59668C132.753 7.97412 133.356 7.60148 134.366 7.60148C135.446 7.60148 136.491 8.01028 137.005 8.32996L137.802 6.83813V6.83748ZM116.704 10.3733C116.704 11.8664 115.729 13.0922 114.135 13.0922C112.611 13.0922 111.583 11.9188 111.583 10.3733C111.583 8.82724 112.611 7.65444 114.135 7.65444C115.729 7.65444 116.704 8.88149 116.704 10.3733ZM109.848 10.3733V17.6943H111.69V13.5895C112.274 14.3535 113.161 14.8333 114.365 14.8333C116.739 14.8333 118.599 12.9676 118.599 10.3733C118.599 7.77908 116.739 5.91332 114.365 5.91332C113.161 5.91332 112.275 6.39316 111.69 7.15716V6.12644H109.848V10.3733ZM121.841 10.3914C121.841 8.89828 122.815 7.67252 124.409 7.67252C125.934 7.67252 126.961 8.84532 126.961 10.3914C126.961 11.9368 125.934 13.1103 124.41 13.1103C122.815 13.1103 121.841 11.8832 121.841 10.3914ZM128.697 10.3914V6.14452H126.854V7.17524C126.27 6.41124 125.384 5.93075 124.179 5.93075C121.806 5.93075 119.946 7.79716 119.946 10.3914C119.946 12.9856 121.806 14.8508 124.179 14.8508C125.384 14.8508 126.27 14.3716 126.854 13.6076V14.6383H128.697V10.3908V10.3914ZM67.2778 10.3914C67.2778 8.89828 68.252 7.67252 69.8463 7.67252C71.3702 7.67252 72.3973 8.84532 72.3973 10.3914C72.3973 11.9368 71.3702 13.1103 69.8463 13.1103C68.2527 13.1103 67.2778 11.8832 67.2778 10.3914ZM74.1342 10.3914V6.14452H72.2915V7.17524C71.707 6.41124 70.8205 5.93075 69.6166 5.93075C67.2423 5.93075 65.3822 7.79716 65.3822 10.3914C65.3822 12.9856 67.2429 14.8508 69.6166 14.8508C70.8211 14.8508 71.707 14.3716 72.2915 13.6076V14.6383H74.1342V10.3908V10.3914ZM96.9867 7.58404C98.1732 7.58404 98.9351 8.32996 99.13 9.6442H94.7363C94.9311 8.41844 95.6757 7.58404 96.9867 7.58404ZM97.0215 5.93075C94.5414 5.93075 92.8052 7.74356 92.8052 10.3914C92.8052 13.0916 94.6124 14.8508 97.146 14.8508C98.4209 14.8508 99.59 14.5317 100.618 13.6612L99.7145 12.292C99.0055 12.8604 98.1022 13.1807 97.2519 13.1807C96.0647 13.1807 94.9847 12.6304 94.7189 11.1012H101.007C101.026 10.8712 101.043 10.64 101.043 10.3908C101.026 7.74291 99.3952 5.93075 97.0215 5.93075ZM83.2391 6.8194C82.3532 6.233 81.1306 5.93075 79.7847 5.93075C77.6408 5.93075 76.2594 6.96148 76.2594 8.64964C76.2594 10.0356 77.2872 10.8887 79.1828 11.1554L80.0505 11.28C81.0603 11.4221 81.5383 11.6882 81.5383 12.168C81.5383 12.8255 80.8654 13.1988 79.6079 13.1988C78.3318 13.1988 77.4111 12.79 76.7911 12.3101L75.9233 13.7496C76.9324 14.4962 78.2085 14.8508 79.5899 14.8508C82.0351 14.8508 83.452 13.696 83.452 12.0789C83.452 10.5871 82.3358 9.805 80.4938 9.53893L79.6247 9.41364C78.8279 9.30708 78.1905 9.14692 78.1905 8.5786C78.1905 7.95668 78.7931 7.58404 79.8028 7.58404C80.8835 7.58404 81.928 7.9922 82.4416 8.31252L83.2391 6.8194ZM106.995 5.93075C105.933 5.93075 105.242 6.42803 104.763 7.17524V6.14452H102.939V14.6383H104.781V9.87604C104.781 8.47204 105.383 7.6906 106.588 7.6906C106.961 7.6906 107.349 7.74356 107.739 7.90372L108.307 6.1626C107.899 6.00244 107.368 5.93075 106.995 5.93075ZM91.2819 6.14387H88.2702V3.56836H86.4108V6.14516H84.692V7.83268H86.4108V11.7069C86.4108 13.6786 87.1721 14.8521 89.3509 14.8521C90.1484 14.8521 91.0697 14.6028 91.6542 14.1946L91.1226 12.6124C90.5735 12.9327 89.9709 13.0922 89.4928 13.0922C88.5715 13.0922 88.2702 12.5239 88.2702 11.6714V7.83268H91.2819V6.14387ZM63.7531 14.6389V9.30772C63.7531 7.29924 62.477 5.94948 60.422 5.9314C59.3413 5.91396 58.2252 6.25172 57.4458 7.44196C56.8606 6.50036 55.9399 5.9314 54.647 5.9314C53.7437 5.9314 52.8579 6.19812 52.1669 7.19397V6.14452H50.3242V14.6383H52.1843V9.929C52.1843 8.4546 52.9992 7.67252 54.2573 7.67252C55.4793 7.67252 56.0993 8.47204 56.0993 9.91156V14.6383H57.96V9.929C57.96 8.4546 58.8097 7.67252 60.0323 7.67252C61.2905 7.67252 61.8924 8.47204 61.8924 9.91156V14.6383L63.7531 14.6389Z" fill="#211F1C"/>
</g>
<defs>
<clipPath id="clip0_2223_52608">
<rect width="147.103" height="25.8326" fill="white" transform="translate(0 0.631836)"/>
</clipPath>
</defs>
</svg>
