<svg width="69" height="26" viewBox="0 0 69 26" fill="none" xmlns="http://www.w3.org/2000/svg">
<path d="M46.6192 14.8372L47.2936 15.0397C47.2486 15.231 47.1812 15.3885 47.08 15.5123C46.9788 15.6361 46.8664 15.7373 46.7203 15.7936C46.5742 15.8611 46.3944 15.8948 46.1696 15.8948C45.8998 15.8948 45.6862 15.8611 45.5064 15.7823C45.3378 15.7036 45.1917 15.5685 45.068 15.366C44.9444 15.1748 44.877 14.916 44.877 14.6122C44.877 14.2072 44.9894 13.8921 45.2029 13.6671C45.4165 13.4421 45.7312 13.3408 46.1246 13.3408C46.4393 13.3408 46.6754 13.4083 46.8552 13.5321C47.035 13.6559 47.1699 13.8471 47.2486 14.1171L46.5742 14.2634C46.5517 14.1847 46.5292 14.1284 46.4955 14.0946C46.4506 14.0384 46.4056 13.9934 46.3382 13.9596C46.2707 13.9259 46.2033 13.9146 46.1358 13.9146C45.9672 13.9146 45.8324 13.9821 45.7424 14.1284C45.675 14.2297 45.6413 14.3984 45.6413 14.6122C45.6413 14.8822 45.6862 15.0735 45.7649 15.1748C45.8436 15.276 45.9672 15.3323 46.1134 15.3323C46.2595 15.3323 46.3719 15.2873 46.4393 15.2085C46.5292 15.1073 46.5854 14.9947 46.6192 14.8372Z" fill="#225E63"/>
<path d="M47.5635 14.6127C47.5635 14.2077 47.6759 13.8926 47.9007 13.6676C48.1255 13.4426 48.4402 13.3301 48.8448 13.3301C49.2607 13.3301 49.5754 13.4426 49.8002 13.6564C50.025 13.8814 50.1374 14.1852 50.1374 14.5902C50.1374 14.8827 50.0925 15.119 49.9913 15.299C49.8902 15.479 49.7553 15.6253 49.5642 15.7266C49.3844 15.8278 49.1483 15.8841 48.8786 15.8841C48.5976 15.8841 48.3728 15.8391 48.1817 15.7491C48.0018 15.6591 47.8557 15.5241 47.7321 15.3215C47.6084 15.119 47.5635 14.9052 47.5635 14.6127ZM48.3278 14.6127C48.3278 14.8602 48.3728 15.0403 48.4627 15.1528C48.5526 15.2653 48.6762 15.3215 48.8448 15.3215C49.0134 15.3215 49.1371 15.2653 49.227 15.164C49.3169 15.0515 49.3619 14.8602 49.3619 14.5902C49.3619 14.3539 49.3169 14.1852 49.2158 14.0839C49.1258 13.9714 48.991 13.9264 48.8336 13.9264C48.6762 13.9264 48.5526 13.9826 48.4627 14.0952C48.3728 14.1852 48.3278 14.3652 48.3278 14.6127Z" fill="#225E63"/>
<path d="M50.5303 13.376H51.5307L51.9128 14.8836L52.295 13.376H53.2953V15.8512H52.6659V13.961L52.1826 15.8512H51.6206L51.1373 13.961V15.8512H50.5078V13.376H50.5303Z" fill="#225E63"/>
<path d="M53.79 13.376H55.0602C55.3412 13.376 55.5435 13.4435 55.6784 13.5785C55.8132 13.7135 55.8807 13.8935 55.8807 14.1411C55.8807 14.3886 55.802 14.5911 55.6559 14.7261C55.5098 14.8724 55.2737 14.9399 54.9702 14.9399H54.5544V15.8625H53.79V13.376ZM54.5544 14.4336H54.7454C54.8916 14.4336 54.9927 14.4111 55.0602 14.3548C55.1164 14.2986 55.1501 14.2423 55.1501 14.1636C55.1501 14.0848 55.1276 14.0173 55.0714 13.961C55.0152 13.9048 54.9253 13.8823 54.7792 13.8823H54.5656V14.4336H54.5544Z" fill="#225E63"/>
<path d="M56.2861 13.376H57.0505V15.2437H58.2419V15.8512H56.2861V13.376Z" fill="#225E63"/>
<path d="M58.624 13.376H59.3878V15.8512H58.624V13.376Z" fill="#225E63"/>
<path d="M61.4561 15.4335H60.5906L60.467 15.8385H59.6914L60.6243 13.3633H61.4561L62.389 15.8385H61.591L61.4561 15.4335ZM61.2987 14.9047L61.029 14.0158L60.7592 14.9047H61.2987Z" fill="#225E63"/>
<path d="M62.625 13.376H63.3331L64.266 14.7486V13.376H64.9854V15.8512H64.266L63.3444 14.4898V15.8512H62.625V13.376Z" fill="#225E63"/>
<path d="M65.3232 13.376H67.6499V13.9835H66.8744V15.8512H66.11V13.9835H65.3345V13.376H65.3232Z" fill="#225E63"/>
<path d="M37.4254 17.145L39.6396 16.4474L38.9203 14.8497C38.392 15.5136 37.8637 16.3686 37.4254 17.145ZM36.6723 9.84298L32.3336 0.166992L0.569336 1.96718L9.37027 25.9996L26.309 20.6553C25.2299 19.1027 24.8365 17.2575 26.0842 16.3574C27.4779 15.3448 29.5798 16.5149 30.9174 18.1688C32.21 16.0086 35.8405 10.9793 36.6723 9.84298Z" fill="#225E63"/>
<path d="M31.3429 7.15972C32.6692 7.15972 33.7482 6.14712 33.7482 4.88699C33.7482 3.62686 32.6692 2.61426 31.3429 2.61426C30.0165 2.61426 28.9375 3.62686 28.9375 4.88699C28.9375 6.13587 30.0165 7.15972 31.3429 7.15972ZM29.3759 8.13857H33.3099V18.4334H29.3759V8.13857Z" fill="#FEFEFE"/>
<path d="M27.4322 11.143C27.4659 11.1543 27.4884 11.143 27.4884 11.1093V8.499C27.4884 8.46525 27.4659 8.43149 27.4322 8.40899C27.4322 8.40899 26.9152 8.07146 25.3416 7.98145C25.2629 7.93644 23.8804 7.92519 23.5094 7.98145C17.777 8.44275 17.5635 12.5944 17.5635 12.7744V13.787C17.5635 13.9108 17.5635 18.1525 23.5094 18.5238C24.0939 18.5688 25.2292 18.5238 25.3416 18.5238C26.7128 18.5238 27.657 18.1075 27.657 18.1075C27.6907 18.0962 27.7132 18.0625 27.7132 18.0287V15.5872C27.7132 15.5535 27.6907 15.5422 27.6683 15.5647C27.6683 15.5647 27.2411 15.9023 25.3753 16.0935C24.847 16.1498 24.5885 16.1273 24.3974 16.0935C21.7448 15.6435 21.6211 13.7083 21.6211 13.7083C21.6211 13.6745 21.6099 13.6183 21.6099 13.5958V12.8532C21.6099 12.8194 21.6099 12.7632 21.6211 12.7407C21.6211 12.7407 21.801 10.6592 24.3974 10.4342H25.3753C26.5105 10.5805 27.4322 11.143 27.4322 11.143Z" fill="#FEFEFE"/>
<path d="M6.6377 18.4001C6.6377 18.4338 6.66018 18.4563 6.6939 18.4563H10.5267C10.5605 18.4563 10.5829 18.4338 10.5829 18.4001V15.4072C10.5829 15.3735 10.6054 15.351 10.6391 15.351C10.6391 15.351 16.765 15.7898 16.765 11.6831C16.765 8.43153 12.9209 8.08275 11.662 8.139C11.6395 8.139 6.6939 8.139 6.6939 8.139C6.66018 8.139 6.6377 8.16151 6.6377 8.19526V18.4001ZM10.5155 13.067V10.378H11.4597C11.4597 10.378 12.8197 10.4342 12.9321 11.3681C12.9546 11.4356 12.9546 11.8969 12.9321 11.9194C12.7523 13.0107 11.5721 13.067 11.5721 13.067H10.5155Z" fill="#FEFEFE"/>
<path d="M31.4564 23.4005C31.7711 23.4005 32.0184 23.4005 32.4231 23.2205C33.8168 22.4891 38.5264 10.9792 43.4945 7.43509C43.5282 7.41259 43.5619 7.37884 43.5844 7.34509C43.6181 7.30008 43.6181 7.25508 43.6181 7.25508C43.6181 7.25508 43.6181 7.0188 42.8875 7.0188C38.4702 6.89504 33.873 16.1772 31.4564 19.8451C31.4227 19.8901 31.2653 19.8451 31.2653 19.8451C31.2653 19.8451 29.6468 17.9324 28.2418 17.2011C28.2081 17.1898 28.0507 17.1336 27.8821 17.1448C27.7697 17.1448 27.1178 17.2799 26.8143 17.5949C26.4546 17.9774 26.4659 18.1912 26.4659 18.6525C26.4659 18.6862 26.4883 18.8438 26.5333 18.9225C26.8817 19.5301 28.4441 21.6903 29.7367 22.8829C29.9278 23.0292 30.2313 23.4005 31.4564 23.4005Z" fill="#2BBC5D"/>
<path d="M44.8008 3.95898H48.4763C49.2069 3.95898 49.7914 4.06025 50.2297 4.25151C50.6793 4.45404 51.0502 4.73531 51.3312 5.09535C51.6235 5.46664 51.837 5.89418 51.9607 6.37798C52.0956 6.86178 52.163 7.37933 52.163 7.93064C52.163 8.78573 52.0618 9.44954 51.8708 9.92209C51.6797 10.3946 51.4099 10.7884 51.0615 11.1147C50.713 11.4297 50.3421 11.6435 49.9487 11.756C49.4092 11.9023 48.9146 11.9698 48.4763 11.9698H44.8008V3.95898ZM47.2736 5.77042V10.1471H47.8805C48.3976 10.1471 48.7685 10.0909 48.9821 9.97835C49.1956 9.86584 49.3755 9.66332 49.4991 9.38204C49.6228 9.10076 49.6902 8.62821 49.6902 7.98689C49.6902 7.13181 49.5553 6.558 49.2743 6.24297C48.9933 5.92793 48.5437 5.77042 47.8918 5.77042H47.2736Z" fill="#225E63"/>
<path d="M52.8486 9.32556L55.209 9.1793C55.2652 9.56184 55.3664 9.85437 55.5238 10.0569C55.7823 10.3832 56.142 10.5407 56.614 10.5407C56.9625 10.5407 57.2435 10.4619 57.4346 10.2932C57.6256 10.1244 57.7268 9.93313 57.7268 9.71935C57.7268 9.51683 57.6369 9.32556 57.457 9.1568C57.2772 8.98803 56.8501 8.84176 56.1869 8.6955C55.0966 8.44797 54.3323 8.12169 53.8602 7.71665C53.3882 7.31161 53.1634 6.79406 53.1634 6.16399C53.1634 5.7477 53.287 5.36516 53.523 4.99387C53.7591 4.62258 54.1188 4.3413 54.6021 4.12753C55.0854 3.91376 55.7373 3.8125 56.5691 3.8125C57.5919 3.8125 58.3787 4.00377 58.907 4.38631C59.4465 4.76885 59.7612 5.37641 59.8624 6.20899L57.5245 6.34401C57.457 5.98397 57.3334 5.7252 57.1311 5.55643C56.9288 5.38766 56.659 5.3089 56.3106 5.3089C56.0183 5.3089 55.8048 5.36516 55.6586 5.48892C55.5125 5.61268 55.4451 5.75895 55.4451 5.93897C55.4451 6.06273 55.5013 6.18649 55.6249 6.28775C55.7373 6.38901 56.0183 6.49027 56.4567 6.58028C57.5357 6.81656 58.3113 7.05283 58.7834 7.28911C59.2554 7.52538 59.5926 7.82916 59.8062 8.17795C60.0198 8.52673 60.1209 8.93177 60.1209 9.37057C60.1209 9.88812 59.9748 10.3607 59.6938 10.7882C59.4128 11.227 59.0082 11.5533 58.5024 11.7783C57.9966 12.0033 57.3446 12.1158 56.5691 12.1158C55.209 12.1158 54.2649 11.8571 53.7366 11.3283C53.2196 10.7995 52.9273 10.1356 52.8486 9.32556Z" fill="#225E63"/>
<path d="M60.748 9.32556L63.1085 9.1793C63.1647 9.56184 63.2658 9.85437 63.4232 10.0569C63.6817 10.3832 64.0414 10.5407 64.5135 10.5407C64.8619 10.5407 65.1429 10.4619 65.334 10.2932C65.5251 10.1244 65.6262 9.93313 65.6262 9.71935C65.6262 9.51683 65.5363 9.32556 65.3565 9.1568C65.1766 8.98803 64.7495 8.84176 64.0863 8.6955C62.9961 8.44797 62.2317 8.12169 61.7596 7.71665C61.2988 7.31161 61.0628 6.79406 61.0628 6.16399C61.0628 5.7477 61.1864 5.36516 61.4224 4.99387C61.6585 4.62258 62.0182 4.3413 62.5015 4.12753C62.9848 3.91376 63.6367 3.8125 64.4685 3.8125C65.4913 3.8125 66.2781 4.00377 66.8064 4.38631C67.3459 4.76885 67.6607 5.37641 67.7618 6.20899L65.4239 6.34401C65.3565 5.98397 65.2328 5.7252 65.0305 5.55643C64.8282 5.38766 64.5584 5.3089 64.21 5.3089C63.9177 5.3089 63.7042 5.36516 63.5581 5.48892C63.4119 5.61268 63.3445 5.75895 63.3445 5.93897C63.3445 6.06273 63.4007 6.18649 63.5243 6.28775C63.6367 6.38901 63.9177 6.49027 64.3561 6.58028C65.4351 6.81656 66.2107 7.05283 66.6828 7.28911C67.1549 7.52538 67.4921 7.82916 67.7056 8.17795C67.9192 8.52673 68.0203 8.93177 68.0203 9.37057C68.0203 9.88812 67.8742 10.3607 67.5932 10.7882C67.3122 11.227 66.9076 11.5533 66.4018 11.7783C65.896 12.0033 65.2441 12.1158 64.4685 12.1158C63.1084 12.1158 62.1643 11.8571 61.636 11.3283C61.1077 10.7995 60.8155 10.1356 60.748 9.32556Z" fill="#225E63"/>
</svg>
