<svg width="32" height="32" viewBox="0 0 32 32" fill="none" xmlns="http://www.w3.org/2000/svg">
<path d="M23.4482 20.9306C23.1695 20.651 22.8383 20.429 22.4737 20.2776C22.109 20.1262 21.7181 20.0483 21.3232 20.0483C20.9284 20.0483 20.5374 20.1262 20.1728 20.2776C19.8081 20.429 19.4769 20.651 19.1982 20.9306L17.7482 22.3806C16.1156 21.3445 14.603 20.1304 13.2382 18.7606C11.8713 17.3932 10.6575 15.881 9.61821 14.2506L11.0682 12.8006C11.3479 12.5219 11.5698 12.1907 11.7212 11.8261C11.8726 11.4614 11.9506 11.0705 11.9506 10.6756C11.9506 10.2808 11.8726 9.88983 11.7212 9.52518C11.5698 9.16052 11.3479 8.82934 11.0682 8.55063L8.23821 5.73063C7.96344 5.45003 7.63505 5.22752 7.27258 5.07635C6.91011 4.92518 6.52094 4.84842 6.12821 4.85063C5.73269 4.84966 5.34089 4.92691 4.97534 5.07794C4.60979 5.22896 4.27771 5.45078 3.99821 5.73063L2.63821 7.08063C1.98998 7.7776 1.50618 8.61098 1.22237 9.51951C0.938568 10.428 0.861969 11.3886 0.998209 12.3306C1.31821 16.0806 3.77821 20.5906 7.56821 24.3906C11.3582 28.1906 15.9182 30.6406 19.6682 31.0006C19.948 31.0156 20.2284 31.0156 20.5082 31.0006C21.3154 31.0345 22.1213 30.9069 22.8786 30.6253C23.6358 30.3437 24.3293 29.9137 24.9182 29.3606L26.2682 28.0006C26.5481 27.7211 26.7699 27.3891 26.9209 27.0235C27.0719 26.658 27.1492 26.2662 27.1482 25.8706C27.1504 25.4779 27.0737 25.0887 26.9225 24.7263C26.7713 24.3638 26.5488 24.0354 26.2682 23.7606L23.4482 20.9306ZM24.8582 26.5906L23.4982 27.9406C22.9954 28.3597 22.4083 28.6659 21.7769 28.8384C21.1454 29.0109 20.4843 29.0458 19.8382 28.9406C16.5882 28.6606 12.4482 26.3606 9.02821 22.9406C5.60821 19.5206 3.30821 15.4106 2.99821 12.1606C2.89037 11.5145 2.92393 10.8528 3.09657 10.2209C3.26921 9.58903 3.57682 9.00212 3.99821 8.50063L5.40821 7.14063C5.50165 7.04795 5.61247 6.97463 5.7343 6.92486C5.85614 6.8751 5.9866 6.84987 6.11821 6.85063C6.24982 6.84987 6.38028 6.8751 6.50212 6.92486C6.62395 6.97463 6.73477 7.04795 6.82821 7.14063L9.65821 10.0006C9.84446 10.188 9.949 10.4414 9.949 10.7056C9.949 10.9698 9.84446 11.2233 9.65821 11.4106L7.65821 13.4106C7.50171 13.5664 7.40114 13.7695 7.3722 13.9884C7.34326 14.2073 7.38756 14.4296 7.49821 14.6206C8.6956 16.6591 10.1509 18.5346 11.8282 20.2006C13.4943 21.8779 15.3698 23.3332 17.4082 24.5306C17.5993 24.6413 17.8216 24.6856 18.0405 24.6566C18.2593 24.6277 18.4625 24.5271 18.6182 24.3706L20.6182 22.3706C20.8056 22.1844 21.059 22.0798 21.3232 22.0798C21.5874 22.0798 21.8408 22.1844 22.0282 22.3706L24.8582 25.2006C24.9509 25.2941 25.0242 25.4049 25.074 25.5267C25.1237 25.6486 25.149 25.779 25.1482 25.9106C25.142 26.166 25.0382 26.4093 24.8582 26.5906Z" fill="#3358FF"/>
<path d="M26.6 5.39003C25.2103 3.995 23.5581 2.88887 21.7388 2.13541C19.9196 1.38196 17.9691 0.996078 16 1.00003C15.7348 1.00003 15.4804 1.10539 15.2929 1.29292C15.1054 1.48046 15 1.73481 15 2.00003C15 2.26525 15.1054 2.5196 15.2929 2.70714C15.4804 2.89467 15.7348 3.00003 16 3.00003C17.7165 2.99997 19.416 3.33983 21.0004 4.00001C22.5849 4.66019 24.0229 5.62761 25.2315 6.84645C26.4401 8.06529 27.3954 9.51141 28.0422 11.1014C28.689 12.6913 29.0145 14.3936 29 16.11C29 16.3752 29.1054 16.6296 29.2929 16.8171C29.4804 17.0047 29.7348 17.11 30 17.11C30.2652 17.11 30.5196 17.0047 30.7071 16.8171C30.8946 16.6296 31 16.3752 31 16.11C31.0192 14.12 30.6397 12.1462 29.884 10.3051C29.1283 8.46399 28.0117 6.79279 26.6 5.39003Z" fill="#3358FF"/>
<path d="M20.9126 11.1103C21.4801 11.6744 21.9291 12.3463 22.2331 13.0865C22.537 13.8267 22.6899 14.6202 22.6826 15.4203C22.6826 15.6855 22.788 15.9399 22.9755 16.1274C23.163 16.315 23.4174 16.4203 23.6826 16.4203C23.9478 16.4203 24.2022 16.315 24.3897 16.1274C24.5773 15.9399 24.6826 15.6855 24.6826 15.4203C24.6959 14.3614 24.4987 13.3103 24.1026 12.3281C23.7065 11.3459 23.1193 10.4522 22.3751 9.6987C21.6309 8.94521 20.7445 8.34698 19.7674 7.9387C18.7902 7.53042 17.7417 7.32023 16.6826 7.32031C16.4174 7.32031 16.163 7.42567 15.9755 7.61321C15.788 7.80074 15.6826 8.0551 15.6826 8.32031C15.6826 8.58553 15.788 8.83988 15.9755 9.02742C16.163 9.21496 16.4174 9.32031 16.6826 9.32031C17.4707 9.32625 18.2499 9.48739 18.9757 9.79452C19.7015 10.1017 20.3597 10.5488 20.9126 11.1103Z" fill="#3358FF"/>
</svg>
