<svg aria-hidden="true" style="position:absolute;width:0;height:0;overflow:hidden" xmlns="http://www.w3.org/2000/svg">
  <defs>
    <symbol id="icon-247" viewBox="0 0 32 32">
      <path d="M7.131 8.372a1.002 1.002 0 0 0 .906.577H12.9v1.718a.997.997 0 0 0 1 1 .997.997 0 0 0 1-1V8.949h.461a.997.997 0 0 0 1-1 .997.997 0 0 0-1-1H14.9V.948a1 1 0 0 0-1.766-.642L7.271 7.307a1.006 1.006 0 0 0-.14 1.065zM12.9 3.7v3.249h-2.721L12.9 3.7zm5.061 21.242 5.239-8.179h-3.857a.997.997 0 0 1-1-1 .997.997 0 0 1 1-1h5.685a.993.993 0 0 1 .877.52 1.001 1.001 0 0 1-.035 1.019l-6.225 9.719a1.008 1.008 0 0 1-.628.439 1.009 1.009 0 0 1-.755-.134.997.997 0 0 1-.302-1.384zm5.235-18.376a1 1 0 0 1 0 1.414L8.455 22.721a1.003 1.003 0 0 1-1.41-.004 1 1 0 0 1-.004-1.41L21.782 6.566a.998.998 0 0 1 1.414 0zM5.656 4.471c.253-.927.093-1.625-.477-2.076-.638-.504-1.699-.594-2.417-.203-.545.297-.787.81-.718 1.525a1.001 1.001 0 0 1-1.632.867.998.998 0 0 1-.359-.676C-.093 2.387.545 1.121 1.805.435c1.414-.77 3.354-.606 4.614.391 1.204.953 1.629 2.473 1.165 4.171-.313 1.146-1.384 1.982-2.625 2.95-.67.523-1.392 1.086-1.998 1.719h4.142a.997.997 0 0 1 1 1 .997.997 0 0 1-1 1H1.019A1 1 0 0 1 .12 10.23c.814-1.678 2.299-2.836 3.609-3.859.879-.686 1.788-1.396 1.927-1.901zM32 16.052A15.998 15.998 0 0 1 4.687 27.365 15.9 15.9 0 0 1 .001 16.051a.997.997 0 0 1 1-1 .997.997 0 0 1 1 1c0 7.72 6.28 14 14 14s14-6.28 14-14c0-7.008-5.232-12.976-12.17-13.881a.987.987 0 0 1-.672-.379 1.005 1.005 0 0 1-.076-1.118.997.997 0 0 1 1.008-.487 16.004 16.004 0 0 1 13.912 15.865z"/>
    </symbol>
    <symbol id="icon-energy" viewBox="0 0 32 32">
      <path d="M1.706 12.594a.936.936 0 0 0 .718-.005l2.804-1.184a.937.937 0 0 0-.729-1.727l-.686.289a13.447 13.447 0 0 1 12.302-8.03A13.435 13.435 0 0 1 29.124 12.01a.937.937 0 1 0 1.815-.469A15.312 15.312 0 0 0 2.056 9.307l-.317-.75a.936.936 0 1 0-1.727.729l1.183 2.804c.097.229.28.41.511.504zM31.863 22.648l-1.183-2.804a.938.938 0 0 0-1.229-.499l-2.804 1.184a.937.937 0 0 0 .729 1.727l.785-.331a13.447 13.447 0 0 1-12.401 8.262A13.435 13.435 0 0 1 2.751 20.114a.938.938 0 0 0-1.815.469A15.312 15.312 0 0 0 15.76 32.062a15.324 15.324 0 0 0 14.099-9.339l.276.654a.937.937 0 1 0 1.727-.729z"/>
      <path d="M18.375 6.313H13.5a.938.938 0 0 0-.938.937v1.687h-.727c-.84 0-1.523.69-1.523 1.537v13.8c0 .848.684 1.537 1.523 1.537h8.203c.84 0 1.523-.69 1.523-1.537v-13.8c0-.848-.684-1.537-1.523-1.537h-.727V7.249a.937.937 0 0 0-.938-.937zm1.313 4.499v13.125h-7.5V10.812h1.313c.518 0 .938-.42.938-.938V8.186h3v1.688c0 .518.42.938.938.938h1.312z"/>
      <path d="M17.258 15.409h-.703l.762-.962a.938.938 0 0 0-1.47-1.164l-1.966 2.482a.937.937 0 0 0 .735 1.519h.687l-.881 1.098a.938.938 0 0 0 1.462 1.173l2.104-2.622a.936.936 0 0 0-.731-1.524z"/>
    </symbol>
    <symbol id="icon-settings" viewBox="0 0 32 32">
      <path d="M16.021 22.667c-3.676 0-6.667-2.991-6.667-6.667s2.991-6.667 6.667-6.667c3.676 0 6.666 2.991 6.666 6.667s-2.991 6.667-6.666 6.667zm0-11.333c-2.573 0-4.667 2.094-4.667 4.667s2.093 4.667 4.667 4.667c2.573 0 4.666-2.093 4.666-4.667s-2.093-4.667-4.666-4.667z"/>
      <path d="M18.237 32h-4.435a2.312 2.312 0 0 1-2.241-1.801L11 27.703a12.294 12.294 0 0 1-2.606-1.513l-2.431.768c-1.043.324-2.176-.119-2.699-1.052l-2.21-3.822a2.329 2.329 0 0 1 .428-2.845l1.884-1.732a13.52 13.52 0 0 1-.001-3.01l-1.873-1.724a2.327 2.327 0 0 1-.444-2.841l2.224-3.847c.516-.923 1.652-1.361 2.688-1.043l2.435.769A12.27 12.27 0 0 1 11 4.298l.563-2.499a2.31 2.31 0 0 1 2.24-1.797h4.435c1.067 0 2.009.757 2.241 1.801l.561 2.496c.915.388 1.787.895 2.605 1.513l2.431-.768c1.045-.321 2.176.119 2.699 1.052l2.211 3.822a2.33 2.33 0 0 1-.428 2.845l-1.884 1.732c.056.508.084 1.013.084 1.505s-.028.997-.084 1.505l1.875 1.723a2.324 2.324 0 0 1 .444 2.841l-2.224 3.847c-.516.923-1.649 1.364-2.689 1.041l-2.435-.769a12.27 12.27 0 0 1-2.605 1.513l-.563 2.498a2.307 2.307 0 0 1-2.239 1.8zm-9.639-7.921c.229 0 .455.079.636.228a10.275 10.275 0 0 0 2.972 1.724.996.996 0 0 1 .629.718l.679 3.013c.03.139.152.237.289.237h4.435a.298.298 0 0 0 .288-.235l.68-3.016a.999.999 0 0 1 .629-.718 10.288 10.288 0 0 0 2.972-1.724 1 1 0 0 1 .938-.183l2.935.927c.14.044.289-.008.353-.123l2.224-3.847a.324.324 0 0 0-.064-.385l-2.251-2.069a1 1 0 0 1-.312-.884c.088-.591.132-1.177.132-1.744s-.044-1.154-.132-1.744a1.001 1.001 0 0 1 .312-.884l2.256-2.075a.327.327 0 0 0 .052-.392L27.039 7.08a.306.306 0 0 0-.363-.133l-2.931.925a.996.996 0 0 1-.937-.183 10.275 10.275 0 0 0-2.972-1.724.996.996 0 0 1-.629-.719l-.679-3.013a.307.307 0 0 0-.292-.235h-4.435a.298.298 0 0 0-.288.235l-.68 3.016a1 1 0 0 1-.629.719 10.27 10.27 0 0 0-2.971 1.724 1.004 1.004 0 0 1-.937.183l-2.935-.927c-.137-.042-.289.008-.353.123l-2.224 3.845a.327.327 0 0 0 .068.389L5.1 13.37a1 1 0 0 1 .312.884c-.088.591-.132 1.177-.132 1.744s.044 1.153.132 1.744c.049.328-.068.659-.312.884l-2.256 2.075a.327.327 0 0 0-.052.392l2.211 3.823a.308.308 0 0 0 .363.134l2.931-.926a.975.975 0 0 1 .301-.047z"/>
    </symbol>
  </defs>
</svg>
