<svg aria-hidden="true" style="position:absolute;width:0;height:0;overflow:hidden" xmlns="http://www.w3.org/2000/svg">
  <defs>
    <symbol id="icon-charging-station" viewBox="0 0 32 32">
      <path d="M14.411 13.127a2.135 2.135 0 0 1-.102 2.194L11.8 19.37a1.334 1.334 0 1 1-2.267-1.405l2.044-3.297H8.82a2.155 2.155 0 0 1-2.06-2.777c.04-.109 2.771-4.588 2.771-4.588a1.32 1.32 0 0 1 .828-.651 1.333 1.333 0 0 1 1.439 2.049l-2.027 3.301h2.763a2.137 2.137 0 0 1 1.877 1.127zM32 4v3.333a3.337 3.337 0 0 1-2.667 3.267v12.067A5.332 5.332 0 0 1 24 28h-3.224a6.68 6.68 0 0 1-6.109 4h-8A6.675 6.675 0 0 1 0 25.333V6.666A6.675 6.675 0 0 1 6.667-.001h8a6.675 6.675 0 0 1 6.667 6.667v18.667h2.667a2.67 2.67 0 0 0 2.667-2.667V10.599a3.337 3.337 0 0 1-2.667-3.267V3.999a1.334 1.334 0 0 1 2.668 0v1.333h2.667V3.999a1.334 1.334 0 0 1 2.668 0zM18.667 25.333V14.666h-1.333a1.334 1.334 0 0 1 0-2.668h1.333V6.665a4.003 4.003 0 0 0-4-4h-8a4.003 4.003 0 0 0-4 4v5.333H4a1.335 1.335 0 0 1 .943 2.277c-.251.25-.589.391-.943.391H2.667v10.667a4.003 4.003 0 0 0 4 4h8a4.003 4.003 0 0 0 4-4z"/>
    </symbol>
    <symbol id="icon-computer-speaker" viewBox="0 0 32 32">
      <path d="M26 8h-4c-3.308 0-6 2.692-6 6v12c0 3.308 2.692 6 6 6h4c3.308 0 6-2.692 6-6V14c0-3.308-2.692-6-6-6zm3.333 18A3.337 3.337 0 0 1 26 29.333h-4A3.337 3.337 0 0 1 18.667 26V14A3.337 3.337 0 0 1 22 10.667h4A3.337 3.337 0 0 1 29.333 14v12zm-2-2.667a3.333 3.333 0 1 1-6.665 0 3.333 3.333 0 0 1 6.665 0zm-5.333-8a2 2 0 1 1 4.001.001A2 2 0 0 1 22 15.333zm-8.667 6v5.333c0 .736-.596 1.333-1.333 1.333H8a1.333 1.333 0 1 1 0-2.666h2.667v-2.667h-4A6.675 6.675 0 0 1 0 15.999V6.666A6.675 6.675 0 0 1 6.667-.001h14.667a6.688 6.688 0 0 1 5.773 3.333 1.333 1.333 0 1 1-2.306 1.334 4.016 4.016 0 0 0-3.467-2H6.667c-2.205 0-4 1.795-4 4v9.333c0 2.205 1.795 4 4 4H12c.737 0 1.333.596 1.333 1.332z"/>
    </symbol>
    <symbol id="icon-internet-speed-wifi-2" viewBox="0 0 32 32">
      <path d="M16.001 6.667A18.739 18.739 0 0 0 2.31 12.643a1.331 1.331 0 0 1-1.884.071 1.333 1.333 0 0 1-.071-1.884A21.407 21.407 0 0 1 16 4.001c3.751 0 7.44.987 10.668 2.855.637.369.856 1.185.485 1.823a1.333 1.333 0 0 1-1.821.487A18.655 18.655 0 0 0 16 6.669zm2.342 9.621a1.336 1.336 0 0 0 1.619-.968 1.332 1.332 0 0 0-.968-1.619 12.253 12.253 0 0 0-2.992-.369 12.267 12.267 0 0 0-8.965 3.913 1.333 1.333 0 1 0 1.955 1.813c2.344-2.528 6.052-3.603 9.352-2.771zm13.268-6.564a1.332 1.332 0 0 0-1.885 0L16.685 22.765a2.609 2.609 0 0 0-.683-.099 2.666 2.666 0 1 0 0 5.334 2.666 2.666 0 0 0 2.667-2.667c0-.237-.041-.463-.099-.683l13.041-13.041a1.332 1.332 0 0 0 0-1.885z"/>
    </symbol>
    <symbol id="icon-router" viewBox="0 0 32 32">
      <path d="M25.731 19.667h-4.879v-4.889a1.22 1.22 0 1 0-2.44 0v4.889H6.213a4.889 4.889 0 0 0-4.879 4.889v1.222a4.889 4.889 0 0 0 4.879 4.889h19.518a4.889 4.889 0 0 0 4.879-4.889v-1.222a4.889 4.889 0 0 0-4.879-4.889zm2.439 6.111a2.445 2.445 0 0 1-2.44 2.445H6.212a2.445 2.445 0 0 1-2.44-2.445v-1.222a2.445 2.445 0 0 1 2.44-2.445H25.73a2.445 2.445 0 0 1 2.44 2.445v1.222zM19.631 7.444c2.217 0 4.301.865 5.87 2.436a1.222 1.222 0 0 1-.863 2.086c-.313 0-.625-.12-.862-.358-1.106-1.11-2.579-1.72-4.144-1.72s-3.037.611-4.144 1.72a1.217 1.217 0 0 1-1.725 0 1.222 1.222 0 0 1 0-1.728 8.236 8.236 0 0 1 5.869-2.436h-.001zM8.652 25.167c0 1.012-.82 1.833-1.83 1.833a1.832 1.832 0 0 1 0-3.666c1.01 0 1.83.821 1.83 1.833zm4.88 0c0 1.012-.82 1.833-1.83 1.833a1.832 1.832 0 0 1 0-3.666c1.01 0 1.83.821 1.83 1.833zM8.923 6c2.761-2.965 6.663-4.666 10.708-4.666S27.58 3.035 30.339 6a1.224 1.224 0 0 1-.893 2.057c-.327 0-.651-.131-.892-.389-2.301-2.471-5.553-3.889-8.923-3.889s-6.624 1.418-8.923 3.889a1.22 1.22 0 0 1-1.725.06A1.224 1.224 0 0 1 8.923 6z"/>
    </symbol>
  </defs>
</svg>
