<svg width="90" height="40" viewBox="0 0 90 40" fill="none" xmlns="http://www.w3.org/2000/svg">
<path d="M38.9235 38.329C33.9505 38.4606 29.263 38.2899 25.041 37.8398V38.8586C29.5372 39.1986 34.4531 39.2782 39.6288 39.0771C39.359 38.8513 39.1234 38.601 38.9235 38.329Z" fill="#0426A0"/>
<path d="M34.1204 12.2815V11.1094C31.5604 11.5189 29.0703 11.9964 26.6787 12.5333C27.1756 12.8343 27.6453 13.1671 28.0765 13.5347C30.0255 13.0702 32.0472 12.652 34.1204 12.2815Z" fill="#0426A0"/>
<path d="M4.43543 27.7856C4.12702 23.5326 10.0924 19.3361 19.1289 16.1352C18.4636 15.8313 17.8082 15.4956 17.1728 15.1367C6.62996 18.6372 -0.330564 23.3431 0.0121073 28.075C0.2891 31.904 4.66959 34.8502 11.6815 36.7444V34.8676C7.30102 33.105 4.64817 30.7145 4.43543 27.7856Z" fill="#0426A0"/>
<path d="M51.2959 37.4061C51.3216 37.4336 51.3487 37.4611 51.3716 37.4915C51.4929 37.6478 51.58 37.8417 51.6271 38.0646C51.6314 38.0848 51.6329 38.108 51.6371 38.1282C57.4925 37.409 62.9767 36.331 67.8655 34.9895V33.8984C62.9953 35.4237 57.3698 36.6378 51.2959 37.4061Z" fill="#0426A0"/>
<path d="M45.2907 10.8282V9.80078C43.6873 9.92089 42.0939 10.0699 40.5176 10.2436V11.3188C42.0939 11.1234 43.6887 10.9599 45.2907 10.8282Z" fill="#0426A0"/>
<path d="M16.124 36.2969V37.7396C17.5447 38.0015 19.0396 38.2287 20.5987 38.4212V37.2346C19.0139 36.9683 17.5176 36.6543 16.124 36.2969Z" fill="#0426A0"/>
<path d="M89.9787 19.7185C89.5975 15.4338 83.9591 12.3197 74.7227 10.6758C74.874 11.0621 74.9996 11.4673 75.0982 11.8913C75.1253 12.0114 75.1524 12.133 75.1767 12.2545C81.6204 13.9172 85.3983 16.6247 85.7139 20.1932C86.0508 24.0048 82.1501 27.8106 75.5379 30.9449C75.6179 30.9999 75.6936 31.0636 75.7621 31.136C75.9192 31.3009 76.0319 31.5064 76.0976 31.7423C76.139 31.8942 76.159 32.0577 76.1619 32.2401C85.0042 28.702 90.3785 24.2045 89.9787 19.7185Z" fill="#0426A0"/>
<path d="M23.1897 32.2028C22.787 31.9003 22.2602 31.6572 21.6234 31.4807C20.9966 31.307 20.2227 31.2188 19.3189 31.2188C18.5408 31.2188 17.7583 31.3316 16.9959 31.5559C16.4048 31.7296 15.808 31.9814 15.214 32.3098V31.9307C15.214 31.7875 15.1555 31.6572 15.0441 31.5588C14.9727 31.498 14.8785 31.4488 14.7571 31.4098C14.6529 31.3765 14.5187 31.3562 14.3459 31.3461C14.1988 31.3374 14.0146 31.3331 13.7933 31.3331C13.5606 31.3331 13.3736 31.3374 13.2322 31.3461C13.0694 31.3562 12.9367 31.3765 12.8267 31.4069C12.6782 31.4474 12.574 31.5024 12.4998 31.5791C12.4084 31.6731 12.3584 31.7976 12.3584 31.9307V39.3007C12.3584 39.4439 12.4184 39.5742 12.5255 39.6697C12.604 39.7391 12.7111 39.7883 12.8624 39.823C12.9738 39.8491 13.1123 39.8679 13.2879 39.8809C13.4492 39.8925 13.652 39.8983 13.8961 39.8983C14.1489 39.8983 14.3559 39.8925 14.5187 39.8809C14.6957 39.8694 14.8342 39.8491 14.9413 39.823C15.0784 39.7883 15.1783 39.7449 15.2568 39.6841C15.3796 39.5886 15.4482 39.4526 15.4482 39.3021V34.3329C16.0336 33.9349 16.6004 33.6267 17.133 33.414C17.6955 33.1911 18.2638 33.0782 18.822 33.0782C19.2575 33.0782 19.643 33.1231 19.9686 33.2128C20.277 33.2982 20.5268 33.4197 20.7139 33.5731C20.8995 33.728 21.0366 33.9045 21.1322 34.1143C21.2279 34.3242 21.2764 34.6179 21.2764 34.9869V39.3021C21.2764 39.454 21.345 39.5901 21.4678 39.6841C21.5463 39.7449 21.6462 39.7883 21.7833 39.823C21.8904 39.8491 22.0289 39.8694 22.2059 39.8809C22.3673 39.8925 22.5757 39.8983 22.8284 39.8983C23.0712 39.8983 23.2739 39.8925 23.4367 39.8809C23.6137 39.8694 23.7522 39.8491 23.8593 39.823C23.9964 39.7898 24.0949 39.7449 24.1749 39.6841C24.2977 39.5886 24.3662 39.4526 24.3662 39.3021V34.806C24.3662 34.2373 24.2762 33.7381 24.0963 33.3228C23.9107 32.893 23.6066 32.5168 23.1897 32.2028Z" fill="#0426A0"/>
<path d="M50.8364 37.9105C50.7664 37.8193 50.6722 37.7527 50.5565 37.7108C50.3452 37.6355 50.1068 37.6471 49.6585 37.7585C49.4329 37.8149 49.1444 37.8772 48.7932 37.9481C48.4448 38.0175 48.0265 38.0812 47.5496 38.1362C47.0741 38.1912 46.5244 38.2201 45.9133 38.2201C45.1495 38.2201 44.497 38.1593 43.9758 38.0407C43.4718 37.9249 43.0606 37.76 42.7536 37.5501C42.4652 37.3519 42.2582 37.116 42.1382 36.8483C42.054 36.6602 41.9969 36.4518 41.9698 36.2275H50.2753C50.568 36.2275 50.8364 36.1711 51.072 36.0596C51.3832 35.9135 51.5546 35.6414 51.5546 35.2941V35.0481C51.5546 34.5142 51.4304 34.0048 51.1862 33.5331C50.9406 33.0599 50.5565 32.646 50.0425 32.3001C49.5442 31.9673 48.9074 31.6982 48.1478 31.5043C47.3982 31.3118 46.483 31.2148 45.4265 31.2148C44.4384 31.2148 43.5318 31.3132 42.7308 31.5072C41.9184 31.7025 41.213 31.9905 40.6333 32.3609C40.0394 32.7401 39.5768 33.2118 39.2569 33.7631C38.9343 34.3203 38.7715 34.9526 38.7715 35.6443C38.7715 36.3679 38.93 37.0147 39.2398 37.566C39.5496 38.1174 40.0137 38.5819 40.6191 38.9437C41.2045 39.2939 41.9298 39.5616 42.7779 39.7381C43.6103 39.9118 44.5898 39.9986 45.6892 39.9986C46.3188 39.9986 46.9228 39.9711 47.4825 39.919C48.0379 39.8669 48.5333 39.8061 48.9574 39.741C49.3843 39.6744 49.7398 39.605 50.0125 39.5341C50.3938 39.4357 50.5037 39.3894 50.5665 39.3546C50.6436 39.3112 50.7107 39.2635 50.7693 39.207C50.8407 39.1376 50.8935 39.0565 50.9249 38.9697C50.9463 38.9118 50.9635 38.8467 50.9792 38.77C50.9906 38.7006 50.9992 38.6195 50.9992 38.5255C50.9992 38.4054 50.9892 38.2968 50.9692 38.2028C50.9392 38.0855 50.8964 37.9871 50.8364 37.9105ZM42.1754 34.2088C42.3167 33.9759 42.5195 33.7675 42.7822 33.5895C43.0535 33.4043 43.4018 33.2509 43.8159 33.1366C44.2342 33.0193 44.734 32.96 45.3008 32.96C46.3931 32.96 47.2183 33.1438 47.7523 33.5085C48.1493 33.7776 48.3734 34.122 48.4334 34.5518H42.0169C42.0554 34.4346 42.1083 34.3217 42.1754 34.2088Z" fill="#0426A0"/>
<path d="M75.2729 31.6081C75.1915 31.5213 75.0915 31.4576 74.9773 31.4186C74.8859 31.3882 74.7817 31.3737 74.6689 31.3737H71.6306V29.9643C71.6306 29.8239 71.5663 29.6922 71.4492 29.5938C71.3707 29.5287 71.2708 29.4795 71.1337 29.4419C71.0237 29.41 70.881 29.3898 70.7011 29.3767C70.5397 29.3652 70.3313 29.3594 70.0785 29.3594C69.8358 29.3594 69.6316 29.3652 69.4717 29.3767C69.2933 29.3898 69.1505 29.41 69.0362 29.4404C68.8835 29.4809 68.7764 29.5345 68.6979 29.6097C68.5979 29.7067 68.5422 29.8326 68.5422 29.9643V31.3737H67.053C66.9417 31.3737 66.8374 31.3882 66.7432 31.4171C66.6161 31.4562 66.5105 31.5242 66.4305 31.6212C66.3634 31.6993 66.3106 31.7962 66.2735 31.9077C66.2363 32.0162 66.2178 32.1392 66.2178 32.2825C66.2178 32.5733 66.2963 32.7991 66.4505 32.9525C66.6004 33.1015 66.8046 33.1811 67.0388 33.1811H68.5422V37.1461C68.5422 37.6193 68.6236 38.0404 68.785 38.3978C68.952 38.7697 69.2233 39.0808 69.5888 39.321C69.9343 39.5482 70.377 39.719 70.9038 39.8275C71.4107 39.9331 72.0232 39.9867 72.7257 39.9867C72.9556 39.9867 73.1897 39.978 73.4225 39.9606C73.6523 39.9433 73.8694 39.923 74.075 39.8984C74.2848 39.8724 74.4776 39.8391 74.6475 39.7971C74.8345 39.7508 74.9773 39.7002 75.0816 39.6408C75.2258 39.5612 75.3371 39.4325 75.4057 39.2704C75.4628 39.1329 75.4913 38.9665 75.4913 38.7596C75.4913 38.6264 75.4771 38.5136 75.4471 38.4137C75.4185 38.3168 75.3842 38.2386 75.3414 38.1721C75.2743 38.0664 75.1744 37.9912 75.0544 37.9535C74.8817 37.9 74.6875 37.9101 74.4719 37.9651C74.3791 37.9883 74.2677 38.0129 74.1364 38.0389C74.005 38.065 73.8565 38.0896 73.688 38.1127C73.5281 38.1344 73.3425 38.146 73.1355 38.146C72.3902 38.146 72.0675 37.9854 71.929 37.8523C71.7291 37.6583 71.632 37.3631 71.632 36.9493V33.1811H74.6703C74.9045 33.1811 75.1087 33.1015 75.2586 32.9525C75.4128 32.7991 75.4913 32.5733 75.4913 32.2825C75.4913 32.1464 75.4785 32.0307 75.4499 31.9265C75.4128 31.8006 75.3528 31.6935 75.2729 31.6081Z" fill="#0426A0"/>
<path d="M21.6514 16.5299C22.311 16.8309 22.9036 17.1652 23.4147 17.5241C23.8802 17.8511 24.2571 18.2317 24.5356 18.6557C24.7811 19.0319 24.9068 19.5051 24.9068 20.0637C24.9068 20.615 24.8097 21.1056 24.6184 21.5209C24.4313 21.9275 24.1586 22.2762 23.8088 22.557C23.4404 22.8536 22.9864 23.0866 22.4595 23.253C21.917 23.4238 21.3016 23.512 20.6334 23.512C19.7196 23.512 18.91 23.4079 18.229 23.2009C17.5094 22.9839 16.8925 22.7494 16.3957 22.5063C15.8874 22.2589 15.4705 22.0288 15.1563 21.8233C14.3596 21.3038 13.7314 21.2155 13.1817 21.5296C12.9433 21.667 12.7576 21.8783 12.6306 22.159C12.542 22.3529 12.4807 22.5801 12.4421 22.8536C12.4093 23.0852 12.3936 23.3601 12.3936 23.6958C12.3936 24.1936 12.4421 24.5945 12.5406 24.92C12.6534 25.2934 12.839 25.6132 13.0889 25.8679C13.3045 26.0878 13.6286 26.3179 14.1112 26.5885C14.551 26.836 15.0935 27.0762 15.7232 27.3034C16.3471 27.5277 17.0667 27.7187 17.8606 27.8735C18.6616 28.0284 19.5397 28.1065 20.4706 28.1065C21.807 28.1065 23.0763 27.9271 24.2429 27.574C25.4336 27.2137 26.4874 26.6638 27.3755 25.9431C28.2735 25.2124 28.986 24.3108 29.4914 23.266C29.9983 22.2169 30.2553 21.0144 30.2553 19.6889C30.2553 18.5529 30.0554 17.5443 29.6599 16.6905C29.273 15.8541 28.7561 15.1161 28.1236 14.4982C27.5111 13.9006 26.8058 13.3753 26.0276 12.9368C25.2909 12.523 24.5313 12.1381 23.7674 11.7922C23.0249 11.4565 22.2953 11.1222 21.5786 10.7923C20.9104 10.484 20.3107 10.144 19.7938 9.77787C19.3212 9.4436 18.94 9.05868 18.6616 8.63469C18.4117 8.25411 18.2904 7.79972 18.2904 7.24694C18.2904 6.86636 18.3589 6.50459 18.4945 6.16887C18.623 5.84907 18.8115 5.57991 19.0714 5.34694C19.3384 5.10672 19.6939 4.90558 20.1279 4.75219C20.5763 4.59301 21.1231 4.51342 21.7528 4.51342C22.4495 4.51342 23.0806 4.59735 23.6275 4.76377C24.2086 4.94031 24.714 5.13566 25.1281 5.34549C25.5707 5.56834 25.9491 5.77093 26.2503 5.94602C26.7172 6.21807 27.0656 6.33963 27.3797 6.33963C27.6681 6.33963 27.9394 6.24412 28.1665 6.06324C28.3706 5.89972 28.5205 5.67253 28.6119 5.39035C28.6705 5.20946 28.7119 5.00253 28.739 4.75798C28.7633 4.54381 28.7747 4.29925 28.7747 4.03155C28.7747 3.76094 28.7661 3.52941 28.7518 3.34563C28.7347 3.14449 28.7076 2.97084 28.6705 2.81311C28.6248 2.62499 28.5648 2.46581 28.4863 2.32545C28.4049 2.17929 28.2778 2.02445 28.0851 1.83633C27.8866 1.64387 27.5753 1.44418 27.0728 1.19094C26.6287 0.966644 26.119 0.762607 25.555 0.584617C24.9953 0.408074 24.3956 0.264815 23.7731 0.160625C23.1392 0.0535418 22.5009 0 21.8741 0C20.6577 0 19.5054 0.162072 18.4474 0.483322C17.368 0.810361 16.4171 1.29802 15.6247 1.93184C14.8165 2.57868 14.1769 3.38904 13.7257 4.33977C13.2745 5.28905 13.0461 6.37436 13.0461 7.5653C13.0461 8.7273 13.246 9.74893 13.6415 10.6042C14.027 11.4377 14.5381 12.1771 15.1606 12.7994C15.7646 13.4042 16.4585 13.9368 17.2224 14.381C17.9477 14.8036 18.7044 15.1943 19.4726 15.5416C20.2136 15.8758 20.9404 16.2058 21.6514 16.5299Z" fill="#0426A0"/>
<path d="M35.6555 27.6261C35.854 27.7086 36.0953 27.7651 36.3923 27.8027C36.6393 27.8331 36.9477 27.849 37.3089 27.849C37.6844 27.849 37.99 27.8345 38.247 27.8027C38.5468 27.7651 38.7895 27.7057 38.988 27.6203C39.2464 27.5089 39.4506 27.3541 39.5962 27.1602C39.7561 26.9431 39.8418 26.6783 39.8418 26.3961V8.53489C39.8418 8.27732 39.7633 8.02552 39.6148 7.80557C39.4706 7.5943 39.2593 7.42644 38.988 7.30922C38.791 7.22385 38.5482 7.16452 38.2455 7.12689C37.9914 7.0965 37.6844 7.08203 37.3103 7.08203C36.9534 7.08203 36.645 7.09795 36.3937 7.12834C36.0981 7.16452 35.8568 7.2224 35.6555 7.30488C35.3542 7.42933 35.1301 7.61166 34.9887 7.84898C34.8631 8.05881 34.7988 8.29034 34.7988 8.53489V26.3947C34.7988 26.6653 34.8688 26.9084 35.0044 27.1168C35.1458 27.3367 35.3642 27.5075 35.6555 27.6261Z" fill="#0426A0"/>
<path d="M46.8258 27.6256C47.0271 27.7081 47.267 27.7645 47.5626 27.8022C47.8096 27.8325 48.118 27.8485 48.4792 27.8485C48.8547 27.8485 49.1603 27.834 49.4173 27.8022C49.7185 27.7645 49.9613 27.7052 50.1583 27.6198C50.4167 27.5084 50.6209 27.3536 50.7637 27.1611C50.925 26.944 51.0107 26.6792 51.0107 26.3942V14.2127C51.8117 13.2576 52.5584 12.5225 53.2309 12.0233C53.862 11.5544 54.4788 11.3171 55.0599 11.3171C55.5397 11.3171 55.9509 11.4039 56.2793 11.5761C56.6077 11.7483 56.8747 11.9943 57.096 12.3272C57.3387 12.6933 57.5243 13.1433 57.6499 13.6671C57.7827 14.2243 57.8498 14.8537 57.8498 15.5382V26.3927C57.8498 26.6633 57.9198 26.9064 58.0554 27.1148C58.1982 27.3333 58.4167 27.5055 58.7065 27.6227C58.9064 27.7052 59.152 27.7631 59.4575 27.7993C59.7117 27.8296 60.0158 27.8441 60.3599 27.8441C60.7211 27.8441 61.021 27.8297 61.278 27.7978C61.5721 27.7616 61.8134 27.7038 62.0133 27.6213C62.286 27.5098 62.4988 27.3536 62.6458 27.1568C62.8072 26.9397 62.8928 26.6749 62.8928 26.3898V14.2127C63.7067 13.2562 64.4577 12.5182 65.1259 12.0189C65.7513 11.5515 66.3624 11.3156 66.9421 11.3156C67.4247 11.3156 67.8387 11.4039 68.1757 11.5776C68.5098 11.7498 68.7782 11.9943 68.9967 12.3257C69.2351 12.6875 69.4136 13.1332 69.5264 13.6498C69.6492 14.2127 69.7106 14.8465 69.7106 15.5368V26.3913C69.7106 26.6763 69.7948 26.9397 69.9533 27.1524C70.1004 27.3521 70.3131 27.5098 70.5887 27.6227C70.7886 27.7052 71.0284 27.7631 71.3254 27.7993C71.5724 27.8296 71.888 27.8456 72.262 27.8456C72.6233 27.8456 72.9231 27.8311 73.1801 27.7993C73.4814 27.7616 73.7227 27.7023 73.9197 27.6169C74.1796 27.5055 74.3838 27.3507 74.528 27.1582C74.6893 26.9411 74.775 26.6763 74.775 26.3913V15.0997C74.775 14.0361 74.6622 13.0087 74.438 12.045C74.2024 11.0306 73.8012 10.1305 73.2415 9.36934C72.6718 8.59081 71.9179 7.96133 71.0013 7.49827C70.0861 7.03665 68.9595 6.80223 67.6517 6.80223C67.0934 6.80223 66.5323 6.87458 65.984 7.01784C65.4372 7.1611 64.8732 7.38974 64.3092 7.69941C63.7595 7.99896 63.1827 8.3969 62.5944 8.87878C62.2803 9.13636 61.9533 9.42866 61.6178 9.74992C61.5064 9.56903 61.3865 9.39538 61.2609 9.22897C60.8811 8.72828 60.4184 8.28982 59.8816 7.92805C59.349 7.56918 58.7308 7.287 58.044 7.09164C57.3672 6.89918 56.6019 6.80078 55.7695 6.80078C54.643 6.80078 53.5193 7.09888 52.4299 7.68639C51.8588 7.99462 51.2734 8.40124 50.6837 8.90193V8.53293C50.6837 8.26522 50.6138 8.02211 50.4753 7.8065C50.351 7.61838 50.1726 7.4592 49.9427 7.33186C49.7314 7.21609 49.4758 7.14374 49.1617 7.1119C48.9361 7.08875 48.6648 7.07717 48.335 7.07717C47.9895 7.07717 47.7153 7.08875 47.494 7.1119C47.2013 7.14229 46.9543 7.20886 46.743 7.3116C46.4631 7.44762 46.2575 7.62995 46.1319 7.8557C46.0205 8.05395 45.9648 8.28114 45.9648 8.53148V26.3942C45.9648 26.6648 46.0348 26.9079 46.1704 27.1162C46.3161 27.3362 46.536 27.507 46.8258 27.6256Z" fill="#0426A0"/>
<path d="M35.2847 4.22597C35.7344 4.92057 36.5083 5.38073 37.3893 5.38073C38.4287 5.38073 39.3196 4.74258 39.7037 3.83237C40.786 3.49665 41.4828 3.01332 41.4399 2.5329C41.3999 2.08286 40.7132 1.77752 39.6223 1.65742C39.2026 0.839819 38.3616 0.28125 37.3907 0.28125C36.2556 0.28125 35.2975 1.04241 34.9834 2.08864C33.9797 2.407 33.3072 2.84402 33.34 3.28537C33.3743 3.77014 34.1482 4.09863 35.2847 4.22597ZM41.0558 2.57341C41.093 2.98583 40.5775 3.3968 39.7508 3.70358C39.8494 3.43008 39.9065 3.13633 39.9065 2.82955C39.9065 2.45186 39.8237 2.09588 39.678 1.77318C40.5161 1.90342 41.0202 2.17981 41.0558 2.57341ZM34.9406 2.25216C34.8978 2.43739 34.8735 2.6313 34.8735 2.82955C34.8735 3.29695 35.0005 3.73397 35.2176 4.11165C34.3452 3.96839 33.7684 3.67319 33.7384 3.25643C33.7112 2.89322 34.1953 2.53434 34.9406 2.25216Z" fill="#0426A0"/>
</svg>
