<svg width="54" height="54" viewBox="0 0 54 54" fill="none" xmlns="http://www.w3.org/2000/svg">
<g clip-path="url(#clip0_3633_67466)">
<path d="M27.012 9.10352C23.6862 9.10352 20.9805 11.8092 20.9805 15.1351C20.9805 18.4609 23.6862 21.1666 27.012 21.1666C30.3373 21.1666 33.0441 18.4609 33.0441 15.1351C33.0442 11.8092 30.3378 9.10352 27.012 9.10352ZM27.012 17.7525C25.5685 17.7525 24.3946 16.5786 24.3946 15.1351C24.3946 13.6915 25.569 12.5176 27.012 12.5176C28.4556 12.5176 29.63 13.6915 29.63 15.1351C29.63 16.5786 28.4557 17.7525 27.012 17.7525Z" fill="#3358FF"/>
<path d="M20.3122 8.43344C20.9791 7.76709 20.9791 6.68604 20.3122 6.01969C19.6459 5.35281 18.5648 5.35281 17.8985 6.01969C12.8724 11.0463 12.8724 19.2253 17.8985 24.252C18.2319 24.5854 18.6689 24.7522 19.1059 24.7522C19.5423 24.7522 19.9793 24.5854 20.3122 24.2526C20.9786 23.5857 20.9786 22.5045 20.3122 21.8383C16.617 18.1426 16.617 12.1292 20.3122 8.43344Z" fill="#3358FF"/>
<path d="M36.1288 6.01949C35.4619 5.35314 34.3819 5.35261 33.715 6.01949C33.0481 6.68637 33.0481 7.7669 33.715 8.43377C35.5113 10.2301 36.5008 12.6103 36.5008 15.1356C36.5008 17.6608 35.5113 20.041 33.715 21.838C33.0481 22.5043 33.0481 23.5854 33.715 24.2517C34.0485 24.5851 34.4849 24.7519 34.9219 24.7519C35.3583 24.7519 35.7953 24.5851 36.1288 24.2517C38.5704 21.8101 39.915 18.573 39.915 15.1356C39.915 11.6982 38.5704 8.46109 36.1288 6.01949Z" fill="#3358FF"/>
<path d="M9.69917 15.1642C9.69917 10.5472 11.5069 6.19715 14.7896 2.91391C15.4565 2.24756 15.4565 1.16651 14.7896 0.500158C14.1233 -0.166719 13.0422 -0.166719 12.3759 0.500158C8.448 4.42749 6.28516 9.63563 6.28516 15.1642C6.28516 20.6933 8.448 25.9009 12.3759 29.8282C12.7087 30.1617 13.1458 30.3284 13.5827 30.3284C14.0192 30.3284 14.4568 30.1616 14.7896 29.8282C15.4565 29.1613 15.4565 28.0808 14.7896 27.4145C11.507 24.1318 9.69917 19.7811 9.69917 15.1642Z" fill="#3358FF"/>
<path d="M41.6483 0.499763C40.9814 -0.166588 39.9014 -0.166588 39.2345 0.499763C38.5677 1.16664 38.5677 2.2478 39.2345 2.91404C45.9887 9.66878 45.9887 20.6599 39.2345 27.4146C38.5677 28.0809 38.5677 29.162 39.2345 29.8283C39.568 30.1618 40.0045 30.3285 40.4414 30.3285C40.8784 30.3285 41.3148 30.1617 41.6483 29.8277C49.734 21.7422 49.734 8.58551 41.6483 0.499763Z" fill="#3358FF"/>
<path d="M22.6517 29.2499L20.2148 31.6406L37.9107 49.6776L40.3476 47.2869L22.6517 29.2499Z" fill="#3358FF"/>
<path d="M31.4309 29.2485L13.6758 47.2871L16.109 49.6821L33.8642 31.6435L31.4309 29.2485Z" fill="#3358FF"/>
<path d="M42.1047 51.7149L30.2124 18.6547C29.8932 17.7676 28.9174 17.3078 28.028 17.6265C27.1409 17.9451 26.6805 18.9232 26.9997 19.8103L38.8922 52.8705C39.1426 53.5663 39.7992 53.9999 40.4985 53.9999C40.6902 53.9999 40.8848 53.9675 41.076 53.8992C41.9631 53.5795 42.424 52.6026 42.1047 51.7149Z" fill="#3358FF"/>
<path d="M26.0573 17.6268C25.173 17.3082 24.1921 17.7651 23.8717 18.6522L11.9224 51.7123C11.6021 52.5989 12.0607 53.5775 12.9477 53.898C13.1395 53.9674 13.3352 54.0004 13.5281 54.0004C14.2263 54.0004 14.8824 53.5685 15.1334 52.8726L27.0826 19.8124C27.403 18.9258 26.9444 17.9472 26.0573 17.6268Z" fill="#3358FF"/>
</g>
<defs>
<clipPath id="clip0_3633_67466">
<rect width="54" height="54" fill="white"/>
</clipPath>
</defs>
</svg>
