<svg width="33" height="32" viewBox="0 0 33 32" fill="none" xmlns="http://www.w3.org/2000/svg">
<g clip-path="url(#clip0_4022_50622)">
<path d="M31.8092 18.8697L31.8093 18.8698C32.0199 19.0136 32.0631 19.3073 31.903 19.5058C31.903 19.5058 31.903 19.5059 31.903 19.5059L27.5006 24.961L27.5006 24.961C27.3547 25.1417 27.0931 25.1771 26.9045 25.0413L23.2664 22.4228L22.9585 22.2012L22.6622 22.438L21.263 23.5558L21.263 23.5559C21.1102 23.678 20.8948 23.6837 20.7357 23.5701L16.874 20.8123L16.458 20.5152L16.1702 20.9377L14.4718 23.431L14.4718 23.4311C14.335 23.6319 14.0602 23.6828 13.8606 23.5441L12.9229 22.8929L12.5589 22.64L12.2642 22.9711C10.0241 25.4879 6.87089 26.8442 3.64575 26.8442H2.375H1.875V27.3442V29.2504C1.875 29.492 1.67911 29.6879 1.4375 29.6879C1.19589 29.6879 1 29.492 1 29.2504V19.6879C1 19.4463 1.19589 19.2504 1.4375 19.2504C1.67911 19.2504 1.875 19.4463 1.875 19.6879V21.7192V22.2192H2.375H4.13381C5.73692 22.2192 7.27155 21.5944 8.416 20.4901L8.85436 20.0671L8.35403 19.7196L7.70963 19.2721C7.7096 19.272 7.70957 19.272 7.70953 19.272C7.51037 19.1335 7.46185 18.8591 7.60137 18.6608C7.60138 18.6608 7.60138 18.6608 7.60138 18.6608L9.4095 16.0919L9.69533 15.6859L9.2912 15.3973L4.78746 12.181C4.14556 11.7226 4.02072 10.8158 4.5146 10.2009C4.51461 10.2009 4.51462 10.2008 4.51464 10.2008L10.439 2.82675C10.8979 2.25564 11.7221 2.14426 12.3159 2.57318L12.316 2.57319L30.3427 15.5916L30.3427 15.5917C30.577 15.7608 30.5852 16.1079 30.3597 16.2881L30.3597 16.2881L29.8139 16.7241L29.2855 17.1462L29.844 17.5276L31.8092 18.8697ZM1.875 25.4691V25.9691H2.375H3.64575C6.6041 25.9691 9.44985 24.7123 11.4503 22.5656L11.8438 22.1433L11.3697 21.8141L9.91622 20.8046L9.56187 20.5584L9.26653 20.8729C7.93848 22.2871 6.08018 23.0941 4.13375 23.0941H2.375H1.875V23.5941V25.4691ZM13.5827 22.2857L13.997 22.5735L14.2811 22.1565L15.4704 20.4108L15.7458 20.0066L15.3478 19.7224L10.8171 16.4869L10.4074 16.1943L10.1176 16.606L8.85981 18.393L8.57021 18.8044L8.98347 19.0915L13.5827 22.2857ZM20.6676 22.4462L20.9751 22.6658L21.2703 22.43L28.8495 16.3746L29.3636 15.9639L28.8302 15.5786L11.8037 3.28256L11.4186 3.00449L11.1212 3.37475L5.19671 10.7489L4.86529 11.1614L5.29592 11.4689L20.6676 22.4462ZM26.6955 23.8128L27.0796 24.0892L27.3767 23.721L30.5843 19.7465L30.9244 19.325L30.4772 19.0196L28.8758 17.9259L28.5705 17.7174L28.2817 17.9481L24.1833 21.2225L23.6684 21.6339L24.2033 22.019L26.6955 23.8128Z" fill="#030317"/>
<path d="M31.8092 18.8697L31.8093 18.8698C32.0199 19.0136 32.0631 19.3073 31.903 19.5058C31.903 19.5058 31.903 19.5059 31.903 19.5059L27.5006 24.961L27.5006 24.961C27.3547 25.1417 27.0931 25.1771 26.9045 25.0413L23.2664 22.4228L22.9585 22.2012L22.6622 22.438L21.263 23.5558L21.263 23.5559C21.1102 23.678 20.8948 23.6837 20.7357 23.5701L16.874 20.8123L16.458 20.5152L16.1702 20.9377L14.4718 23.431L14.4718 23.4311C14.335 23.6319 14.0602 23.6828 13.8606 23.5441L12.9229 22.8929L12.5589 22.64L12.2642 22.9711C10.0241 25.4879 6.87089 26.8442 3.64575 26.8442H2.375H1.875V27.3442V29.2504C1.875 29.492 1.67911 29.6879 1.4375 29.6879C1.19589 29.6879 1 29.492 1 29.2504V19.6879C1 19.4463 1.19589 19.2504 1.4375 19.2504C1.67911 19.2504 1.875 19.4463 1.875 19.6879V21.7192V22.2192H2.375H4.13381C5.73692 22.2192 7.27155 21.5944 8.416 20.4901L8.85436 20.0671L8.35403 19.7196L7.70963 19.2721C7.7096 19.272 7.70957 19.272 7.70953 19.272C7.51037 19.1335 7.46185 18.8591 7.60137 18.6608C7.60138 18.6608 7.60138 18.6608 7.60138 18.6608L9.4095 16.0919L9.69533 15.6859L9.2912 15.3973L4.78746 12.181C4.14556 11.7226 4.02072 10.8158 4.5146 10.2009C4.51461 10.2009 4.51462 10.2008 4.51464 10.2008L10.439 2.82675C10.8979 2.25564 11.7221 2.14426 12.3159 2.57318L12.316 2.57319L30.3427 15.5916L30.3427 15.5917C30.577 15.7608 30.5852 16.1079 30.3597 16.2881L30.3597 16.2881L29.8139 16.7241L29.2855 17.1462L29.844 17.5276L31.8092 18.8697ZM1.875 25.4691V25.9691H2.375H3.64575C6.6041 25.9691 9.44985 24.7123 11.4503 22.5656L11.8438 22.1433L11.3697 21.8141L9.91622 20.8046L9.56187 20.5584L9.26653 20.8729C7.93848 22.2871 6.08018 23.0941 4.13375 23.0941H2.375H1.875V23.5941V25.4691ZM13.5827 22.2857L13.997 22.5735L14.2811 22.1565L15.4704 20.4108L15.7458 20.0066L15.3478 19.7224L10.8171 16.4869L10.4074 16.1943L10.1176 16.606L8.85981 18.393L8.57021 18.8044L8.98347 19.0915L13.5827 22.2857ZM20.6676 22.4462L20.9751 22.6658L21.2703 22.43L28.8495 16.3746L29.3636 15.9639L28.8302 15.5786L11.8037 3.28256L11.4186 3.00449L11.1212 3.37475L5.19671 10.7489L4.86529 11.1614L5.29592 11.4689L20.6676 22.4462ZM26.6955 23.8128L27.0796 24.0892L27.3767 23.721L30.5843 19.7465L30.9244 19.325L30.4772 19.0196L28.8758 17.9259L28.5705 17.7174L28.2817 17.9481L24.1833 21.2225L23.6684 21.6339L24.2033 22.019L26.6955 23.8128Z" fill="black" fill-opacity="0.2"/>
<path d="M31.8092 18.8697L31.8093 18.8698C32.0199 19.0136 32.0631 19.3073 31.903 19.5058C31.903 19.5058 31.903 19.5059 31.903 19.5059L27.5006 24.961L27.5006 24.961C27.3547 25.1417 27.0931 25.1771 26.9045 25.0413L23.2664 22.4228L22.9585 22.2012L22.6622 22.438L21.263 23.5558L21.263 23.5559C21.1102 23.678 20.8948 23.6837 20.7357 23.5701L16.874 20.8123L16.458 20.5152L16.1702 20.9377L14.4718 23.431L14.4718 23.4311C14.335 23.6319 14.0602 23.6828 13.8606 23.5441L12.9229 22.8929L12.5589 22.64L12.2642 22.9711C10.0241 25.4879 6.87089 26.8442 3.64575 26.8442H2.375H1.875V27.3442V29.2504C1.875 29.492 1.67911 29.6879 1.4375 29.6879C1.19589 29.6879 1 29.492 1 29.2504V19.6879C1 19.4463 1.19589 19.2504 1.4375 19.2504C1.67911 19.2504 1.875 19.4463 1.875 19.6879V21.7192V22.2192H2.375H4.13381C5.73692 22.2192 7.27155 21.5944 8.416 20.4901L8.85436 20.0671L8.35403 19.7196L7.70963 19.2721C7.7096 19.272 7.70957 19.272 7.70953 19.272C7.51037 19.1335 7.46185 18.8591 7.60137 18.6608C7.60138 18.6608 7.60138 18.6608 7.60138 18.6608L9.4095 16.0919L9.69533 15.6859L9.2912 15.3973L4.78746 12.181C4.14556 11.7226 4.02072 10.8158 4.5146 10.2009C4.51461 10.2009 4.51462 10.2008 4.51464 10.2008L10.439 2.82675C10.8979 2.25564 11.7221 2.14426 12.3159 2.57318L12.316 2.57319L30.3427 15.5916L30.3427 15.5917C30.577 15.7608 30.5852 16.1079 30.3597 16.2881L30.3597 16.2881L29.8139 16.7241L29.2855 17.1462L29.844 17.5276L31.8092 18.8697ZM1.875 25.4691V25.9691H2.375H3.64575C6.6041 25.9691 9.44985 24.7123 11.4503 22.5656L11.8438 22.1433L11.3697 21.8141L9.91622 20.8046L9.56187 20.5584L9.26653 20.8729C7.93848 22.2871 6.08018 23.0941 4.13375 23.0941H2.375H1.875V23.5941V25.4691ZM13.5827 22.2857L13.997 22.5735L14.2811 22.1565L15.4704 20.4108L15.7458 20.0066L15.3478 19.7224L10.8171 16.4869L10.4074 16.1943L10.1176 16.606L8.85981 18.393L8.57021 18.8044L8.98347 19.0915L13.5827 22.2857ZM20.6676 22.4462L20.9751 22.6658L21.2703 22.43L28.8495 16.3746L29.3636 15.9639L28.8302 15.5786L11.8037 3.28256L11.4186 3.00449L11.1212 3.37475L5.19671 10.7489L4.86529 11.1614L5.29592 11.4689L20.6676 22.4462ZM26.6955 23.8128L27.0796 24.0892L27.3767 23.721L30.5843 19.7465L30.9244 19.325L30.4772 19.0196L28.8758 17.9259L28.5705 17.7174L28.2817 17.9481L24.1833 21.2225L23.6684 21.6339L24.2033 22.019L26.6955 23.8128Z" stroke="#030317"/>
<path d="M31.8092 18.8697L31.8093 18.8698C32.0199 19.0136 32.0631 19.3073 31.903 19.5058C31.903 19.5058 31.903 19.5059 31.903 19.5059L27.5006 24.961L27.5006 24.961C27.3547 25.1417 27.0931 25.1771 26.9045 25.0413L23.2664 22.4228L22.9585 22.2012L22.6622 22.438L21.263 23.5558L21.263 23.5559C21.1102 23.678 20.8948 23.6837 20.7357 23.5701L16.874 20.8123L16.458 20.5152L16.1702 20.9377L14.4718 23.431L14.4718 23.4311C14.335 23.6319 14.0602 23.6828 13.8606 23.5441L12.9229 22.8929L12.5589 22.64L12.2642 22.9711C10.0241 25.4879 6.87089 26.8442 3.64575 26.8442H2.375H1.875V27.3442V29.2504C1.875 29.492 1.67911 29.6879 1.4375 29.6879C1.19589 29.6879 1 29.492 1 29.2504V19.6879C1 19.4463 1.19589 19.2504 1.4375 19.2504C1.67911 19.2504 1.875 19.4463 1.875 19.6879V21.7192V22.2192H2.375H4.13381C5.73692 22.2192 7.27155 21.5944 8.416 20.4901L8.85436 20.0671L8.35403 19.7196L7.70963 19.2721C7.7096 19.272 7.70957 19.272 7.70953 19.272C7.51037 19.1335 7.46185 18.8591 7.60137 18.6608C7.60138 18.6608 7.60138 18.6608 7.60138 18.6608L9.4095 16.0919L9.69533 15.6859L9.2912 15.3973L4.78746 12.181C4.14556 11.7226 4.02072 10.8158 4.5146 10.2009C4.51461 10.2009 4.51462 10.2008 4.51464 10.2008L10.439 2.82675C10.8979 2.25564 11.7221 2.14426 12.3159 2.57318L12.316 2.57319L30.3427 15.5916L30.3427 15.5917C30.577 15.7608 30.5852 16.1079 30.3597 16.2881L30.3597 16.2881L29.8139 16.7241L29.2855 17.1462L29.844 17.5276L31.8092 18.8697ZM1.875 25.4691V25.9691H2.375H3.64575C6.6041 25.9691 9.44985 24.7123 11.4503 22.5656L11.8438 22.1433L11.3697 21.8141L9.91622 20.8046L9.56187 20.5584L9.26653 20.8729C7.93848 22.2871 6.08018 23.0941 4.13375 23.0941H2.375H1.875V23.5941V25.4691ZM13.5827 22.2857L13.997 22.5735L14.2811 22.1565L15.4704 20.4108L15.7458 20.0066L15.3478 19.7224L10.8171 16.4869L10.4074 16.1943L10.1176 16.606L8.85981 18.393L8.57021 18.8044L8.98347 19.0915L13.5827 22.2857ZM20.6676 22.4462L20.9751 22.6658L21.2703 22.43L28.8495 16.3746L29.3636 15.9639L28.8302 15.5786L11.8037 3.28256L11.4186 3.00449L11.1212 3.37475L5.19671 10.7489L4.86529 11.1614L5.29592 11.4689L20.6676 22.4462ZM26.6955 23.8128L27.0796 24.0892L27.3767 23.721L30.5843 19.7465L30.9244 19.325L30.4772 19.0196L28.8758 17.9259L28.5705 17.7174L28.2817 17.9481L24.1833 21.2225L23.6684 21.6339L24.2033 22.019L26.6955 23.8128Z" stroke="black" stroke-opacity="0.2"/>
<path d="M24.4375 15.0625C24.4375 15.3041 24.2416 15.5 24 15.5C23.7584 15.5 23.5625 15.3041 23.5625 15.0625C23.5625 14.8209 23.7584 14.625 24 14.625C24.2416 14.625 24.4375 14.8209 24.4375 15.0625Z" fill="#030317"/>
<path d="M24.4375 15.0625C24.4375 15.3041 24.2416 15.5 24 15.5C23.7584 15.5 23.5625 15.3041 23.5625 15.0625C23.5625 14.8209 23.7584 14.625 24 14.625C24.2416 14.625 24.4375 14.8209 24.4375 15.0625Z" fill="black" fill-opacity="0.2"/>
<path d="M24.4375 15.0625C24.4375 15.3041 24.2416 15.5 24 15.5C23.7584 15.5 23.5625 15.3041 23.5625 15.0625C23.5625 14.8209 23.7584 14.625 24 14.625C24.2416 14.625 24.4375 14.8209 24.4375 15.0625Z" stroke="#030317"/>
<path d="M24.4375 15.0625C24.4375 15.3041 24.2416 15.5 24 15.5C23.7584 15.5 23.5625 15.3041 23.5625 15.0625C23.5625 14.8209 23.7584 14.625 24 14.625C24.2416 14.625 24.4375 14.8209 24.4375 15.0625Z" stroke="black" stroke-opacity="0.2"/>
</g>
<defs>
<clipPath id="clip0_4022_50622">
<rect width="32" height="32" fill="white" transform="translate(0.5)"/>
</clipPath>
</defs>
</svg>
