<svg width="33" height="32" viewBox="0 0 33 32" fill="none" xmlns="http://www.w3.org/2000/svg">
<g clip-path="url(#clip0_4022_45788)">
<path d="M29.6875 26.8945H3.3125C2.27694 26.8945 1.4375 26.0551 1.4375 25.0195V17.5195H31.5625V25.0195C31.5625 26.0551 30.7231 26.8945 29.6875 26.8945Z" stroke="#030317" stroke-width="1.77778" stroke-miterlimit="10"/>
<path d="M29.6875 26.8945H3.3125C2.27694 26.8945 1.4375 26.0551 1.4375 25.0195V17.5195H31.5625V25.0195C31.5625 26.0551 30.7231 26.8945 29.6875 26.8945Z" stroke="black" stroke-opacity="0.2" stroke-width="1.77778" stroke-miterlimit="10"/>
<path d="M30.4873 2.73512C30.6064 2.25886 30.3168 1.77625 29.8406 1.65718C29.3643 1.53812 28.8817 1.82768 28.7627 2.30394L30.4873 2.73512ZM28.7627 2.30394L25.0127 17.3039L26.7373 17.7351L30.4873 2.73512L28.7627 2.30394Z" fill="#030317"/>
<path d="M30.4873 2.73512C30.6064 2.25886 30.3168 1.77625 29.8406 1.65718C29.3643 1.53812 28.8817 1.82768 28.7627 2.30394L30.4873 2.73512ZM28.7627 2.30394L25.0127 17.3039L26.7373 17.7351L30.4873 2.73512L28.7627 2.30394Z" fill="black" fill-opacity="0.2"/>
<path d="M4.23735 2.30394C4.11828 1.82768 3.63567 1.53812 3.15941 1.65718C2.68315 1.77625 2.39359 2.25886 2.51265 2.73512L4.23735 2.30394ZM2.51265 2.73512L6.26265 17.7351L7.98735 17.3039L4.23735 2.30394L2.51265 2.73512Z" fill="#030317"/>
<path d="M4.23735 2.30394C4.11828 1.82768 3.63567 1.53812 3.15941 1.65718C2.68315 1.77625 2.39359 2.25886 2.51265 2.73512L4.23735 2.30394ZM2.51265 2.73512L6.26265 17.7351L7.98735 17.3039L4.23735 2.30394L2.51265 2.73512Z" fill="black" fill-opacity="0.2"/>
<path d="M4.3125 21.2695H9.9375" stroke="#030317" stroke-width="1.875" stroke-miterlimit="10" stroke-linecap="round"/>
<path d="M4.3125 21.2695H9.9375" stroke="black" stroke-opacity="0.2" stroke-width="1.875" stroke-miterlimit="10" stroke-linecap="round"/>
<path d="M6.23611 24.082C6.23611 24.573 6.63408 24.9709 7.125 24.9709C7.61592 24.9709 8.01389 24.573 8.01389 24.082H6.23611ZM6.23611 21.2695V24.082H8.01389V21.2695H6.23611Z" fill="#030317"/>
<path d="M6.23611 24.082C6.23611 24.573 6.63408 24.9709 7.125 24.9709C7.61592 24.9709 8.01389 24.573 8.01389 24.082H6.23611ZM6.23611 21.2695V24.082H8.01389V21.2695H6.23611Z" fill="black" fill-opacity="0.2"/>
<path d="M13.6875 21.2695H19.3125" stroke="#030317" stroke-width="1.875" stroke-miterlimit="10" stroke-linecap="round"/>
<path d="M13.6875 21.2695H19.3125" stroke="black" stroke-opacity="0.2" stroke-width="1.875" stroke-miterlimit="10" stroke-linecap="round"/>
<path d="M15.6111 24.082C15.6111 24.573 16.0091 24.9709 16.5 24.9709C16.9909 24.9709 17.3889 24.573 17.3889 24.082H15.6111ZM15.6111 21.2695V24.082H17.3889V21.2695H15.6111Z" fill="black"/>
<path d="M23.0625 21.2695H28.6875" stroke="black" stroke-width="1.77778" stroke-miterlimit="10" stroke-linecap="round"/>
<path d="M24.9375 24.082C24.9375 24.5998 25.3572 25.0195 25.875 25.0195C26.3928 25.0195 26.8125 24.5998 26.8125 24.082H24.9375ZM24.9375 21.2695V24.082H26.8125V21.2695H24.9375Z" fill="black"/>
<path d="M4.29861 29.707C4.29861 30.198 4.69658 30.5959 5.1875 30.5959C5.67842 30.5959 6.07639 30.198 6.07639 29.707H4.29861ZM6.07639 29.707V26.8945H4.29861V29.707H6.07639Z" fill="black"/>
<path d="M26.9236 29.707C26.9236 30.198 27.3216 30.5959 27.8125 30.5959C28.3034 30.5959 28.7014 30.198 28.7014 29.707H26.9236ZM28.7014 29.707V26.8945H26.9236V29.707H28.7014Z" fill="black"/>
<path d="M15.5625 11.8945H17.4375" stroke="black" stroke-width="1.77778" stroke-miterlimit="10" stroke-linecap="round"/>
<path d="M11.1992 6.59372C12.5573 5.23566 14.4323 4.39453 16.5 4.39453C18.5677 4.39453 20.4427 5.23566 21.8008 6.59372" stroke="black" stroke-width="1.77778" stroke-miterlimit="10" stroke-linecap="round"/>
<path d="M13.8477 9.24291C14.5263 8.56428 15.4638 8.14453 16.4993 8.14453C17.5348 8.14453 18.4723 8.56428 19.1509 9.24291" stroke="black" stroke-width="1.77778" stroke-miterlimit="10" stroke-linecap="round"/>
</g>
<defs>
<clipPath id="clip0_4022_45788">
<rect width="32" height="32" fill="white" transform="translate(0.5)"/>
</clipPath>
</defs>
</svg>
