<svg width="33" height="32" viewBox="0 0 33 32" fill="none" xmlns="http://www.w3.org/2000/svg">
<g clip-path="url(#clip0_4022_36567)">
<path d="M1.7041 10.2409L2.00513 9.90642L1.7041 9.57194C1.39973 9.23376 1.21875 8.74258 1.21875 8.24067V2.76122C1.21875 1.63462 2.13462 0.71875 3.26122 0.71875H29.7379C30.8645 0.71875 31.7804 1.63462 31.7804 2.76122V8.19683C31.7804 8.73792 31.6023 9.18669 31.295 9.5281L30.994 9.86259L31.295 10.1971C31.5994 10.5353 31.7804 11.0264 31.7804 11.5283V17.0078C31.7804 18.1344 30.8645 19.0503 29.7379 19.0503H17.3763H16.8763V19.5503V25.1174V25.6174H17.3763H18.9982C19.2043 25.6174 19.3749 25.788 19.3749 25.9941V27.616V28.116H19.8749H31.4037C31.6097 28.116 31.7804 28.2867 31.7804 28.4927C31.7804 28.6988 31.6097 28.8694 31.4037 28.8694H19.8749H19.3749V29.3694V30.9914C19.3749 31.1974 19.2043 31.3681 18.9982 31.3681H14.0009C13.7949 31.3681 13.6242 31.1974 13.6242 30.9914V29.3694V28.8694H13.1242H1.59546C1.38941 28.8694 1.21875 28.6988 1.21875 28.4927C1.21875 28.2867 1.38941 28.116 1.59546 28.116H13.1242H13.6242V27.616V25.9941C13.6242 25.788 13.7949 25.6174 14.0009 25.6174H15.6229H16.1229V25.1174V19.5941V19.0941H15.6229H3.26122C2.13462 19.0941 1.21875 18.1782 1.21875 17.0516V11.5722C1.21875 11.0311 1.39682 10.5823 1.7041 10.2409ZM18.6215 26.7831V26.2831H18.1215H14.8777H14.3777V26.7831V30.027V30.527H14.8777H18.1215H18.6215V30.027V26.7831ZM22.3475 1.97217V1.47217H21.8475H3.26122C2.54672 1.47217 1.97217 2.04672 1.97217 2.76122V8.19683C1.97217 8.91133 2.54672 9.48587 3.26122 9.48587H29.7379C30.4524 9.48587 31.027 8.91133 31.027 8.19683V2.76122C31.027 2.04672 30.4524 1.47217 29.7379 1.47217H27.1078H26.6078V1.97217V5.47902C26.6078 5.68507 26.4371 5.85574 26.2311 5.85574C26.025 5.85574 25.8544 5.68507 25.8544 5.47902V1.97217V1.47217H25.3544H23.6009H23.1009V1.97217V3.7256C23.1009 3.93165 22.9303 4.10231 22.7242 4.10231C22.5182 4.10231 22.3475 3.93165 22.3475 3.7256V1.97217ZM29.7379 18.2968C30.4524 18.2968 31.027 17.7223 31.027 17.0078V11.5283C31.027 10.8138 30.4524 10.2393 29.7379 10.2393H3.26122C2.54672 10.2393 1.97217 10.8138 1.97217 11.5283V17.0078C1.97217 17.7223 2.54672 18.2968 3.26122 18.2968H29.7379Z" fill="black"/>
<path d="M1.7041 10.2409L2.00513 9.90642L1.7041 9.57194C1.39973 9.23376 1.21875 8.74258 1.21875 8.24067V2.76122C1.21875 1.63462 2.13462 0.71875 3.26122 0.71875H29.7379C30.8645 0.71875 31.7804 1.63462 31.7804 2.76122V8.19683C31.7804 8.73792 31.6023 9.18669 31.295 9.5281L30.994 9.86259L31.295 10.1971C31.5994 10.5353 31.7804 11.0264 31.7804 11.5283V17.0078C31.7804 18.1344 30.8645 19.0503 29.7379 19.0503H17.3763H16.8763V19.5503V25.1174V25.6174H17.3763H18.9982C19.2043 25.6174 19.3749 25.788 19.3749 25.9941V27.616V28.116H19.8749H31.4037C31.6097 28.116 31.7804 28.2867 31.7804 28.4927C31.7804 28.6988 31.6097 28.8694 31.4037 28.8694H19.8749H19.3749V29.3694V30.9914C19.3749 31.1974 19.2043 31.3681 18.9982 31.3681H14.0009C13.7949 31.3681 13.6242 31.1974 13.6242 30.9914V29.3694V28.8694H13.1242H1.59546C1.38941 28.8694 1.21875 28.6988 1.21875 28.4927C1.21875 28.2867 1.38941 28.116 1.59546 28.116H13.1242H13.6242V27.616V25.9941C13.6242 25.788 13.7949 25.6174 14.0009 25.6174H15.6229H16.1229V25.1174V19.5941V19.0941H15.6229H3.26122C2.13462 19.0941 1.21875 18.1782 1.21875 17.0516V11.5722C1.21875 11.0311 1.39682 10.5823 1.7041 10.2409ZM18.6215 26.7831V26.2831H18.1215H14.8777H14.3777V26.7831V30.027V30.527H14.8777H18.1215H18.6215V30.027V26.7831ZM22.3475 1.97217V1.47217H21.8475H3.26122C2.54672 1.47217 1.97217 2.04672 1.97217 2.76122V8.19683C1.97217 8.91133 2.54672 9.48587 3.26122 9.48587H29.7379C30.4524 9.48587 31.027 8.91133 31.027 8.19683V2.76122C31.027 2.04672 30.4524 1.47217 29.7379 1.47217H27.1078H26.6078V1.97217V5.47902C26.6078 5.68507 26.4371 5.85574 26.2311 5.85574C26.025 5.85574 25.8544 5.68507 25.8544 5.47902V1.97217V1.47217H25.3544H23.6009H23.1009V1.97217V3.7256C23.1009 3.93165 22.9303 4.10231 22.7242 4.10231C22.5182 4.10231 22.3475 3.93165 22.3475 3.7256V1.97217ZM29.7379 18.2968C30.4524 18.2968 31.027 17.7223 31.027 17.0078V11.5283C31.027 10.8138 30.4524 10.2393 29.7379 10.2393H3.26122C2.54672 10.2393 1.97217 10.8138 1.97217 11.5283V17.0078C1.97217 17.7223 2.54672 18.2968 3.26122 18.2968H29.7379Z" stroke="#030317"/>
<path d="M1.7041 10.2409L2.00513 9.90642L1.7041 9.57194C1.39973 9.23376 1.21875 8.74258 1.21875 8.24067V2.76122C1.21875 1.63462 2.13462 0.71875 3.26122 0.71875H29.7379C30.8645 0.71875 31.7804 1.63462 31.7804 2.76122V8.19683C31.7804 8.73792 31.6023 9.18669 31.295 9.5281L30.994 9.86259L31.295 10.1971C31.5994 10.5353 31.7804 11.0264 31.7804 11.5283V17.0078C31.7804 18.1344 30.8645 19.0503 29.7379 19.0503H17.3763H16.8763V19.5503V25.1174V25.6174H17.3763H18.9982C19.2043 25.6174 19.3749 25.788 19.3749 25.9941V27.616V28.116H19.8749H31.4037C31.6097 28.116 31.7804 28.2867 31.7804 28.4927C31.7804 28.6988 31.6097 28.8694 31.4037 28.8694H19.8749H19.3749V29.3694V30.9914C19.3749 31.1974 19.2043 31.3681 18.9982 31.3681H14.0009C13.7949 31.3681 13.6242 31.1974 13.6242 30.9914V29.3694V28.8694H13.1242H1.59546C1.38941 28.8694 1.21875 28.6988 1.21875 28.4927C1.21875 28.2867 1.38941 28.116 1.59546 28.116H13.1242H13.6242V27.616V25.9941C13.6242 25.788 13.7949 25.6174 14.0009 25.6174H15.6229H16.1229V25.1174V19.5941V19.0941H15.6229H3.26122C2.13462 19.0941 1.21875 18.1782 1.21875 17.0516V11.5722C1.21875 11.0311 1.39682 10.5823 1.7041 10.2409ZM18.6215 26.7831V26.2831H18.1215H14.8777H14.3777V26.7831V30.027V30.527H14.8777H18.1215H18.6215V30.027V26.7831ZM22.3475 1.97217V1.47217H21.8475H3.26122C2.54672 1.47217 1.97217 2.04672 1.97217 2.76122V8.19683C1.97217 8.91133 2.54672 9.48587 3.26122 9.48587H29.7379C30.4524 9.48587 31.027 8.91133 31.027 8.19683V2.76122C31.027 2.04672 30.4524 1.47217 29.7379 1.47217H27.1078H26.6078V1.97217V5.47902C26.6078 5.68507 26.4371 5.85574 26.2311 5.85574C26.025 5.85574 25.8544 5.68507 25.8544 5.47902V1.97217V1.47217H25.3544H23.6009H23.1009V1.97217V3.7256C23.1009 3.93165 22.9303 4.10231 22.7242 4.10231C22.5182 4.10231 22.3475 3.93165 22.3475 3.7256V1.97217ZM29.7379 18.2968C30.4524 18.2968 31.027 17.7223 31.027 17.0078V11.5283C31.027 10.8138 30.4524 10.2393 29.7379 10.2393H3.26122C2.54672 10.2393 1.97217 10.8138 1.97217 11.5283V17.0078C1.97217 17.7223 2.54672 18.2968 3.26122 18.2968H29.7379Z" stroke="black" stroke-opacity="0.2"/>
<path d="M5.18921 5.10156H5.6714C5.87745 5.10156 6.04812 5.27223 6.04812 5.47827C6.04812 5.68432 5.87745 5.85499 5.6714 5.85499H5.18921C4.98316 5.85499 4.8125 5.68432 4.8125 5.47827C4.8125 5.27223 4.98316 5.10156 5.18921 5.10156Z" fill="black"/>
<path d="M5.18921 5.10156H5.6714C5.87745 5.10156 6.04812 5.27223 6.04812 5.47827C6.04812 5.68432 5.87745 5.85499 5.6714 5.85499H5.18921C4.98316 5.85499 4.8125 5.68432 4.8125 5.47827C4.8125 5.27223 4.98316 5.10156 5.18921 5.10156Z" stroke="#030317"/>
<path d="M5.18921 5.10156H5.6714C5.87745 5.10156 6.04812 5.27223 6.04812 5.47827C6.04812 5.68432 5.87745 5.85499 5.6714 5.85499H5.18921C4.98316 5.85499 4.8125 5.68432 4.8125 5.47827C4.8125 5.27223 4.98316 5.10156 5.18921 5.10156Z" stroke="black" stroke-opacity="0.2"/>
<path d="M9.39797 4.60156H8.91577C8.43358 4.60156 8.03906 4.99608 8.03906 5.47827C8.03906 5.96047 8.43358 6.35499 8.91577 6.35499H9.39797C9.88016 6.35499 10.2747 5.96047 10.2747 5.47827C10.2747 4.99608 9.88016 4.60156 9.39797 4.60156Z" fill="black"/>
<path d="M13.1245 4.60156H12.6423C12.1601 4.60156 11.7656 4.99608 11.7656 5.47827C11.7656 5.96047 12.1601 6.35499 12.6423 6.35499H13.1245C13.6067 6.35499 14.0012 5.96047 14.0012 5.47827C14.0012 4.99608 13.6067 4.60156 13.1245 4.60156Z" fill="black"/>
<path d="M5.6714 13.3691H5.18921C4.70702 13.3691 4.3125 13.7637 4.3125 14.2459C4.3125 14.728 4.70702 15.1226 5.18921 15.1226H5.6714C6.1536 15.1226 6.54812 14.728 6.54812 14.2459C6.54812 13.7637 6.1536 13.3691 5.6714 13.3691Z" fill="black"/>
<path d="M9.39797 13.3691H8.91577C8.43358 13.3691 8.03906 13.7637 8.03906 14.2459C8.03906 14.728 8.43358 15.1226 8.91577 15.1226H9.39797C9.88016 15.1226 10.2747 14.728 10.2747 14.2459C10.2747 13.7637 9.88016 13.3691 9.39797 13.3691Z" fill="black"/>
<path d="M13.1245 13.3691H12.6423C12.1601 13.3691 11.7656 13.7637 11.7656 14.2459C11.7656 14.728 12.1601 15.1226 12.6423 15.1226H13.1245C13.6067 15.1226 14.0012 14.728 14.0012 14.2459C14.0012 13.7637 13.6067 13.3691 13.1245 13.3691Z" fill="black"/>
</g>
<defs>
<clipPath id="clip0_4022_36567">
<rect width="32" height="32" fill="white" transform="translate(0.5)"/>
</clipPath>
</defs>
</svg>
