<svg width="33" height="32" viewBox="0 0 33 32" fill="none" xmlns="http://www.w3.org/2000/svg">
<g clip-path="url(#clip0_4022_28235)">
<path d="M17.645 24.986L17.4792 25.651L16.5 25.1291C16.4827 25.1406 16.0924 25.3485 15.521 25.6516L15.3391 24.9223C15.4502 24.6165 15.5865 24.3052 15.7478 23.9948C15.8536 23.7911 15.9702 23.5879 16.0976 23.3867H16.8818C16.9847 23.5498 17.0796 23.714 17.1667 23.8781C17.2388 24.0137 17.3055 24.1494 17.3671 24.2844C17.4687 24.5074 17.562 24.7417 17.645 24.986Z" fill="#030317"/>
<path d="M17.645 24.986L17.4792 25.651L16.5 25.1291C16.4827 25.1406 16.0924 25.3485 15.521 25.6516L15.3391 24.9223C15.4502 24.6165 15.5865 24.3052 15.7478 23.9948C15.8536 23.7911 15.9702 23.5879 16.0976 23.3867H16.8818C16.9847 23.5498 17.0796 23.714 17.1667 23.8781C17.2388 24.0137 17.3055 24.1494 17.3671 24.2844C17.4687 24.5074 17.562 24.7417 17.645 24.986Z" fill="black" fill-opacity="0.2"/>
<path d="M17.645 24.986L17.4792 25.651L16.5 25.1291C16.4827 25.1406 16.0924 25.3485 15.521 25.6516L15.3391 24.9223C15.4502 24.6165 15.5865 24.3052 15.7478 23.9948C15.8536 23.7911 15.9702 23.5879 16.0976 23.3867H16.8818C16.9847 23.5498 17.0796 23.714 17.1667 23.8781C17.2388 24.0137 17.3055 24.1494 17.3671 24.2844C17.4687 24.5074 17.562 24.7417 17.645 24.986Z" stroke="#030317" stroke-width="17.0667"/>
<path d="M17.645 24.986L17.4792 25.651L16.5 25.1291C16.4827 25.1406 16.0924 25.3485 15.521 25.6516L15.3391 24.9223C15.4502 24.6165 15.5865 24.3052 15.7478 23.9948C15.8536 23.7911 15.9702 23.5879 16.0976 23.3867H16.8818C16.9847 23.5498 17.0796 23.714 17.1667 23.8781C17.2388 24.0137 17.3055 24.1494 17.3671 24.2844C17.4687 24.5074 17.562 24.7417 17.645 24.986Z" stroke="black" stroke-opacity="0.2" stroke-width="17.0667"/>
<path d="M15.0815 10.6914H12.8768H12.0768H11.2768H9.06562C8.62402 10.6914 8.26562 11.0498 8.26562 11.4914C8.26562 11.933 8.62402 12.2914 9.06562 12.2914H11.2768V17.2791C11.2768 17.7207 11.6352 18.0791 12.0768 18.0791C12.5184 18.0791 12.8768 17.7207 12.8768 17.2791V12.2914H15.0799L15.0839 11.4914L15.0844 11.4025L15.0815 10.6914ZM15.088 12.2914C15.6114 12.2893 15.873 11.8903 15.8728 11.4914C15.8727 11.0927 15.6111 10.6941 15.088 10.6914V11.4914V12.2914Z" fill="#030317"/>
<path d="M15.0815 10.6914H12.8768H12.0768H11.2768H9.06562C8.62402 10.6914 8.26562 11.0498 8.26562 11.4914C8.26562 11.933 8.62402 12.2914 9.06562 12.2914H11.2768V17.2791C11.2768 17.7207 11.6352 18.0791 12.0768 18.0791C12.5184 18.0791 12.8768 17.7207 12.8768 17.2791V12.2914H15.0799L15.0839 11.4914L15.0844 11.4025L15.0815 10.6914ZM15.088 12.2914C15.6114 12.2893 15.873 11.8903 15.8728 11.4914C15.8727 11.0927 15.6111 10.6941 15.088 10.6914V11.4914V12.2914Z" fill="black" fill-opacity="0.2"/>
<path d="M15.0815 10.6914H12.8768H12.0768H11.2768H9.06562C8.62402 10.6914 8.26562 11.0498 8.26562 11.4914C8.26562 11.933 8.62402 12.2914 9.06562 12.2914H11.2768V17.2791C11.2768 17.7207 11.6352 18.0791 12.0768 18.0791C12.5184 18.0791 12.8768 17.7207 12.8768 17.2791V12.2914H15.0799L15.0839 11.4914L15.0844 11.4025L15.0815 10.6914ZM15.088 12.2914C15.6114 12.2893 15.873 11.8903 15.8728 11.4914C15.8727 11.0927 15.6111 10.6941 15.088 10.6914V11.4914V12.2914Z" stroke="#030317" stroke-width="17.0667"/>
<path d="M15.0815 10.6914H12.8768H12.0768H11.2768H9.06562C8.62402 10.6914 8.26562 11.0498 8.26562 11.4914C8.26562 11.933 8.62402 12.2914 9.06562 12.2914H11.2768V17.2791C11.2768 17.7207 11.6352 18.0791 12.0768 18.0791C12.5184 18.0791 12.8768 17.7207 12.8768 17.2791V12.2914H15.0799L15.0839 11.4914L15.0844 11.4025L15.0815 10.6914ZM15.088 12.2914C15.6114 12.2893 15.873 11.8903 15.8728 11.4914C15.8727 11.0927 15.6111 10.6941 15.088 10.6914V11.4914V12.2914Z" stroke="black" stroke-opacity="0.2" stroke-width="17.0667"/>
<path d="M22.2693 14.8865L23.445 14.3135L22.5474 16.1542L22.2766 16.7095L22.2591 16.7454L21.8276 17.6304C21.631 18.0469 21.1257 18.165 20.7513 17.9892C20.5995 17.9179 20.4691 17.7981 20.3897 17.6304L19.9596 16.7491L19.9406 16.7102L19.6691 16.1538L18.7699 14.3112L21.1086 15.4522L22.2693 14.8865Z" fill="#030317"/>
<path d="M22.2693 14.8865L23.445 14.3135L22.5474 16.1542L22.2766 16.7095L22.2591 16.7454L21.8276 17.6304C21.631 18.0469 21.1257 18.165 20.7513 17.9892C20.5995 17.9179 20.4691 17.7981 20.3897 17.6304L19.9596 16.7491L19.9406 16.7102L19.6691 16.1538L18.7699 14.3112L21.1086 15.4522L22.2693 14.8865Z" fill="black" fill-opacity="0.2"/>
<path d="M22.2693 14.8865L23.445 14.3135L22.5474 16.1542L22.2766 16.7095L22.2591 16.7454L21.8276 17.6304C21.631 18.0469 21.1257 18.165 20.7513 17.9892C20.5995 17.9179 20.4691 17.7981 20.3897 17.6304L19.9596 16.7491L19.9406 16.7102L19.6691 16.1538L18.7699 14.3112L21.1086 15.4522L22.2693 14.8865Z" stroke="#030317" stroke-width="17.0667"/>
<path d="M22.2693 14.8865L23.445 14.3135L22.5474 16.1542L22.2766 16.7095L22.2591 16.7454L21.8276 17.6304C21.631 18.0469 21.1257 18.165 20.7513 17.9892C20.5995 17.9179 20.4691 17.7981 20.3897 17.6304L19.9596 16.7491L19.9406 16.7102L19.6691 16.1538L18.7699 14.3112L21.1086 15.4522L22.2693 14.8865Z" stroke="black" stroke-opacity="0.2" stroke-width="17.0667"/>
</g>
<defs>
<clipPath id="clip0_4022_28235">
<rect width="32" height="32" fill="white" transform="translate(0.5)"/>
</clipPath>
</defs>
</svg>
