<svg width="54" height="54" viewBox="0 0 54 54" fill="none" xmlns="http://www.w3.org/2000/svg">
<path d="M49.2539 45.3848H4.74609C2.99858 45.3848 1.58203 43.9682 1.58203 42.2207V29.5645H52.418V42.2207C52.418 43.9682 51.0014 45.3848 49.2539 45.3848Z" stroke="#3358FF" stroke-width="3" stroke-miterlimit="10"/>
<path d="M50.6037 4.61576C50.8046 3.81206 50.3159 2.99766 49.5122 2.79674C48.7085 2.59582 47.8941 3.08446 47.6932 3.88815L50.6037 4.61576ZM47.6932 3.88815L41.3651 29.2006L44.2755 29.9283L50.6037 4.61576L47.6932 3.88815Z" fill="#3358FF"/>
<path d="M6.30678 3.88815C6.10585 3.08446 5.29145 2.59582 4.48776 2.79674C3.68407 2.99766 3.19543 3.81206 3.39635 4.61576L6.30678 3.88815ZM3.39635 4.61576L9.72447 29.9283L12.6349 29.2006L6.30678 3.88815L3.39635 4.61576Z" fill="#3358FF"/>
<path d="M6.43359 35.8926H15.9258" stroke="#3358FF" stroke-width="3.16406" stroke-miterlimit="10" stroke-linecap="round"/>
<path d="M9.67969 40.6387C9.67969 41.4671 10.3513 42.1387 11.1797 42.1387C12.0081 42.1387 12.6797 41.4671 12.6797 40.6387H9.67969ZM9.67969 35.8926V40.6387H12.6797V35.8926H9.67969Z" fill="#3358FF"/>
<path d="M22.2539 35.8926H31.7461" stroke="#3358FF" stroke-width="3.16406" stroke-miterlimit="10" stroke-linecap="round"/>
<path d="M25.5 40.6387C25.5 41.4671 26.1716 42.1387 27 42.1387C27.8284 42.1387 28.5 41.4671 28.5 40.6387H25.5ZM25.5 35.8926V40.6387H28.5V35.8926H25.5Z" fill="#3358FF"/>
<path d="M38.0742 35.8926H47.5664" stroke="#3358FF" stroke-width="3" stroke-miterlimit="10" stroke-linecap="round"/>
<path d="M41.2383 40.6387C41.2383 41.5124 41.9466 42.2207 42.8203 42.2207C43.694 42.2207 44.4023 41.5124 44.4023 40.6387H41.2383ZM41.2383 35.8926V40.6387H44.4023V35.8926H41.2383Z" fill="#3358FF"/>
<path d="M6.41016 50.1309C6.41016 50.9593 7.08173 51.6309 7.91016 51.6309C8.73858 51.6309 9.41016 50.9593 9.41016 50.1309H6.41016ZM9.41016 50.1309V45.3848H6.41016V50.1309H9.41016Z" fill="#3358FF"/>
<path d="M44.5898 50.1309C44.5898 50.9593 45.2614 51.6309 46.0898 51.6309C46.9183 51.6309 47.5898 50.9593 47.5898 50.1309H44.5898ZM47.5898 50.1309V45.3848H44.5898V50.1309H47.5898Z" fill="#3358FF"/>
<path d="M25.418 20.0723H28.582" stroke="#3358FF" stroke-width="3" stroke-miterlimit="10" stroke-linecap="round"/>
<path d="M18.0547 11.1271C20.3465 8.83541 23.5106 7.41602 26.9998 7.41602C30.489 7.41602 33.6531 8.83541 35.9449 11.1271" stroke="#3358FF" stroke-width="3" stroke-miterlimit="10" stroke-linecap="round"/>
<path d="M22.5273 15.5976C23.6725 14.4525 25.2546 13.7441 27.002 13.7441C28.7494 13.7441 30.3315 14.4525 31.4766 15.5976" stroke="#3358FF" stroke-width="3" stroke-miterlimit="10" stroke-linecap="round"/>
</svg>
