<svg width="54" height="54" viewBox="0 0 54 54" fill="none" xmlns="http://www.w3.org/2000/svg">
<g clip-path="url(#clip0_2944_74471)">
<path d="M44.5814 53.9535H9.4186C6.92145 53.9508 4.52734 52.9577 2.76158 51.1919C0.995828 49.4261 0.00265938 47.032 0 44.5349V19.4186C0.00265938 16.9215 0.995828 14.5273 2.76158 12.7616C4.52734 10.9958 6.92145 10.0027 9.4186 10H44.5814C47.0783 10.0033 49.4721 10.9967 51.2377 12.7623C53.0033 14.5279 53.9967 16.9217 54 19.4186V44.5349C53.9967 47.0318 53.0033 49.4256 51.2377 51.1912C49.4721 52.9568 47.0783 53.9502 44.5814 53.9535ZM9.4186 13.7674C7.92023 13.7688 6.48361 14.3646 5.4241 15.4241C4.36459 16.4836 3.76877 17.9202 3.76744 19.4186V44.5349C3.76877 46.0333 4.36459 47.4699 5.4241 48.5294C6.48361 49.5889 7.92023 50.1847 9.4186 50.186H44.5814C46.0796 50.1841 47.5158 49.588 48.5752 48.5287C49.6345 47.4693 50.2306 46.0331 50.2326 44.5349V19.4186C50.2306 17.9204 49.6345 16.4842 48.5752 15.4248C47.5158 14.3655 46.0796 13.7694 44.5814 13.7674H9.4186Z" fill="#3358FF"/>
<path d="M24.3172 41.073C23.124 41.0716 21.9799 40.597 21.1361 39.7532C20.2924 38.9095 19.8177 37.7654 19.8164 36.5721V27.3796C19.817 26.6129 20.0136 25.859 20.3874 25.1896C20.7613 24.5202 21.3001 23.9575 21.9526 23.5549C22.6051 23.1523 23.3496 22.9231 24.1156 22.8892C24.8816 22.8552 25.6435 23.0176 26.3291 23.361L34.2055 27.2992C34.9104 27.6516 35.5104 28.1829 35.9455 28.8399C36.3806 29.497 36.6355 30.2567 36.6849 31.0432C36.7342 31.8297 36.5762 32.6154 36.2266 33.3216C35.877 34.0279 35.3481 34.63 34.6928 35.0677L26.8113 40.3145C26.0736 40.8092 25.2054 41.0732 24.3172 41.073ZM24.3172 26.6437C24.1813 26.646 24.0485 26.685 23.933 26.7567C23.8258 26.8212 23.7374 26.9126 23.6766 27.0219C23.6158 27.1312 23.5847 27.2545 23.5864 27.3796V36.5721C23.5871 36.7043 23.6235 36.8338 23.6918 36.947C23.76 37.0601 23.8576 37.1527 23.9742 37.215C24.0907 37.2773 24.222 37.3069 24.354 37.3007C24.486 37.2945 24.6139 37.2528 24.7241 37.18L32.6031 31.9281C32.7116 31.8593 32.7992 31.762 32.8563 31.6469C32.9134 31.5318 32.9379 31.4032 32.9271 31.2751C32.9216 31.1459 32.881 31.0206 32.8098 30.9127C32.7386 30.8047 32.6394 30.7182 32.5227 30.6623L24.6438 26.7266C24.5423 26.673 24.4295 26.6445 24.3147 26.6437H24.3172Z" fill="#3358FF"/>
<path d="M27.0004 13.767C26.753 13.7676 26.5079 13.719 26.2794 13.6242C26.0509 13.5293 25.8435 13.39 25.6693 13.2144L15.6228 3.1679C15.29 2.8108 15.1089 2.3385 15.1175 1.85049C15.1261 1.36248 15.3238 0.896859 15.6689 0.551729C16.014 0.206599 16.4797 0.00890388 16.9677 0.000293476C17.4557 -0.00831693 17.928 0.17283 18.2851 0.50557L27.0004 9.21841L35.7158 0.50557C36.0729 0.17283 36.5452 -0.00831693 37.0332 0.000293476C37.5212 0.00890388 37.9868 0.206599 38.3319 0.551729C38.6771 0.896859 38.8748 1.36248 38.8834 1.85049C38.892 2.3385 38.7108 2.8108 38.3781 3.1679L28.3316 13.2144C28.1573 13.39 27.9499 13.5293 27.7214 13.6242C27.4929 13.719 27.2478 13.7676 27.0004 13.767Z" fill="#3358FF"/>
</g>
<defs>
<clipPath id="clip0_2944_74471">
<rect width="54" height="54" fill="white"/>
</clipPath>
</defs>
</svg>
