<svg width="54" height="54" viewBox="0 0 54 54" fill="none" xmlns="http://www.w3.org/2000/svg">
<path d="M30.3223 45.7207C30.3223 47.6138 28.7876 49.1484 26.8945 49.1484C25.0014 49.1484 23.4668 47.6138 23.4668 45.7207C23.4668 43.8276 25.0014 42.293 26.8945 42.293C28.7876 42.293 30.3223 43.8276 30.3223 45.7207Z" fill="#3358FF" stroke="#3358FF" stroke-width="0.105469"/>
<path d="M3.61387 19.1737L3.65245 19.2096L3.61387 19.1737C2.83945 20.0047 1.53811 20.0503 0.707125 19.276C-0.123756 18.5016 -0.169516 17.2001 0.604805 16.3692C7.52745 8.94192 16.9009 4.85167 26.9996 4.85156C37.0991 4.85167 46.4726 8.94192 53.3951 16.3692C54.1696 17.2001 54.1237 18.5015 53.2928 19.276C52.8965 19.6453 52.3932 19.8281 51.891 19.8281C51.3403 19.8281 50.7911 19.6082 50.3861 19.1737C44.2505 12.5907 35.9451 8.96494 27.0003 8.96484C18.0548 8.96494 9.74939 12.5907 3.61387 19.1737Z" fill="#3358FF" stroke="#3358FF" stroke-width="0.105469"/>
<path d="M27 17.0918C33.9123 17.0916 40.5361 19.9287 45.6511 25.0824C46.4513 25.8886 46.4463 27.1908 45.6403 27.9909C45.239 28.389 44.715 28.5879 44.1913 28.5879C43.6623 28.5879 43.1336 28.3851 42.7315 27.98C38.396 23.6117 32.8092 21.2049 27 21.2051C21.1893 21.2052 15.6025 23.6119 11.2685 27.9798C10.4685 28.7861 9.16631 28.7912 8.36 27.9911C7.5537 27.1911 7.54866 25.8889 8.34869 25.0826C13.4622 19.9292 20.086 17.0919 27 17.0918Z" fill="#3358FF" stroke="#3358FF" stroke-width="0.105469"/>
<path d="M37.2091 33.8182L37.2462 33.7808L37.2091 33.8183C38.016 34.6177 38.022 35.9199 37.2225 36.7267L37.2225 36.7268C36.4232 37.5339 35.1209 37.5396 34.314 36.7403C32.352 34.7963 29.4746 33.5391 26.9797 33.5391H26.9796H26.9796H26.9796H26.9796H26.9796H26.9796H26.9796H26.9796H26.9796H26.9796H26.9796H26.9796H26.9795H26.9795H26.9795H26.9795H26.9795H26.9795H26.9795H26.9795H26.9795H26.9795H26.9795H26.9795H26.9794H26.9794H26.9794H26.9794H26.9794H26.9794H26.9794H26.9794H26.9794H26.9794H26.9794H26.9794H26.9794H26.9793H26.9793H26.9793H26.9793H26.9793H26.9793H26.9793H26.9793H26.9793H26.9793H26.9793H26.9793H26.9792H26.9792H26.9792H26.9792H26.9792H26.9792H26.9792H26.9792H26.9792H26.9792H26.9792H26.9792H26.9792H26.9791H26.9791H26.9791H26.9791H26.9791H26.9791H26.9791H26.9791H26.9791H26.9791H26.9791H26.9791H26.979H26.979H26.979H26.979H26.979H26.979H26.979H26.979H26.979H26.979H26.979H26.979H26.979H26.9789H26.9789H26.9789H26.9789H26.9789H26.9789H26.9789H26.9789H26.9789H26.9789H26.9789H26.9789H26.9788H26.9788H26.9788H26.9788H26.9788H26.9788H26.9788H26.9788H26.9788H26.9788H26.9788H26.9788H26.9787H26.9787H26.9787H26.9787H26.9787H26.8261H26.8261H26.8261H26.8261H26.8261H26.8261H26.826H26.826H26.826H26.826H26.826H26.826H26.826H26.826H26.826H26.826H26.826H26.826H26.826H26.8259H26.8259H26.8259H26.8259H26.8259H26.8259H26.8259H26.8259H26.8259H26.8259H26.8259H26.8259H26.8258H26.8258H26.8258H26.8258H26.8258H26.8258H26.8258H26.8258H26.8258H26.8258H26.8258H26.8258H26.8257H26.8257H26.8257H26.8257H26.8257H26.8257H26.8257H26.8257H26.8257H26.8257H26.8257H26.8257H26.8256H26.8256H26.8256H26.8256H26.8256H26.8256H26.8256H26.8256H26.8256H26.8256H26.8256H26.8255H26.8255H26.8255H26.8255H26.8255H26.8255H26.8255H26.8255H26.8255H26.8255H26.8255H26.8255H26.8254H26.8254H26.8254H26.8254H26.8254H26.8254H26.8254H26.8254H26.8254H26.8254H26.8254H26.8253H26.8253H26.8253H26.8253H26.8253H26.8253H26.8253H26.8253H26.8253H26.8253H26.8253H26.8253H26.8252H26.8252H26.8252H26.8252H26.8252H26.8252H26.8252H26.8252H26.8252H26.8252H26.8252H26.8252H26.8252H26.8251H26.8251H26.8251H26.8251H26.8251H26.8251H26.8251H26.8251H26.8251H26.8251H26.8251H26.8251H26.8251H26.825C24.3298 33.5391 21.4526 34.7961 19.4903 36.7403C19.0894 37.1376 18.5662 37.3359 18.043 37.3359C17.5134 37.3359 16.9841 37.1326 16.582 36.7267C15.7825 35.9198 15.7886 34.6177 16.5954 33.8182C19.3306 31.1084 23.2515 29.4258 26.8248 29.4258H26.8248H26.8248H26.8249H26.8249H26.8249H26.8249H26.8249H26.8249H26.8249H26.8249H26.8249H26.8249H26.825H26.825H26.825H26.825H26.825H26.825H26.825H26.825H26.825H26.825H26.825H26.8251H26.8251H26.8251H26.8251H26.8251H26.8251H26.8251H26.8251H26.8251H26.8251H26.8252H26.8252H26.8252H26.8252H26.8252H26.8252H26.8252H26.8252H26.8252H26.8252H26.8252H26.8253H26.8253H26.8253H26.8253H26.8253H26.8253H26.8253H26.8253H26.8253H26.8253H26.8253H26.8254H26.8254H26.8254H26.8254H26.8254H26.8254H26.8254H26.8254H26.8254H26.8254H26.8254H26.8254H26.8255H26.8255H26.8255H26.8255H26.8255H26.8255H26.8255H26.8255H26.8255H26.8255H26.8255H26.8256H26.8256H26.8256H26.8256H26.8256H26.8256H26.8256H26.8256H26.8256H26.8256H26.8256H26.8256H26.8257H26.8257H26.8257H26.8257H26.8257H26.8257H26.8257H26.8257H26.8257H26.8257H26.8257H26.8257H26.8258H26.8258H26.8258H26.8258H26.8258H26.8258H26.8258H26.8258H26.8258H26.8258H26.8258H26.8258H26.8259H26.8259H26.8259H26.8259H26.8259H26.8259H26.8259H26.8259H26.8259H26.8259H26.8259H26.8259H26.826H26.826H26.826H26.826H26.826H26.826H26.826H26.826H26.826H26.826H26.826H26.8261H26.8261H26.8261H26.8261H26.8261H26.8261H26.8261H26.8261H26.8261H26.8261H26.8262H26.8262H26.8262H26.8262H26.8262H26.8262H26.8262H26.8262H26.8262H26.8262H26.8263H26.8263H26.8263H26.8263H26.8263H26.8263H26.8263H26.8263H26.8263H26.8263H26.8264H26.8264H26.8264H26.8264H26.8264H26.8264H26.8264H26.9784H26.9784H26.9784H26.9784H26.9784H26.9784H26.9784H26.9784H26.9785H26.9785H26.9785H26.9785H26.9785H26.9785H26.9785H26.9785H26.9785H26.9785H26.9785H26.9785H26.9785H26.9786H26.9786H26.9786H26.9786H26.9786H26.9786H26.9786H26.9786H26.9786H26.9786H26.9786H26.9787H26.9787H26.9787H26.9787H26.9787H26.9787H26.9787H26.9787H26.9787H26.9787H26.9787H26.9788H26.9788H26.9788H26.9788H26.9788H26.9788H26.9788H26.9788H26.9788H26.9788H26.9789H26.9789H26.9789H26.9789H26.9789H26.9789H26.9789H26.9789H26.9789H26.9789H26.979H26.979H26.979H26.979H26.979H26.979H26.979H26.979H26.979H26.979H26.9791H26.9791H26.9791H26.9791H26.9791H26.9791H26.9791H26.9791H26.9791H26.9791H26.9792H26.9792H26.9792H26.9792H26.9792H26.9792H26.9792H26.9792H26.9792H26.9792H26.9793H26.9793H26.9793H26.9793H26.9793H26.9793H26.9793H26.9793H26.9793H26.9793H26.9794H26.9794H26.9794H26.9794H26.9794H26.9794H26.9794H26.9794H26.9794H26.9794H26.9795H26.9795H26.9795H26.9795H26.9795H26.9795H26.9795H26.9795H26.9795H26.9795H26.9795H26.9796H26.9796H26.9796H26.9796H26.9796H26.9796H26.9796H26.9796H26.9796H26.9796H26.9797H26.9797H26.9797H26.9797H26.9797H26.9797H26.9797H26.9797H26.9797H26.9797H26.9797H26.9798H26.9798H26.9798H26.9798H26.9798H26.9798H26.9798H26.9798H26.9798H26.9798H26.9798H26.9798H26.9799H26.9799H26.9799H26.9799H26.9799H26.9799H26.9799H26.9799H26.9799H26.9799H26.9799H26.9799H26.98H26.98H26.98C30.5532 29.4258 34.4738 31.1083 37.2091 33.8182Z" fill="#3358FF" stroke="#3358FF" stroke-width="0.105469"/>
</svg>
