<svg width="54" height="54" viewBox="0 0 54 54" fill="none" xmlns="http://www.w3.org/2000/svg">
<path d="M53.3101 31.1459L49.9939 28.8811L50.9148 28.1453C51.7305 27.4938 51.7024 26.2397 50.8535 25.6269L20.4334 3.65824C19.0671 2.67137 17.1699 2.92787 16.1144 4.24169L6.11687 16.6855C4.97992 18.101 5.2669 20.1867 6.74473 21.2421L14.3448 26.6695L11.2936 31.0045C10.7886 31.722 10.9644 32.7139 11.6848 33.2145L12.7724 33.9699C10.9978 35.6822 8.61785 36.6511 6.13206 36.6511H3.16406V33.2233C3.16406 32.3496 2.45573 31.6413 1.58203 31.6413C0.708328 31.6413 0 32.3496 0 33.2233V49.3601C0 50.2338 0.708328 50.9421 1.58203 50.9421C2.45573 50.9421 3.16406 50.2338 3.16406 49.3601V46.1433H5.30845C10.9871 46.1433 16.539 43.755 20.4823 39.3247L22.0647 40.4237C22.7869 40.9253 23.7799 40.7413 24.2747 40.0149L27.1408 35.8074L33.6574 40.4611C34.2325 40.8718 35.0113 40.8516 35.5643 40.4097L37.9254 38.5233L44.0647 42.9421C44.7467 43.4329 45.6929 43.3049 46.2201 42.6515L53.6492 33.446C54.2284 32.7281 54.0728 31.6666 53.3101 31.1459ZM5.30845 42.9791H3.16406V39.815H6.13195C9.64997 39.815 13.0083 38.3565 15.4086 35.8007L17.8613 37.5042C14.6434 40.9574 10.0639 42.9791 5.30845 42.9791ZM22.5583 36.9141L14.7972 31.5238L16.9197 28.5083L24.5653 33.9682L22.5583 36.9141ZM34.5232 37.1914L8.58347 18.6672L18.581 6.22334L47.3132 26.9729L34.5232 37.1914ZM44.6979 39.4993L40.4923 36.4722L47.4083 30.9467L50.1106 32.7923L44.6979 39.4993Z" fill="#3358FF"/>
<path d="M39.6562 27C40.53 27 41.2383 26.2917 41.2383 25.418C41.2383 24.5442 40.53 23.8359 39.6562 23.8359C38.7825 23.8359 38.0742 24.5442 38.0742 25.418C38.0742 26.2917 38.7825 27 39.6562 27Z" fill="#3358FF"/>
</svg>
