<svg width="54" height="54" viewBox="0 0 54 54" fill="none" xmlns="http://www.w3.org/2000/svg">
<g clip-path="url(#clip0_2944_74407)">
<path d="M49.5235 29.2565C50.4244 29.042 51.0602 28.2371 51.0602 27.3109V20.8079C51.0602 19.8818 50.4244 19.0768 49.5234 18.8623L46.292 18.0929C45.6242 17.934 45.0918 17.4406 44.8327 16.805C44.8024 16.7304 44.7715 16.6561 44.7402 16.582C44.473 15.9491 44.5003 15.223 44.8604 14.6379L46.6016 11.8084C47.087 11.0197 46.9673 10.0009 46.3125 9.34604L41.7141 4.74766C41.0592 4.09279 40.0404 3.97318 39.2517 4.45857L36.4223 6.19976C35.8371 6.55987 35.111 6.5872 34.4781 6.31992C34.404 6.28864 34.3297 6.25783 34.2553 6.22749C33.6196 5.96845 33.1263 5.43602 32.9673 4.76826L32.1979 1.53678C31.9834 0.635835 31.1784 0 30.2523 0H23.7494C22.8233 0 22.0183 0.635818 21.8038 1.53675L21.0344 4.76829C20.8754 5.43604 20.382 5.96844 19.7464 6.22749C19.6719 6.25783 19.5977 6.28864 19.5236 6.31992C18.8906 6.5872 18.1645 6.55987 17.5793 6.19976L14.7499 4.45856C13.9612 3.97317 12.9424 4.09278 12.2875 4.74764L7.68907 9.34604C7.03419 10.0009 6.91457 11.0197 7.39995 11.8084L9.14113 14.6379C9.5012 15.223 9.52854 15.9491 9.26129 16.582C9.22999 16.6561 9.19916 16.7304 9.1688 16.8049C8.90975 17.4406 8.37731 17.9339 7.70954 18.0929L4.47821 18.8622C3.57725 19.0767 2.94141 19.8817 2.94141 20.8078V27.3108C2.94141 28.2369 3.57722 29.0419 4.47816 29.2564L7.7097 30.0259C8.37744 30.1849 8.90985 30.6782 9.16889 31.3138C9.19925 31.3883 9.23009 31.4627 9.26139 31.5368C9.52865 32.1697 9.5013 32.8958 9.14122 33.4809L7.40368 36.3044C6.90986 37.1069 7.04311 38.1452 7.72356 38.7969L10.3801 41.3415C10.9386 41.8764 11.1269 42.6828 10.9457 43.4345C10.6731 44.5659 10.5335 45.7313 10.5335 46.9097V52C10.5335 53.1046 11.4289 54 12.5335 54H41.682C42.7866 54 43.682 53.1046 43.682 52V46.9097C43.682 45.7551 43.5473 44.613 43.285 43.5032C43.1183 42.7976 43.2766 42.0436 43.7713 41.5135L46.3664 38.7324C46.9806 38.0741 47.0793 37.0865 46.6074 36.3197L44.8605 33.481C44.5004 32.8959 44.4731 32.1699 44.7403 31.5369C44.7716 31.4628 44.8025 31.3885 44.8328 31.3139C45.0919 30.6783 45.6243 30.185 46.292 30.026L49.5235 29.2565ZM40.4741 48.7921C40.4741 49.8966 39.5787 50.7921 38.4741 50.7921H15.7414C14.6368 50.7921 13.7414 49.8966 13.7414 48.7921V46.9097C13.7414 44.6849 14.3753 42.5185 15.5746 40.6446C17.7216 37.2898 21.3812 35.2871 25.364 35.2871H28.8515C32.8343 35.2871 36.4939 37.2898 38.6409 40.6445C39.8402 42.5184 40.4741 44.6849 40.4741 46.9097V48.7921ZM27.1077 31.9455C23.0173 31.9455 19.6894 28.6176 19.6894 24.5272C19.6894 20.4368 23.0173 17.1089 27.1077 17.1089C31.1982 17.1089 34.5261 20.4368 34.5261 24.5272C34.5261 28.6176 31.1982 31.9455 27.1077 31.9455ZM42.8686 36.365C43.1783 36.8682 43.1135 37.5163 42.7105 37.9482L41.7684 38.9578C41.6476 39.0873 41.4383 39.0644 41.3428 38.9153C40.1886 37.1119 38.6916 35.6154 36.9656 34.487C35.6391 33.6197 35.2739 31.5006 36.1161 30.158C37.1409 28.5245 37.7339 26.5938 37.7339 24.5272C37.7339 18.668 32.9669 13.901 27.1076 13.901C21.2484 13.901 16.4814 18.668 16.4814 24.5272C16.4814 26.5938 17.0744 28.5244 18.0991 30.1579C18.9413 31.5005 18.5761 33.6198 17.2495 34.487C15.5236 35.6155 14.0266 37.112 12.8725 38.9153C12.7964 39.0342 12.6324 39.0569 12.5304 38.9592L11.4681 37.9418C10.9889 37.4827 10.895 36.7515 11.2428 36.1863L12.8848 33.5181C13.2212 32.9715 13.2748 32.2966 13.0289 31.7038L11.7135 28.5316C11.4678 27.9393 10.9531 27.5007 10.3293 27.3522L7.68603 26.7227C6.78512 26.5082 6.14933 25.7032 6.14933 24.7771V23.3416C6.14933 22.4155 6.78515 21.6105 7.68608 21.396L10.3294 20.7666C10.9532 20.6181 11.468 20.1795 11.7136 19.5871L13.029 16.415C13.2749 15.8222 13.2213 15.1473 12.8849 14.6007L11.4599 12.2851C10.9745 11.4964 11.0941 10.4776 11.749 9.82272L12.764 8.80769C13.4189 8.15283 14.4377 8.03321 15.2264 8.51859L17.5421 9.94362C18.0887 10.28 18.7636 10.3336 19.3564 10.0877L22.5286 8.77229C23.1209 8.52666 23.5595 8.01191 23.708 7.38812L24.3375 4.74464C24.552 3.84372 25.357 3.20792 26.2831 3.20792H27.7186C28.6447 3.20792 29.4497 3.84374 29.6642 4.74467L30.2936 7.38801C30.4421 8.0118 30.8807 8.52655 31.4731 8.77219L34.6452 10.0877C35.238 10.3336 35.9129 10.28 36.4595 9.94359L38.7751 8.51861C39.5638 8.03323 40.5826 8.15284 41.2375 8.80771L42.2525 9.82272C42.9074 10.4776 43.027 11.4964 42.5416 12.2851L41.1166 14.6007C40.7802 15.1473 40.7266 15.8222 40.9725 16.415L42.2879 19.5871C42.5336 20.1795 43.0483 20.6181 43.6721 20.7666L46.3154 21.396C47.2164 21.6105 47.8522 22.4155 47.8522 23.3416V24.7771C47.8522 25.7032 47.2164 26.5082 46.3154 26.7227L43.6721 27.3521C43.0483 27.5006 42.5336 27.9392 42.2879 28.5316L40.9725 31.7037C40.7266 32.2965 40.7802 32.9714 41.1166 33.518L42.8686 36.365Z" fill="#3358FF"/>
</g>
<defs>
<clipPath id="clip0_2944_74407">
<rect width="54" height="54" fill="white"/>
</clipPath>
</defs>
</svg>
