<svg width="54" height="54" viewBox="0 0 54 54" fill="none" xmlns="http://www.w3.org/2000/svg">
<path d="M51.1715 11.1039L42.9214 2.85388C42.5346 2.46722 42.0101 2.25 41.4632 2.25C40.9163 2.25 40.3918 2.46722 40.005 2.85388L31.7549 11.1039C31.5579 11.2942 31.4008 11.5218 31.2927 11.7734C31.1846 12.0251 31.1277 12.2957 31.1253 12.5696C31.1229 12.8434 31.1751 13.115 31.2788 13.3685C31.3825 13.622 31.5357 13.8523 31.7293 14.0459C31.923 14.2396 32.1533 14.3927 32.4068 14.4964C32.6602 14.6001 32.9318 14.6523 33.2057 14.6499C33.4795 14.6476 33.7502 14.5907 34.0018 14.4826C34.2535 14.3745 34.481 14.2173 34.6713 14.0203L39.4007 9.29099V17.3946C39.403 18.2078 39.244 19.0134 38.9328 19.7646C38.6216 20.5159 38.1644 21.198 37.5877 21.7713L27.0256 32.3334L16.4634 21.7713C15.8871 21.1977 15.4301 20.5156 15.119 19.7644C14.8078 19.0132 14.6485 18.2077 14.6505 17.3946V9.29099L19.3798 14.0203C19.7688 14.3961 20.2898 14.6039 20.8306 14.5992C21.3714 14.5945 21.8887 14.3776 22.2711 13.9952C22.6535 13.6128 22.8704 13.0955 22.8751 12.5547C22.8798 12.0139 22.6719 11.4929 22.2962 11.1039L14.0461 2.85388C13.6594 2.46722 13.1348 2.25 12.5879 2.25C12.041 2.25 11.5165 2.46722 11.1297 2.85388L2.87966 11.1039C2.68267 11.2942 2.52554 11.5218 2.41745 11.7734C2.30935 12.0251 2.25246 12.2957 2.25008 12.5696C2.2477 12.8434 2.29988 13.115 2.40359 13.3685C2.50729 13.622 2.66044 13.8523 2.8541 14.0459C3.04775 14.2396 3.27804 14.3927 3.53151 14.4964C3.78499 14.6001 4.05658 14.6523 4.33044 14.6499C4.6043 14.6476 4.87494 14.5907 5.12658 14.4826C5.37821 14.3745 5.6058 14.2173 5.79606 14.0203L10.5254 9.29099V17.3946C10.5219 18.7497 10.7872 20.0919 11.3058 21.3438C11.8245 22.5956 12.5862 23.7322 13.547 24.6877L24.963 36.1037V49.6875C24.963 50.2345 25.1803 50.7591 25.5671 51.1459C25.9539 51.5327 26.4785 51.75 27.0256 51.75C27.5726 51.75 28.0972 51.5327 28.484 51.1459C28.8708 50.7591 29.0881 50.2345 29.0881 49.6875V36.1037L40.5041 24.6877C41.4649 23.7322 42.2266 22.5956 42.7453 21.3438C43.2639 20.0919 43.5292 18.7497 43.5257 17.3946V9.29099L48.2551 14.0203C48.644 14.3961 49.165 14.6039 49.7058 14.5992C50.2466 14.5945 50.7639 14.3776 51.1463 13.9952C51.5287 13.6128 51.7457 13.0955 51.7503 12.5547C51.755 12.0139 51.5472 11.4929 51.1715 11.1039Z" fill="#3358FF"/>
</svg>
