<svg aria-hidden="true" style="position:absolute;width:0;height:0;overflow:hidden" xmlns="http://www.w3.org/2000/svg">
  <defs>
    <symbol id="icon-location-point" viewBox="0 0 32 32">
      <path d="M16 10c-3.308 0-6 2.692-6 6s2.692 6 6 6 6-2.692 6-6-2.692-6-6-6z"/>
      <path d="M31 15h-3.05C27.466 9.18 22.82 4.534 17 4.05V1a1 1 0 0 0-2 0v3.05C9.18 4.534 4.534 9.182 4.05 15H1a1 1 0 0 0 0 2h3.05C4.534 22.82 9.18 27.466 15 27.95V31a1 1 0 0 0 2 0v-3.05c5.82-.484 10.466-5.13 10.95-10.95H31a1 1 0 1 0 0-2zM16 26c-5.514 0-10-4.486-10-10S10.486 6 16 6s10 4.486 10 10-4.486 10-10 10z"/>
    </symbol>
    <symbol id="icon-battery-bolt" viewBox="0 0 32 32">
      <path d="M9.333 24.666a2 2 0 0 1-2 2C3.289 26.666 0 23.377 0 19.333v-6.667c0-4.044 3.289-7.333 7.333-7.333a2 2 0 1 1 0 4A3.338 3.338 0 0 0 4 12.666v6.667a3.338 3.338 0 0 0 3.333 3.333 2 2 0 0 1 2 2zM16.791 14h-2.856l3.108-5.711a2.001 2.001 0 0 0-3.514-1.912s-4.016 7.412-4.056 7.543a3.117 3.117 0 0 0 .472 2.785c.601.811 1.581 1.295 2.619 1.295h2.98l-2.865 5.777a2 2 0 1 0 3.584 1.777l3.284-6.621c.584-.977.608-2.2.057-3.228a3.197 3.197 0 0 0-2.812-1.707v.001zm13.876-3.334h-1.611C28.183 7.591 25.349 5.333 22 5.333a2 2 0 0 0 0 4 3.337 3.337 0 0 1 3.333 3.333v6.667A3.337 3.337 0 0 1 22 22.666a2 2 0 0 0 0 4c3.351 0 6.183-2.259 7.056-5.333h1.611c.736 0 1.333-.597 1.333-1.333v-8c0-.736-.597-1.333-1.333-1.333z"/>
    </symbol>
    <symbol id="icon-time-fast" viewBox="0 0 32 32">
      <path d="M12.667 32H2a2 2 0 0 1 0-4h10.667a2 2 0 0 1 0 4zM10 25.333H2a2 2 0 0 1 0-4h8a2 2 0 0 1 0 4zM7.333 18.667H2a2 2 0 0 1 0-4h5.333a2 2 0 0 1 0 4z"/>
      <path d="M19.333 31.629a1.995 1.995 0 0 1-1.988-1.762 2.003 2.003 0 0 1 1.515-2.182 12.042 12.042 0 0 0 8.544-7.866 12.025 12.025 0 0 0-2.089-11.424c-1.284-1.573-2.945-2.796-4.829-3.553s-3.929-1.026-5.945-.781-3.937.998-5.583 2.186a12.032 12.032 0 0 0-3.835 4.609 1.999 1.999 0 0 1-3.674-.196 1.996 1.996 0 0 1 .059-1.516 16.034 16.034 0 0 1 20.477-8.015 16.028 16.028 0 0 1 9.785 11.994 16.028 16.028 0 0 1-11.963 18.449 1.987 1.987 0 0 1-.473.057z"/>
      <path d="M16.668 8a2 2 0 0 0-2 2v5.724c0 .707.281 1.385.781 1.885L17.84 20a1.998 1.998 0 0 0 2.804-.025 2.001 2.001 0 0 0 .025-2.804l-2-2V9.999a2 2 0 0 0-2-2z"/>
    </symbol>
  </defs>
</svg>
