<svg aria-hidden="true" style="position:absolute;width:0;height:0;overflow:hidden" xmlns="http://www.w3.org/2000/svg">
  <defs>
    <symbol id="icon-first-step-bg" viewBox="0 0 193 32">
      <path d="M0 1.684C0 .754.754 0 1.684 0h180.125c.578 0 1.115.296 1.424.785l9.041 14.316a1.683 1.683 0 0 1 0 1.799l-9.041 14.315a1.686 1.686 0 0 1-1.424.785H1.684C.754 32 0 31.246 0 30.316V1.685z"/>
    </symbol>
    <symbol id="icon-step-bg" viewBox="0 0 142 32">
      <path d="M.621 2.528A1.684 1.684 0 0 1 2.079 0h129.204c.578 0 1.115.296 1.424.785l9.041 14.316a1.683 1.683 0 0 1 0 1.799l-9.041 14.315a1.686 1.686 0 0 1-1.424.785H2.079C.782 32-.028 30.595.621 29.472L7.93 16.844a1.684 1.684 0 0 0 0-1.687L.621 2.529z"/>
    </symbol>
  </defs>
</svg>
