<svg width="80" height="80" viewBox="0 0 80 80" fill="none" xmlns="http://www.w3.org/2000/svg">
<rect width="64" height="64" rx="8" fill="#EBEEFF"/>
<path d="M41.7311 35.6673H36.8517V30.7784C36.8517 30.1038 36.3064 29.5562 35.6319 29.5562C34.9573 29.5562 34.412 30.1038 34.412 30.7784V35.6673H22.2134C19.5224 35.6673 17.334 37.86 17.334 40.5562V41.7784C17.334 44.4747 19.5224 46.6673 22.2134 46.6673H41.7311C44.4221 46.6673 46.6106 44.4747 46.6106 41.7784V40.5562C46.6106 37.86 44.4221 35.6673 41.7311 35.6673ZM44.1709 41.7784C44.1709 43.1265 43.0766 44.2229 41.7311 44.2229H22.2134C20.8679 44.2229 19.7737 43.1265 19.7737 41.7784V40.5562C19.7737 39.2081 20.8679 38.1118 22.2134 38.1118H41.7311C43.0766 38.1118 44.1709 39.2081 44.1709 40.5562V41.7784ZM35.6319 23.4451C37.8483 23.4451 39.9331 24.3104 41.5018 25.881C41.9788 26.3589 41.9788 27.1325 41.5018 27.6092C41.2639 27.8475 40.9517 27.9673 40.6394 27.9673C40.3271 27.9673 40.0148 27.8475 39.7769 27.6092C38.6705 26.4994 37.1982 25.8895 35.6331 25.8895C34.068 25.8895 32.5956 26.5007 31.4892 27.6092C31.0135 28.0871 30.2413 28.0871 29.7643 27.6092C29.2874 27.1325 29.2874 26.3589 29.7643 25.881C31.3319 24.3104 33.4166 23.4451 35.6331 23.4451H35.6319ZM24.6531 41.1673C24.6531 42.1793 23.8334 43.0007 22.8233 43.0007C21.8133 43.0007 20.9936 42.1793 20.9936 41.1673C20.9936 40.1553 21.8133 39.334 22.8233 39.334C23.8334 39.334 24.6531 40.1553 24.6531 41.1673ZM29.5326 41.1673C29.5326 42.1793 28.7128 43.0007 27.7028 43.0007C26.6927 43.0007 25.873 42.1793 25.873 41.1673C25.873 40.1553 26.6927 39.334 27.7028 39.334C28.7128 39.334 29.5326 40.1553 29.5326 41.1673ZM24.9239 22.0004C27.6845 19.0353 31.5868 17.334 35.6319 17.334C39.6769 17.334 43.5804 19.0353 46.3398 22.0004C46.7997 22.4942 46.7716 23.2679 46.2788 23.7287C46.0446 23.9487 45.7445 24.0574 45.4468 24.0574C45.1199 24.0574 44.7954 23.9267 44.5551 23.6688C42.2545 21.1974 39.0023 19.7797 35.6319 19.7797C32.2614 19.7797 29.008 21.1974 26.7086 23.6688C26.2475 24.1625 25.4765 24.1882 24.9837 23.7287C24.4909 23.2679 24.4641 22.4942 24.9239 22.0004Z" fill="#3358FF"/>
<circle cx="62" cy="62" r="17" fill="white" stroke="#3358FF" stroke-width="2"/>
<path d="M61.7343 56.346C62.6943 56.346 63.4623 56.436 64.0383 56.616C64.6143 56.784 65.0343 57.078 65.2983 57.498C65.5743 57.918 65.7123 58.494 65.7123 59.226C65.7123 59.778 65.6583 60.276 65.5503 60.72C65.4423 61.152 65.2503 61.512 64.9743 61.8C64.7103 62.076 64.3263 62.262 63.8223 62.358V62.43C64.6623 62.562 65.2383 62.892 65.5503 63.42C65.8623 63.948 66.0243 64.656 66.0363 65.544C66.0483 66.396 65.9223 67.098 65.6583 67.65C65.3943 68.19 64.9563 68.592 64.3443 68.856C63.7443 69.108 62.9283 69.234 61.8963 69.234C61.2123 69.234 60.5163 69.198 59.8083 69.126C59.1003 69.066 58.4163 68.994 57.7563 68.91L57.8643 67.218C58.3203 67.242 58.7343 67.266 59.1063 67.29C59.4903 67.314 59.8563 67.332 60.2043 67.344C60.5643 67.356 60.9303 67.362 61.3023 67.362C61.9263 67.362 62.4183 67.302 62.7783 67.182C63.1503 67.062 63.4143 66.846 63.5703 66.534C63.7383 66.222 63.8223 65.802 63.8223 65.274C63.8223 64.854 63.7623 64.5 63.6423 64.212C63.5343 63.912 63.3243 63.684 63.0123 63.528C62.7123 63.36 62.2623 63.282 61.6623 63.294H59.3403V61.728H61.6623C62.0943 61.728 62.4363 61.674 62.6883 61.566C62.9523 61.458 63.1443 61.32 63.2643 61.152C63.3963 60.972 63.4803 60.768 63.5163 60.54C63.5643 60.3 63.5883 60.054 63.5883 59.802C63.5763 59.346 63.5043 59.004 63.3723 58.776C63.2403 58.548 63.0123 58.398 62.6883 58.326C62.3763 58.242 61.9383 58.2 61.3743 58.2C60.7623 58.2 60.1743 58.212 59.6103 58.236C59.0463 58.248 58.5483 58.272 58.1163 58.308L57.9903 56.67C58.6383 56.562 59.2683 56.484 59.8803 56.436C60.5043 56.376 61.1223 56.346 61.7343 56.346Z" fill="#3358FF"/>
</svg>
