<svg width="80" height="80" viewBox="0 0 80 80" fill="none" xmlns="http://www.w3.org/2000/svg">
<rect width="64" height="64" rx="8" fill="#EBEEFF"/>
<path d="M31.3333 19.2182C29.8138 19.2182 28.556 19.7394 27.4809 20.8146C26.4056 21.8899 25.8842 23.1479 25.8842 24.6671C25.8842 26.1867 26.4056 27.4447 27.4809 28.5198C28.5565 29.595 29.8143 30.1164 31.3333 30.1164C32.8527 30.1164 34.1106 29.5952 35.186 28.5199L31.3333 19.2182ZM31.3333 19.2182C32.8527 19.2182 34.1107 19.7394 35.186 20.8146M31.3333 19.2182L35.186 20.8146M35.186 20.8146C36.2611 21.8899 36.7825 23.1479 36.7825 24.6671M35.186 20.8146L36.7825 24.6671M36.7825 24.6671C36.7825 26.1867 36.2611 27.4445 35.186 28.5198L36.7825 24.6671ZM36.5892 29.9229L36.5892 29.9229C38.0333 28.4785 38.7667 26.7088 38.7667 24.6671C38.7667 22.6261 38.0335 20.8561 36.589 19.4113L36.589 19.4113C35.1444 17.9672 33.3745 17.234 31.3333 17.234C29.2917 17.234 27.522 17.9672 26.0777 19.4115C24.6334 20.8559 23.9 22.6258 23.9 24.6671C23.9 26.7088 24.6334 28.4788 26.0777 29.9231L26.0777 29.9231C27.5225 31.3672 29.2924 32.1007 31.3333 32.1007C33.3748 32.1007 35.1447 31.3674 36.5892 29.9229Z" fill="#3358FF" stroke="black" stroke-width="0.2"/>
<path d="M43.938 40.1116C43.897 39.5588 43.8141 38.9557 43.692 38.3189C43.5687 37.6774 43.41 37.0709 43.2201 36.5165L43.938 40.1116ZM43.938 40.1116L44.0377 40.1042C44.0377 40.1042 44.0377 40.1041 44.0377 40.1041L43.938 40.1116ZM18.8745 38.3001L18.9727 38.3189L18.8745 38.3L18.8745 38.3001ZM18.8745 38.3001C18.7516 38.9392 18.6683 39.5463 18.627 40.1048L18.8745 38.3001ZM20.6014 40.2346L20.6014 40.2346C20.5641 40.7359 20.5454 41.2583 20.5454 41.7876C20.5454 42.7874 20.8465 43.5298 21.4568 44.0726C22.0819 44.6285 22.9166 44.9041 24.0223 44.9041H38.6429C39.7484 44.9041 40.5831 44.6285 41.2083 44.0724L41.2748 44.1471L41.2084 44.0724C41.8186 43.5298 42.1197 42.7876 42.12 41.7876C42.1198 41.2568 42.1008 40.7346 42.0633 40.2353L42.0627 40.2278H42.0628C42.0263 39.7407 41.952 39.2036 41.8424 38.6312M20.6014 40.2346L41.5255 37.0235C41.3665 36.5596 41.1492 36.0996 40.8798 35.657C40.6229 35.2345 40.3273 34.8723 40.0011 34.5808M20.6014 40.2346C20.6377 39.7447 20.712 39.2055 20.8223 38.6315L20.7241 38.6127M20.6014 40.2346L20.7241 38.6127M41.8424 38.6312L41.9406 38.6124L41.8424 38.6313C41.8424 38.6313 41.8424 38.6313 41.8424 38.6312ZM41.8424 38.6312C41.7338 38.0658 41.5953 37.5357 41.4309 37.0559C41.2744 36.5992 41.0603 36.1458 40.7944 35.709L40.7944 35.7089C40.5419 35.2937 40.2524 34.9395 39.9345 34.6553L40.0011 34.5808M40.0011 34.5808L39.9345 34.6553C39.6402 34.3923 39.267 34.1746 38.8238 34.0107L38.8585 33.9169C39.3114 34.0844 39.696 34.308 40.0011 34.5808ZM35.8511 34.6184C35.325 34.9319 34.6483 35.2143 33.8388 35.4587C33.0125 35.7083 32.169 35.8351 31.332 35.8351C30.495 35.8351 29.6518 35.7083 28.8249 35.4585M35.8511 34.6184L28.8249 35.4585M35.8511 34.6184C36.3281 34.3336 36.7379 34.0868 37.1037 33.8639L35.8511 34.6184ZM28.8249 35.4585L28.796 35.5542C28.796 35.5542 28.7961 35.5542 28.7961 35.5542L28.8249 35.4585ZM20.7241 38.6127L20.8223 38.6315C20.9311 38.0656 21.0695 37.5353 21.2336 37.0561M20.7241 38.6127L21.2336 37.0561M21.2336 37.0561C21.3903 36.599 21.6042 36.1457 21.8699 35.7087L21.2336 37.0561ZM20.2374 34.8355L20.1519 34.7836C20.1519 34.7836 20.1519 34.7836 20.1519 34.7836L20.2374 34.8355ZM42.5681 45.4265L42.5017 45.3517L18.627 40.1049C18.5865 40.6492 18.566 41.2155 18.566 41.7876C18.566 43.2935 19.0795 44.521 20.097 45.4264L20.097 45.4264C21.1002 46.3184 22.4238 46.7667 24.0223 46.7667H38.6431C40.2412 46.7667 41.5647 46.3184 42.5681 45.4265ZM23.1508 32.3712L23.1161 32.2774C23.1161 32.2774 23.1161 32.2774 23.1161 32.2774L23.1508 32.3712ZM26.5837 32.3856C26.5837 32.3856 26.5837 32.3856 26.5837 32.3856L26.5317 32.471L26.5837 32.3856ZM27.8224 33.1315C27.8224 33.1315 27.8223 33.1315 27.8223 33.1314L27.7711 33.2173L27.8224 33.1315ZM34.8425 33.1312C34.8424 33.1312 34.8424 33.1312 34.8424 33.1313L34.8936 33.2171L34.8425 33.1312ZM41.2312 33.3795L41.2979 33.3049C41.2979 33.3049 41.2979 33.3049 41.2979 33.3049L41.2312 33.3795ZM42.4269 34.8355L42.5123 34.7836C42.5123 34.7836 42.5123 34.7836 42.5123 34.7835L42.4269 34.8355ZM25.1848 33.765C25.1931 33.7647 25.2014 33.7645 25.2098 33.7643L25.2073 33.6643L25.1628 33.7539C25.1695 33.7572 25.1768 33.7609 25.1848 33.765Z" fill="#3358FF" stroke="black" stroke-width="0.2"/>
<circle cx="62" cy="62" r="17" fill="white" stroke="#3358FF" stroke-width="2"/>
<path d="M61.8628 56.364C62.6908 56.364 63.4048 56.436 64.0048 56.58C64.6048 56.724 65.0668 57 65.3908 57.408C65.7268 57.804 65.8948 58.392 65.8948 59.172C65.8948 59.664 65.8348 60.12 65.7148 60.54C65.5948 60.96 65.3788 61.404 65.0668 61.872C64.7548 62.328 64.3228 62.85 63.7708 63.438L60.3868 67.074C60.6868 67.026 60.9988 66.996 61.3228 66.984C61.6588 66.972 61.9828 66.966 62.2948 66.966H66.2908V69H57.7228V67.74C57.7228 67.548 57.7468 67.38 57.7948 67.236C57.8428 67.08 57.9268 66.936 58.0468 66.804L61.3408 63.168C62.0968 62.364 62.6668 61.656 63.0508 61.044C63.4348 60.42 63.6208 59.862 63.6088 59.37C63.5968 59.046 63.5128 58.812 63.3568 58.668C63.2008 58.512 62.9788 58.41 62.6908 58.362C62.4028 58.314 62.0488 58.29 61.6288 58.29C61.2328 58.29 60.8548 58.296 60.4948 58.308C60.1348 58.32 59.7508 58.344 59.3428 58.38C58.9468 58.404 58.4788 58.446 57.9388 58.506L57.8308 56.814C58.4068 56.682 58.9228 56.586 59.3788 56.526C59.8348 56.466 60.2608 56.424 60.6568 56.4C61.0528 56.376 61.4548 56.364 61.8628 56.364Z" fill="#3358FF"/>
</svg>
