<svg width="80" height="81" viewBox="0 0 80 81" fill="none" xmlns="http://www.w3.org/2000/svg">
<rect y="0.5" width="64" height="64" rx="8" fill="#EBEEFF"/>
<g clip-path="url(#clip0_2526_52784)">
<path d="M32 48.5C40.8219 48.5 48 41.3226 48 32.5C48 30.9772 47.7874 29.4766 47.3665 28.0394C47.1592 27.3327 46.4212 26.9268 45.7126 27.1341C45.0052 27.3408 44.6006 28.0814 44.8073 28.7881C45.1559 29.9821 45.3333 31.2314 45.3333 32.5C45.3333 39.8519 39.3519 45.8333 32 45.8333C24.6481 45.8333 18.6667 39.8519 18.6667 32.5C18.6667 25.1481 24.6481 19.1667 32 19.1667C34.6719 19.1667 37.2425 19.9479 39.4339 21.4255C40.0439 21.8372 40.8734 21.6755 41.2845 21.0654C41.696 20.4548 41.5355 19.626 40.9248 19.2145C38.2913 17.4388 35.2054 16.5 32 16.5C23.1781 16.5 16 23.6774 16 32.5C16 41.3226 23.1781 48.5 32 48.5Z" fill="#3358FF"/>
<path d="M45.7244 19.5564L32.0004 33.2797L27.6098 28.8897C27.0889 28.3692 26.2452 28.3692 25.7244 28.8897C25.2039 29.4106 25.2039 30.2543 25.7244 30.7751L31.0577 36.1085C31.3184 36.3692 31.6589 36.4991 32.0004 36.4991C32.3419 36.4991 32.6824 36.3692 32.9431 36.1085L47.6098 21.4418C48.1303 20.921 48.1303 20.0772 47.6098 19.5564C47.0889 19.0359 46.2452 19.0359 45.7244 19.5564Z" fill="#3358FF"/>
</g>
<circle cx="62" cy="62.5" r="17" fill="white" stroke="#3358FF" stroke-width="2"/>
<path d="M65.6817 57.08L65.5917 58.844H60.4077L60.2457 61.634L61.8657 61.796C62.6457 61.856 63.2997 61.982 63.8277 62.174C64.3677 62.366 64.7997 62.624 65.1237 62.948C65.4597 63.272 65.6997 63.668 65.8437 64.136C65.9877 64.592 66.0597 65.126 66.0597 65.738C66.0597 66.254 65.9997 66.752 65.8797 67.232C65.7597 67.712 65.5437 68.138 65.2317 68.51C64.9317 68.882 64.5057 69.176 63.9537 69.392C63.4137 69.608 62.7117 69.716 61.8477 69.716C61.3077 69.716 60.6897 69.68 59.9937 69.608C59.3097 69.548 58.6077 69.446 57.8877 69.302L58.1037 67.556C58.6797 67.628 59.2497 67.694 59.8137 67.754C60.3777 67.802 60.8697 67.826 61.2897 67.826C61.9857 67.826 62.5137 67.748 62.8737 67.592C63.2337 67.424 63.4797 67.184 63.6117 66.872C63.7437 66.548 63.8157 66.152 63.8277 65.684C63.8517 65.216 63.7977 64.844 63.6657 64.568C63.5457 64.292 63.3477 64.082 63.0717 63.938C62.8077 63.794 62.4477 63.692 61.9917 63.632C61.5357 63.572 60.9837 63.524 60.3357 63.488L59.0937 63.362C58.8657 63.326 58.6797 63.23 58.5357 63.074C58.4037 62.918 58.3437 62.726 58.3557 62.498L58.6617 57.08H65.6817Z" fill="#3358FF"/>
<defs>
<clipPath id="clip0_2526_52784">
<rect width="32" height="32" fill="white" transform="translate(16 16.5)"/>
</clipPath>
</defs>
</svg>
