<svg width="80" height="80" viewBox="0 0 80 80" fill="none" xmlns="http://www.w3.org/2000/svg">
<rect width="64" height="64" rx="8" fill="#EBEEFF"/>
<path d="M39.4472 36.9297C39.1685 36.65 38.8373 36.4281 38.4727 36.2766C38.108 36.1252 37.7171 36.0473 37.3222 36.0473C36.9274 36.0473 36.5364 36.1252 36.1718 36.2766C35.8071 36.4281 35.4759 36.65 35.1972 36.9297L33.7472 38.3797C32.1146 37.3435 30.602 36.1294 29.2372 34.7597C27.8704 33.3922 26.6565 31.88 25.6172 30.2497L27.0672 28.7997C27.3469 28.5209 27.5688 28.1898 27.7202 27.8251C27.8717 27.4605 27.9496 27.0695 27.9496 26.6747C27.9496 26.2798 27.8717 25.8889 27.7202 25.5242C27.5688 25.1595 27.3469 24.8284 27.0672 24.5497L24.2372 21.7297C23.9625 21.449 23.6341 21.2265 23.2716 21.0754C22.9091 20.9242 22.52 20.8474 22.1272 20.8497C21.7317 20.8487 21.3399 20.9259 20.9744 21.077C20.6088 21.228 20.2767 21.4498 19.9972 21.7297L18.6372 23.0797C17.989 23.7766 17.5052 24.61 17.2214 25.5185C16.9376 26.4271 16.861 27.3876 16.9972 28.3297C17.3172 32.0797 19.7772 36.5897 23.5672 40.3897C27.3572 44.1897 31.9172 46.6397 35.6672 46.9997C35.947 47.0146 36.2274 47.0146 36.5072 46.9997C37.3145 47.0335 38.1203 46.9059 38.8776 46.6243C39.6349 46.3427 40.3283 45.9128 40.9172 45.3597L42.2672 43.9997C42.5471 43.7202 42.7689 43.3881 42.9199 43.0225C43.071 42.657 43.1482 42.2652 43.1472 41.8697C43.1495 41.4769 43.0727 41.0878 42.9215 40.7253C42.7703 40.3628 42.5478 40.0344 42.2672 39.7597L39.4472 36.9297ZM40.8572 42.5897L39.4972 43.9397C38.9944 44.3587 38.4074 44.6649 37.7759 44.8374C37.1445 45.01 36.4833 45.0448 35.8372 44.9397C32.5872 44.6597 28.4472 42.3597 25.0272 38.9397C21.6072 35.5197 19.3072 31.4097 18.9972 28.1597C18.8894 27.5136 18.923 26.8518 19.0956 26.2199C19.2682 25.5881 19.5758 25.0011 19.9972 24.4997L21.4072 23.1397C21.5007 23.047 21.6115 22.9736 21.7333 22.9239C21.8552 22.8741 21.9856 22.8489 22.1172 22.8497C22.2488 22.8489 22.3793 22.8741 22.5011 22.9239C22.623 22.9736 22.7338 23.047 22.8272 23.1397L25.6572 25.9997C25.8435 26.187 25.948 26.4405 25.948 26.7047C25.948 26.9688 25.8435 27.2223 25.6572 27.4097L23.6572 29.4097C23.5007 29.5654 23.4002 29.7685 23.3712 29.9874C23.3423 30.2063 23.3866 30.4286 23.4972 30.6197C24.6946 32.6581 26.15 34.5336 27.8272 36.1997C29.4933 37.8769 31.3688 39.3323 33.4072 40.5297C33.5983 40.6403 33.8206 40.6846 34.0395 40.6557C34.2584 40.6267 34.4615 40.5262 34.6172 40.3697L36.6172 38.3697C36.8046 38.1834 37.0581 38.0789 37.3222 38.0789C37.5864 38.0789 37.8399 38.1834 38.0272 38.3697L40.8572 41.1997C40.9499 41.2931 41.0232 41.4039 41.073 41.5257C41.1228 41.6476 41.148 41.778 41.1472 41.9097C41.141 42.165 41.0372 42.4084 40.8572 42.5897Z" fill="#3358FF"/>
<path d="M42.6 21.39C41.2103 19.995 39.5581 18.8889 37.7388 18.1354C35.9196 17.382 33.9691 16.9961 32 17C31.7348 17 31.4804 17.1054 31.2929 17.2929C31.1054 17.4805 31 17.7348 31 18C31 18.2652 31.1054 18.5196 31.2929 18.7071C31.4804 18.8947 31.7348 19 32 19C33.7165 19 35.416 19.3398 37.0004 20C38.5849 20.6602 40.0229 21.6276 41.2315 22.8465C42.4401 24.0653 43.3954 25.5114 44.0422 27.1014C44.689 28.6913 45.0145 30.3936 45 32.11C45 32.3752 45.1054 32.6296 45.2929 32.8171C45.4804 33.0047 45.7348 33.11 46 33.11C46.2652 33.11 46.5196 33.0047 46.7071 32.8171C46.8946 32.6296 47 32.3752 47 32.11C47.0192 30.12 46.6397 28.1462 45.884 26.3051C45.1283 24.464 44.0117 22.7928 42.6 21.39Z" fill="#3358FF"/>
<path d="M36.9116 27.1103C37.4792 27.6744 37.9281 28.3463 38.2321 29.0865C38.5361 29.8267 38.6889 30.6202 38.6816 31.4203C38.6816 31.6855 38.787 31.9399 38.9745 32.1274C39.1621 32.315 39.4164 32.4203 39.6816 32.4203C39.9469 32.4203 40.2012 32.315 40.3887 32.1274C40.5763 31.9399 40.6816 31.6855 40.6816 31.4203C40.6949 30.3614 40.4977 29.3103 40.1016 28.3281C39.7055 27.3459 39.1183 26.4522 38.3741 25.6987C37.63 24.9452 36.7436 24.347 35.7664 23.9387C34.7892 23.5304 33.7407 23.3202 32.6816 23.3203C32.4164 23.3203 32.1621 23.4257 31.9745 23.6132C31.787 23.8007 31.6816 24.0551 31.6816 24.3203C31.6816 24.5855 31.787 24.8399 31.9745 25.0274C32.1621 25.215 32.4164 25.3203 32.6816 25.3203C33.4697 25.3262 34.2489 25.4874 34.9747 25.7945C35.7005 26.1017 36.3587 26.5488 36.9116 27.1103Z" fill="#3358FF"/>
<circle cx="62" cy="62" r="17" fill="white" stroke="#3358FF" stroke-width="2"/>
<path d="M63.9443 56.58V69H61.6943V59.748C61.6943 59.544 61.7003 59.34 61.7123 59.136C61.7363 58.932 61.7663 58.728 61.8023 58.524L58.8143 59.352L58.5263 57.84L61.6943 56.58H63.9443Z" fill="#3358FF"/>
</svg>
