<svg width="80" height="81" viewBox="0 0 80 81" fill="none" xmlns="http://www.w3.org/2000/svg">
<rect y="0.5" width="64" height="64" rx="8" fill="#EBEEFF"/>
<g clip-path="url(#clip0_2526_52772)">
<path d="M22.5625 22.625H29.2818C29.7173 24.762 31.6112 26.375 33.875 26.375H43.25C43.7677 26.375 44.1875 25.9552 44.1875 25.4375V24.5H47.0625C47.5802 24.5 48 24.0802 48 23.5625V19.8125C48 19.2947 47.5802 18.875 47.0625 18.875H44.1875V17.9375C44.1875 17.4197 43.7677 17 43.25 17H33.875C31.6112 17 29.7174 18.613 29.2818 20.75H22.5625C18.9439 20.75 16 23.6939 16 27.3125C16 30.9311 18.9439 33.875 22.5625 33.875H41.375C43.9497 33.875 46.125 36.0503 46.125 38.625C46.125 41.1997 43.9497 43.375 41.375 43.375H34.7182C34.2827 41.238 32.3888 39.625 30.125 39.625H20.6875C20.1698 39.625 19.75 40.0448 19.75 40.5625V41.5H16.9375C16.4197 41.5 16 41.9198 16 42.4375V46.1875C16 46.7052 16.4197 47.125 16.9375 47.125H19.75V48.0625C19.75 48.5802 20.1698 49 20.6875 49H30.125C32.3888 49 34.2826 47.387 34.7182 45.25H41.375C44.9981 45.25 48 42.2589 48 38.625C48 35.0019 45.0089 32 41.375 32H22.5625C19.9778 32 17.875 29.8972 17.875 27.3125C17.875 24.7278 19.9778 22.625 22.5625 22.625ZM44.1875 20.75H46.125V22.625H44.1875V20.75ZM33.875 18.875H42.3125C42.3125 19.8 42.3125 23.9297 42.3125 24.5H33.875C32.3242 24.5 31.0625 23.2383 31.0625 21.6875C31.0625 20.1367 32.3242 18.875 33.875 18.875ZM19.75 45.25H17.875V43.375H19.75V45.25ZM30.125 47.125H21.625C21.625 46.5557 21.625 42.4168 21.625 41.5H30.125C31.6758 41.5 32.9375 42.7617 32.9375 44.3125C32.9375 45.8633 31.6758 47.125 30.125 47.125Z" fill="#3358FF"/>
<path d="M30.125 43.375H24.4375C23.9197 43.375 23.5 43.7947 23.5 44.3125C23.5 44.8303 23.9197 45.25 24.4375 45.25H30.125C30.6427 45.25 31.0625 44.8303 31.0625 44.3125C31.0625 43.7947 30.6427 43.375 30.125 43.375Z" fill="#3358FF"/>
<path d="M39.5 20.75H33.875C33.3572 20.75 32.9375 21.1697 32.9375 21.6875C32.9375 22.2053 33.3572 22.625 33.875 22.625H39.5C40.0177 22.625 40.4375 22.2053 40.4375 21.6875C40.4375 21.1697 40.0177 20.75 39.5 20.75Z" fill="#3358FF"/>
</g>
<circle cx="62" cy="62.5" r="17" fill="white" stroke="#3358FF" stroke-width="2"/>
<path d="M62.5586 57.08L59.3546 64.316C59.2706 64.52 59.2706 64.682 59.3546 64.802C59.4506 64.91 59.5886 64.964 59.7686 64.964H67.0046V66.386L65.4206 66.602H58.2566C57.9206 66.602 57.6326 66.512 57.3926 66.332C57.1646 66.14 57.0146 65.9 56.9426 65.612C56.8706 65.312 56.9006 65.012 57.0326 64.712L60.3986 57.08H62.5586ZM65.4386 59.474V69.5H63.3506V61.49L63.7286 59.474H65.4386Z" fill="#3358FF"/>
<defs>
<clipPath id="clip0_2526_52772">
<rect width="32" height="32" fill="white" transform="translate(16 17)"/>
</clipPath>
</defs>
</svg>
