<svg width="22" height="22" viewBox="0 0 22 22" fill="none" xmlns="http://www.w3.org/2000/svg">
<path d="M5 8.74997C5 8.33597 5.33525 7.99997 5.75 7.99997H10.25C10.6647 7.99997 11 8.33597 11 8.74997C11 9.16397 10.6647 9.49997 10.25 9.49997H5.75C5.33525 9.49997 5 9.16397 5 8.74997ZM10.25 11H5.75C5.33525 11 5 11.336 5 11.75C5 12.164 5.33525 12.5 5.75 12.5H10.25C10.6647 12.5 11 12.164 11 11.75C11 11.336 10.6647 11 10.25 11ZM10.25 14H5.75C5.33525 14 5 14.336 5 14.75C5 15.164 5.33525 15.5 5.75 15.5H10.25C10.6647 15.5 11 15.164 11 14.75C11 14.336 10.6647 14 10.25 14ZM10.25 17H5.75C5.33525 17 5 17.336 5 17.75C5 18.164 5.33525 18.5 5.75 18.5H10.25C10.6647 18.5 11 18.164 11 17.75C11 17.336 10.6647 17 10.25 17ZM21.5 20.75C21.5 21.164 21.1647 21.5 20.75 21.5H1.25C0.83525 21.5 0.5 21.164 0.5 20.75C0.5 20.336 0.83525 20 1.25 20H2V6.21347C2 5.64122 2.318 5.12747 2.82875 4.87172L11.8287 0.371724C12.2982 0.137724 12.8427 0.161724 13.2882 0.436974C13.7337 0.712224 13.9993 1.18922 13.9993 1.71347V7.24997H18.4993C19.3265 7.24997 19.9993 7.92272 19.9993 8.74997V20H20.7493C21.164 20 21.5 20.336 21.5 20.75ZM14 8.74997V20H18.5V8.74997H14ZM3.5 20H12.5V1.71347L3.5 6.21347V20Z" fill="black"/>
</svg>
