<svg width="43" height="42" viewBox="0 0 43 42" fill="none" xmlns="http://www.w3.org/2000/svg">
<g clip-path="url(#clip0_5032_6494)">
<path d="M21.4997 0.230469C17.3919 0.230469 13.3764 1.44856 9.96094 3.73071C6.54546 6.01287 3.88341 9.25658 2.31144 13.0517C0.739468 16.8467 0.328168 21.0227 1.12955 25.0516C1.93094 29.0804 3.90901 32.7811 6.81364 35.6858C9.71827 38.5904 13.419 40.5685 17.4478 41.3698C21.4767 42.1712 25.6527 41.7599 29.4477 40.188C33.2428 38.616 36.4865 35.9539 38.7687 32.5385C41.0508 29.123 42.2689 25.1075 42.2689 20.9997C42.2689 15.4914 40.0807 10.2086 36.1858 6.31363C32.2908 2.41865 27.008 0.230469 21.4997 0.230469ZM21.4997 38.8019C17.9788 38.8019 14.5369 37.7578 11.6093 35.8017C8.68178 33.8455 6.40003 31.0652 5.05262 27.8123C3.70522 24.5594 3.35267 20.9799 4.03957 17.5267C4.72648 14.0734 6.42197 10.9013 8.91165 8.41164C11.4013 5.92196 14.5734 4.22647 18.0267 3.53956C21.48 2.85266 25.0594 3.20521 28.3123 4.55261C31.5652 5.90002 34.3456 8.18177 36.3017 11.1093C38.2578 14.0369 39.3019 17.4788 39.3019 20.9997C39.3019 25.7211 37.4263 30.2492 34.0878 33.5877C30.7492 36.9263 26.2211 38.8019 21.4997 38.8019Z" fill="#3358FF"/>
<path d="M28.1771 9.42779C28.0076 9.33038 27.8206 9.26731 27.6268 9.24218C27.4329 9.21704 27.236 9.23034 27.0473 9.28131C26.8585 9.33228 26.6817 9.41993 26.5268 9.53924C26.372 9.65855 26.2421 9.8072 26.1447 9.97669C26.0473 10.1462 25.9842 10.3332 25.9591 10.5271C25.934 10.7209 25.9473 10.9179 25.9982 11.1066C26.0492 11.2953 26.1369 11.4721 26.2562 11.627C26.3755 11.7819 26.5241 11.9117 26.6936 12.0091C28.679 13.1584 30.228 14.9327 31.0986 17.0551C31.9693 19.1775 32.1127 21.5284 31.5065 23.7409C30.9003 25.9534 29.5785 27.9028 27.7475 29.2849C25.9166 30.667 23.6795 31.4039 21.3856 31.3806C19.0917 31.3573 16.87 30.5751 15.0675 29.1561C13.265 27.7371 11.9831 25.7612 11.422 23.5368C10.8608 21.3125 11.0519 18.965 11.9656 16.8607C12.8792 14.7565 14.4639 13.014 16.4722 11.9053C16.6417 11.8079 16.7903 11.678 16.9097 11.5232C17.029 11.3683 17.1166 11.1915 17.1676 11.0027C17.2185 10.814 17.2318 10.6171 17.2067 10.4232C17.1816 10.2294 17.1185 10.0423 17.0211 9.87284C16.9237 9.70335 16.7939 9.55471 16.639 9.43539C16.4841 9.31608 16.3073 9.22844 16.1186 9.17747C15.9298 9.1265 15.7329 9.1132 15.5391 9.13833C15.3452 9.16346 15.1582 9.22653 14.9887 9.32394C12.41 10.7554 10.3778 13.0004 9.20947 15.7085C8.04112 18.4166 7.80233 21.4353 8.53038 24.2934C9.25843 27.1515 10.9124 29.6881 13.2339 31.5072C15.5555 33.3263 18.4141 34.3255 21.3634 34.3488C24.3126 34.3721 27.1866 33.4182 29.5367 31.636C31.8867 29.8539 33.5805 27.3437 34.3536 24.4975C35.1267 21.6512 34.9357 18.6291 33.8102 15.9029C32.6848 13.1767 30.6884 10.8998 28.1326 9.42779H28.1771Z" fill="#3358FF"/>
<path d="M21.4991 22.4826C21.8926 22.4826 22.2699 22.3263 22.5481 22.0481C22.8264 21.7699 22.9827 21.3926 22.9827 20.9991V9.13098C22.9827 8.73752 22.8264 8.36019 22.5481 8.08197C22.2699 7.80376 21.8926 7.64746 21.4991 7.64746C21.1057 7.64746 20.7284 7.80376 20.4501 8.08197C20.1719 8.36019 20.0156 8.73752 20.0156 9.13098V20.9991C20.0156 21.3926 20.1719 21.7699 20.4501 22.0481C20.7284 22.3263 21.1057 22.4826 21.4991 22.4826Z" fill="#3358FF"/>
</g>
<defs>
<clipPath id="clip0_5032_6494">
<rect width="41.5385" height="41.5385" fill="white" transform="translate(0.730469 0.230469)"/>
</clipPath>
</defs>
</svg>
