<svg width="43" height="42" viewBox="0 0 43 42" fill="none" xmlns="http://www.w3.org/2000/svg">
<g clip-path="url(#clip0_5032_22129)">
<path d="M34.9596 5.80701C31.3648 2.21047 26.5827 0.230469 21.4994 0.230469C16.4161 0.230469 11.634 2.2122 8.03748 5.80701C4.44094 9.40181 2.46094 14.1822 2.46094 19.2689C2.46094 24.3557 4.44094 29.1343 8.08594 32.7776L14.9086 39.0828C16.6809 40.8135 19.0209 41.7689 21.4994 41.7689C23.9779 41.7689 26.3179 40.8153 28.0521 39.1157L34.9596 32.7309C38.5561 29.1343 40.5361 24.3539 40.5361 19.2689C40.5361 14.1839 38.5561 9.40181 34.9596 5.80701ZM32.5607 30.2351L25.6671 36.6078C23.4275 38.7989 19.6077 38.8353 17.2936 36.5732L10.4831 30.2818C7.54074 27.3395 5.92074 23.428 5.92074 19.2672C5.92074 15.1064 7.54074 11.1949 10.4831 8.25258C13.4254 5.31028 17.3369 3.69028 21.4977 3.69028C25.6584 3.69028 29.5682 5.31028 32.5105 8.25258C35.4529 11.1949 37.0729 15.1047 37.0729 19.2672C37.0729 23.4297 35.4529 27.3395 32.5607 30.2334V30.2351ZM18.0379 13.7305V24.8074C18.0379 25.5724 17.4182 26.192 16.6532 26.192C15.8882 26.192 15.2686 25.5724 15.2686 24.8074V13.7305C15.2686 12.9655 15.8882 12.3459 16.6532 12.3459C17.4182 12.3459 18.0379 12.9655 18.0379 13.7305ZM24.9609 12.3459H22.0186C21.2536 12.3459 20.634 12.9655 20.634 13.7305V24.8074C20.634 25.5724 21.2536 26.192 22.0186 26.192C22.7836 26.192 23.4032 25.5724 23.4032 24.8074V20.9997H24.9609C27.3511 20.9997 29.2879 19.063 29.2879 16.6728C29.2879 14.2826 27.3511 12.3459 24.9609 12.3459ZM24.9609 18.2305H23.4032V15.1134H24.9609C25.8211 15.1134 26.5186 15.8109 26.5186 16.671C26.5186 17.5312 25.8211 18.2305 24.9609 18.2305Z" fill="#3358FF"/>
</g>
<defs>
<clipPath id="clip0_5032_22129">
<rect width="41.5385" height="41.5385" fill="white" transform="translate(0.730469 0.230469)"/>
</clipPath>
</defs>
</svg>
