<svg width="43" height="42" viewBox="0 0 43 42" fill="none" xmlns="http://www.w3.org/2000/svg">
<g clip-path="url(#clip0_5032_23634)">
<path d="M33.7915 14.8558C34.0823 15.1415 34.4666 15.2843 34.8523 15.2843C35.2277 15.2843 35.6015 15.1486 35.8894 14.8758L41.7408 9.36007C42.0805 9.03578 42.2689 8.60292 42.2689 8.1415C42.2689 7.68007 42.0805 7.24721 41.7348 6.91864L35.8894 1.40723C35.3048 0.855798 34.3672 0.865798 33.7915 1.42865C33.2188 1.99294 33.2277 2.89722 33.8152 3.44865L37.278 6.71436H25.952C21.8617 6.71436 18.5339 9.91864 18.5339 13.8572V19.5715H9.6322C9.5417 19.5715 9.46159 19.6058 9.37554 19.6215C8.77615 17.9372 7.1323 16.7143 5.18134 16.7143C2.72742 16.7143 0.730469 18.6372 0.730469 21C0.730469 23.3629 2.72742 25.2857 5.18134 25.2857C7.1323 25.2857 8.77467 24.0629 9.37554 22.3786C9.46159 22.3943 9.5417 22.4286 9.6322 22.4286H18.5339V28.1429C18.5339 32.0814 21.8617 35.2857 25.952 35.2857H32.8272L29.3644 38.5514C28.7769 39.1029 28.7694 40.0086 29.3406 40.5714C29.6314 40.8571 30.0157 41 30.4014 41C30.7768 41 31.1507 40.8643 31.4385 40.5914L37.2899 35.0757C37.6296 34.7514 37.8181 34.3186 37.8181 33.8572C37.8181 33.3957 37.6296 32.9629 37.284 32.6343L31.4385 27.1229C30.8539 26.57 29.9163 26.5815 29.3406 27.1443C28.768 27.7086 28.7769 28.6129 29.3644 29.1643L32.8272 32.43H25.952C23.4981 32.43 21.5012 30.5072 21.5012 28.1443V13.8586C21.5012 11.4958 23.4981 9.57292 25.952 9.57292H37.278L33.8152 12.8386C33.2277 13.3901 33.2203 14.2958 33.7915 14.8586V14.8558ZM5.17985 22.4272C4.36238 22.4272 3.69623 21.7858 3.69623 20.9986C3.69623 20.2115 4.36238 19.57 5.17985 19.57C5.99733 19.57 6.66347 20.2115 6.66347 20.9986C6.66347 21.7858 5.99733 22.4272 5.17985 22.4272Z" fill="#3358FF"/>
</g>
<defs>
<clipPath id="clip0_5032_23634">
<rect width="41.5385" height="41.5385" fill="white" transform="translate(0.730469 0.230469)"/>
</clipPath>
</defs>
</svg>
