<svg width="43" height="42" viewBox="0 0 43 42" fill="none" xmlns="http://www.w3.org/2000/svg">
<path d="M40.0928 8.77167L33.7466 2.42546C33.4491 2.12803 33.0456 1.96094 32.6249 1.96094C32.2042 1.96094 31.8008 2.12803 31.5032 2.42546L25.157 8.77167C25.0055 8.91802 24.8846 9.09309 24.8015 9.28665C24.7183 9.48022 24.6746 9.68841 24.6727 9.89907C24.6709 10.1097 24.711 10.3186 24.7908 10.5136C24.8706 10.7086 24.9884 10.8857 25.1374 11.0347C25.2863 11.1837 25.4635 11.3015 25.6584 11.3813C25.8534 11.461 26.0623 11.5012 26.273 11.4993C26.4837 11.4975 26.6919 11.4537 26.8854 11.3706C27.079 11.2874 27.2541 11.1666 27.4004 11.015L31.0384 7.37709V13.6106C31.0402 14.2362 30.9179 14.8558 30.6785 15.4337C30.4391 16.0116 30.0874 16.5363 29.6438 16.9773L21.5191 25.102L13.3943 16.9773C12.951 16.5361 12.5995 16.0114 12.3601 15.4335C12.1208 14.8557 11.9983 14.2361 11.9997 13.6106V7.37709L15.6377 11.015C15.9369 11.3041 16.3377 11.464 16.7537 11.4604C17.1697 11.4567 17.5676 11.2899 17.8618 10.9957C18.1559 10.7016 18.3228 10.3036 18.3264 9.88765C18.33 9.47166 18.1701 9.07089 17.8811 8.77167L11.5349 2.42546C11.2374 2.12803 10.8339 1.96094 10.4132 1.96094C9.9925 1.96094 9.58902 2.12803 9.2915 2.42546L2.94529 8.77167C2.79376 8.91802 2.67289 9.09309 2.58974 9.28665C2.5066 9.48022 2.46283 9.68841 2.461 9.89907C2.45917 10.1097 2.49931 10.3186 2.57908 10.5136C2.65886 10.7086 2.77666 10.8857 2.92563 11.0347C3.07459 11.1837 3.25173 11.3015 3.44672 11.3813C3.6417 11.461 3.85061 11.5012 4.06128 11.4993C4.27194 11.4975 4.48012 11.4537 4.67369 11.3706C4.86726 11.2874 5.04232 11.1666 5.18868 11.015L8.82664 7.37709V13.6106C8.82396 14.653 9.028 15.6855 9.42697 16.6484C9.82593 17.6114 10.4119 18.4857 11.1509 19.2207L19.9325 28.0023V38.4513C19.9325 38.8721 20.0997 39.2756 20.3972 39.5732C20.6947 39.8707 21.0983 40.0378 21.5191 40.0378C21.9398 40.0378 22.3434 39.8707 22.6409 39.5732C22.9385 39.2756 23.1056 38.8721 23.1056 38.4513V28.0023L31.8872 19.2207C32.6262 18.4857 33.2122 17.6114 33.6112 16.6484C34.0101 15.6855 34.2142 14.653 34.2115 13.6106V7.37709L37.8494 11.015C38.1487 11.3041 38.5494 11.464 38.9654 11.4604C39.3814 11.4567 39.7793 11.2899 40.0735 10.9957C40.3677 10.7016 40.5345 10.3036 40.5381 9.88765C40.5417 9.47166 40.3818 9.07089 40.0928 8.77167Z" fill="#3358FF"/>
</svg>
