<svg width="43" height="42" viewBox="0 0 43 42" fill="none" xmlns="http://www.w3.org/2000/svg">
<g clip-path="url(#clip0_5032_23578)">
<path d="M9.2491 7.53215H17.9713C18.5366 10.3061 20.9951 12.3999 23.9336 12.3999H36.1031C36.7751 12.3999 37.32 11.8551 37.32 11.183V9.96605H41.052C41.7241 9.96605 42.2689 9.42118 42.2689 8.7491V3.88131C42.2689 3.20923 41.7241 2.66436 41.052 2.66436H37.32V1.44742C37.32 0.775336 36.7751 0.230469 36.1031 0.230469H23.9336C20.9951 0.230469 18.5367 2.32427 17.9713 5.09826H9.2491C4.55193 5.09826 0.730469 8.91971 0.730469 13.6169C0.730469 18.3141 4.55193 22.1355 9.2491 22.1355H33.6692C37.0114 22.1355 39.835 24.9592 39.835 28.3014C39.835 31.6436 37.0114 34.4672 33.6692 34.4672H25.0281C24.4628 31.6933 22.0043 29.5995 19.0658 29.5995H6.8152C6.14312 29.5995 5.59826 30.1443 5.59826 30.8164V32.0334H1.94742C1.27534 32.0334 0.730469 32.5782 0.730469 33.2503V38.1181C0.730469 38.7902 1.27534 39.335 1.94742 39.335H5.59826V40.552C5.59826 41.2241 6.14312 41.7689 6.8152 41.7689H19.0658C22.0043 41.7689 24.4627 39.6751 25.0281 36.9011H33.6692C38.3722 36.9011 42.2689 33.0185 42.2689 28.3014C42.2689 23.5984 38.3863 19.7016 33.6692 19.7016H9.2491C5.89398 19.7016 3.16436 16.972 3.16436 13.6169C3.16436 10.2618 5.89398 7.53215 9.2491 7.53215ZM37.32 5.09826H39.835V7.53215H37.32V5.09826ZM23.9336 2.66436H34.8861C34.8861 3.86508 34.8861 9.22574 34.8861 9.96605H23.9336C21.9205 9.96605 20.2828 8.32828 20.2828 6.3152C20.2828 4.30213 21.9205 2.66436 23.9336 2.66436ZM5.59826 36.9011H3.16436V34.4672H5.59826V36.9011ZM19.0658 39.335H8.03215C8.03215 38.596 8.03215 33.2234 8.03215 32.0334H19.0658C21.0789 32.0334 22.7166 33.6711 22.7166 35.6842C22.7166 37.6973 21.0789 39.335 19.0658 39.335Z" fill="#3358FF"/>
<path d="M19.0646 34.4668H11.6818C11.0097 34.4668 10.4648 35.0117 10.4648 35.6837C10.4648 36.3558 11.0097 36.9007 11.6818 36.9007H19.0646C19.7367 36.9007 20.2815 36.3558 20.2815 35.6837C20.2815 35.0117 19.7367 34.4668 19.0646 34.4668Z" fill="black"/>
<path d="M31.2335 5.09863H23.9318C23.2597 5.09863 22.7148 5.6435 22.7148 6.31558C22.7148 6.98766 23.2597 7.53253 23.9318 7.53253H31.2335C31.9056 7.53253 32.4504 6.98766 32.4504 6.31558C32.4504 5.6435 31.9056 5.09863 31.2335 5.09863Z" fill="black"/>
</g>
<defs>
<clipPath id="clip0_5032_23578">
<rect width="41.5385" height="41.5385" fill="white" transform="translate(0.730469 0.230469)"/>
</clipPath>
</defs>
</svg>
