<svg width="43" height="42" viewBox="0 0 43 42" fill="none" xmlns="http://www.w3.org/2000/svg">
<g clip-path="url(#clip0_5032_11988)">
<path d="M11.6179 25.9448H12.6069V40.7799C12.6069 41.3239 13.052 41.7689 13.5959 41.7689H29.4201C29.9641 41.7689 30.4091 41.3239 30.4091 40.7799V25.9448H31.3981C31.9421 25.9448 32.3871 25.4997 32.3871 24.9557V20.9997V17.0437C32.3871 16.4997 31.9421 16.0546 31.3981 16.0546H30.4091V1.21948C30.4091 0.675524 29.9641 0.230469 29.4201 0.230469H13.5959C13.052 0.230469 12.6069 0.675524 12.6069 1.21948V16.0546H11.6179C11.074 16.0546 10.6289 16.4997 10.6289 17.0437V20.9997V24.9557C10.6289 25.4997 11.074 25.9448 11.6179 25.9448ZM28.4311 39.7909H26.4531V36.8239C26.4531 36.2799 26.008 35.8349 25.4641 35.8349C24.9201 35.8349 24.4751 36.2799 24.4751 36.8239V39.7909H22.497V36.8239C22.497 36.2799 22.052 35.8349 21.508 35.8349C20.9641 35.8349 20.519 36.2799 20.519 36.8239V39.7909H18.541V36.8239C18.541 36.2799 18.0959 35.8349 17.552 35.8349C17.008 35.8349 16.563 36.2799 16.563 36.8239V39.7909H14.585V25.9448H28.4311V39.7909ZM14.585 2.20849H16.563V5.17552C16.563 5.71948 17.008 6.16453 17.552 6.16453C18.0959 6.16453 18.541 5.71948 18.541 5.17552V2.20849H20.519V5.17552C20.519 5.71948 20.9641 6.16453 21.508 6.16453C22.052 6.16453 22.497 5.71948 22.497 5.17552V2.20849H24.4751V5.17552C24.4751 5.71948 24.9201 6.16453 25.4641 6.16453C26.008 6.16453 26.4531 5.71948 26.4531 5.17552V2.20849H28.4311V16.0546H14.585V2.20849ZM12.6069 18.0327H13.5959H29.4201H30.4091V20.0107H12.6069V18.0327ZM12.6069 21.9887H30.4091V23.9667H29.4201H13.5959H12.6069V21.9887Z" fill="#3358FF"/>
</g>
<defs>
<clipPath id="clip0_5032_11988">
<rect width="41.5385" height="41.5385" fill="white" transform="translate(0.730469 0.230469)"/>
</clipPath>
</defs>
</svg>
