<svg width="33" height="32" viewBox="0 0 33 32" fill="none" xmlns="http://www.w3.org/2000/svg">
<mask id="path-1-inside-1_4018_57056" fill="white">
<path d="M17.4231 15.3121V17.2261C17.4231 17.4799 17.3258 17.7233 17.1527 17.9028C16.9796 18.0823 16.7448 18.1831 16.5 18.1831C16.2552 18.1831 16.0204 18.0823 15.8473 17.9028C15.6742 17.7233 15.5769 17.4799 15.5769 17.2261V15.3121C15.5769 15.0583 15.6742 14.8148 15.8473 14.6354C16.0204 14.4559 16.2552 14.3551 16.5 14.3551C16.7448 14.3551 16.9796 14.4559 17.1527 14.6354C17.3258 14.8148 17.4231 15.0583 17.4231 15.3121ZM28.5 25.8391C28.5 26.6006 28.2082 27.3308 27.6889 27.8692C27.1696 28.4077 26.4652 28.7101 25.7308 28.7101H21.1154V29.1293C21.1153 29.5656 21.0194 29.9962 20.8348 30.3883C20.6502 30.7804 20.3818 31.1237 20.0501 31.3922C19.7184 31.6606 19.332 31.8472 18.9203 31.9376C18.5086 32.0281 18.0824 32.0201 17.6742 31.9142L5.19969 28.6814C4.99991 28.6298 4.82252 28.5103 4.69574 28.3421C4.56896 28.1739 4.50006 27.9666 4.5 27.7531V0.957004C4.5 0.703191 4.59725 0.459773 4.77036 0.2803C4.94347 0.100827 5.17826 0 5.42308 0H25.7308C26.4652 0 27.1696 0.302481 27.6889 0.8409C28.2082 1.37932 28.5 2.10957 28.5 2.87101V25.8391ZM19.2692 7.02633C19.2692 6.59964 19.1317 6.18519 18.8785 5.84881C18.6253 5.51244 18.2709 5.27342 17.8717 5.16974L6.34615 2.18388V27.0047L18.1209 30.0672C18.2579 30.1029 18.4009 30.1056 18.5389 30.075C18.677 30.0444 18.8065 29.9814 18.9174 29.8909C19.0283 29.8003 19.1177 29.6845 19.1787 29.5525C19.2397 29.4205 19.2707 29.2757 19.2692 29.1293V7.02633ZM26.6538 2.87101C26.6538 2.6172 26.5566 2.37378 26.3835 2.19431C26.2104 2.01484 25.9756 1.91401 25.7308 1.91401H12.9203L18.3185 3.31315C19.1173 3.52015 19.8264 3.99803 20.3332 4.67081C20.8399 5.3436 21.1153 6.1727 21.1154 7.02633V26.7961H25.7308C25.9756 26.7961 26.2104 26.6953 26.3835 26.5158C26.5566 26.3364 26.6538 26.0929 26.6538 25.8391V2.87101Z"/>
</mask>
<path d="M17.4231 15.3121V17.2261C17.4231 17.4799 17.3258 17.7233 17.1527 17.9028C16.9796 18.0823 16.7448 18.1831 16.5 18.1831C16.2552 18.1831 16.0204 18.0823 15.8473 17.9028C15.6742 17.7233 15.5769 17.4799 15.5769 17.2261V15.3121C15.5769 15.0583 15.6742 14.8148 15.8473 14.6354C16.0204 14.4559 16.2552 14.3551 16.5 14.3551C16.7448 14.3551 16.9796 14.4559 17.1527 14.6354C17.3258 14.8148 17.4231 15.0583 17.4231 15.3121ZM28.5 25.8391C28.5 26.6006 28.2082 27.3308 27.6889 27.8692C27.1696 28.4077 26.4652 28.7101 25.7308 28.7101H21.1154V29.1293C21.1153 29.5656 21.0194 29.9962 20.8348 30.3883C20.6502 30.7804 20.3818 31.1237 20.0501 31.3922C19.7184 31.6606 19.332 31.8472 18.9203 31.9376C18.5086 32.0281 18.0824 32.0201 17.6742 31.9142L5.19969 28.6814C4.99991 28.6298 4.82252 28.5103 4.69574 28.3421C4.56896 28.1739 4.50006 27.9666 4.5 27.7531V0.957004C4.5 0.703191 4.59725 0.459773 4.77036 0.2803C4.94347 0.100827 5.17826 0 5.42308 0H25.7308C26.4652 0 27.1696 0.302481 27.6889 0.8409C28.2082 1.37932 28.5 2.10957 28.5 2.87101V25.8391ZM19.2692 7.02633C19.2692 6.59964 19.1317 6.18519 18.8785 5.84881C18.6253 5.51244 18.2709 5.27342 17.8717 5.16974L6.34615 2.18388V27.0047L18.1209 30.0672C18.2579 30.1029 18.4009 30.1056 18.5389 30.075C18.677 30.0444 18.8065 29.9814 18.9174 29.8909C19.0283 29.8003 19.1177 29.6845 19.1787 29.5525C19.2397 29.4205 19.2707 29.2757 19.2692 29.1293V7.02633ZM26.6538 2.87101C26.6538 2.6172 26.5566 2.37378 26.3835 2.19431C26.2104 2.01484 25.9756 1.91401 25.7308 1.91401H12.9203L18.3185 3.31315C19.1173 3.52015 19.8264 3.99803 20.3332 4.67081C20.8399 5.3436 21.1153 6.1727 21.1154 7.02633V26.7961H25.7308C25.9756 26.7961 26.2104 26.6953 26.3835 26.5158C26.5566 26.3364 26.6538 26.0929 26.6538 25.8391V2.87101Z" fill="black"/>
<path d="M21.1154 28.7101V7.3768H-0.217949V28.7101H21.1154ZM21.1154 29.1293L42.4487 29.1316V29.1293H21.1154ZM18.9203 31.9376L23.4983 52.7739L18.9203 31.9376ZM17.6742 31.9142L23.0295 11.264L23.0259 11.263L17.6742 31.9142ZM5.19969 28.6814L10.5514 8.03027L10.5404 8.02742L5.19969 28.6814ZM4.5 27.7531L-16.8333 27.7531L-16.8333 27.7588L4.5 27.7531ZM5.42308 0V21.3333V0ZM19.2692 7.02633L40.6026 7.02633L40.6026 7.02579L19.2692 7.02633ZM17.8717 5.16974L23.2344 -15.4786L23.2218 -15.4818L17.8717 5.16974ZM6.34615 2.18388L11.6962 -18.4677L-14.9872 -25.3804V2.18388H6.34615ZM6.34615 27.0047H-14.9872V43.4994L0.976364 47.6512L6.34615 27.0047ZM18.1209 30.0672L23.5067 9.42488L23.4987 9.42278L23.4907 9.4207L18.1209 30.0672ZM19.2692 29.1293H-2.0641V29.2346L-2.06306 29.34L19.2692 29.1293ZM12.9203 1.91401V-19.4193L7.56781 22.565L12.9203 1.91401ZM18.3185 3.31315L12.966 23.9641L12.9667 23.9643L18.3185 3.31315ZM21.1154 7.02633L42.4487 7.02633L42.4487 7.02321L21.1154 7.02633ZM21.1154 26.7961H-0.217949V48.1295H21.1154V26.7961ZM-3.91026 15.3121V17.2261H38.7564V15.3121H-3.91026ZM-3.91026 17.2261C-3.91026 12.0655 -1.94013 6.96805 1.79805 3.09247L32.5074 32.7131C36.5918 28.4786 38.7564 22.8943 38.7564 17.2261H-3.91026ZM1.79805 3.09247C5.56149 -0.809297 10.8334 -3.15025 16.5 -3.15025V39.5164C22.6563 39.5164 28.3977 36.9738 32.5074 32.7131L1.79805 3.09247ZM16.5 -3.15025C22.1666 -3.15025 27.4385 -0.809297 31.2019 3.09247L0.492621 32.7131C4.60228 36.9738 10.3437 39.5164 16.5 39.5164V-3.15025ZM31.2019 3.09247C34.9401 6.96805 36.9103 12.0655 36.9103 17.2261H-5.75641C-5.75641 22.8943 -3.59178 28.4786 0.492621 32.7131L31.2019 3.09247ZM36.9103 17.2261V15.3121H-5.75641V17.2261H36.9103ZM36.9103 15.3121C36.9103 20.4727 34.9401 25.5701 31.2019 29.4457L0.492621 -0.174949C-3.59178 4.05958 -5.75641 9.64384 -5.75641 15.3121H36.9103ZM31.2019 29.4457C27.4385 33.3474 22.1666 35.6884 16.5 35.6884V-6.97827C10.3437 -6.97827 4.60228 -4.43566 0.492621 -0.174949L31.2019 29.4457ZM16.5 35.6884C10.8334 35.6884 5.56149 33.3474 1.79805 29.4457L32.5074 -0.174949C28.3977 -4.43566 22.6563 -6.97827 16.5 -6.97827V35.6884ZM1.79805 29.4457C-1.94013 25.5701 -3.91026 20.4727 -3.91026 15.3121H38.7564C38.7564 9.64384 36.5918 4.05958 32.5074 -0.174949L1.79805 29.4457ZM7.16667 25.8391C7.16667 21.186 8.94235 16.5755 12.3342 13.0589L43.0436 42.6795C47.4741 38.0861 49.8333 32.0151 49.8333 25.8391H7.16667ZM12.3342 13.0589C15.7514 9.51617 20.5537 7.3768 25.7308 7.3768V50.0435C32.3768 50.0435 38.5878 47.2991 43.0436 42.6795L12.3342 13.0589ZM25.7308 7.3768H21.1154V50.0435H25.7308V7.3768ZM-0.217949 28.7101V29.1293H42.4487V28.7101H-0.217949ZM-0.217949 29.127C-0.217665 26.4446 0.370828 23.7711 1.53333 21.3017L40.1362 39.4748C41.6679 36.2212 42.4483 32.6866 42.4487 29.1316L-0.217949 29.127ZM1.53333 21.3017C2.69689 18.8301 4.42123 16.5962 6.62976 14.8089L33.4705 47.9754C36.3425 45.6512 38.6035 42.7306 40.1362 39.4748L1.53333 21.3017ZM6.62976 14.8089C8.84164 13.0189 11.4745 11.7314 14.3422 11.1013L23.4983 52.7739C27.1895 51.9629 30.5951 50.3024 33.4705 47.9754L6.62976 14.8089ZM14.3422 11.1013C17.2122 10.4707 20.1895 10.5274 23.0295 11.264L12.3188 52.5644C15.9754 53.5127 19.8049 53.5854 23.4983 52.7739L14.3422 11.1013ZM23.0259 11.263L10.5514 8.03028L-0.152057 49.3326L12.3224 52.5653L23.0259 11.263ZM10.5404 8.02742C15.1142 9.21012 19.0208 11.9047 21.7318 15.5014L-12.3403 41.1829C-9.37573 45.116 -5.1144 48.0494 -0.141032 49.3354L10.5404 8.02742ZM21.7318 15.5014C24.4329 19.0851 25.8322 23.3969 25.8333 27.7474L-16.8333 27.7588C-16.8321 32.5363 -15.295 37.2628 -12.3403 41.1829L21.7318 15.5014ZM25.8333 27.7531V0.957004H-16.8333V27.7531H25.8333ZM25.8333 0.957004C25.8333 6.11768 23.8632 11.2151 20.125 15.0906L-10.5843 -14.53C-14.6687 -10.2955 -16.8333 -4.7113 -16.8333 0.957004H25.8333ZM20.125 15.0906C16.3616 18.9923 11.0898 21.3333 5.42308 21.3333L5.42308 -21.3333C-0.733269 -21.3333 -6.47469 -18.7907 -10.5843 -14.53L20.125 15.0906ZM5.42308 21.3333H25.7308V-21.3333H5.42308V21.3333ZM25.7308 21.3333C20.5537 21.3333 15.7514 19.194 12.3342 15.6512L43.0436 -13.9694C38.5877 -18.589 32.3767 -21.3333 25.7308 -21.3333V21.3333ZM12.3342 15.6512C8.94234 12.1346 7.16667 7.52407 7.16667 2.87101H49.8333C49.8333 -3.30493 47.4741 -9.376 43.0436 -13.9694L12.3342 15.6512ZM7.16667 2.87101V25.8391H49.8333V2.87101H7.16667ZM40.6026 7.02579C40.6024 2.03775 38.9996 -2.89349 35.9227 -6.98111L1.8343 18.6787C-0.736227 15.2639 -2.064 11.1615 -2.0641 7.02687L40.6026 7.02579ZM35.9227 -6.98111C32.8359 -11.0818 28.4028 -14.1363 23.2344 -15.4786L12.509 25.818C8.13906 24.6831 4.41465 22.1067 1.8343 18.6787L35.9227 -6.98111ZM23.2218 -15.4818L11.6962 -18.4677L0.996069 22.8355L12.5216 25.8213L23.2218 -15.4818ZM-14.9872 2.18388V27.0047H27.6795V2.18388H-14.9872ZM0.976364 47.6512L12.7511 50.7136L23.4907 9.4207L11.7159 6.35829L0.976364 47.6512ZM12.7351 50.7095C16.1401 51.5979 19.7093 51.6657 23.1496 50.9041L13.9283 9.24588C17.0924 8.54548 20.3756 8.60792 23.5067 9.42488L12.7351 50.7095ZM23.1496 50.9041C26.5874 50.1432 29.7512 48.587 32.4122 46.4136L5.42267 13.3681C7.86187 11.3759 10.7667 9.94572 13.9283 9.24588L23.1496 50.9041ZM32.4122 46.4136C35.0698 44.2431 37.149 41.5219 38.5454 38.4991L-0.187983 20.6059C1.08647 17.8471 2.98688 15.3575 5.42267 13.3681L32.4122 46.4136ZM38.5454 38.4991C39.9408 35.4785 40.634 32.2038 40.6015 28.9186L-2.06306 29.34C-2.09261 26.3475 -1.46141 23.3625 -0.187983 20.6059L38.5454 38.4991ZM40.6026 29.1293V7.02633H-2.0641V29.1293H40.6026ZM47.9872 2.87101C47.9872 -2.79724 45.8225 -8.3815 41.7381 -12.616L11.0288 17.0046C7.29065 13.1291 5.32051 8.03164 5.32051 2.87101H47.9872ZM41.7381 -12.616C37.6285 -16.8767 31.8871 -19.4193 25.7308 -19.4193V23.2473C20.0641 23.2473 14.7922 20.9064 11.0288 17.0046L41.7381 -12.616ZM25.7308 -19.4193H12.9203V23.2473H25.7308V-19.4193ZM7.56781 22.565L12.966 23.9641L23.671 -17.3378L18.2728 -18.7369L7.56781 22.565ZM12.9667 23.9643C8.99417 22.9348 5.62195 20.598 3.29305 17.5061L37.3733 -8.16452C34.0308 -12.6019 29.2403 -15.8945 23.6702 -17.338L12.9667 23.9643ZM3.29305 17.5061C0.973982 14.4274 -0.217407 10.7385 -0.217949 7.02944L42.4487 7.02321C42.4479 1.60689 40.7059 -3.74017 37.3733 -8.16452L3.29305 17.5061ZM-0.217949 7.02633V26.7961H42.4487V7.02633H-0.217949ZM21.1154 48.1295H25.7308V5.46279H21.1154V48.1295ZM25.7308 48.1295C31.887 48.1295 37.6285 45.5869 41.7381 41.3261L11.0288 11.7055C14.7923 7.80374 20.0641 5.46279 25.7308 5.46279V48.1295ZM41.7381 41.3261C45.8226 37.0916 47.9872 31.5074 47.9872 25.8391H5.32051C5.32051 20.6785 7.29064 15.5811 11.0288 11.7055L41.7381 41.3261ZM47.9872 25.8391V2.87101H5.32051V25.8391H47.9872Z" fill="#030317" mask="url(#path-1-inside-1_4018_57056)"/>
<path d="M21.1154 28.7101V7.3768H-0.217949V28.7101H21.1154ZM21.1154 29.1293L42.4487 29.1316V29.1293H21.1154ZM18.9203 31.9376L23.4983 52.7739L18.9203 31.9376ZM17.6742 31.9142L23.0295 11.264L23.0259 11.263L17.6742 31.9142ZM5.19969 28.6814L10.5514 8.03027L10.5404 8.02742L5.19969 28.6814ZM4.5 27.7531L-16.8333 27.7531L-16.8333 27.7588L4.5 27.7531ZM5.42308 0V21.3333V0ZM19.2692 7.02633L40.6026 7.02633L40.6026 7.02579L19.2692 7.02633ZM17.8717 5.16974L23.2344 -15.4786L23.2218 -15.4818L17.8717 5.16974ZM6.34615 2.18388L11.6962 -18.4677L-14.9872 -25.3804V2.18388H6.34615ZM6.34615 27.0047H-14.9872V43.4994L0.976364 47.6512L6.34615 27.0047ZM18.1209 30.0672L23.5067 9.42488L23.4987 9.42278L23.4907 9.4207L18.1209 30.0672ZM19.2692 29.1293H-2.0641V29.2346L-2.06306 29.34L19.2692 29.1293ZM12.9203 1.91401V-19.4193L7.56781 22.565L12.9203 1.91401ZM18.3185 3.31315L12.966 23.9641L12.9667 23.9643L18.3185 3.31315ZM21.1154 7.02633L42.4487 7.02633L42.4487 7.02321L21.1154 7.02633ZM21.1154 26.7961H-0.217949V48.1295H21.1154V26.7961ZM-3.91026 15.3121V17.2261H38.7564V15.3121H-3.91026ZM-3.91026 17.2261C-3.91026 12.0655 -1.94013 6.96805 1.79805 3.09247L32.5074 32.7131C36.5918 28.4786 38.7564 22.8943 38.7564 17.2261H-3.91026ZM1.79805 3.09247C5.56149 -0.809297 10.8334 -3.15025 16.5 -3.15025V39.5164C22.6563 39.5164 28.3977 36.9738 32.5074 32.7131L1.79805 3.09247ZM16.5 -3.15025C22.1666 -3.15025 27.4385 -0.809297 31.2019 3.09247L0.492621 32.7131C4.60228 36.9738 10.3437 39.5164 16.5 39.5164V-3.15025ZM31.2019 3.09247C34.9401 6.96805 36.9103 12.0655 36.9103 17.2261H-5.75641C-5.75641 22.8943 -3.59178 28.4786 0.492621 32.7131L31.2019 3.09247ZM36.9103 17.2261V15.3121H-5.75641V17.2261H36.9103ZM36.9103 15.3121C36.9103 20.4727 34.9401 25.5701 31.2019 29.4457L0.492621 -0.174949C-3.59178 4.05958 -5.75641 9.64384 -5.75641 15.3121H36.9103ZM31.2019 29.4457C27.4385 33.3474 22.1666 35.6884 16.5 35.6884V-6.97827C10.3437 -6.97827 4.60228 -4.43566 0.492621 -0.174949L31.2019 29.4457ZM16.5 35.6884C10.8334 35.6884 5.56149 33.3474 1.79805 29.4457L32.5074 -0.174949C28.3977 -4.43566 22.6563 -6.97827 16.5 -6.97827V35.6884ZM1.79805 29.4457C-1.94013 25.5701 -3.91026 20.4727 -3.91026 15.3121H38.7564C38.7564 9.64384 36.5918 4.05958 32.5074 -0.174949L1.79805 29.4457ZM7.16667 25.8391C7.16667 21.186 8.94235 16.5755 12.3342 13.0589L43.0436 42.6795C47.4741 38.0861 49.8333 32.0151 49.8333 25.8391H7.16667ZM12.3342 13.0589C15.7514 9.51617 20.5537 7.3768 25.7308 7.3768V50.0435C32.3768 50.0435 38.5878 47.2991 43.0436 42.6795L12.3342 13.0589ZM25.7308 7.3768H21.1154V50.0435H25.7308V7.3768ZM-0.217949 28.7101V29.1293H42.4487V28.7101H-0.217949ZM-0.217949 29.127C-0.217665 26.4446 0.370828 23.7711 1.53333 21.3017L40.1362 39.4748C41.6679 36.2212 42.4483 32.6866 42.4487 29.1316L-0.217949 29.127ZM1.53333 21.3017C2.69689 18.8301 4.42123 16.5962 6.62976 14.8089L33.4705 47.9754C36.3425 45.6512 38.6035 42.7306 40.1362 39.4748L1.53333 21.3017ZM6.62976 14.8089C8.84164 13.0189 11.4745 11.7314 14.3422 11.1013L23.4983 52.7739C27.1895 51.9629 30.5951 50.3024 33.4705 47.9754L6.62976 14.8089ZM14.3422 11.1013C17.2122 10.4707 20.1895 10.5274 23.0295 11.264L12.3188 52.5644C15.9754 53.5127 19.8049 53.5854 23.4983 52.7739L14.3422 11.1013ZM23.0259 11.263L10.5514 8.03028L-0.152057 49.3326L12.3224 52.5653L23.0259 11.263ZM10.5404 8.02742C15.1142 9.21012 19.0208 11.9047 21.7318 15.5014L-12.3403 41.1829C-9.37573 45.116 -5.1144 48.0494 -0.141032 49.3354L10.5404 8.02742ZM21.7318 15.5014C24.4329 19.0851 25.8322 23.3969 25.8333 27.7474L-16.8333 27.7588C-16.8321 32.5363 -15.295 37.2628 -12.3403 41.1829L21.7318 15.5014ZM25.8333 27.7531V0.957004H-16.8333V27.7531H25.8333ZM25.8333 0.957004C25.8333 6.11768 23.8632 11.2151 20.125 15.0906L-10.5843 -14.53C-14.6687 -10.2955 -16.8333 -4.7113 -16.8333 0.957004H25.8333ZM20.125 15.0906C16.3616 18.9923 11.0898 21.3333 5.42308 21.3333L5.42308 -21.3333C-0.733269 -21.3333 -6.47469 -18.7907 -10.5843 -14.53L20.125 15.0906ZM5.42308 21.3333H25.7308V-21.3333H5.42308V21.3333ZM25.7308 21.3333C20.5537 21.3333 15.7514 19.194 12.3342 15.6512L43.0436 -13.9694C38.5877 -18.589 32.3767 -21.3333 25.7308 -21.3333V21.3333ZM12.3342 15.6512C8.94234 12.1346 7.16667 7.52407 7.16667 2.87101H49.8333C49.8333 -3.30493 47.4741 -9.376 43.0436 -13.9694L12.3342 15.6512ZM7.16667 2.87101V25.8391H49.8333V2.87101H7.16667ZM40.6026 7.02579C40.6024 2.03775 38.9996 -2.89349 35.9227 -6.98111L1.8343 18.6787C-0.736227 15.2639 -2.064 11.1615 -2.0641 7.02687L40.6026 7.02579ZM35.9227 -6.98111C32.8359 -11.0818 28.4028 -14.1363 23.2344 -15.4786L12.509 25.818C8.13906 24.6831 4.41465 22.1067 1.8343 18.6787L35.9227 -6.98111ZM23.2218 -15.4818L11.6962 -18.4677L0.996069 22.8355L12.5216 25.8213L23.2218 -15.4818ZM-14.9872 2.18388V27.0047H27.6795V2.18388H-14.9872ZM0.976364 47.6512L12.7511 50.7136L23.4907 9.4207L11.7159 6.35829L0.976364 47.6512ZM12.7351 50.7095C16.1401 51.5979 19.7093 51.6657 23.1496 50.9041L13.9283 9.24588C17.0924 8.54548 20.3756 8.60792 23.5067 9.42488L12.7351 50.7095ZM23.1496 50.9041C26.5874 50.1432 29.7512 48.587 32.4122 46.4136L5.42267 13.3681C7.86187 11.3759 10.7667 9.94572 13.9283 9.24588L23.1496 50.9041ZM32.4122 46.4136C35.0698 44.2431 37.149 41.5219 38.5454 38.4991L-0.187983 20.6059C1.08647 17.8471 2.98688 15.3575 5.42267 13.3681L32.4122 46.4136ZM38.5454 38.4991C39.9408 35.4785 40.634 32.2038 40.6015 28.9186L-2.06306 29.34C-2.09261 26.3475 -1.46141 23.3625 -0.187983 20.6059L38.5454 38.4991ZM40.6026 29.1293V7.02633H-2.0641V29.1293H40.6026ZM47.9872 2.87101C47.9872 -2.79724 45.8225 -8.3815 41.7381 -12.616L11.0288 17.0046C7.29065 13.1291 5.32051 8.03164 5.32051 2.87101H47.9872ZM41.7381 -12.616C37.6285 -16.8767 31.8871 -19.4193 25.7308 -19.4193V23.2473C20.0641 23.2473 14.7922 20.9064 11.0288 17.0046L41.7381 -12.616ZM25.7308 -19.4193H12.9203V23.2473H25.7308V-19.4193ZM7.56781 22.565L12.966 23.9641L23.671 -17.3378L18.2728 -18.7369L7.56781 22.565ZM12.9667 23.9643C8.99417 22.9348 5.62195 20.598 3.29305 17.5061L37.3733 -8.16452C34.0308 -12.6019 29.2403 -15.8945 23.6702 -17.338L12.9667 23.9643ZM3.29305 17.5061C0.973982 14.4274 -0.217407 10.7385 -0.217949 7.02944L42.4487 7.02321C42.4479 1.60689 40.7059 -3.74017 37.3733 -8.16452L3.29305 17.5061ZM-0.217949 7.02633V26.7961H42.4487V7.02633H-0.217949ZM21.1154 48.1295H25.7308V5.46279H21.1154V48.1295ZM25.7308 48.1295C31.887 48.1295 37.6285 45.5869 41.7381 41.3261L11.0288 11.7055C14.7923 7.80374 20.0641 5.46279 25.7308 5.46279V48.1295ZM41.7381 41.3261C45.8226 37.0916 47.9872 31.5074 47.9872 25.8391H5.32051C5.32051 20.6785 7.29064 15.5811 11.0288 11.7055L41.7381 41.3261ZM47.9872 25.8391V2.87101H5.32051V25.8391H47.9872Z" fill="black" fill-opacity="0.2" mask="url(#path-1-inside-1_4018_57056)"/>
</svg>
