<svg width="33" height="32" viewBox="0 0 33 32" fill="none" xmlns="http://www.w3.org/2000/svg">
<g clip-path="url(#clip0_4018_56886)">
<path d="M25.4207 2.72646L25.4206 2.72635C25.2903 2.59607 25.2903 2.38488 25.4206 2.25461C25.5508 2.12441 25.7621 2.1242 25.8928 2.25475C28.8516 5.21488 30.4798 9.14802 30.4798 13.3337C30.4798 13.5176 30.3303 13.6671 30.1465 13.6671C29.9627 13.6671 29.8132 13.5176 29.8132 13.3337C29.8132 9.32761 28.2525 5.55946 25.4207 2.72646Z" fill="black"/>
<path d="M25.4207 2.72646L25.4206 2.72635C25.2903 2.59607 25.2903 2.38488 25.4206 2.25461C25.5508 2.12441 25.7621 2.1242 25.8928 2.25475C28.8516 5.21488 30.4798 9.14802 30.4798 13.3337C30.4798 13.5176 30.3303 13.6671 30.1465 13.6671C29.9627 13.6671 29.8132 13.5176 29.8132 13.3337C29.8132 9.32761 28.2525 5.55946 25.4207 2.72646Z" stroke="#030317" stroke-width="1.33333"/>
<path d="M25.4207 2.72646L25.4206 2.72635C25.2903 2.59607 25.2903 2.38488 25.4206 2.25461C25.5508 2.12441 25.7621 2.1242 25.8928 2.25475C28.8516 5.21488 30.4798 9.14802 30.4798 13.3337C30.4798 13.5176 30.3303 13.6671 30.1465 13.6671C29.9627 13.6671 29.8132 13.5176 29.8132 13.3337C29.8132 9.32761 28.2525 5.55946 25.4207 2.72646Z" stroke="black" stroke-opacity="0.2" stroke-width="1.33333"/>
<path d="M7.06775 2.2547L7.06784 2.25461C7.19812 2.12433 7.40955 2.12433 7.53983 2.25461C7.67006 2.38484 7.6701 2.59618 7.53995 2.72647C4.70679 5.55809 3.14583 9.32637 3.14583 13.3325C3.14583 13.5163 2.99631 13.6659 2.8125 13.6659C2.62869 13.6659 2.47917 13.5163 2.47917 13.3325C2.47917 9.1467 4.10771 5.21356 7.06775 2.2547Z" fill="black"/>
<path d="M7.06775 2.2547L7.06784 2.25461C7.19812 2.12433 7.40955 2.12433 7.53983 2.25461C7.67006 2.38484 7.6701 2.59618 7.53995 2.72647C4.70679 5.55809 3.14583 9.32637 3.14583 13.3325C3.14583 13.5163 2.99631 13.6659 2.8125 13.6659C2.62869 13.6659 2.47917 13.5163 2.47917 13.3325C2.47917 9.1467 4.10771 5.21356 7.06775 2.2547Z" stroke="#030317" stroke-width="1.33333"/>
<path d="M7.06775 2.2547L7.06784 2.25461C7.19812 2.12433 7.40955 2.12433 7.53983 2.25461C7.67006 2.38484 7.6701 2.59618 7.53995 2.72647C4.70679 5.55809 3.14583 9.32637 3.14583 13.3325C3.14583 13.5163 2.99631 13.6659 2.8125 13.6659C2.62869 13.6659 2.47917 13.5163 2.47917 13.3325C2.47917 9.1467 4.10771 5.21356 7.06775 2.2547Z" stroke="black" stroke-opacity="0.2" stroke-width="1.33333"/>
<path d="M16.4785 31.3333C14.0894 31.3333 12.1452 29.3891 12.1452 27C12.1452 26.8162 12.2947 26.6667 12.4785 26.6667C12.6623 26.6667 12.8118 26.8162 12.8118 27C12.8118 29.023 14.4555 30.6667 16.4785 30.6667C18.5012 30.6667 20.1452 29.023 20.1452 27C20.1452 26.8162 20.2947 26.6667 20.4785 26.6667C20.6623 26.6667 20.8118 26.8162 20.8118 27C20.8118 29.3891 18.8677 31.3333 16.4785 31.3333Z" fill="black"/>
<path d="M16.4785 31.3333C14.0894 31.3333 12.1452 29.3891 12.1452 27C12.1452 26.8162 12.2947 26.6667 12.4785 26.6667C12.6623 26.6667 12.8118 26.8162 12.8118 27C12.8118 29.023 14.4555 30.6667 16.4785 30.6667C18.5012 30.6667 20.1452 29.023 20.1452 27C20.1452 26.8162 20.2947 26.6667 20.4785 26.6667C20.6623 26.6667 20.8118 26.8162 20.8118 27C20.8118 29.3891 18.8677 31.3333 16.4785 31.3333Z" stroke="#030317" stroke-width="1.33333"/>
<path d="M16.4785 31.3333C14.0894 31.3333 12.1452 29.3891 12.1452 27C12.1452 26.8162 12.2947 26.6667 12.4785 26.6667C12.6623 26.6667 12.8118 26.8162 12.8118 27C12.8118 29.023 14.4555 30.6667 16.4785 30.6667C18.5012 30.6667 20.1452 29.023 20.1452 27C20.1452 26.8162 20.2947 26.6667 20.4785 26.6667C20.6623 26.6667 20.8118 26.8162 20.8118 27C20.8118 29.3891 18.8677 31.3333 16.4785 31.3333Z" stroke="black" stroke-opacity="0.2" stroke-width="1.33333"/>
<path d="M4.83622 24.9015L4.83621 24.9015L4.8323 24.9048C4.71001 25.0099 4.47982 25.261 4.47982 25.6667C4.47982 26.2164 4.93071 26.6667 5.47998 26.6667H27.48C28.0293 26.6667 28.4799 26.2161 28.4799 25.6667C28.4799 25.2645 28.254 25.0123 28.1262 24.9042C25.8079 22.9441 24.4799 20.0822 24.4799 17.0508V13.3333C24.4799 8.92112 20.8921 5.33333 16.48 5.33333C12.0676 5.33333 8.47982 8.9211 8.47982 13.3333V17.0508C8.47982 20.0823 7.15171 22.9442 4.83622 24.9015ZM27.48 27.3333H5.47998C4.56126 27.3333 3.81315 26.5851 3.81315 25.6667C3.81315 25.1792 4.02486 24.7184 4.39463 24.4011C6.57084 22.5615 7.81315 19.8856 7.81315 17.0508V13.3333C7.81315 8.55497 11.7014 4.66667 16.48 4.66667C21.2583 4.66667 25.1466 8.55496 25.1466 13.3333V17.0508C25.1466 19.8853 26.3887 22.5616 28.5524 24.3922C28.9365 24.72 29.1466 25.1813 29.1466 25.6667C29.1466 26.5852 28.3984 27.3333 27.48 27.3333Z" fill="black"/>
<path d="M4.83622 24.9015L4.83621 24.9015L4.8323 24.9048C4.71001 25.0099 4.47982 25.261 4.47982 25.6667C4.47982 26.2164 4.93071 26.6667 5.47998 26.6667H27.48C28.0293 26.6667 28.4799 26.2161 28.4799 25.6667C28.4799 25.2645 28.254 25.0123 28.1262 24.9042C25.8079 22.9441 24.4799 20.0822 24.4799 17.0508V13.3333C24.4799 8.92112 20.8921 5.33333 16.48 5.33333C12.0676 5.33333 8.47982 8.9211 8.47982 13.3333V17.0508C8.47982 20.0823 7.15171 22.9442 4.83622 24.9015ZM27.48 27.3333H5.47998C4.56126 27.3333 3.81315 26.5851 3.81315 25.6667C3.81315 25.1792 4.02486 24.7184 4.39463 24.4011C6.57084 22.5615 7.81315 19.8856 7.81315 17.0508V13.3333C7.81315 8.55497 11.7014 4.66667 16.48 4.66667C21.2583 4.66667 25.1466 8.55496 25.1466 13.3333V17.0508C25.1466 19.8853 26.3887 22.5616 28.5524 24.3922C28.9365 24.72 29.1466 25.1813 29.1466 25.6667C29.1466 26.5852 28.3984 27.3333 27.48 27.3333Z" stroke="#030317" stroke-width="1.33333"/>
<path d="M4.83622 24.9015L4.83621 24.9015L4.8323 24.9048C4.71001 25.0099 4.47982 25.261 4.47982 25.6667C4.47982 26.2164 4.93071 26.6667 5.47998 26.6667H27.48C28.0293 26.6667 28.4799 26.2161 28.4799 25.6667C28.4799 25.2645 28.254 25.0123 28.1262 24.9042C25.8079 22.9441 24.4799 20.0822 24.4799 17.0508V13.3333C24.4799 8.92112 20.8921 5.33333 16.48 5.33333C12.0676 5.33333 8.47982 8.9211 8.47982 13.3333V17.0508C8.47982 20.0823 7.15171 22.9442 4.83622 24.9015ZM27.48 27.3333H5.47998C4.56126 27.3333 3.81315 26.5851 3.81315 25.6667C3.81315 25.1792 4.02486 24.7184 4.39463 24.4011C6.57084 22.5615 7.81315 19.8856 7.81315 17.0508V13.3333C7.81315 8.55497 11.7014 4.66667 16.48 4.66667C21.2583 4.66667 25.1466 8.55496 25.1466 13.3333V17.0508C25.1466 19.8853 26.3887 22.5616 28.5524 24.3922C28.9365 24.72 29.1466 25.1813 29.1466 25.6667C29.1466 26.5852 28.3984 27.3333 27.48 27.3333Z" stroke="black" stroke-opacity="0.2" stroke-width="1.33333"/>
<path d="M16.4785 5.33333C16.2947 5.33333 16.1452 5.18381 16.1452 5V1C16.1452 0.816188 16.2947 0.666667 16.4785 0.666667C16.6623 0.666667 16.8118 0.816188 16.8118 1V5C16.8118 5.18381 16.6623 5.33333 16.4785 5.33333Z" fill="black"/>
<path d="M16.4785 5.33333C16.2947 5.33333 16.1452 5.18381 16.1452 5V1C16.1452 0.816188 16.2947 0.666667 16.4785 0.666667C16.6623 0.666667 16.8118 0.816188 16.8118 1V5C16.8118 5.18381 16.6623 5.33333 16.4785 5.33333Z" stroke="#030317" stroke-width="1.33333"/>
<path d="M16.4785 5.33333C16.2947 5.33333 16.1452 5.18381 16.1452 5V1C16.1452 0.816188 16.2947 0.666667 16.4785 0.666667C16.6623 0.666667 16.8118 0.816188 16.8118 1V5C16.8118 5.18381 16.6623 5.33333 16.4785 5.33333Z" stroke="black" stroke-opacity="0.2" stroke-width="1.33333"/>
</g>
<defs>
<clipPath id="clip0_4018_56886">
<rect width="32" height="32" fill="white" transform="translate(0.5)"/>
</clipPath>
</defs>
</svg>
