<svg width="33" height="32" viewBox="0 0 33 32" fill="none" xmlns="http://www.w3.org/2000/svg">
<g clip-path="url(#clip0_4018_56756)">
<path d="M7.33826 5.06984H1.44117C1.19755 5.06984 1 4.8722 1 4.62867C1 4.38514 1.19755 4.1875 1.44117 4.1875H7.33826C7.58188 4.1875 7.77943 4.38514 7.77943 4.62867C7.77943 4.8722 7.58188 5.06984 7.33826 5.06984Z" fill="black"/>
<path d="M7.33826 5.06984H1.44117C1.19755 5.06984 1 4.8722 1 4.62867C1 4.38514 1.19755 4.1875 1.44117 4.1875H7.33826C7.58188 4.1875 7.77943 4.38514 7.77943 4.62867C7.77943 4.8722 7.58188 5.06984 7.33826 5.06984Z" stroke="#030317"/>
<path d="M7.33826 5.06984H1.44117C1.19755 5.06984 1 4.8722 1 4.62867C1 4.38514 1.19755 4.1875 1.44117 4.1875H7.33826C7.58188 4.1875 7.77943 4.38514 7.77943 4.62867C7.77943 4.8722 7.58188 5.06984 7.33826 5.06984Z" stroke="black" stroke-opacity="0.2"/>
<path d="M10.7095 8.43852C8.60842 8.43852 6.89844 6.72851 6.89844 4.62771C6.89844 2.52638 8.60845 0.816406 10.7095 0.816406C12.8105 0.816406 14.5205 2.52638 14.5205 4.62771C14.5205 6.72858 12.8105 8.43852 10.7095 8.43852ZM10.7095 1.69881C9.09405 1.69881 7.78077 3.01242 7.78077 4.62771C7.78077 6.24314 9.09419 7.55612 10.7095 7.55612C12.3247 7.55612 13.6382 6.24314 13.6382 4.62771C13.6382 3.01242 12.3249 1.69881 10.7095 1.69881Z" fill="black"/>
<path d="M10.7095 8.43852C8.60842 8.43852 6.89844 6.72851 6.89844 4.62771C6.89844 2.52638 8.60845 0.816406 10.7095 0.816406C12.8105 0.816406 14.5205 2.52638 14.5205 4.62771C14.5205 6.72858 12.8105 8.43852 10.7095 8.43852ZM10.7095 1.69881C9.09405 1.69881 7.78077 3.01242 7.78077 4.62771C7.78077 6.24314 9.09419 7.55612 10.7095 7.55612C12.3247 7.55612 13.6382 6.24314 13.6382 4.62771C13.6382 3.01242 12.3249 1.69881 10.7095 1.69881Z" stroke="#030317"/>
<path d="M10.7095 8.43852C8.60842 8.43852 6.89844 6.72851 6.89844 4.62771C6.89844 2.52638 8.60845 0.816406 10.7095 0.816406C12.8105 0.816406 14.5205 2.52638 14.5205 4.62771C14.5205 6.72858 12.8105 8.43852 10.7095 8.43852ZM10.7095 1.69881C9.09405 1.69881 7.78077 3.01242 7.78077 4.62771C7.78077 6.24314 9.09419 7.55612 10.7095 7.55612C12.3247 7.55612 13.6382 6.24314 13.6382 4.62771C13.6382 3.01242 12.3249 1.69881 10.7095 1.69881Z" stroke="black" stroke-opacity="0.2"/>
<path d="M31.5587 5.56984H17.4919C16.9721 5.56984 16.5508 5.14825 16.5508 4.62867C16.5508 4.10909 16.9721 3.6875 17.4919 3.6875H31.5586C32.0784 3.6875 32.4998 4.10909 32.4998 4.62867C32.4998 5.14825 32.0785 5.56984 31.5587 5.56984Z" fill="black"/>
<path d="M23.3442 20.3111C20.967 20.3111 19.0332 18.3772 19.0332 16.0003C19.0332 13.6233 20.9671 11.6895 23.3442 11.6895C25.7214 11.6895 27.6553 13.6233 27.6553 16.0003C27.6553 18.3772 25.7215 20.3111 23.3442 20.3111ZM23.3442 13.5719C22.005 13.5719 20.9155 14.6611 20.9155 16.0003C20.9155 17.3395 22.005 18.4287 23.3442 18.4287C24.6834 18.4287 25.7729 17.3395 25.7729 16.0003C25.7729 14.6611 24.6834 13.5719 23.3442 13.5719Z" fill="black"/>
<path d="M16.561 16.9429H1.44117C0.921311 16.9429 0.5 16.5213 0.5 16.0017C0.5 15.4821 0.921311 15.0605 1.44117 15.0605H16.561C17.0809 15.0605 17.5022 15.4821 17.5022 16.0017C17.5022 16.5213 17.0809 16.9429 16.561 16.9429Z" fill="black"/>
<path d="M31.5587 16.9429H26.7146C26.1947 16.9429 25.7734 16.5213 25.7734 16.0017C25.7734 15.4821 26.1947 15.0605 26.7146 15.0605H31.5587C32.0786 15.0605 32.4999 15.4821 32.4999 16.0017C32.4999 16.5213 32.0786 16.9429 31.5587 16.9429Z" fill="black"/>
<path d="M9.65673 31.6846C7.27956 31.6846 5.3457 29.7508 5.3457 27.3733C5.3457 24.9964 7.27956 23.0625 9.65673 23.0625C12.0339 23.0625 13.9678 24.9964 13.9678 27.3733C13.9678 29.7508 12.0339 31.6846 9.65673 31.6846ZM9.65673 24.9449C8.31752 24.9449 7.22804 26.0341 7.22804 27.3733C7.22804 28.7125 8.31752 29.8022 9.65673 29.8022C10.9959 29.8022 12.0854 28.7125 12.0854 27.3733C12.0854 26.0341 10.9959 24.9449 9.65673 24.9449Z" fill="black"/>
<path d="M31.5591 28.3159H16.4392C15.9194 28.3159 15.498 27.8943 15.498 27.3748C15.498 26.8552 15.9194 26.4336 16.4392 26.4336H31.5591C32.079 26.4336 32.5003 26.8552 32.5003 27.3748C32.5003 27.8943 32.079 28.3159 31.5591 28.3159Z" fill="black"/>
<path d="M6.2853 28.316H1.44117C0.921311 28.316 0.5 27.8944 0.5 27.3748C0.5 26.8552 0.921311 26.4336 1.44117 26.4336H6.2853C6.80515 26.4336 7.22647 26.8552 7.22647 27.3748C7.22647 27.8944 6.80515 28.316 6.2853 28.316Z" fill="black"/>
</g>
<defs>
<clipPath id="clip0_4018_56756">
<rect width="32" height="32" fill="white" transform="translate(0.5)"/>
</clipPath>
</defs>
</svg>
