<svg width="33" height="32" viewBox="0 0 33 32" fill="none" xmlns="http://www.w3.org/2000/svg">
<g clip-path="url(#clip0_4018_56876)">
<path d="M31.125 1.875V1.375H30.625H28.4375C28.1959 1.375 28 1.17911 28 0.9375C28 0.695892 28.1959 0.5 28.4375 0.5H31.5625C31.8041 0.5 32 0.695892 32 0.9375V4.0625C32 4.30411 31.8041 4.5 31.5625 4.5C31.3209 4.5 31.125 4.30411 31.125 4.0625V1.875Z" fill="black"/>
<path d="M31.125 1.875V1.375H30.625H28.4375C28.1959 1.375 28 1.17911 28 0.9375C28 0.695892 28.1959 0.5 28.4375 0.5H31.5625C31.8041 0.5 32 0.695892 32 0.9375V4.0625C32 4.30411 31.8041 4.5 31.5625 4.5C31.3209 4.5 31.125 4.30411 31.125 4.0625V1.875Z" stroke="#030317"/>
<path d="M31.125 1.875V1.375H30.625H28.4375C28.1959 1.375 28 1.17911 28 0.9375C28 0.695892 28.1959 0.5 28.4375 0.5H31.5625C31.8041 0.5 32 0.695892 32 0.9375V4.0625C32 4.30411 31.8041 4.5 31.5625 4.5C31.3209 4.5 31.125 4.30411 31.125 4.0625V1.875Z" stroke="black" stroke-opacity="0.2"/>
<path d="M31.125 19.9802V12.0215C31.125 11.7808 31.3218 11.584 31.5625 11.584C31.8032 11.584 32 11.7808 32 12.0215V19.9802C32 20.221 31.8032 20.4177 31.5625 20.4177C31.3218 20.4177 31.125 20.221 31.125 19.9802Z" fill="black"/>
<path d="M31.125 19.9802V12.0215C31.125 11.7808 31.3218 11.584 31.5625 11.584C31.8032 11.584 32 11.7808 32 12.0215V19.9802C32 20.221 31.8032 20.4177 31.5625 20.4177C31.3218 20.4177 31.125 20.221 31.125 19.9802Z" stroke="#030317"/>
<path d="M31.125 19.9802V12.0215C31.125 11.7808 31.3218 11.584 31.5625 11.584C31.8032 11.584 32 11.7808 32 12.0215V19.9802C32 20.221 31.8032 20.4177 31.5625 20.4177C31.3218 20.4177 31.125 20.221 31.125 19.9802Z" stroke="black" stroke-opacity="0.2"/>
<path d="M30.625 30.625H31.125V30.125V27.9375C31.125 27.6959 31.3209 27.5 31.5625 27.5C31.8041 27.5 32 27.6959 32 27.9375V31.0625C32 31.3041 31.8041 31.5 31.5625 31.5H28.4375C28.1959 31.5 28 31.3041 28 31.0625C28 30.8209 28.1959 30.625 28.4375 30.625H30.625Z" fill="black"/>
<path d="M30.625 30.625H31.125V30.125V27.9375C31.125 27.6959 31.3209 27.5 31.5625 27.5C31.8041 27.5 32 27.6959 32 27.9375V31.0625C32 31.3041 31.8041 31.5 31.5625 31.5H28.4375C28.1959 31.5 28 31.3041 28 31.0625C28 30.8209 28.1959 30.625 28.4375 30.625H30.625Z" stroke="#030317"/>
<path d="M30.625 30.625H31.125V30.125V27.9375C31.125 27.6959 31.3209 27.5 31.5625 27.5C31.8041 27.5 32 27.6959 32 27.9375V31.0625C32 31.3041 31.8041 31.5 31.5625 31.5H28.4375C28.1959 31.5 28 31.3041 28 31.0625C28 30.8209 28.1959 30.625 28.4375 30.625H30.625Z" stroke="black" stroke-opacity="0.2"/>
<path d="M16.1774 30.1259V30.6259H16.6774H20.4794C20.7201 30.6259 20.9169 30.8226 20.9169 31.0634C20.9169 31.3041 20.7201 31.5009 20.4794 31.5009H1.4375C1.19589 31.5009 1 31.305 1 31.0634V12.0215C1 11.7808 1.19677 11.584 1.4375 11.584C1.67823 11.584 1.875 11.7808 1.875 12.0215V15.8235V16.3235H2.375H15.7399C15.9815 16.3235 16.1774 16.5194 16.1774 16.761V30.1259ZM15.3024 17.6985V17.1985H14.8024H2.37506H1.87506V17.6985V30.1258V30.6258H2.37506H14.8024H15.3024V30.1258V17.6985Z" fill="black"/>
<path d="M16.1774 30.1259V30.6259H16.6774H20.4794C20.7201 30.6259 20.9169 30.8226 20.9169 31.0634C20.9169 31.3041 20.7201 31.5009 20.4794 31.5009H1.4375C1.19589 31.5009 1 31.305 1 31.0634V12.0215C1 11.7808 1.19677 11.584 1.4375 11.584C1.67823 11.584 1.875 11.7808 1.875 12.0215V15.8235V16.3235H2.375H15.7399C15.9815 16.3235 16.1774 16.5194 16.1774 16.761V30.1259ZM15.3024 17.6985V17.1985H14.8024H2.37506H1.87506V17.6985V30.1258V30.6258H2.37506H14.8024H15.3024V30.1258V17.6985Z" stroke="#030317"/>
<path d="M16.1774 30.1259V30.6259H16.6774H20.4794C20.7201 30.6259 20.9169 30.8226 20.9169 31.0634C20.9169 31.3041 20.7201 31.5009 20.4794 31.5009H1.4375C1.19589 31.5009 1 31.305 1 31.0634V12.0215C1 11.7808 1.19677 11.584 1.4375 11.584C1.67823 11.584 1.875 11.7808 1.875 12.0215V15.8235V16.3235H2.375H15.7399C15.9815 16.3235 16.1774 16.5194 16.1774 16.761V30.1259ZM15.3024 17.6985V17.1985H14.8024H2.37506H1.87506V17.6985V30.1258V30.6258H2.37506H14.8024H15.3024V30.1258V17.6985Z" stroke="black" stroke-opacity="0.2"/>
<path d="M2.375 4.0625V1.875H4.5625C5.08025 1.875 5.5 1.45525 5.5 0.9375C5.5 0.41975 5.08025 0 4.5625 0H1.4375C0.91975 0 0.5 0.41975 0.5 0.9375V4.0625C0.5 4.58025 0.91975 5 1.4375 5C1.95525 5 2.375 4.58025 2.375 4.0625Z" fill="black"/>
<path d="M11.584 0.9375C11.584 1.45438 12.0046 1.875 12.5215 1.875H20.4802C20.9971 1.875 21.4177 1.45438 21.4177 0.9375C21.4177 0.420625 20.9971 0 20.4802 0H12.5215C12.0046 0 11.584 0.420625 11.584 0.9375Z" fill="black"/>
<path d="M18.3098 12.8635C18.1267 13.0466 18.0352 13.2865 18.0352 13.5264C18.0352 13.7663 18.1267 14.0063 18.3098 14.1893C18.6759 14.5554 19.2695 14.5554 19.6356 14.1893L26.1261 7.6988V9.85348C26.1261 10.3712 26.5458 10.791 27.0636 10.791C27.5813 10.791 28.0011 10.3712 28.0011 9.85348V5.43555C28.0011 4.9178 27.5813 4.49805 27.0636 4.49805H22.6456C22.1278 4.49805 21.7081 4.9178 21.7081 5.43555C21.7081 5.9533 22.1278 6.37305 22.6456 6.37305H24.8003L18.3098 12.8635Z" fill="black"/>
</g>
<defs>
<clipPath id="clip0_4018_56876">
<rect width="32" height="32" fill="white" transform="translate(0.5)"/>
</clipPath>
</defs>
</svg>
