<svg width="33" height="32" viewBox="0 0 33 32" fill="none" xmlns="http://www.w3.org/2000/svg">
<g clip-path="url(#clip0_2545_38339)">
<path d="M2.45664 11.9778L2.45579 11.9775C2.38937 11.9505 2.33606 11.8981 2.30788 11.8313L1.12456 9.02744L1.12452 9.02734C1.06616 8.88912 1.1308 8.72945 1.26962 8.67084C1.40793 8.61244 1.56738 8.67722 1.62576 8.81567L1.62587 8.81594L1.94252 9.56594L2.5489 11.0022L3.16644 9.5707C5.46618 4.2398 10.7412 0.727865 16.6139 0.727865C23.2913 0.727865 29.1225 5.24295 30.7944 11.7081L30.7944 11.7081C30.8319 11.8531 30.7448 12.0016 30.5994 12.0395C30.5753 12.0458 30.552 12.0485 30.5301 12.0485C30.4088 12.0485 30.2988 11.966 30.2674 11.8444L30.2673 11.8442C28.6577 5.61962 23.0432 1.27214 16.6139 1.27214C10.9903 1.27214 5.93683 4.61532 3.70292 9.70016L3.0307 11.2303L4.57063 10.5809L5.25667 10.2916L5.25682 10.2915C5.39562 10.2329 5.55494 10.2978 5.61343 10.4363C5.67182 10.5746 5.60707 10.7343 5.46846 10.7929L2.6648 11.9762C2.66473 11.9762 2.66465 11.9763 2.66458 11.9763C2.63052 11.9906 2.59447 11.9977 2.55867 11.9977C2.52379 11.9977 2.48924 11.9911 2.45664 11.9778Z" fill="black"/>
<path d="M2.45664 11.9778L2.45579 11.9775C2.38937 11.9505 2.33606 11.8981 2.30788 11.8313L1.12456 9.02744L1.12452 9.02734C1.06616 8.88912 1.1308 8.72945 1.26962 8.67084C1.40793 8.61244 1.56738 8.67722 1.62576 8.81567L1.62587 8.81594L1.94252 9.56594L2.5489 11.0022L3.16644 9.5707C5.46618 4.2398 10.7412 0.727865 16.6139 0.727865C23.2913 0.727865 29.1225 5.24295 30.7944 11.7081L30.7944 11.7081C30.8319 11.8531 30.7448 12.0016 30.5994 12.0395C30.5753 12.0458 30.552 12.0485 30.5301 12.0485C30.4088 12.0485 30.2988 11.966 30.2674 11.8444L30.2673 11.8442C28.6577 5.61962 23.0432 1.27214 16.6139 1.27214C10.9903 1.27214 5.93683 4.61532 3.70292 9.70016L3.0307 11.2303L4.57063 10.5809L5.25667 10.2916L5.25682 10.2915C5.39562 10.2329 5.55494 10.2978 5.61343 10.4363C5.67182 10.5746 5.60707 10.7343 5.46846 10.7929L2.6648 11.9762C2.66473 11.9762 2.66465 11.9763 2.66458 11.9763C2.63052 11.9906 2.59447 11.9977 2.55867 11.9977C2.52379 11.9977 2.48924 11.9911 2.45664 11.9778Z" stroke="#030317" stroke-width="1.33073"/>
<path d="M2.45664 11.9778L2.45579 11.9775C2.38937 11.9505 2.33606 11.8981 2.30788 11.8313L1.12456 9.02744L1.12452 9.02734C1.06616 8.88912 1.1308 8.72945 1.26962 8.67084C1.40793 8.61244 1.56738 8.67722 1.62576 8.81567L1.62587 8.81594L1.94252 9.56594L2.5489 11.0022L3.16644 9.5707C5.46618 4.2398 10.7412 0.727865 16.6139 0.727865C23.2913 0.727865 29.1225 5.24295 30.7944 11.7081L30.7944 11.7081C30.8319 11.8531 30.7448 12.0016 30.5994 12.0395C30.5753 12.0458 30.552 12.0485 30.5301 12.0485C30.4088 12.0485 30.2988 11.966 30.2674 11.8444L30.2673 11.8442C28.6577 5.61962 23.0432 1.27214 16.6139 1.27214C10.9903 1.27214 5.93683 4.61532 3.70292 9.70016L3.0307 11.2303L4.57063 10.5809L5.25667 10.2916L5.25682 10.2915C5.39562 10.2329 5.55494 10.2978 5.61343 10.4363C5.67182 10.5746 5.60707 10.7343 5.46846 10.7929L2.6648 11.9762C2.66473 11.9762 2.66465 11.9763 2.66458 11.9763C2.63052 11.9906 2.59447 11.9977 2.55867 11.9977C2.52379 11.9977 2.48924 11.9911 2.45664 11.9778Z" stroke="black" stroke-opacity="0.2" stroke-width="1.33073"/>
<path d="M32.3631 22.6485L31.1798 19.8445C31.0831 19.6155 30.8993 19.4341 30.669 19.3404C30.4388 19.2469 30.1805 19.2486 29.9515 19.3453L27.1473 20.5289C26.6703 20.73 26.4469 21.2801 26.6483 21.7571C26.8495 22.2342 27.3995 22.4576 27.8763 22.2562L28.6615 21.9249C26.5865 26.8995 21.7037 30.1871 16.2608 30.1871C10.1348 30.1871 4.78522 26.0447 3.25153 20.1136C3.12189 19.6124 2.61017 19.3113 2.10919 19.4407C1.60797 19.5704 1.3067 20.0818 1.43634 20.5831C3.1839 27.3416 9.2801 32.0618 16.2608 32.0618C22.4354 32.0618 27.9771 28.3489 30.3595 22.723L30.6356 23.3775C30.7867 23.7354 31.1341 23.9507 31.4999 23.9507C31.6212 23.9507 31.745 23.9268 31.8639 23.8765C32.3409 23.6754 32.5643 23.1255 32.3631 22.6485Z" fill="black"/>
<path d="M18.875 6.3125H14C13.4822 6.3125 13.0625 6.73218 13.0625 7.24976V8.93726H12.3359C11.4961 8.93726 10.8125 9.62696 10.8125 10.4746V24.2749C10.8125 25.1226 11.4961 25.8123 12.3359 25.8123H20.5391C21.3789 25.8123 22.0625 25.1226 22.0625 24.2749V10.4746C22.0625 9.62696 21.3789 8.93726 20.5391 8.93726H19.8125V7.24976C19.8125 6.73218 19.3926 6.3125 18.875 6.3125ZM20.1875 10.8123V23.937H12.6875V10.8123H14C14.5178 10.8123 14.9375 10.3926 14.9375 9.87476V8.18726H17.9375V9.87476C17.9375 10.3926 18.3572 10.8123 18.875 10.8123H20.1875Z" fill="black"/>
<path d="M17.7584 15.4079H17.0558L17.8183 14.4455C18.1396 14.0395 18.0712 13.4499 17.6654 13.1284C17.2597 12.8069 16.6698 12.8755 16.3483 13.2812L14.3822 15.7634C14.1591 16.0454 14.1166 16.4299 14.2733 16.7536C14.4298 17.0774 14.7577 17.2829 15.1173 17.2829H15.8041L14.9235 18.3806C14.5993 18.7844 14.6642 19.3745 15.0678 19.6987C15.2409 19.8374 15.4481 19.905 15.654 19.905C15.9286 19.905 16.2006 19.7849 16.3859 19.5542L18.4897 16.9324C18.7155 16.6511 18.7597 16.2654 18.6037 15.9402C18.4477 15.6147 18.119 15.4079 17.7584 15.4079Z" fill="black"/>
</g>
<defs>
<clipPath id="clip0_2545_38339">
<rect width="32" height="32" fill="white" transform="translate(0.5)"/>
</clipPath>
</defs>
</svg>
