<svg width="33" height="32" viewBox="0 0 33 32" fill="none" xmlns="http://www.w3.org/2000/svg">
<g clip-path="url(#clip0_4018_56781)">
<path d="M29.5 28.25V28.75H30H31.875C31.944 28.75 32 28.806 32 28.875V31.375C32 31.444 31.944 31.5 31.875 31.5H1.125C1.05599 31.5 1 31.444 1 31.375V28.875C1 28.806 1.05599 28.75 1.125 28.75H3H3.5V28.25V0.625C3.5 0.593018 3.51386 0.559495 3.53668 0.536678L3.53677 0.536583C3.55926 0.514083 3.5933 0.5 3.625 0.5H29.375C29.4067 0.5 29.4407 0.514096 29.4631 0.536488L29.4634 0.536773C29.4859 0.559352 29.5 0.593428 29.5 0.625V13.6319C29.459 13.6273 29.4172 13.625 29.375 13.625C29.3328 13.625 29.291 13.6273 29.25 13.6319V1.25V0.75H28.75H4.25H3.75V1.25V28.25V28.75H4.25H28.75H29.25V28.25V15.9931C29.291 15.9977 29.3328 16 29.375 16C29.4172 16 29.459 15.9977 29.5 15.9931V28.25ZM29.25 14.875V14.75C29.25 14.6818 29.3068 14.625 29.375 14.625C29.4432 14.625 29.5 14.6818 29.5 14.75V14.875C29.5 14.9432 29.4432 15 29.375 15C29.3068 15 29.25 14.9432 29.25 14.875ZM31.25 31.25H31.75V30.75V29.5V29H31.25H1.75H1.25V29.5V30.75V31.25H1.75H31.25Z" fill="black"/>
<path d="M29.5 28.25V28.75H30H31.875C31.944 28.75 32 28.806 32 28.875V31.375C32 31.444 31.944 31.5 31.875 31.5H1.125C1.05599 31.5 1 31.444 1 31.375V28.875C1 28.806 1.05599 28.75 1.125 28.75H3H3.5V28.25V0.625C3.5 0.593018 3.51386 0.559495 3.53668 0.536678L3.53677 0.536583C3.55926 0.514083 3.5933 0.5 3.625 0.5H29.375C29.4067 0.5 29.4407 0.514096 29.4631 0.536488L29.4634 0.536773C29.4859 0.559352 29.5 0.593428 29.5 0.625V13.6319C29.459 13.6273 29.4172 13.625 29.375 13.625C29.3328 13.625 29.291 13.6273 29.25 13.6319V1.25V0.75H28.75H4.25H3.75V1.25V28.25V28.75H4.25H28.75H29.25V28.25V15.9931C29.291 15.9977 29.3328 16 29.375 16C29.4172 16 29.459 15.9977 29.5 15.9931V28.25ZM29.25 14.875V14.75C29.25 14.6818 29.3068 14.625 29.375 14.625C29.4432 14.625 29.5 14.6818 29.5 14.75V14.875C29.5 14.9432 29.4432 15 29.375 15C29.3068 15 29.25 14.9432 29.25 14.875ZM31.25 31.25H31.75V30.75V29.5V29H31.25H1.75H1.25V29.5V30.75V31.25H1.75H31.25Z" stroke="#030317"/>
<path d="M29.5 28.25V28.75H30H31.875C31.944 28.75 32 28.806 32 28.875V31.375C32 31.444 31.944 31.5 31.875 31.5H1.125C1.05599 31.5 1 31.444 1 31.375V28.875C1 28.806 1.05599 28.75 1.125 28.75H3H3.5V28.25V0.625C3.5 0.593018 3.51386 0.559495 3.53668 0.536678L3.53677 0.536583C3.55926 0.514083 3.5933 0.5 3.625 0.5H29.375C29.4067 0.5 29.4407 0.514096 29.4631 0.536488L29.4634 0.536773C29.4859 0.559352 29.5 0.593428 29.5 0.625V13.6319C29.459 13.6273 29.4172 13.625 29.375 13.625C29.3328 13.625 29.291 13.6273 29.25 13.6319V1.25V0.75H28.75H4.25H3.75V1.25V28.25V28.75H4.25H28.75H29.25V28.25V15.9931C29.291 15.9977 29.3328 16 29.375 16C29.4172 16 29.459 15.9977 29.5 15.9931V28.25ZM29.25 14.875V14.75C29.25 14.6818 29.3068 14.625 29.375 14.625C29.4432 14.625 29.5 14.6818 29.5 14.75V14.875C29.5 14.9432 29.4432 15 29.375 15C29.3068 15 29.25 14.9432 29.25 14.875ZM31.25 31.25H31.75V30.75V29.5V29H31.25H1.75H1.25V29.5V30.75V31.25H1.75H31.25Z" stroke="black" stroke-opacity="0.2"/>
<path d="M17.875 25.75V26.25H18.375H26.2501H26.7501V25.75V20.0848V19.767L26.4623 19.6321L25.3237 19.0983L24.9224 18.9102L24.6875 19.2861L23.6346 20.9706L23.4618 21.2471L23.6452 21.5168L24.4784 22.7422C24.4785 22.7422 24.4785 22.7422 24.4785 22.7422C24.4991 22.7727 24.5054 22.8106 24.4955 22.846C24.4857 22.8814 24.4608 22.9107 24.4272 22.9261C24.4272 22.9261 24.4272 22.9261 24.4272 22.9261L22.1232 23.9847C22.0711 24.0056 22.0397 23.999 22.0215 23.9918C22 23.9833 21.9702 23.9625 21.9456 23.9191C21.9226 23.8581 21.9503 23.789 22.0104 23.7614L23.6515 23.0074L24.1886 22.7607L23.8563 22.2719L23.2091 21.3203L23.2091 21.3202C23.1813 21.2793 23.1802 21.2258 23.2065 21.1838L23.2065 21.1837L24.2728 19.4776L24.6697 18.8425L23.931 18.7194L22.9794 18.5608L22.9794 18.5608C22.9192 18.5508 22.875 18.4987 22.875 18.4375V17.1875V16.6875H22.375H21.1732H20.8347L20.7089 17.0018L20.1162 18.4837C20.1162 18.4838 20.1161 18.4839 20.1161 18.4839C20.1066 18.5076 20.0902 18.5276 20.0695 18.5415L20.0693 18.5415L18.0977 19.856L17.875 20.0044V20.272V25.75ZM24.4812 13.1361L24.2914 13.1271L24.1436 13.2464L22.7321 14.3847L22.4592 14.6048L22.5732 14.9364L23.1181 16.5216C23.1182 16.5217 23.1182 16.5217 23.1182 16.5218C23.1227 16.535 23.125 16.5488 23.125 16.5625V17.908V18.3316L23.5428 18.4012L24.8478 18.6187C24.85 18.6196 24.8523 18.6205 24.8547 18.6215C24.889 18.636 24.9378 18.6572 24.9979 18.6838C25.1174 18.7367 25.2728 18.8069 25.4279 18.8775C25.5827 18.9479 25.7358 19.0181 25.8504 19.0707L25.9884 19.1342L26.0269 19.152L26.037 19.1566L26.0396 19.1578L26.0402 19.1581L26.0404 19.1582L26.0404 19.1582L26.25 18.7043L26.0404 19.1582L26.75 19.4858V18.7043V13.7209V13.2442L26.2738 13.2215L24.4812 13.1361ZM24.8213 18.6079C24.8216 18.608 24.822 18.6081 24.8223 18.6083C24.816 18.6062 24.8124 18.6047 24.8124 18.6046C24.8124 18.6046 24.8151 18.6055 24.8213 18.6079ZM26.75 3.75V3.25H26.25H18.375H17.875V3.75V18.7697V19.704L18.6524 19.1857L19.7692 18.4411L19.8984 18.355L19.9561 18.2108L20.6339 16.5161L20.634 16.516C20.6529 16.4687 20.6988 16.4375 20.75 16.4375H22.1243H22.8248L22.5971 15.775L22.1943 14.6031C22.1943 14.6031 22.1943 14.6031 22.1943 14.6031C22.1772 14.5533 22.1931 14.4982 22.2341 14.4651C22.2341 14.4651 22.2341 14.4651 22.2341 14.4651L23.7462 13.2457L24.0865 12.9712L23.8599 12.5973L22.8932 11.0022L22.8932 11.0022C22.8574 10.9432 22.8763 10.8663 22.9352 10.8306L22.9353 10.8306C22.9943 10.7949 23.0712 10.8138 23.1069 10.8727L23.1069 10.8727L24.1845 12.6507L24.3224 12.8783L24.5883 12.891L26.2262 12.969L26.75 12.9939V12.4696V3.75ZM26.875 26.5H17.75C17.681 26.5 17.625 26.444 17.625 26.375V3.125C17.625 3.05602 17.681 3 17.75 3H26.875C26.944 3 27 3.05602 27 3.125V26.375C27 26.444 26.944 26.5 26.875 26.5Z" fill="black"/>
<path d="M17.875 25.75V26.25H18.375H26.2501H26.7501V25.75V20.0848V19.767L26.4623 19.6321L25.3237 19.0983L24.9224 18.9102L24.6875 19.2861L23.6346 20.9706L23.4618 21.2471L23.6452 21.5168L24.4784 22.7422C24.4785 22.7422 24.4785 22.7422 24.4785 22.7422C24.4991 22.7727 24.5054 22.8106 24.4955 22.846C24.4857 22.8814 24.4608 22.9107 24.4272 22.9261C24.4272 22.9261 24.4272 22.9261 24.4272 22.9261L22.1232 23.9847C22.0711 24.0056 22.0397 23.999 22.0215 23.9918C22 23.9833 21.9702 23.9625 21.9456 23.9191C21.9226 23.8581 21.9503 23.789 22.0104 23.7614L23.6515 23.0074L24.1886 22.7607L23.8563 22.2719L23.2091 21.3203L23.2091 21.3202C23.1813 21.2793 23.1802 21.2258 23.2065 21.1838L23.2065 21.1837L24.2728 19.4776L24.6697 18.8425L23.931 18.7194L22.9794 18.5608L22.9794 18.5608C22.9192 18.5508 22.875 18.4987 22.875 18.4375V17.1875V16.6875H22.375H21.1732H20.8347L20.7089 17.0018L20.1162 18.4837C20.1162 18.4838 20.1161 18.4839 20.1161 18.4839C20.1066 18.5076 20.0902 18.5276 20.0695 18.5415L20.0693 18.5415L18.0977 19.856L17.875 20.0044V20.272V25.75ZM24.4812 13.1361L24.2914 13.1271L24.1436 13.2464L22.7321 14.3847L22.4592 14.6048L22.5732 14.9364L23.1181 16.5216C23.1182 16.5217 23.1182 16.5217 23.1182 16.5218C23.1227 16.535 23.125 16.5488 23.125 16.5625V17.908V18.3316L23.5428 18.4012L24.8478 18.6187C24.85 18.6196 24.8523 18.6205 24.8547 18.6215C24.889 18.636 24.9378 18.6572 24.9979 18.6838C25.1174 18.7367 25.2728 18.8069 25.4279 18.8775C25.5827 18.9479 25.7358 19.0181 25.8504 19.0707L25.9884 19.1342L26.0269 19.152L26.037 19.1566L26.0396 19.1578L26.0402 19.1581L26.0404 19.1582L26.0404 19.1582L26.25 18.7043L26.0404 19.1582L26.75 19.4858V18.7043V13.7209V13.2442L26.2738 13.2215L24.4812 13.1361ZM24.8213 18.6079C24.8216 18.608 24.822 18.6081 24.8223 18.6083C24.816 18.6062 24.8124 18.6047 24.8124 18.6046C24.8124 18.6046 24.8151 18.6055 24.8213 18.6079ZM26.75 3.75V3.25H26.25H18.375H17.875V3.75V18.7697V19.704L18.6524 19.1857L19.7692 18.4411L19.8984 18.355L19.9561 18.2108L20.6339 16.5161L20.634 16.516C20.6529 16.4687 20.6988 16.4375 20.75 16.4375H22.1243H22.8248L22.5971 15.775L22.1943 14.6031C22.1943 14.6031 22.1943 14.6031 22.1943 14.6031C22.1772 14.5533 22.1931 14.4982 22.2341 14.4651C22.2341 14.4651 22.2341 14.4651 22.2341 14.4651L23.7462 13.2457L24.0865 12.9712L23.8599 12.5973L22.8932 11.0022L22.8932 11.0022C22.8574 10.9432 22.8763 10.8663 22.9352 10.8306L22.9353 10.8306C22.9943 10.7949 23.0712 10.8138 23.1069 10.8727L23.1069 10.8727L24.1845 12.6507L24.3224 12.8783L24.5883 12.891L26.2262 12.969L26.75 12.9939V12.4696V3.75ZM26.875 26.5H17.75C17.681 26.5 17.625 26.444 17.625 26.375V3.125C17.625 3.05602 17.681 3 17.75 3H26.875C26.944 3 27 3.05602 27 3.125V26.375C27 26.444 26.944 26.5 26.875 26.5Z" stroke="#030317"/>
<path d="M17.875 25.75V26.25H18.375H26.2501H26.7501V25.75V20.0848V19.767L26.4623 19.6321L25.3237 19.0983L24.9224 18.9102L24.6875 19.2861L23.6346 20.9706L23.4618 21.2471L23.6452 21.5168L24.4784 22.7422C24.4785 22.7422 24.4785 22.7422 24.4785 22.7422C24.4991 22.7727 24.5054 22.8106 24.4955 22.846C24.4857 22.8814 24.4608 22.9107 24.4272 22.9261C24.4272 22.9261 24.4272 22.9261 24.4272 22.9261L22.1232 23.9847C22.0711 24.0056 22.0397 23.999 22.0215 23.9918C22 23.9833 21.9702 23.9625 21.9456 23.9191C21.9226 23.8581 21.9503 23.789 22.0104 23.7614L23.6515 23.0074L24.1886 22.7607L23.8563 22.2719L23.2091 21.3203L23.2091 21.3202C23.1813 21.2793 23.1802 21.2258 23.2065 21.1838L23.2065 21.1837L24.2728 19.4776L24.6697 18.8425L23.931 18.7194L22.9794 18.5608L22.9794 18.5608C22.9192 18.5508 22.875 18.4987 22.875 18.4375V17.1875V16.6875H22.375H21.1732H20.8347L20.7089 17.0018L20.1162 18.4837C20.1162 18.4838 20.1161 18.4839 20.1161 18.4839C20.1066 18.5076 20.0902 18.5276 20.0695 18.5415L20.0693 18.5415L18.0977 19.856L17.875 20.0044V20.272V25.75ZM24.4812 13.1361L24.2914 13.1271L24.1436 13.2464L22.7321 14.3847L22.4592 14.6048L22.5732 14.9364L23.1181 16.5216C23.1182 16.5217 23.1182 16.5217 23.1182 16.5218C23.1227 16.535 23.125 16.5488 23.125 16.5625V17.908V18.3316L23.5428 18.4012L24.8478 18.6187C24.85 18.6196 24.8523 18.6205 24.8547 18.6215C24.889 18.636 24.9378 18.6572 24.9979 18.6838C25.1174 18.7367 25.2728 18.8069 25.4279 18.8775C25.5827 18.9479 25.7358 19.0181 25.8504 19.0707L25.9884 19.1342L26.0269 19.152L26.037 19.1566L26.0396 19.1578L26.0402 19.1581L26.0404 19.1582L26.0404 19.1582L26.25 18.7043L26.0404 19.1582L26.75 19.4858V18.7043V13.7209V13.2442L26.2738 13.2215L24.4812 13.1361ZM24.8213 18.6079C24.8216 18.608 24.822 18.6081 24.8223 18.6083C24.816 18.6062 24.8124 18.6047 24.8124 18.6046C24.8124 18.6046 24.8151 18.6055 24.8213 18.6079ZM26.75 3.75V3.25H26.25H18.375H17.875V3.75V18.7697V19.704L18.6524 19.1857L19.7692 18.4411L19.8984 18.355L19.9561 18.2108L20.6339 16.5161L20.634 16.516C20.6529 16.4687 20.6988 16.4375 20.75 16.4375H22.1243H22.8248L22.5971 15.775L22.1943 14.6031C22.1943 14.6031 22.1943 14.6031 22.1943 14.6031C22.1772 14.5533 22.1931 14.4982 22.2341 14.4651C22.2341 14.4651 22.2341 14.4651 22.2341 14.4651L23.7462 13.2457L24.0865 12.9712L23.8599 12.5973L22.8932 11.0022L22.8932 11.0022C22.8574 10.9432 22.8763 10.8663 22.9352 10.8306L22.9353 10.8306C22.9943 10.7949 23.0712 10.8138 23.1069 10.8727L23.1069 10.8727L24.1845 12.6507L24.3224 12.8783L24.5883 12.891L26.2262 12.969L26.75 12.9939V12.4696V3.75ZM26.875 26.5H17.75C17.681 26.5 17.625 26.444 17.625 26.375V3.125C17.625 3.05602 17.681 3 17.75 3H26.875C26.944 3 27 3.05602 27 3.125V26.375C27 26.444 26.944 26.5 26.875 26.5Z" stroke="black" stroke-opacity="0.2"/>
<path d="M5.5 26.375C5.5 26.7201 5.77981 27 6.125 27H15.25C15.5952 27 15.875 26.7201 15.875 26.375V3.125C15.875 2.77988 15.5952 2.5 15.25 2.5H6.125C5.77981 2.5 5.5 2.77988 5.5 3.125V26.375ZM8.1245 14.8226L9.80869 15.5594L10.0696 17.2811C10.0833 17.3716 10.1167 17.458 10.1675 17.5342L11.1461 19.0021L10.9222 20.0469L9.43981 20.1904C9.22888 20.2108 9.04269 20.3367 8.94519 20.5248L8.24506 21.875H6.75V13.4375H7.19788L7.83094 14.5576C7.8975 14.6754 8.0005 14.7684 8.1245 14.8226ZM14.625 3.75V25.75H6.75V23.125H8.625C8.85844 23.125 9.07237 22.9949 9.17981 22.7878L9.60225 21.9731L10.232 22.7946L9.91356 23.659C9.79425 23.9829 9.96006 24.3423 10.2839 24.4616C10.5599 24.5743 10.9707 24.4251 11.0864 24.0911L11.5239 22.9036C11.5981 22.7025 11.5639 22.4774 11.4335 22.3073L10.6812 21.3261L11.4977 21.2471C11.7687 21.2209 11.9916 21.0222 12.0486 20.756L12.4236 19.006C12.4589 18.8409 12.4261 18.6688 12.3324 18.5283L11.2846 16.9565L10.9929 15.0314C10.9608 14.8192 10.822 14.6384 10.6254 14.5524L9.48038 14.0514L10.6216 12.9496C10.8043 12.7732 10.8621 12.5037 10.7677 12.2679L10.1427 10.7054C10.0146 10.3848 9.65069 10.2292 9.33031 10.3572C9.00981 10.4854 8.85394 10.8491 8.98213 11.1696L9.45113 12.3421L8.52169 13.2395L8.1065 12.5049C7.99563 12.3087 7.78775 12.1875 7.56238 12.1875H6.74988V7.92438L7.32719 8.23706C7.42038 8.2875 7.52275 8.3125 7.625 8.3125C7.73931 8.3125 7.85344 8.28119 7.954 8.21894L9.2665 7.40644C9.56 7.22475 9.65063 6.83956 9.46894 6.546C9.28719 6.25244 8.90206 6.16188 8.60856 6.34356L7.60413 6.96537L6.75 6.50275V3.75H14.625Z" fill="black"/>
</g>
<defs>
<clipPath id="clip0_4018_56781">
<rect width="32" height="32" fill="white" transform="translate(0.5)"/>
</clipPath>
</defs>
</svg>
