<svg width="33" height="32" viewBox="0 0 33 32" fill="none" xmlns="http://www.w3.org/2000/svg">
<path fill-rule="evenodd" clip-rule="evenodd" d="M21.5 6.77835C19.717 6.71034 17.9797 7.35113 16.6679 8.56059C15.3562 9.77005 14.5767 11.4497 14.5 13.2323C14.5 16.5323 16.99 20.4243 18.957 22.4513C19.4454 22.984 20.0098 23.4417 20.632 23.8093C20.8941 23.967 21.1942 24.0503 21.5 24.0503C21.8058 24.0503 22.1059 23.967 22.368 23.8093C22.9902 23.4417 23.5546 22.984 24.043 22.4513C26.01 20.4243 28.5 16.5283 28.5 13.2323C28.4233 11.4497 27.6438 9.77005 26.3321 8.56059C25.0203 7.35113 23.283 6.71034 21.5 6.77835ZM22.608 21.0583C22.2643 21.3962 21.8938 21.7055 21.5 21.9833C21.1062 21.7055 20.7357 21.3962 20.392 21.0583C18.714 19.3283 16.5 16.0463 16.5 13.2323C16.5763 11.9801 17.1449 10.8089 18.0817 9.97447C19.0185 9.13999 20.2473 8.70999 21.5 8.77835C22.7527 8.70999 23.9815 9.13999 24.9183 9.97447C25.8551 10.8089 26.4237 11.9801 26.5 13.2323C26.5 16.0463 24.286 19.3283 22.608 21.0583Z" fill="black"/>
<path fill-rule="evenodd" clip-rule="evenodd" d="M21.5001 9.83203C20.7988 9.83183 20.1131 10.0396 19.5298 10.4292C18.9465 10.8187 18.4919 11.3724 18.2233 12.0203C17.9548 12.6683 17.8844 13.3813 18.0211 14.0692C18.1579 14.7571 18.4955 15.3891 18.9914 15.8851C19.4872 16.3811 20.1191 16.7189 20.807 16.8558C21.4949 16.9927 22.2079 16.9226 22.8559 16.6542C23.5039 16.3858 24.0578 15.9313 24.4474 15.3482C24.8371 14.765 25.0451 14.0794 25.0451 13.378C25.0449 12.4378 24.6713 11.5362 24.0066 10.8713C23.3419 10.2064 22.4403 9.83256 21.5001 9.83203ZM21.5001 14.923C21.1943 14.9232 20.8952 14.8327 20.6408 14.6629C20.3864 14.4931 20.1881 14.2517 20.071 13.9691C19.9539 13.6866 19.9232 13.3757 19.9828 13.0757C20.0424 12.7757 20.1897 12.5001 20.4059 12.2838C20.6222 12.0676 20.8978 11.9203 21.1978 11.8607C21.4978 11.8011 21.8087 11.8318 22.0912 11.9489C22.3738 12.066 22.6152 12.2644 22.785 12.5187C22.9548 12.7731 23.0453 13.0722 23.0451 13.378C23.0451 13.7878 22.8824 14.1808 22.5926 14.4705C22.3029 14.7603 21.9099 14.923 21.5001 14.923Z" fill="black"/>
<path d="M13.5 28C14.3284 28 15 27.3284 15 26.5C15 25.6716 14.3284 25 13.5 25C12.6716 25 12 25.6716 12 26.5C12 27.3284 12.6716 28 13.5 28Z" fill="black"/>
<path fill-rule="evenodd" clip-rule="evenodd" d="M21.5 25C21.2348 25 20.9804 25.1054 20.7929 25.2929C20.6054 25.4804 20.5 25.7348 20.5 26V28C20.5 28.2652 20.3946 28.5196 20.2071 28.7071C20.0196 28.8946 19.7652 29 19.5 29H7.5C7.23478 29 6.98043 28.8946 6.79289 28.7071C6.60536 28.5196 6.5 28.2652 6.5 28V4C6.5 3.73478 6.60536 3.48043 6.79289 3.29289C6.98043 3.10536 7.23478 3 7.5 3H9.779L10.551 5.316C10.6173 5.51521 10.7447 5.68847 10.915 5.81124C11.0854 5.93401 11.29 6.00005 11.5 6H15.5C15.71 6.00005 15.9146 5.93401 16.085 5.81124C16.2553 5.68847 16.3827 5.51521 16.449 5.316L17.221 3H19.5C19.7652 3 20.0196 3.10536 20.2071 3.29289C20.3946 3.48043 20.5 3.73478 20.5 4C20.5 4.26522 20.6054 4.51957 20.7929 4.70711C20.9804 4.89464 21.2348 5 21.5 5C21.7652 5 22.0196 4.89464 22.2071 4.70711C22.3946 4.51957 22.5 4.26522 22.5 4C22.5 3.20435 22.1839 2.44129 21.6213 1.87868C21.0587 1.31607 20.2956 1 19.5 1H7.5C6.70435 1 5.94129 1.31607 5.37868 1.87868C4.81607 2.44129 4.5 3.20435 4.5 4V28C4.5 28.7956 4.81607 29.5587 5.37868 30.1213C5.94129 30.6839 6.70435 31 7.5 31H19.5C20.2956 31 21.0587 30.6839 21.6213 30.1213C22.1839 29.5587 22.5 28.7956 22.5 28V26C22.5 25.7348 22.3946 25.4804 22.2071 25.2929C22.0196 25.1054 21.7652 25 21.5 25ZM15.113 3L14.779 4H12.221L11.887 3H15.113Z" fill="black"/>
</svg>
