<svg width="33" height="32" viewBox="0 0 33 32" fill="none" xmlns="http://www.w3.org/2000/svg">
<path d="M13.09 5.23571L13.0835 5.22897L12.704 4.84219V4.70726L12.7966 4.62179L13.1828 4.26526L13.186 4.26233L14.2276 3.3009L14.2368 3.29237L14.8525 2.72401L13.09 5.23571Z" fill="black"/>
<path d="M13.09 5.23571L13.0835 5.22897L12.704 4.84219V4.70726L12.7966 4.62179L13.1828 4.26526L13.186 4.26233L14.2276 3.3009L14.2368 3.29237L14.8525 2.72401L13.09 5.23571Z" stroke="#030317" stroke-width="14.2222"/>
<path d="M13.09 5.23571L13.0835 5.22897L12.704 4.84219V4.70726L12.7966 4.62179L13.1828 4.26526L13.186 4.26233L14.2276 3.3009L14.2368 3.29237L14.8525 2.72401L13.09 5.23571Z" stroke="black" stroke-opacity="0.2" stroke-width="14.2222"/>
<path d="M27.8773 24.5339C27.3168 24.5344 26.7692 24.7015 26.3039 25.0139L20.8639 20.9339C20.6997 20.8115 20.4999 20.746 20.2951 20.7473H16.4995C15.7451 20.7473 15.0216 20.4476 14.4882 19.9141C13.9547 19.3807 13.6551 18.6572 13.6551 17.9028V14.1073C13.6551 13.3529 13.9547 12.6294 14.4882 12.0959C15.0216 11.5625 15.7451 11.2628 16.4995 11.2628H20.2951C20.4999 11.2641 20.6997 11.1986 20.8639 11.0761L26.2773 6.98726C26.802 7.34422 27.431 7.51547 28.0642 7.47376C28.6974 7.43205 29.2985 7.17978 29.7719 6.75708C30.2452 6.33438 30.5636 5.76553 30.6764 5.14103C30.7892 4.51653 30.6899 3.87225 30.3943 3.31067C30.0988 2.7491 29.6239 2.30249 29.0453 2.0419C28.4666 1.78131 27.8175 1.7217 27.2011 1.87256C26.5847 2.02341 26.0364 2.37607 25.6435 2.87443C25.2506 3.37279 25.0357 3.98822 25.0328 4.62282C25.0368 4.90991 25.0848 5.1947 25.1751 5.46726L19.9751 9.36948H16.4995C15.243 9.36948 14.0379 9.86864 13.1494 10.7571C12.2609 11.6457 11.7617 12.8507 11.7617 14.1073V17.9028C11.7617 19.1594 12.2609 20.3644 13.1494 21.2529C14.0379 22.1414 15.243 22.6406 16.4995 22.6406H19.9751L25.1751 26.5428C25.0848 26.8154 25.0368 27.1002 25.0328 27.3873C25.0328 27.9498 25.1997 28.4998 25.5122 28.9675C25.8248 29.4353 26.269 29.7999 26.7888 30.0152C27.3085 30.2305 27.8804 30.2868 28.4322 30.177C28.984 30.0673 29.4908 29.7964 29.8886 29.3986C30.2864 29.0008 30.5573 28.494 30.6671 27.9422C30.7768 27.3904 30.7205 26.8185 30.5052 26.2987C30.2899 25.779 29.9253 25.3347 29.4576 25.0222C28.9898 24.7096 28.4399 24.5428 27.8773 24.5428V24.5339ZM27.8773 3.6717C28.0654 3.6717 28.2493 3.72749 28.4057 3.832C28.5621 3.93651 28.684 4.08505 28.756 4.25884C28.828 4.43263 28.8468 4.62387 28.8101 4.80837C28.7734 4.99287 28.6828 5.16234 28.5498 5.29535C28.4168 5.42837 28.2473 5.51895 28.0628 5.55565C27.8783 5.59235 27.6871 5.57351 27.5133 5.50153C27.3395 5.42954 27.191 5.30763 27.0865 5.15122C26.9819 4.99482 26.9262 4.81093 26.9262 4.62282C26.9262 4.37057 27.0264 4.12865 27.2047 3.95028C27.3831 3.77191 27.625 3.6717 27.8773 3.6717ZM27.8773 28.3206C27.6892 28.3206 27.5053 28.2648 27.3489 28.1603C27.1925 28.0558 27.0705 27.9072 26.9986 27.7335C26.9266 27.5597 26.9077 27.3684 26.9444 27.1839C26.9811 26.9994 27.0717 26.83 27.2047 26.6969C27.3378 26.5639 27.5072 26.4733 27.6917 26.4366C27.8762 26.3999 28.0675 26.4188 28.2412 26.4908C28.415 26.5628 28.5636 26.6847 28.6681 26.8411C28.7726 26.9975 28.8284 27.1814 28.8284 27.3695C28.8296 27.4951 28.8058 27.6198 28.7586 27.7362C28.7113 27.8526 28.6414 27.9585 28.553 28.0478C28.4645 28.137 28.3593 28.2079 28.2433 28.2562C28.1273 28.3046 28.0029 28.3295 27.8773 28.3295V28.3206Z" fill="black"/>
<path d="M27.8778 13.1554C27.2922 13.157 26.7215 13.3398 26.244 13.6789C25.7665 14.0179 25.4057 14.4964 25.2111 15.0487H16.5V16.942H25.2111C25.3869 17.4306 25.6935 17.8615 26.0974 18.1878C26.5013 18.5141 26.9871 18.7232 27.5017 18.7924C28.0163 18.8615 28.54 18.788 29.0157 18.5799C29.4915 18.3717 29.9009 18.037 30.1994 17.6121C30.4979 17.1873 30.674 16.6886 30.7085 16.1705C30.743 15.6524 30.6346 15.1348 30.3951 14.6741C30.1556 14.2134 29.7942 13.8273 29.3503 13.5579C28.9064 13.2885 28.397 13.1462 27.8778 13.1465V13.1554ZM27.8778 16.9509C27.6897 16.9509 27.5058 16.8951 27.3494 16.7906C27.193 16.6861 27.0711 16.5376 26.9991 16.3638C26.9271 16.19 26.9082 15.9988 26.9449 15.8143C26.9816 15.6298 27.0722 15.4603 27.2052 15.3273C27.3383 15.1943 27.5077 15.1037 27.6922 15.067C27.8767 15.0303 28.068 15.0491 28.2418 15.1211C28.4155 15.1931 28.5641 15.315 28.6686 15.4714C28.7731 15.6278 28.8289 15.8117 28.8289 15.9998C28.8289 16.2521 28.7287 16.494 28.5503 16.6724C28.3719 16.8507 28.13 16.9509 27.8778 16.9509Z" fill="black"/>
</svg>
