<svg width="33" height="32" viewBox="0 0 33 32" fill="none" xmlns="http://www.w3.org/2000/svg">
<g clip-path="url(#clip0_4018_56972)">
<mask id="path-1-inside-1_4018_56972" fill="white">
<path d="M27.0763 18.1191H5.92373C4.48577 18.1208 3.10719 18.6927 2.0904 19.7095C1.07361 20.7263 0.501651 22.1049 0.5 23.5429V23.8846C0.501651 25.3225 1.07361 26.7011 2.0904 27.7179C3.10719 28.7347 4.48577 29.3066 5.92373 29.3083H27.0763C28.5142 29.3066 29.8928 28.7347 30.9096 27.7179C31.9264 26.7011 32.4983 25.3225 32.5 23.8846V23.5429C32.4983 22.1049 31.9264 20.7263 30.9096 19.7095C29.8928 18.6927 28.5142 18.1208 27.0763 18.1191ZM30.8729 23.8846C30.8717 24.8911 30.4714 25.8562 29.7596 26.5679C29.0479 27.2797 28.0828 27.68 27.0763 27.6812H5.92373C4.91716 27.68 3.95214 27.2797 3.24039 26.5679C2.52863 25.8562 2.12827 24.8911 2.12712 23.8846V23.5429C2.12827 22.5363 2.52863 21.5713 3.24039 20.8595C3.95214 20.1478 4.91716 19.7474 5.92373 19.7463H27.0763C28.0828 19.7474 29.0479 20.1478 29.7596 20.8595C30.4714 21.5713 30.8717 22.5363 30.8729 23.5429V23.8846Z"/>
</mask>
<path d="M27.0763 18.1191H5.92373C4.48577 18.1208 3.10719 18.6927 2.0904 19.7095C1.07361 20.7263 0.501651 22.1049 0.5 23.5429V23.8846C0.501651 25.3225 1.07361 26.7011 2.0904 27.7179C3.10719 28.7347 4.48577 29.3066 5.92373 29.3083H27.0763C28.5142 29.3066 29.8928 28.7347 30.9096 27.7179C31.9264 26.7011 32.4983 25.3225 32.5 23.8846V23.5429C32.4983 22.1049 31.9264 20.7263 30.9096 19.7095C29.8928 18.6927 28.5142 18.1208 27.0763 18.1191ZM30.8729 23.8846C30.8717 24.8911 30.4714 25.8562 29.7596 26.5679C29.0479 27.2797 28.0828 27.68 27.0763 27.6812H5.92373C4.91716 27.68 3.95214 27.2797 3.24039 26.5679C2.52863 25.8562 2.12827 24.8911 2.12712 23.8846V23.5429C2.12827 22.5363 2.52863 21.5713 3.24039 20.8595C3.95214 20.1478 4.91716 19.7474 5.92373 19.7463H27.0763C28.0828 19.7474 29.0479 20.1478 29.7596 20.8595C30.4714 21.5713 30.8717 22.5363 30.8729 23.5429V23.8846Z" fill="black"/>
<path d="M27.0763 18.1191L27.0809 14.1191H27.0763V18.1191ZM5.92373 18.1191L5.92373 14.1191L5.91914 14.1191L5.92373 18.1191ZM0.5 23.5429L-3.5 23.5383V23.5429H0.5ZM0.5 23.8846L-3.5 23.8846L-3.5 23.8892L0.5 23.8846ZM5.92373 29.3083L5.91914 33.3083H5.92373V29.3083ZM27.0763 29.3083L27.0763 33.3083L27.0809 33.3083L27.0763 29.3083ZM32.5 23.8846L36.5 23.8892V23.8846H32.5ZM32.5 23.5429L36.5 23.5429L36.5 23.5383L32.5 23.5429ZM30.8729 23.8846L34.8729 23.8891V23.8846H30.8729ZM27.0763 27.6812L27.0763 31.6812L27.0808 31.6812L27.0763 27.6812ZM5.92373 27.6812L5.91917 31.6812H5.92373V27.6812ZM2.12712 23.8846L-1.87288 23.8846L-1.87288 23.8891L2.12712 23.8846ZM2.12712 23.5429L-1.87288 23.5383V23.5429H2.12712ZM5.92373 19.7463L5.92373 15.7463L5.91917 15.7463L5.92373 19.7463ZM27.0763 19.7463L27.0808 15.7463H27.0763V19.7463ZM30.8729 23.5429L34.8729 23.5429L34.8729 23.5383L30.8729 23.5429ZM27.0763 14.1191H5.92373V22.1191H27.0763V14.1191ZM5.91914 14.1191C3.4219 14.122 1.02778 15.1153 -0.73803 16.8811L4.91882 22.538C5.18659 22.2702 5.54964 22.1196 5.92832 22.1191L5.91914 14.1191ZM-0.73803 16.8811C-2.50384 18.6469 -3.49713 21.041 -3.5 23.5383L4.5 23.5475C4.50043 23.1688 4.65105 22.8057 4.91882 22.538L-0.73803 16.8811ZM-3.5 23.5429V23.8846H4.5V23.5429H-3.5ZM-3.5 23.8892C-3.49713 26.3864 -2.50384 28.7805 -0.73803 30.5463L4.91882 24.8895C4.65106 24.6217 4.50043 24.2587 4.5 23.88L-3.5 23.8892ZM-0.73803 30.5463C1.02778 32.3121 3.42191 33.3054 5.91914 33.3083L5.92832 25.3083C5.54964 25.3079 5.18659 25.1572 4.91882 24.8895L-0.73803 30.5463ZM5.92373 33.3083H27.0763V25.3083H5.92373V33.3083ZM27.0809 33.3083C29.5781 33.3054 31.9722 32.3121 33.738 30.5463L28.0812 24.8895C27.8134 25.1572 27.4504 25.3079 27.0717 25.3083L27.0809 33.3083ZM33.738 30.5463C35.5038 28.7805 36.4971 26.3864 36.5 23.8892L28.5 23.88C28.4996 24.2587 28.3489 24.6217 28.0812 24.8895L33.738 30.5463ZM36.5 23.8846V23.5429H28.5V23.8846H36.5ZM36.5 23.5383C36.4971 21.041 35.5038 18.6469 33.738 16.8811L28.0812 22.538C28.3489 22.8057 28.4996 23.1688 28.5 23.5475L36.5 23.5383ZM33.738 16.8811C31.9722 15.1153 29.5781 14.122 27.0809 14.1191L27.0717 22.1191C27.4504 22.1196 27.8134 22.2702 28.0812 22.538L33.738 16.8811ZM26.8729 23.88C26.8729 23.8273 26.8939 23.7768 26.9312 23.7395L32.588 29.3963C34.0488 27.9355 34.8705 25.955 34.8729 23.8891L26.8729 23.88ZM26.9312 23.7395C26.9685 23.7022 27.019 23.6812 27.0717 23.6812L27.0808 31.6812C29.1467 31.6788 31.1273 30.8571 32.588 29.3963L26.9312 23.7395ZM27.0763 23.6812H5.92373V31.6812H27.0763V23.6812ZM5.92829 23.6812C5.981 23.6812 6.03154 23.7022 6.06882 23.7395L0.411962 29.3963C1.87274 30.8571 3.85331 31.6788 5.91917 31.6812L5.92829 23.6812ZM6.06882 23.7395C6.10609 23.7768 6.12706 23.8273 6.12712 23.88L-1.87288 23.8891C-1.87052 25.955 -1.04882 27.9356 0.411962 29.3963L6.06882 23.7395ZM6.12712 23.8846V23.5429H-1.87288V23.8846H6.12712ZM6.12712 23.5474C6.12706 23.6001 6.10609 23.6507 6.06882 23.688L0.411962 18.0311C-1.04882 19.4919 -1.87052 21.4724 -1.87288 23.5383L6.12712 23.5474ZM6.06882 23.688C6.03154 23.7252 5.98101 23.7462 5.92829 23.7463L5.91917 15.7463C3.85331 15.7486 1.87274 16.5703 0.411962 18.0311L6.06882 23.688ZM5.92373 23.7463H27.0763V15.7463H5.92373V23.7463ZM27.0717 23.7463C27.019 23.7462 26.9685 23.7252 26.9312 23.688L32.588 18.0311C31.1273 16.5703 29.1467 15.7486 27.0808 15.7463L27.0717 23.7463ZM26.9312 23.688C26.8939 23.6507 26.8729 23.6001 26.8729 23.5474L34.8729 23.5383C34.8705 21.4725 34.0488 19.4919 32.588 18.0311L26.9312 23.688ZM26.8729 23.5429V23.8846H34.8729V23.5429H26.8729Z" fill="#030317" mask="url(#path-1-inside-1_4018_56972)"/>
<path d="M27.0763 18.1191L27.0809 14.1191H27.0763V18.1191ZM5.92373 18.1191L5.92373 14.1191L5.91914 14.1191L5.92373 18.1191ZM0.5 23.5429L-3.5 23.5383V23.5429H0.5ZM0.5 23.8846L-3.5 23.8846L-3.5 23.8892L0.5 23.8846ZM5.92373 29.3083L5.91914 33.3083H5.92373V29.3083ZM27.0763 29.3083L27.0763 33.3083L27.0809 33.3083L27.0763 29.3083ZM32.5 23.8846L36.5 23.8892V23.8846H32.5ZM32.5 23.5429L36.5 23.5429L36.5 23.5383L32.5 23.5429ZM30.8729 23.8846L34.8729 23.8891V23.8846H30.8729ZM27.0763 27.6812L27.0763 31.6812L27.0808 31.6812L27.0763 27.6812ZM5.92373 27.6812L5.91917 31.6812H5.92373V27.6812ZM2.12712 23.8846L-1.87288 23.8846L-1.87288 23.8891L2.12712 23.8846ZM2.12712 23.5429L-1.87288 23.5383V23.5429H2.12712ZM5.92373 19.7463L5.92373 15.7463L5.91917 15.7463L5.92373 19.7463ZM27.0763 19.7463L27.0808 15.7463H27.0763V19.7463ZM30.8729 23.5429L34.8729 23.5429L34.8729 23.5383L30.8729 23.5429ZM27.0763 14.1191H5.92373V22.1191H27.0763V14.1191ZM5.91914 14.1191C3.4219 14.122 1.02778 15.1153 -0.73803 16.8811L4.91882 22.538C5.18659 22.2702 5.54964 22.1196 5.92832 22.1191L5.91914 14.1191ZM-0.73803 16.8811C-2.50384 18.6469 -3.49713 21.041 -3.5 23.5383L4.5 23.5475C4.50043 23.1688 4.65105 22.8057 4.91882 22.538L-0.73803 16.8811ZM-3.5 23.5429V23.8846H4.5V23.5429H-3.5ZM-3.5 23.8892C-3.49713 26.3864 -2.50384 28.7805 -0.73803 30.5463L4.91882 24.8895C4.65106 24.6217 4.50043 24.2587 4.5 23.88L-3.5 23.8892ZM-0.73803 30.5463C1.02778 32.3121 3.42191 33.3054 5.91914 33.3083L5.92832 25.3083C5.54964 25.3079 5.18659 25.1572 4.91882 24.8895L-0.73803 30.5463ZM5.92373 33.3083H27.0763V25.3083H5.92373V33.3083ZM27.0809 33.3083C29.5781 33.3054 31.9722 32.3121 33.738 30.5463L28.0812 24.8895C27.8134 25.1572 27.4504 25.3079 27.0717 25.3083L27.0809 33.3083ZM33.738 30.5463C35.5038 28.7805 36.4971 26.3864 36.5 23.8892L28.5 23.88C28.4996 24.2587 28.3489 24.6217 28.0812 24.8895L33.738 30.5463ZM36.5 23.8846V23.5429H28.5V23.8846H36.5ZM36.5 23.5383C36.4971 21.041 35.5038 18.6469 33.738 16.8811L28.0812 22.538C28.3489 22.8057 28.4996 23.1688 28.5 23.5475L36.5 23.5383ZM33.738 16.8811C31.9722 15.1153 29.5781 14.122 27.0809 14.1191L27.0717 22.1191C27.4504 22.1196 27.8134 22.2702 28.0812 22.538L33.738 16.8811ZM26.8729 23.88C26.8729 23.8273 26.8939 23.7768 26.9312 23.7395L32.588 29.3963C34.0488 27.9355 34.8705 25.955 34.8729 23.8891L26.8729 23.88ZM26.9312 23.7395C26.9685 23.7022 27.019 23.6812 27.0717 23.6812L27.0808 31.6812C29.1467 31.6788 31.1273 30.8571 32.588 29.3963L26.9312 23.7395ZM27.0763 23.6812H5.92373V31.6812H27.0763V23.6812ZM5.92829 23.6812C5.981 23.6812 6.03154 23.7022 6.06882 23.7395L0.411962 29.3963C1.87274 30.8571 3.85331 31.6788 5.91917 31.6812L5.92829 23.6812ZM6.06882 23.7395C6.10609 23.7768 6.12706 23.8273 6.12712 23.88L-1.87288 23.8891C-1.87052 25.955 -1.04882 27.9356 0.411962 29.3963L6.06882 23.7395ZM6.12712 23.8846V23.5429H-1.87288V23.8846H6.12712ZM6.12712 23.5474C6.12706 23.6001 6.10609 23.6507 6.06882 23.688L0.411962 18.0311C-1.04882 19.4919 -1.87052 21.4724 -1.87288 23.5383L6.12712 23.5474ZM6.06882 23.688C6.03154 23.7252 5.98101 23.7462 5.92829 23.7463L5.91917 15.7463C3.85331 15.7486 1.87274 16.5703 0.411962 18.0311L6.06882 23.688ZM5.92373 23.7463H27.0763V15.7463H5.92373V23.7463ZM27.0717 23.7463C27.019 23.7462 26.9685 23.7252 26.9312 23.688L32.588 18.0311C31.1273 16.5703 29.1467 15.7486 27.0808 15.7463L27.0717 23.7463ZM26.9312 23.688C26.8939 23.6507 26.8729 23.6001 26.8729 23.5474L34.8729 23.5383C34.8705 21.4725 34.0488 19.4919 32.588 18.0311L26.9312 23.688ZM26.8729 23.5429V23.8846H34.8729V23.5429H26.8729Z" fill="black" fill-opacity="0.2" mask="url(#path-1-inside-1_4018_56972)"/>
<path d="M5.4997 23.7147C5.4997 23.3867 5.7656 23.1208 6.0936 23.1208C6.4216 23.1208 6.6875 23.3867 6.6875 23.7147C6.6875 24.0427 6.42161 24.3086 6.0936 24.3086C5.7656 24.3086 5.4997 24.0427 5.4997 23.7147Z" fill="black"/>
<path d="M5.4997 23.7147C5.4997 23.3867 5.7656 23.1208 6.0936 23.1208C6.4216 23.1208 6.6875 23.3867 6.6875 23.7147C6.6875 24.0427 6.42161 24.3086 6.0936 24.3086C5.7656 24.3086 5.4997 24.0427 5.4997 23.7147Z" stroke="#030317" stroke-width="4"/>
<path d="M5.4997 23.7147C5.4997 23.3867 5.7656 23.1208 6.0936 23.1208C6.4216 23.1208 6.6875 23.3867 6.6875 23.7147C6.6875 24.0427 6.42161 24.3086 6.0936 24.3086C5.7656 24.3086 5.4997 24.0427 5.4997 23.7147Z" stroke="black" stroke-opacity="0.2" stroke-width="4"/>
<path d="M9.72041 23.7147C9.72041 23.3867 9.9863 23.1208 10.3143 23.1208C10.6423 23.1208 10.9082 23.3867 10.9082 23.7147C10.9082 24.0427 10.6423 24.3086 10.3143 24.3086C9.9863 24.3086 9.72041 24.0427 9.72041 23.7147Z" fill="black"/>
<path d="M9.72041 23.7147C9.72041 23.3867 9.9863 23.1208 10.3143 23.1208C10.6423 23.1208 10.9082 23.3867 10.9082 23.7147C10.9082 24.0427 10.6423 24.3086 10.3143 24.3086C9.9863 24.3086 9.72041 24.0427 9.72041 23.7147Z" stroke="#030317" stroke-width="4"/>
<path d="M9.72041 23.7147C9.72041 23.3867 9.9863 23.1208 10.3143 23.1208C10.6423 23.1208 10.9082 23.3867 10.9082 23.7147C10.9082 24.0427 10.6423 24.3086 10.3143 24.3086C9.9863 24.3086 9.72041 24.0427 9.72041 23.7147Z" stroke="black" stroke-opacity="0.2" stroke-width="4"/>
<path d="M13.9372 23.7147C13.9372 23.3867 14.2031 23.1208 14.5311 23.1208C14.8591 23.1208 15.125 23.3867 15.125 23.7147C15.125 24.0427 14.8591 24.3086 14.5311 24.3086C14.2031 24.3086 13.9372 24.0427 13.9372 23.7147Z" fill="black"/>
<path d="M13.9372 23.7147C13.9372 23.3867 14.2031 23.1208 14.5311 23.1208C14.8591 23.1208 15.125 23.3867 15.125 23.7147C15.125 24.0427 14.8591 24.3086 14.5311 24.3086C14.2031 24.3086 13.9372 24.0427 13.9372 23.7147Z" stroke="#030317" stroke-width="4"/>
<path d="M13.9372 23.7147C13.9372 23.3867 14.2031 23.1208 14.5311 23.1208C14.8591 23.1208 15.125 23.3867 15.125 23.7147C15.125 24.0427 14.8591 24.3086 14.5311 24.3086C14.2031 24.3086 13.9372 24.0427 13.9372 23.7147Z" stroke="black" stroke-opacity="0.2" stroke-width="4"/>
<mask id="path-6-inside-2_4018_56972" fill="white">
<path d="M27.4671 22.9004H20.7179C20.5021 22.9004 20.2952 22.9861 20.1426 23.1387C19.99 23.2912 19.9043 23.4982 19.9043 23.714C19.9043 23.9297 19.99 24.1367 20.1426 24.2892C20.2952 24.4418 20.5021 24.5275 20.7179 24.5275H27.4671C27.6829 24.5275 27.8898 24.4418 28.0424 24.2892C28.195 24.1367 28.2807 23.9297 28.2807 23.714C28.2807 23.4982 28.195 23.2912 28.0424 23.1387C27.8898 22.9861 27.6829 22.9004 27.4671 22.9004Z"/>
</mask>
<path d="M27.4671 22.9004H20.7179C20.5021 22.9004 20.2952 22.9861 20.1426 23.1387C19.99 23.2912 19.9043 23.4982 19.9043 23.714C19.9043 23.9297 19.99 24.1367 20.1426 24.2892C20.2952 24.4418 20.5021 24.5275 20.7179 24.5275H27.4671C27.6829 24.5275 27.8898 24.4418 28.0424 24.2892C28.195 24.1367 28.2807 23.9297 28.2807 23.714C28.2807 23.4982 28.195 23.2912 28.0424 23.1387C27.8898 22.9861 27.6829 22.9004 27.4671 22.9004Z" fill="black"/>
<path d="M27.4671 22.9004L27.4671 18.9004H27.4671V22.9004ZM20.7179 22.9004L20.7179 18.9004L20.7179 18.9004L20.7179 22.9004ZM20.7179 24.5275L20.7179 28.5275H20.7179V24.5275ZM27.4671 24.5275L27.4671 28.5275L27.4671 28.5275L27.4671 24.5275ZM27.4671 18.9004H20.7179V26.9004H27.4671V18.9004ZM20.7179 18.9004C19.4412 18.9004 18.2169 19.4075 17.3142 20.3102L22.971 25.9671C22.3734 26.5647 21.5629 26.9004 20.7179 26.9004L20.7179 18.9004ZM17.3142 20.3102C16.4114 21.213 15.9043 22.4373 15.9043 23.714H23.9043C23.9043 24.559 23.5686 25.3695 22.971 25.9671L17.3142 20.3102ZM15.9043 23.714C15.9043 24.9906 16.4114 26.2149 17.3142 27.1176L22.971 21.4608C23.5686 22.0584 23.9043 22.8689 23.9043 23.714H15.9043ZM17.3142 27.1176C18.2169 28.0204 19.4412 28.5275 20.7179 28.5275L20.7179 20.5275C21.563 20.5275 22.3734 20.8632 22.971 21.4608L17.3142 27.1176ZM20.7179 28.5275H27.4671V20.5275H20.7179V28.5275ZM27.4671 28.5275C28.7438 28.5275 29.9681 28.0204 30.8708 27.1176L25.214 21.4608C25.8116 20.8632 26.622 20.5275 27.4671 20.5275L27.4671 28.5275ZM30.8708 27.1176C31.7736 26.2149 32.2807 24.9906 32.2807 23.714H24.2807C24.2807 22.8689 24.6164 22.0584 25.214 21.4608L30.8708 27.1176ZM32.2807 23.714C32.2807 22.4373 31.7736 21.213 30.8708 20.3102L25.214 25.9671C24.6164 25.3695 24.2807 24.559 24.2807 23.714H32.2807ZM30.8708 20.3102C29.9681 19.4075 28.7438 18.9004 27.4671 18.9004L27.4671 26.9004C26.6221 26.9004 25.8116 26.5647 25.214 25.9671L30.8708 20.3102Z" fill="#030317" mask="url(#path-6-inside-2_4018_56972)"/>
<path d="M27.4671 22.9004L27.4671 18.9004H27.4671V22.9004ZM20.7179 22.9004L20.7179 18.9004L20.7179 18.9004L20.7179 22.9004ZM20.7179 24.5275L20.7179 28.5275H20.7179V24.5275ZM27.4671 24.5275L27.4671 28.5275L27.4671 28.5275L27.4671 24.5275ZM27.4671 18.9004H20.7179V26.9004H27.4671V18.9004ZM20.7179 18.9004C19.4412 18.9004 18.2169 19.4075 17.3142 20.3102L22.971 25.9671C22.3734 26.5647 21.5629 26.9004 20.7179 26.9004L20.7179 18.9004ZM17.3142 20.3102C16.4114 21.213 15.9043 22.4373 15.9043 23.714H23.9043C23.9043 24.559 23.5686 25.3695 22.971 25.9671L17.3142 20.3102ZM15.9043 23.714C15.9043 24.9906 16.4114 26.2149 17.3142 27.1176L22.971 21.4608C23.5686 22.0584 23.9043 22.8689 23.9043 23.714H15.9043ZM17.3142 27.1176C18.2169 28.0204 19.4412 28.5275 20.7179 28.5275L20.7179 20.5275C21.563 20.5275 22.3734 20.8632 22.971 21.4608L17.3142 27.1176ZM20.7179 28.5275H27.4671V20.5275H20.7179V28.5275ZM27.4671 28.5275C28.7438 28.5275 29.9681 28.0204 30.8708 27.1176L25.214 21.4608C25.8116 20.8632 26.622 20.5275 27.4671 20.5275L27.4671 28.5275ZM30.8708 27.1176C31.7736 26.2149 32.2807 24.9906 32.2807 23.714H24.2807C24.2807 22.8689 24.6164 22.0584 25.214 21.4608L30.8708 27.1176ZM32.2807 23.714C32.2807 22.4373 31.7736 21.213 30.8708 20.3102L25.214 25.9671C24.6164 25.3695 24.2807 24.559 24.2807 23.714H32.2807ZM30.8708 20.3102C29.9681 19.4075 28.7438 18.9004 27.4671 18.9004L27.4671 26.9004C26.6221 26.9004 25.8116 26.5647 25.214 25.9671L30.8708 20.3102Z" fill="black" fill-opacity="0.2" mask="url(#path-6-inside-2_4018_56972)"/>
<mask id="path-8-inside-3_4018_56972" fill="white">
<path d="M7.28809 7.90601C8.17378 6.98913 11.4551 3.99821 16.4992 3.99821C17.7738 3.99821 22.2061 4.28025 25.7103 7.90601C25.8605 8.06021 26.0657 8.14861 26.2809 8.15186C26.4961 8.15511 26.7038 8.07294 26.8586 7.92335C27.0133 7.77376 27.1025 7.56893 27.1066 7.35372C27.1106 7.13852 27.0292 6.93048 26.8802 6.77516C22.9309 2.68757 17.9365 2.37109 16.4992 2.37109C10.8151 2.37109 7.11615 5.74221 6.11819 6.77543C5.9722 6.93131 5.89337 7.13834 5.89869 7.35183C5.90401 7.56532 5.99307 7.76817 6.14664 7.91657C6.30021 8.06498 6.50597 8.14705 6.71953 8.14508C6.93308 8.1431 7.13729 8.05723 7.28809 7.90601Z"/>
</mask>
<path d="M7.28809 7.90601C8.17378 6.98913 11.4551 3.99821 16.4992 3.99821C17.7738 3.99821 22.2061 4.28025 25.7103 7.90601C25.8605 8.06021 26.0657 8.14861 26.2809 8.15186C26.4961 8.15511 26.7038 8.07294 26.8586 7.92335C27.0133 7.77376 27.1025 7.56893 27.1066 7.35372C27.1106 7.13852 27.0292 6.93048 26.8802 6.77516C22.9309 2.68757 17.9365 2.37109 16.4992 2.37109C10.8151 2.37109 7.11615 5.74221 6.11819 6.77543C5.9722 6.93131 5.89337 7.13834 5.89869 7.35183C5.90401 7.56532 5.99307 7.76817 6.14664 7.91657C6.30021 8.06498 6.50597 8.14705 6.71953 8.14508C6.93308 8.1431 7.13729 8.05723 7.28809 7.90601Z" fill="black"/>
<path d="M7.28809 7.90601L10.1205 10.7304L10.1429 10.7079L10.165 10.6851L7.28809 7.90601ZM25.7103 7.90601L22.8341 10.6858L22.8394 10.6913L22.8447 10.6968L25.7103 7.90601ZM26.8802 6.77516L29.7666 4.0059L29.7569 3.99582L26.8802 6.77516ZM6.11819 6.77543L3.2411 3.99651L3.21969 4.01868L3.19862 4.04118L6.11819 6.77543ZM10.165 10.6851C10.7621 10.0669 13.0642 7.99821 16.4992 7.99821V-0.00178778C9.84604 -0.00178778 5.58542 3.91132 4.41115 5.12693L10.165 10.6851ZM16.4992 7.99821C17.3592 7.99821 20.448 8.21699 22.8341 10.6858L28.5865 5.12618C23.9641 0.343505 18.1883 -0.00178778 16.4992 -0.00178778V7.99821ZM22.8447 10.6968C23.7332 11.6091 24.9471 12.1322 26.2205 12.1514L26.3413 4.15232C27.1842 4.16505 27.9877 4.5113 28.5759 5.11525L22.8447 10.6968ZM26.2205 12.1514C27.4938 12.1706 28.7229 11.6845 29.6386 10.7994L24.0786 5.04733C24.6847 4.46142 25.4983 4.13959 26.3413 4.15232L26.2205 12.1514ZM29.6386 10.7994C30.5543 9.91428 31.0819 8.7024 31.1059 7.42909L23.1073 7.27836C23.1232 6.43546 23.4724 5.63323 24.0786 5.04733L29.6386 10.7994ZM31.1059 7.42909C31.1299 6.15578 30.6483 4.92488 29.7666 4.00592L23.9938 9.5444C23.4102 8.93608 23.0914 8.12126 23.1073 7.27836L31.1059 7.42909ZM29.7569 3.99582C24.689 -1.24956 18.3502 -1.62891 16.4992 -1.62891V6.37109C17.5228 6.37109 21.1729 6.62469 24.0035 9.5545L29.7569 3.99582ZM16.4992 -1.62891C9.20605 -1.62891 4.52779 2.66437 3.2411 3.99651L8.99527 9.55435C9.70451 8.82005 12.4242 6.37109 16.4992 6.37109V-1.62891ZM3.19862 4.04118C2.33489 4.96345 1.86844 6.18836 1.89993 7.45153L9.89745 7.25213C9.9183 8.08831 9.60952 8.89917 9.03775 9.50968L3.19862 4.04118ZM1.89993 7.45153C1.93143 8.71471 2.45835 9.91485 3.36697 10.7929L8.92631 5.04022C9.52779 5.62148 9.8766 6.41594 9.89745 7.25213L1.89993 7.45153ZM3.36697 10.7929C4.27558 11.671 5.49303 12.1566 6.75654 12.1449L6.68251 4.14525C7.51892 4.13751 8.32483 4.45896 8.92631 5.04022L3.36697 10.7929ZM6.75654 12.1449C8.02006 12.1332 9.22831 11.6252 10.1205 10.7304L4.45565 5.08159C5.04627 4.4893 5.8461 4.15299 6.68251 4.14525L6.75654 12.1449Z" fill="#030317" mask="url(#path-8-inside-3_4018_56972)"/>
<path d="M7.28809 7.90601L10.1205 10.7304L10.1429 10.7079L10.165 10.6851L7.28809 7.90601ZM25.7103 7.90601L22.8341 10.6858L22.8394 10.6913L22.8447 10.6968L25.7103 7.90601ZM26.8802 6.77516L29.7666 4.0059L29.7569 3.99582L26.8802 6.77516ZM6.11819 6.77543L3.2411 3.99651L3.21969 4.01868L3.19862 4.04118L6.11819 6.77543ZM10.165 10.6851C10.7621 10.0669 13.0642 7.99821 16.4992 7.99821V-0.00178778C9.84604 -0.00178778 5.58542 3.91132 4.41115 5.12693L10.165 10.6851ZM16.4992 7.99821C17.3592 7.99821 20.448 8.21699 22.8341 10.6858L28.5865 5.12618C23.9641 0.343505 18.1883 -0.00178778 16.4992 -0.00178778V7.99821ZM22.8447 10.6968C23.7332 11.6091 24.9471 12.1322 26.2205 12.1514L26.3413 4.15232C27.1842 4.16505 27.9877 4.5113 28.5759 5.11525L22.8447 10.6968ZM26.2205 12.1514C27.4938 12.1706 28.7229 11.6845 29.6386 10.7994L24.0786 5.04733C24.6847 4.46142 25.4983 4.13959 26.3413 4.15232L26.2205 12.1514ZM29.6386 10.7994C30.5543 9.91428 31.0819 8.7024 31.1059 7.42909L23.1073 7.27836C23.1232 6.43546 23.4724 5.63323 24.0786 5.04733L29.6386 10.7994ZM31.1059 7.42909C31.1299 6.15578 30.6483 4.92488 29.7666 4.00592L23.9938 9.5444C23.4102 8.93608 23.0914 8.12126 23.1073 7.27836L31.1059 7.42909ZM29.7569 3.99582C24.689 -1.24956 18.3502 -1.62891 16.4992 -1.62891V6.37109C17.5228 6.37109 21.1729 6.62469 24.0035 9.5545L29.7569 3.99582ZM16.4992 -1.62891C9.20605 -1.62891 4.52779 2.66437 3.2411 3.99651L8.99527 9.55435C9.70451 8.82005 12.4242 6.37109 16.4992 6.37109V-1.62891ZM3.19862 4.04118C2.33489 4.96345 1.86844 6.18836 1.89993 7.45153L9.89745 7.25213C9.9183 8.08831 9.60952 8.89917 9.03775 9.50968L3.19862 4.04118ZM1.89993 7.45153C1.93143 8.71471 2.45835 9.91485 3.36697 10.7929L8.92631 5.04022C9.52779 5.62148 9.8766 6.41594 9.89745 7.25213L1.89993 7.45153ZM3.36697 10.7929C4.27558 11.671 5.49303 12.1566 6.75654 12.1449L6.68251 4.14525C7.51892 4.13751 8.32483 4.45896 8.92631 5.04022L3.36697 10.7929ZM6.75654 12.1449C8.02006 12.1332 9.22831 11.6252 10.1205 10.7304L4.45565 5.08159C5.04627 4.4893 5.8461 4.15299 6.68251 4.14525L6.75654 12.1449Z" fill="black" fill-opacity="0.2" mask="url(#path-8-inside-3_4018_56972)"/>
<mask id="path-10-inside-4_4018_56972" fill="white">
<path d="M23.4972 11.7166C23.6569 11.7166 23.8131 11.6696 23.9463 11.5814C24.0795 11.4932 24.1838 11.3678 24.2462 11.2208C24.3085 11.0737 24.3263 10.9116 24.2971 10.7545C24.2679 10.5975 24.1932 10.4525 24.0822 10.3376C22.078 8.30762 19.3531 7.15153 16.5006 7.12109C13.6479 7.15158 10.9227 8.30764 8.91823 10.3376C8.84351 10.4144 8.78467 10.5051 8.74509 10.6046C8.70552 10.7041 8.68598 10.8105 8.68759 10.9175C8.68921 11.0246 8.71195 11.1303 8.75452 11.2286C8.79708 11.3269 8.85863 11.4158 8.93563 11.4902C9.01263 11.5646 9.10357 11.6231 9.20323 11.6623C9.30289 11.7015 9.40931 11.7207 9.51639 11.7187C9.62346 11.7166 9.72909 11.6935 9.8272 11.6506C9.92531 11.6076 10.014 11.5458 10.0881 11.4685C11.7833 9.7517 14.088 8.77401 16.5006 8.74821C18.9132 8.77377 21.218 9.7515 22.9131 11.4685C22.9888 11.547 23.0795 11.6094 23.1799 11.6521C23.2802 11.6947 23.3882 11.7166 23.4972 11.7166Z"/>
</mask>
<path d="M23.4972 11.7166C23.6569 11.7166 23.8131 11.6696 23.9463 11.5814C24.0795 11.4932 24.1838 11.3678 24.2462 11.2208C24.3085 11.0737 24.3263 10.9116 24.2971 10.7545C24.2679 10.5975 24.1932 10.4525 24.0822 10.3376C22.078 8.30762 19.3531 7.15153 16.5006 7.12109C13.6479 7.15158 10.9227 8.30764 8.91823 10.3376C8.84351 10.4144 8.78467 10.5051 8.74509 10.6046C8.70552 10.7041 8.68598 10.8105 8.68759 10.9175C8.68921 11.0246 8.71195 11.1303 8.75452 11.2286C8.79708 11.3269 8.85863 11.4158 8.93563 11.4902C9.01263 11.5646 9.10357 11.6231 9.20323 11.6623C9.30289 11.7015 9.40931 11.7207 9.51639 11.7187C9.62346 11.7166 9.72909 11.6935 9.8272 11.6506C9.92531 11.6076 10.014 11.5458 10.0881 11.4685C11.7833 9.7517 14.088 8.77401 16.5006 8.74821C18.9132 8.77377 21.218 9.7515 22.9131 11.4685C22.9888 11.547 23.0795 11.6094 23.1799 11.6521C23.2802 11.6947 23.3882 11.7166 23.4972 11.7166Z" fill="black"/>
<path d="M23.4972 11.7166L23.4972 7.71662L23.4962 7.71662L23.4972 11.7166ZM24.0822 10.3376L26.9582 7.55764L26.9435 7.54245L26.9287 7.52741L24.0822 10.3376ZM16.5006 7.12109L16.5433 3.12132L16.5006 3.12087L16.4578 3.12132L16.5006 7.12109ZM8.91823 10.3376L6.07198 7.52715L6.06227 7.53698L6.05263 7.54688L8.91823 10.3376ZM10.0881 11.4685L7.24187 8.658L7.22165 8.67848L7.20172 8.69925L10.0881 11.4685ZM16.5006 8.74821L16.543 4.74844L16.5004 4.74799L16.4578 4.74844L16.5006 8.74821ZM22.9131 11.4685L25.7927 8.69216L25.7762 8.67512L25.7596 8.65827L22.9131 11.4685ZM23.4973 15.7166C24.4423 15.7166 25.3665 15.4384 26.1545 14.9167L21.7382 8.24615C22.2598 7.90079 22.8716 7.71663 23.4972 7.71662L23.4973 15.7166ZM26.1545 14.9167C26.9425 14.395 27.5595 13.6528 27.9286 12.7828L20.5638 9.65873C20.8081 9.08281 21.2165 8.59153 21.7382 8.24615L26.1545 14.9167ZM27.9286 12.7828C28.2976 11.9128 28.4024 10.9534 28.2298 10.0242L20.3643 11.4849C20.2501 10.8698 20.3195 10.2346 20.5638 9.65873L27.9286 12.7828ZM28.2298 10.0242C28.0573 9.09497 27.615 8.23714 26.9582 7.55764L21.2061 13.1176C20.7713 12.6678 20.4786 12.1 20.3643 11.4849L28.2298 10.0242ZM26.9287 7.52741C24.1834 4.74665 20.4507 3.16302 16.5433 3.12132L16.4579 11.1209C18.2555 11.14 19.9727 11.8686 21.2356 13.1479L26.9287 7.52741ZM16.4578 3.12132C12.5504 3.16309 8.8176 4.74659 6.07198 7.52715L11.7645 13.1481C13.0278 11.8687 14.7454 11.1401 16.5434 11.1209L16.4578 3.12132ZM6.05263 7.54688C5.61055 8.00081 5.26243 8.53757 5.02826 9.12636L12.4619 12.0828C12.3069 12.4726 12.0765 12.8279 11.7838 13.1284L6.05263 7.54688ZM5.02826 9.12636C4.7941 9.71514 4.67848 10.3444 4.68805 10.9779L12.6871 10.8571C12.6935 11.2765 12.6169 11.6931 12.4619 12.0828L5.02826 9.12636ZM4.68805 10.9779C4.69762 11.6115 4.83218 12.2369 5.08402 12.8184L12.425 9.6388C12.5917 10.0237 12.6808 10.4377 12.6871 10.8571L4.68805 10.9779ZM5.08402 12.8184C5.33586 13.3998 5.70002 13.9258 6.15561 14.3662L11.7157 8.61418C12.0172 8.9057 12.2583 9.2539 12.425 9.6388L5.08402 12.8184ZM6.15561 14.3662C6.61121 14.8066 7.14927 15.1527 7.73892 15.3847L10.6675 7.94C11.0579 8.09355 11.4141 8.32265 11.7157 8.61418L6.15561 14.3662ZM7.73892 15.3847C8.32859 15.6166 8.95824 15.7299 9.59175 15.718L9.44102 7.71937C9.86038 7.71147 10.2772 7.78644 10.6675 7.94L7.73892 15.3847ZM9.59175 15.718C10.2253 15.706 10.8502 15.5691 11.4307 15.3151L8.22368 7.98605C8.60797 7.81789 9.02167 7.72728 9.44102 7.71937L9.59175 15.718ZM11.4307 15.3151C12.0112 15.0611 12.5359 14.695 12.9745 14.2377L7.20172 8.69925C7.49211 8.39657 7.83941 8.1542 8.22368 7.98605L11.4307 15.3151ZM12.9344 14.279C13.8885 13.3128 15.1856 12.7625 16.5434 12.748L16.4578 4.74844C12.9905 4.78551 9.67822 6.19065 7.24187 8.658L12.9344 14.279ZM16.4582 12.748C17.8158 12.7624 19.1127 13.3125 20.0665 14.2787L25.7596 8.65827C23.3233 6.19046 20.0106 4.78517 16.543 4.74844L16.4582 12.748ZM20.0335 14.2448C20.4824 14.7104 21.0206 15.0808 21.616 15.3337L24.7438 7.97045C25.1384 8.13807 25.4951 8.38354 25.7927 8.69216L20.0335 14.2448ZM21.616 15.3337C22.2113 15.5865 22.8515 15.7168 23.4983 15.7166L23.4962 7.71662C23.9249 7.71651 24.3492 7.80283 24.7438 7.97045L21.616 15.3337Z" fill="#030317" mask="url(#path-10-inside-4_4018_56972)"/>
<path d="M23.4972 11.7166L23.4972 7.71662L23.4962 7.71662L23.4972 11.7166ZM24.0822 10.3376L26.9582 7.55764L26.9435 7.54245L26.9287 7.52741L24.0822 10.3376ZM16.5006 7.12109L16.5433 3.12132L16.5006 3.12087L16.4578 3.12132L16.5006 7.12109ZM8.91823 10.3376L6.07198 7.52715L6.06227 7.53698L6.05263 7.54688L8.91823 10.3376ZM10.0881 11.4685L7.24187 8.658L7.22165 8.67848L7.20172 8.69925L10.0881 11.4685ZM16.5006 8.74821L16.543 4.74844L16.5004 4.74799L16.4578 4.74844L16.5006 8.74821ZM22.9131 11.4685L25.7927 8.69216L25.7762 8.67512L25.7596 8.65827L22.9131 11.4685ZM23.4973 15.7166C24.4423 15.7166 25.3665 15.4384 26.1545 14.9167L21.7382 8.24615C22.2598 7.90079 22.8716 7.71663 23.4972 7.71662L23.4973 15.7166ZM26.1545 14.9167C26.9425 14.395 27.5595 13.6528 27.9286 12.7828L20.5638 9.65873C20.8081 9.08281 21.2165 8.59153 21.7382 8.24615L26.1545 14.9167ZM27.9286 12.7828C28.2976 11.9128 28.4024 10.9534 28.2298 10.0242L20.3643 11.4849C20.2501 10.8698 20.3195 10.2346 20.5638 9.65873L27.9286 12.7828ZM28.2298 10.0242C28.0573 9.09497 27.615 8.23714 26.9582 7.55764L21.2061 13.1176C20.7713 12.6678 20.4786 12.1 20.3643 11.4849L28.2298 10.0242ZM26.9287 7.52741C24.1834 4.74665 20.4507 3.16302 16.5433 3.12132L16.4579 11.1209C18.2555 11.14 19.9727 11.8686 21.2356 13.1479L26.9287 7.52741ZM16.4578 3.12132C12.5504 3.16309 8.8176 4.74659 6.07198 7.52715L11.7645 13.1481C13.0278 11.8687 14.7454 11.1401 16.5434 11.1209L16.4578 3.12132ZM6.05263 7.54688C5.61055 8.00081 5.26243 8.53757 5.02826 9.12636L12.4619 12.0828C12.3069 12.4726 12.0765 12.8279 11.7838 13.1284L6.05263 7.54688ZM5.02826 9.12636C4.7941 9.71514 4.67848 10.3444 4.68805 10.9779L12.6871 10.8571C12.6935 11.2765 12.6169 11.6931 12.4619 12.0828L5.02826 9.12636ZM4.68805 10.9779C4.69762 11.6115 4.83218 12.2369 5.08402 12.8184L12.425 9.6388C12.5917 10.0237 12.6808 10.4377 12.6871 10.8571L4.68805 10.9779ZM5.08402 12.8184C5.33586 13.3998 5.70002 13.9258 6.15561 14.3662L11.7157 8.61418C12.0172 8.9057 12.2583 9.2539 12.425 9.6388L5.08402 12.8184ZM6.15561 14.3662C6.61121 14.8066 7.14927 15.1527 7.73892 15.3847L10.6675 7.94C11.0579 8.09355 11.4141 8.32265 11.7157 8.61418L6.15561 14.3662ZM7.73892 15.3847C8.32859 15.6166 8.95824 15.7299 9.59175 15.718L9.44102 7.71937C9.86038 7.71147 10.2772 7.78644 10.6675 7.94L7.73892 15.3847ZM9.59175 15.718C10.2253 15.706 10.8502 15.5691 11.4307 15.3151L8.22368 7.98605C8.60797 7.81789 9.02167 7.72728 9.44102 7.71937L9.59175 15.718ZM11.4307 15.3151C12.0112 15.0611 12.5359 14.695 12.9745 14.2377L7.20172 8.69925C7.49211 8.39657 7.83941 8.1542 8.22368 7.98605L11.4307 15.3151ZM12.9344 14.279C13.8885 13.3128 15.1856 12.7625 16.5434 12.748L16.4578 4.74844C12.9905 4.78551 9.67822 6.19065 7.24187 8.658L12.9344 14.279ZM16.4582 12.748C17.8158 12.7624 19.1127 13.3125 20.0665 14.2787L25.7596 8.65827C23.3233 6.19046 20.0106 4.78517 16.543 4.74844L16.4582 12.748ZM20.0335 14.2448C20.4824 14.7104 21.0206 15.0808 21.616 15.3337L24.7438 7.97045C25.1384 8.13807 25.4951 8.38354 25.7927 8.69216L20.0335 14.2448ZM21.616 15.3337C22.2113 15.5865 22.8515 15.7168 23.4983 15.7166L23.4962 7.71662C23.9249 7.71651 24.3492 7.80283 24.7438 7.97045L21.616 15.3337Z" fill="black" fill-opacity="0.2" mask="url(#path-10-inside-4_4018_56972)"/>
<path d="M13.1155 13.306C12.9655 13.4611 12.8832 13.6695 12.8868 13.8853C12.8904 14.101 12.9796 14.3065 13.1347 14.4565C13.2898 14.6066 13.4981 14.6889 13.7139 14.6853C13.9296 14.6817 14.1351 14.5925 14.2852 14.4374C14.5723 14.1403 14.9163 13.9039 15.2967 13.7425C15.6771 13.5811 16.0861 13.498 16.4993 13.498C16.9125 13.498 17.3215 13.5811 17.7019 13.7425C18.0823 13.9039 18.4263 14.1403 18.7134 14.4374C18.8633 14.5926 19.0688 14.6819 19.2846 14.6855C19.5003 14.6892 19.7087 14.6071 19.8639 14.4571C20.0191 14.3071 20.1083 14.1017 20.112 13.8859C20.1157 13.6701 20.0335 13.4618 19.8835 13.3066C19.4447 12.8525 18.9189 12.4914 18.3375 12.2448C17.7561 11.9982 17.1311 11.8711 16.4996 11.8711C15.868 11.8711 15.243 11.9982 14.6616 12.2448C14.0802 12.4914 13.5544 12.8525 13.1155 13.3066V13.306Z" fill="black"/>
</g>
<defs>
<clipPath id="clip0_4018_56972">
<rect width="32" height="32" fill="white" transform="translate(0.5)"/>
</clipPath>
</defs>
</svg>
