<svg width="54" height="54" viewBox="0 0 54 54" fill="none" xmlns="http://www.w3.org/2000/svg">
<path d="M53.0281 31.5583L53.0282 31.5584C53.5495 31.9143 53.6562 32.6405 53.2601 33.1315C53.2601 33.1315 53.2601 33.1315 53.2601 33.1315L45.831 42.337L46.2201 42.651L45.831 42.337C45.4703 42.784 44.8232 42.8715 44.3568 42.5358L38.2175 38.117L37.9096 37.8954L37.6133 38.1321L35.2522 40.0185L35.2521 40.0186C34.874 40.3207 34.3414 40.3347 33.948 40.0537L27.4314 35.4L27.0154 35.103L26.7276 35.5255L23.8615 39.7329L24.2747 40.0144L23.8614 39.7329C23.5231 40.2297 22.8438 40.3555 22.3499 40.0125L20.7676 38.9136L20.4035 38.6607L20.1089 38.9918C16.2622 43.3135 10.8471 45.6428 5.30845 45.6428H3.16406H2.66406V46.1428V49.3596C2.66406 49.9571 2.17959 50.4416 1.58203 50.4416C0.984471 50.4416 0.500001 49.9571 0.500001 49.3596V33.2229C0.500001 32.6253 0.984471 32.1408 1.58203 32.1408C2.17959 32.1408 2.66406 32.6253 2.66406 33.2229V36.6506V37.1506H3.16406H6.13206C8.7479 37.1506 11.2521 36.1311 13.1196 34.3292L13.5579 33.9062L13.0576 33.5587L11.9701 32.8034C11.9701 32.8034 11.97 32.8033 11.97 32.8033C11.4774 32.4609 11.3572 31.7824 11.7025 31.2918C11.7025 31.2918 11.7025 31.2918 11.7025 31.2918L14.7537 26.9568L15.0395 26.5507L14.6354 26.2621L7.03532 20.8347C7.03531 20.8347 7.03531 20.8347 7.0353 20.8347C5.79133 19.9463 5.54957 18.1898 6.50666 16.9982C6.50667 16.9982 6.50668 16.9982 6.50669 16.9981L16.5041 4.55436L16.1144 4.2412L16.5041 4.55436C17.393 3.44799 18.9901 3.2321 20.1407 4.06308L20.1407 4.0631L50.5608 26.0317L50.5609 26.0317C51.1409 26.4506 51.1606 27.3086 50.6028 27.7542L50.6027 27.7542L49.6818 28.49L49.1534 28.9121L49.7119 29.2935L53.0281 31.5583ZM2.66406 42.9786V43.4786H3.16406H5.30845C10.2042 43.4786 14.9157 41.3981 18.2271 37.8446L18.6207 37.4223L18.1466 37.0931L15.6938 35.3895L15.3394 35.1434L15.0441 35.4579C12.7382 37.9133 9.51165 39.3145 6.13195 39.3145H3.16406H2.66406V39.8145V42.9786ZM22.2731 37.3243L22.6875 37.6121L22.9715 37.1951L24.9785 34.2492L25.2538 33.845L24.8558 33.5608L17.2103 28.1009L16.8006 27.8083L16.5108 28.22L14.3883 31.2355L14.0987 31.647L14.5119 31.934L22.2731 37.3243ZM34.2326 37.5978L34.5401 37.8174L34.8353 37.5815L47.6253 27.3631L48.1394 26.9524L47.6059 26.5671L18.8737 5.8175L18.4886 5.53943L18.1912 5.9097L8.19368 18.3535L7.86226 18.7661L8.29289 19.0736L34.2326 37.5978ZM44.4058 39.9046L44.7898 40.181L45.087 39.8128L50.4997 33.1058L50.8399 32.6844L50.3926 32.3789L47.6903 30.5333L47.385 30.3248L47.0962 30.5556L40.1802 36.0811L39.6653 36.4925L40.2002 36.8775L44.4058 39.9046Z" fill="white" stroke="white"/>
<path d="M39.6562 27.0005C40.53 27.0005 41.2383 26.2922 41.2383 25.4185C41.2383 24.5447 40.53 23.8364 39.6562 23.8364C38.7825 23.8364 38.0742 24.5447 38.0742 25.4185C38.0742 26.2922 38.7825 27.0005 39.6562 27.0005Z" fill="white"/>
</svg>
