<svg width="54" height="54" viewBox="0 0 54 54" fill="none" xmlns="http://www.w3.org/2000/svg">
<mask id="path-1-inside-1_144_15746" fill="white">
<path d="M47.4286 0H6.57143C3.49971 0 1 2.59586 1 5.78571V32.7857C1 35.9756 3.49971 38.5714 6.57143 38.5714H47.4286C50.5003 38.5714 53 35.9756 53 32.7857V5.78571C53 2.59586 50.5003 0 47.4286 0ZM49.2857 32.7857C49.2857 33.8503 48.4519 34.7143 47.4286 34.7143H6.57143C5.54814 34.7143 4.71429 33.8503 4.71429 32.7857V5.78571C4.71429 4.72307 5.54814 3.85714 6.57143 3.85714H47.4286C48.4519 3.85714 49.2857 4.72307 49.2857 5.78571V32.7857ZM51.1429 46.2857H15.5154C14.7466 44.0466 12.7037 42.4286 10.2857 42.4286C7.86771 42.4286 5.82486 44.0466 5.056 46.2857H2.85714C1.832 46.2857 1 47.1478 1 48.2143C1 49.2808 1.832 50.1429 2.85714 50.1429H5.056C5.82486 52.3819 7.86771 54 10.2857 54C12.7037 54 14.7466 52.3819 15.5154 50.1429H51.1429C52.168 50.1429 53 49.2808 53 48.2143C53 47.1478 52.168 46.2857 51.1429 46.2857ZM10.2857 50.1429C9.26243 50.1429 8.42857 49.2789 8.42857 48.2143C8.42857 47.1497 9.26243 46.2857 10.2857 46.2857C11.309 46.2857 12.1429 47.1497 12.1429 48.2143C12.1429 49.2789 11.309 50.1429 10.2857 50.1429ZM23.2857 29.0346C22.6636 29.0346 22.0414 28.8746 21.4787 28.5486C20.3031 27.8679 19.5733 26.5776 19.5733 25.1794V13.3959C19.5733 11.9976 20.305 10.7055 21.4787 10.0266C22.6543 9.34586 24.0973 9.38057 25.2394 10.1154L34.4119 16.0071C35.515 16.7169 36.1724 17.9415 36.1724 19.2876C36.1724 20.6338 35.515 21.8584 34.4137 22.5681L25.2413 28.4619C24.6451 28.8456 23.9654 29.0366 23.2876 29.0366L23.2857 29.0346ZM23.2764 13.3881L23.2857 25.1775L32.4581 19.2857L23.2764 13.3881Z"/>
</mask>
<path d="M47.4286 0H6.57143C3.49971 0 1 2.59586 1 5.78571V32.7857C1 35.9756 3.49971 38.5714 6.57143 38.5714H47.4286C50.5003 38.5714 53 35.9756 53 32.7857V5.78571C53 2.59586 50.5003 0 47.4286 0ZM49.2857 32.7857C49.2857 33.8503 48.4519 34.7143 47.4286 34.7143H6.57143C5.54814 34.7143 4.71429 33.8503 4.71429 32.7857V5.78571C4.71429 4.72307 5.54814 3.85714 6.57143 3.85714H47.4286C48.4519 3.85714 49.2857 4.72307 49.2857 5.78571V32.7857ZM51.1429 46.2857H15.5154C14.7466 44.0466 12.7037 42.4286 10.2857 42.4286C7.86771 42.4286 5.82486 44.0466 5.056 46.2857H2.85714C1.832 46.2857 1 47.1478 1 48.2143C1 49.2808 1.832 50.1429 2.85714 50.1429H5.056C5.82486 52.3819 7.86771 54 10.2857 54C12.7037 54 14.7466 52.3819 15.5154 50.1429H51.1429C52.168 50.1429 53 49.2808 53 48.2143C53 47.1478 52.168 46.2857 51.1429 46.2857ZM10.2857 50.1429C9.26243 50.1429 8.42857 49.2789 8.42857 48.2143C8.42857 47.1497 9.26243 46.2857 10.2857 46.2857C11.309 46.2857 12.1429 47.1497 12.1429 48.2143C12.1429 49.2789 11.309 50.1429 10.2857 50.1429ZM23.2857 29.0346C22.6636 29.0346 22.0414 28.8746 21.4787 28.5486C20.3031 27.8679 19.5733 26.5776 19.5733 25.1794V13.3959C19.5733 11.9976 20.305 10.7055 21.4787 10.0266C22.6543 9.34586 24.0973 9.38057 25.2394 10.1154L34.4119 16.0071C35.515 16.7169 36.1724 17.9415 36.1724 19.2876C36.1724 20.6338 35.515 21.8584 34.4137 22.5681L25.2413 28.4619C24.6451 28.8456 23.9654 29.0366 23.2876 29.0366L23.2857 29.0346ZM23.2764 13.3881L23.2857 25.1775L32.4581 19.2857L23.2764 13.3881Z" fill="white"/>
<path d="M15.5154 46.2857L0.382732 51.482L4.09253 62.2857H15.5154V46.2857ZM5.056 46.2857V62.2857H16.4789L20.1887 51.482L5.056 46.2857ZM5.056 50.1429L20.1887 44.9466L16.4789 34.1429H5.056V50.1429ZM15.5154 50.1429V34.1429H4.09253L0.382732 44.9466L15.5154 50.1429ZM23.2857 29.0346L34.8055 17.9309L30.0861 13.0346H23.2857V29.0346ZM21.4787 28.5486L29.498 14.7034L29.497 14.7028L21.4787 28.5486ZM21.4787 10.0266L29.4894 23.8769L29.497 23.8725L21.4787 10.0266ZM25.2394 10.1154L16.5827 23.5713L16.5923 23.5774L25.2394 10.1154ZM34.4119 16.0071L43.0687 2.55134L43.059 2.5451L34.4119 16.0071ZM34.4137 22.5681L43.0629 36.0289L43.0719 36.0231L43.0809 36.0173L34.4137 22.5681ZM25.2413 28.4619L16.5921 15.0011L16.5804 15.0087L25.2413 28.4619ZM23.2876 29.0366L11.7677 40.1403L16.4871 45.0366H23.2876V29.0366ZM23.2764 13.3881L31.9234 -0.074018L7.25334 -15.92L7.27643 13.4007L23.2764 13.3881ZM23.2857 25.1775L7.28572 25.1901L7.30877 54.4565L31.9329 38.6395L23.2857 25.1775ZM32.4581 19.2857L41.1053 32.7478L62.0635 19.2855L41.1051 5.82355L32.4581 19.2857ZM47.4286 -16H6.57143V16H47.4286V-16ZM6.57143 -16C-5.90062 -16 -15 -5.66619 -15 5.78571H17C17 10.8579 12.9 16 6.57143 16V-16ZM-15 5.78571V32.7857H17V5.78571H-15ZM-15 32.7857C-15 44.2376 -5.90062 54.5714 6.57143 54.5714V22.5714C12.9 22.5714 17 27.7135 17 32.7857H-15ZM6.57143 54.5714H47.4286V22.5714H6.57143V54.5714ZM47.4286 54.5714C59.9006 54.5714 69 44.2376 69 32.7857H37C37 27.7135 41.1 22.5714 47.4286 22.5714V54.5714ZM69 32.7857V5.78571H37V32.7857H69ZM69 5.78571C69 -5.66619 59.9006 -16 47.4286 -16V16C41.1 16 37 10.8579 37 5.78571H69ZM33.2857 32.7857C33.2857 25.5776 39.0617 18.7143 47.4286 18.7143V50.7143C57.842 50.7143 65.2857 42.1229 65.2857 32.7857H33.2857ZM47.4286 18.7143H6.57143V50.7143H47.4286V18.7143ZM6.57143 18.7143C14.9383 18.7143 20.7143 25.5776 20.7143 32.7857H-11.2857C-11.2857 42.1229 -3.84198 50.7143 6.57143 50.7143V18.7143ZM20.7143 32.7857V5.78571H-11.2857V32.7857H20.7143ZM20.7143 5.78571C20.7143 12.9851 14.9485 19.8571 6.57143 19.8571V-12.1429C-3.85219 -12.1429 -11.2857 -3.53897 -11.2857 5.78571H20.7143ZM6.57143 19.8571H47.4286V-12.1429H6.57143V19.8571ZM47.4286 19.8571C39.0515 19.8571 33.2857 12.9851 33.2857 5.78571H65.2857C65.2857 -3.53897 57.8522 -12.1429 47.4286 -12.1429V19.8571ZM33.2857 5.78571V32.7857H65.2857V5.78571H33.2857ZM51.1429 30.2857H15.5154V62.2857H51.1429V30.2857ZM30.6481 41.0894C27.8791 33.0256 20.1892 26.4286 10.2857 26.4286V58.4286C5.21821 58.4286 1.614 55.0677 0.382732 51.482L30.6481 41.0894ZM10.2857 26.4286C0.382207 26.4286 -7.30771 33.0256 -10.0767 41.0894L20.1887 51.482C18.9574 55.0677 15.3532 58.4286 10.2857 58.4286V26.4286ZM5.056 30.2857H2.85714V62.2857H5.056V30.2857ZM2.85714 30.2857C-7.55811 30.2857 -15 38.8751 -15 48.2143H17C17 55.4204 11.2221 62.2857 2.85714 62.2857V30.2857ZM-15 48.2143C-15 57.5534 -7.55811 66.1429 2.85714 66.1429V34.1429C11.2221 34.1429 17 41.0081 17 48.2143H-15ZM2.85714 66.1429H5.056V34.1429H2.85714V66.1429ZM-10.0767 55.3392C-7.30771 63.403 0.382207 70 10.2857 70V38C15.3532 38 18.9574 41.3608 20.1887 44.9466L-10.0767 55.3392ZM10.2857 70C20.1892 70 27.8791 63.403 30.6481 55.3392L0.382732 44.9466C1.614 41.3608 5.21821 38 10.2857 38V70ZM15.5154 66.1429H51.1429V34.1429H15.5154V66.1429ZM51.1429 66.1429C61.5581 66.1429 69 57.5534 69 48.2143H37C37 41.0081 42.7779 34.1429 51.1429 34.1429V66.1429ZM69 48.2143C69 38.8751 61.5581 30.2857 51.1429 30.2857V62.2857C42.7779 62.2857 37 55.4204 37 48.2143H69ZM10.2857 34.1429C18.6525 34.1429 24.4286 41.0062 24.4286 48.2143H-7.57143C-7.57143 57.5515 -0.127691 66.1429 10.2857 66.1429V34.1429ZM24.4286 48.2143C24.4286 55.4224 18.6525 62.2857 10.2857 62.2857V30.2857C-0.127691 30.2857 -7.57143 38.8771 -7.57143 48.2143H24.4286ZM10.2857 62.2857C1.91888 62.2857 -3.85714 55.4224 -3.85714 48.2143H28.1429C28.1429 38.8771 20.6991 30.2857 10.2857 30.2857V62.2857ZM-3.85714 48.2143C-3.85714 41.0062 1.91888 34.1429 10.2857 34.1429V66.1429C20.6991 66.1429 28.1429 57.5515 28.1429 48.2143H-3.85714ZM23.2857 13.0346C25.4232 13.0346 27.5754 13.5898 29.498 14.7034L13.4594 42.3939C16.5075 44.1593 19.9039 45.0346 23.2857 45.0346V13.0346ZM29.497 14.7028C33.4353 16.9835 35.5733 21.0726 35.5733 25.1794H3.57329C3.57329 32.0827 7.17101 38.7522 13.4604 42.3945L29.497 14.7028ZM35.5733 25.1794V13.3959H3.57329V25.1794H35.5733ZM35.5733 13.3959C35.5733 17.5021 33.437 21.5936 29.4894 23.8768L13.468 -3.82356C7.17297 -0.182629 3.57329 6.4932 3.57329 13.3959H35.5733ZM29.497 23.8725C25.4735 26.2025 20.4791 26.078 16.5827 23.5713L33.8961 -3.34054C27.7154 -7.31685 19.8351 -7.51081 13.4604 -3.8192L29.497 23.8725ZM16.5923 23.5774L25.7647 29.4692L43.059 2.5451L33.8866 -3.34668L16.5923 23.5774ZM25.755 29.4629C22.1399 27.1371 20.1724 23.2134 20.1724 19.2876H52.1724C52.1724 12.6696 48.8901 6.29657 43.0687 2.55135L25.755 29.4629ZM20.1724 19.2876C20.1724 15.3646 22.1369 11.4452 25.7465 9.11899L43.0809 36.0173C48.8931 32.2717 52.1724 25.9029 52.1724 19.2876H20.1724ZM25.7645 9.10739L16.5921 15.0011L33.8904 41.9226L43.0629 36.0289L25.7645 9.10739ZM16.5804 15.0087C18.6237 13.6932 20.9621 13.0366 23.2876 13.0366V45.0366C26.9687 45.0366 30.6666 43.9981 33.9022 41.9151L16.5804 15.0087ZM34.8074 17.9328L34.8055 17.9309L11.7659 40.1384L11.7677 40.1403L34.8074 17.9328ZM7.27643 13.4007L7.28572 25.1901L39.2857 25.1649L39.2764 13.3755L7.27643 13.4007ZM31.9329 38.6395L41.1053 32.7478L23.811 5.82367L14.6385 11.7155L31.9329 38.6395ZM41.1051 5.82355L31.9234 -0.074018L14.6295 26.8503L23.8112 32.7479L41.1051 5.82355Z" fill="white" mask="url(#path-1-inside-1_144_15746)"/>
</svg>
