<svg aria-hidden="true" style="position:absolute;width:0;height:0;overflow:hidden" xmlns="http://www.w3.org/2000/svg">
  <defs>
    <symbol id="icon-instagram" viewBox="0 0 32 32">
      <path d="M24 .001H8c-4.4 0-8 3.599-8 8v16c0 4.4 3.6 8 8 8h16c4.4 0 8-3.6 8-8v-16c0-4.401-3.6-8-8-8zm-8 22.667a6.668 6.668 0 1 1 .001-13.335A6.668 6.668 0 0 1 16 22.668zm8.667-13.333a2 2 0 1 1-.001-3.999 2 2 0 0 1 .001 3.999z"/>
    </symbol>
    <symbol id="icon-telegram" viewBox="0 0 32 32">
      <path d="m12.556 20.241-.529 7.445c.757 0 1.085-.325 1.479-.716l3.551-3.393 7.357 5.388c1.349.752 2.3.356 2.664-1.241l4.829-22.629.001-.001c.428-1.995-.721-2.775-2.036-2.285L1.485 13.677c-1.937.752-1.908 1.832-.329 2.321l7.257 2.257L25.27 7.707c.793-.525 1.515-.235.921.291L12.555 20.242z"/>
    </symbol>
    <symbol id="icon-facebook" viewBox="0 0 32 32">
      <path d="M27.313 0H4.688A4.694 4.694 0 0 0 0 4.688v22.625A4.693 4.693 0 0 0 4.688 32h9.438V20.687h-3.75v-5.625h3.75v-3.813a5.63 5.63 0 0 1 5.625-5.625h5.687v5.625h-5.687v3.813h5.687l-.937 5.625h-4.75V32h7.563a4.693 4.693 0 0 0 4.687-4.687V4.688A4.694 4.694 0 0 0 27.314 0z"/>
    </symbol>
  </defs>
</svg>
