<svg width="72" height="40" fill="none" xmlns="http://www.w3.org/2000/svg">
  <path d="M33.047 5.895c.983 0 1.82-.279 2.533-.828.704-.554 1.134-1.258 1.286-2.123.148-.859-.037-1.57-.56-2.116C35.783.275 35.038 0 34.063 0c-.982 0-1.828.275-2.532.828-.712.55-1.142 1.257-1.286 2.116-.149.865.037 1.57.56 2.123.515.55 1.26.828 2.242.828ZM26.389 27.403h5.983l1.713-9.93.256-1.494 1.379-8.022h-5.984l-1.483 8.601-.289 1.706-1.575 9.139ZM45.132 12.271c.894 0 1.465.23 1.706.685.24.456.27 1.19.096 2.21l-.078.455-.204 1.171-1.828 10.615h5.984l1.798-10.438.185-1.046.308-1.792.026-.256c.76-1.065 1.728-1.6 2.914-1.6.871 0 1.435.23 1.687.685.252.456.293 1.178.122 2.172l-.222 1.287-.17.99-1.725 9.998h5.984l1.538-8.959.167-.944.471-2.745c.72-4.769-.871-7.152-4.753-7.152-2.45 0-4.493.98-6.131 2.925-.516-1.95-1.98-2.925-4.397-2.925-2.295 0-4.268.877-5.925 2.64l.197-2.286h-5.59l-1.361 7.913-.253 1.445-1.735 10.092h5.965l1.81-10.495.222-1.295.3-1.742c.783-1.073 1.743-1.608 2.892-1.608ZM30.883 31.05c-1.03 0-1.906.392-2.629 1.171l.093-1.008h-2.484l-.645 3.722-.319 1.811-.534 3.087h2.647l.527-3.057.311-1.792.215-1.238c.326-.418.742-.621 1.264-.621.453 0 .75.105.89.305.134.207.167.53.093.963l-.104.591-.308 1.762-.534 3.087h2.655l.552-3.17.3-1.75.112-.636c.17-1.077.085-1.886-.256-2.42-.349-.539-.964-.806-1.846-.806ZM38.834 31.05c-.845 0-1.612.189-2.295.554a4.533 4.533 0 0 0-1.679 1.57 5.794 5.794 0 0 0-.749 1.697 6.87 6.87 0 0 0-.14.637l-.038.225a4.804 4.804 0 0 0-.081.866c-.008.877.244 1.611.752 2.217.668.79 1.657 1.182 2.955 1.182.7 0 1.372-.135 2.024-.41.657-.275 1.183-.64 1.594-1.103l-.956-1.45c-.575.592-1.283.89-2.12.89-.505 0-.894-.136-1.165-.411-.263-.275-.404-.64-.415-1.107.148-.011.29-.026.434-.037a93.94 93.94 0 0 0 4.916-.561l.078-.478c.063-.37.096-.716.103-1.036.011-.865-.185-1.57-.593-2.115-.552-.749-1.427-1.13-2.625-1.13Zm-1.256 3.637h-.772c.33-1.039.883-1.562 1.658-1.562.415 0 .715.117.9.354.19.237.242.572.153 1.001l-.012.056c-.645.053-1.282.102-1.927.151ZM45.868 37.7c-.096-.125-.114-.354-.055-.678l.326-1.893.237-1.37.115-.678h1.398l.326-1.867h-1.398l.368-2.15H44.54l-.374 2.15H43.08l-.318 1.867h1.079l-.178 1.035-.256 1.468-.308 1.773c-.152.888-.048 1.55.312 1.987.355.437.993.655 1.901.655.523 0 1.031-.075 1.532-.23l.33-1.923c-.178.03-.405.05-.664.05-.334 0-.549-.065-.642-.196Z" fill="#3358FF"/>
  <path d="M70.916 21.013c-.6-.636-1.305-1.103-2.024-1.506a17.859 17.859 0 0 0-1.85-.858c.004-.05.015-.098.015-.147 0-.741-.593-1.344-1.324-1.344-.482 0-.9.264-1.13.659v.004c-.119.2-.19.433-.19.685 0 .741.594 1.344 1.324 1.344.349 0 .667-.14.905-.366.63.241 1.245.512 1.831.829.664.372 1.305.798 1.81 1.325.503.523.844 1.159.86 1.829-.02.674-.35 1.333-.809 1.905-.47.572-1.049 1.076-1.68 1.524-1.256.896-2.661 1.608-4.096 2.236-2.888 1.246-5.924 2.142-8.983 2.906a92.19 92.19 0 0 1-7.07 1.412l-1.494.256-.226 1.306c3.037-.55 6.047-1.227 9.031-1.988 3.096-.798 6.162-1.731 9.11-3.03 1.471-.659 2.917-1.393 4.248-2.36a9.304 9.304 0 0 0 1.839-1.705c.526-.666.975-1.506.986-2.466-.004-.96-.493-1.833-1.083-2.45ZM17.988 34.447a72.474 72.474 0 0 1-3.125-.403c-.293-1.4-1.517-2.45-2.985-2.45a3.04 3.04 0 0 0-2.502 1.328c-.19-.053-.382-.102-.571-.154-1.48-.422-2.918-.953-4.182-1.657-.626-.361-1.201-.764-1.62-1.22-.423-.458-.62-.906-.62-1.32.008-.422.216-.942.613-1.446.396-.504.926-.99 1.512-1.427.382-.278.786-.55 1.201-.801a6.511 6.511 0 0 1-.485-.859 7.596 7.596 0 0 1-.449-1.208c-.541.305-1.068.629-1.587.998-.704.493-1.39 1.069-2.005 1.81-.594.727-1.16 1.717-1.183 2.925.026.591.148 1.19.412 1.683.063.124.122.256.189.369l.24.32c.149.23.327.399.49.583.693.704 1.453 1.19 2.213 1.607 1.539.81 3.114 1.333 4.701 1.75.2.053.4.099.604.147.164 1.555 1.457 2.763 3.033 2.763a3.044 3.044 0 0 0 2.732-1.727c1.064.131 2.128.244 3.196.33 2.158.17 4.312.287 6.47.35l.318-1.825a98.926 98.926 0 0 1-6.61-.466Z" fill="#3358FF"/>
  <path d="M6.34 23.498c.134.275.283.542.46.79.65.953 1.587 1.736 2.826 2.334 1.564.76 3.392 1.141 5.475 1.141 2.963 0 5.41-.655 7.326-1.954 1.924-1.306 3.085-3.105 3.477-5.39.112-.64.149-1.257.104-1.837a5.78 5.78 0 0 0-.356-1.675c-.47-1.265-1.397-2.341-2.765-3.23-1.03-.666-2.384-1.295-4.064-1.874-1.679-.584-2.825-1.145-3.444-1.694-.611-.542-.86-1.152-.748-1.826.133-.764.563-1.393 1.293-1.893.73-.497 1.65-.746 2.759-.746 1.097 0 1.913.294 2.458.885.54.583.715 1.412.533 2.477h6.2c.27-1.592.11-3.012-.49-4.254-.6-1.238-1.583-2.19-2.93-2.864-1.352-.674-2.961-1.01-4.811-1.01-1.902 0-3.66.313-5.29.927-1.624.617-2.948 1.483-3.975 2.59C9.355 5.5 8.718 6.777 8.473 8.23c-.505 2.906.77 5.199 3.826 6.859.938.515 2.165 1.05 3.685 1.6 1.338.485 2.298.952 2.888 1.407.081.064.16.132.226.192.434.4.649.915.649 1.563 0 .188-.019.387-.056.598-.14.81-.545 1.446-1.22 1.893-.674.448-1.52.674-2.55.674-1.602 0-2.703-.331-3.304-.997-.037-.045-.074-.087-.11-.132-.383-.493-.553-1.163-.524-2.018.008-.297.037-.617.097-.952H5.844c-.208 1.208-.185 2.315.063 3.324.104.44.245.858.434 1.257Z" fill="#3358FF"/>
</svg>
