<svg width="25" height="24" viewBox="0 0 25 24" fill="none" xmlns="http://www.w3.org/2000/svg">
<g clip-path="url(#clip0_2644_45913)">
<path d="M12.5 24C19.1165 24 24.5 18.6169 24.5 12C24.5 10.8579 24.3406 9.73242 24.0249 8.65454C23.8694 8.12451 23.3159 7.82007 22.7844 7.97559C22.2539 8.13062 21.9504 8.68604 22.1055 9.21606C22.3669 10.1116 22.5 11.0486 22.5 12C22.5 17.5139 18.0139 22 12.5 22C6.98608 22 2.5 17.5139 2.5 12C2.5 6.48608 6.98608 2 12.5 2C14.5039 2 16.4319 2.58594 18.0754 3.69409C18.533 4.00293 19.155 3.88159 19.4634 3.42407C19.772 2.96606 19.6516 2.34448 19.1936 2.03589C17.2185 0.704102 14.9041 0 12.5 0C5.88354 0 0.5 5.38306 0.5 12C0.5 18.6169 5.88354 24 12.5 24Z" fill="#3358FF"/>
<path d="M22.7928 2.29297L12.4998 12.5854L9.20685 9.29297C8.81622 8.90259 8.18341 8.90259 7.79279 9.29297C7.4024 9.68359 7.4024 10.3164 7.79279 10.707L11.7928 14.707C11.9883 14.9026 12.2437 15 12.4998 15C12.7559 15 13.0113 14.9026 13.2068 14.707L24.2068 3.70703C24.5972 3.31641 24.5972 2.68359 24.2068 2.29297C23.8162 1.90259 23.1834 1.90259 22.7928 2.29297Z" fill="#3358FF"/>
</g>
<defs>
<clipPath id="clip0_2644_45913">
<rect width="24" height="24" fill="white" transform="translate(0.5)"/>
</clipPath>
</defs>
</svg>
