<svg aria-hidden="true" style="position:absolute;width:0;height:0;overflow:hidden" xmlns="http://www.w3.org/2000/svg">
  <defs>
    <symbol id="icon-ios" viewBox="0 0 32 32">
      <path d="M24.727 17.017a7.27 7.27 0 0 1 3.463-6.101 7.443 7.443 0 0 0-5.865-3.171c-2.468-.259-4.86 1.476-6.117 1.476-1.281 0-3.217-1.451-5.303-1.408a7.812 7.812 0 0 0-6.573 4.009c-2.841 4.92-.723 12.152 2 16.129 1.363 1.948 2.953 4.123 5.037 4.047 2.039-.084 2.8-1.3 5.26-1.3 2.437 0 3.152 1.3 5.277 1.251 2.187-.036 3.565-1.956 4.88-3.923a16.083 16.083 0 0 0 2.231-4.544 7.026 7.026 0 0 1-4.289-6.465zM20.713 5.129A7.16 7.16 0 0 0 22.35 0a7.29 7.29 0 0 0-4.713 2.439 6.814 6.814 0 0 0-1.681 4.94 6.027 6.027 0 0 0 4.757-2.249z"/>
    </symbol>
    <symbol id="icon-android" viewBox="0 0 33 32">
      <path d="M19.784 32c1.07 0 2.003-.933 2.003-2.003v-4.678h1.337c.803 0 1.337-.535 1.337-1.337V10.621H8.425v13.361c0 .802.535 1.337 1.337 1.337H11.1v4.678c0 1.07.933 2.003 2.003 2.003s2.003-.933 2.003-2.003v-4.678h2.675v4.678c0 1.07.933 2.003 2.003 2.003zM27.802 23.982c1.07 0 2.003-.933 2.003-2.003v-9.356c0-1.064-.933-2.002-2.003-2.002s-2.003.938-2.003 2.002v9.356c0 1.07.933 2.003 2.003 2.003zM5.085 23.982c1.07 0 2.003-.933 2.003-2.003v-9.356c0-1.064-.933-2.002-2.003-2.002s-2.003.938-2.003 2.002v9.356c0 1.07.933 2.003 2.003 2.003zM22.857.202a.64.64 0 0 0-.933 0l-1.877 1.87c-1.064-.533-2.256-.799-3.584-.801h-.039c-1.328.003-2.52.269-3.584.801L10.963.202a.64.64 0 0 0-.933 0 .64.64 0 0 0 0 .932l1.735 1.736a7.215 7.215 0 0 0-1.507 1.353 7.845 7.845 0 0 0-1.821 4.644l-.004.055a7.26 7.26 0 0 0-.008.362h16.036c0-.121-.003-.242-.008-.362l-.004-.055a7.853 7.853 0 0 0-1.821-4.644 7.27 7.27 0 0 0-1.507-1.353l1.735-1.736a.64.64 0 0 0 0-.932zm-9.756 6.745a1.002 1.002 0 1 1 .001-2.005 1.002 1.002 0 0 1-.001 2.005zm6.686 0a1.002 1.002 0 1 1 .001-2.005 1.002 1.002 0 0 1-.001 2.005z"/>
    </symbol>
    <symbol id="icon-smart-tv" viewBox="0 0 33 32">
      <path d="M19.69 25.559v.44a2.133 2.133 0 0 1-2.133 2.133H2.358a2.133 2.133 0 0 1-2.133-2.133v-.44c0-.185.185-.315.359-.25.277.104.571.157.874.157 0 0 17.111-.002 17.166-.005.249-.016.487-.069.708-.152a.266.266 0 0 1 .359.25zM17.557 7.334H2.358A2.133 2.133 0 0 0 .225 9.467C.225 24.438.21 23.51.251 23.63c.163.478.678.769 1.206.769 18.214 0 17.038.006 17.166-.01.66-.073 1.067-.569 1.067-.926V9.467a2.133 2.133 0 0 0-2.133-2.133zm-6.799 9.599h-1.6a.533.533 0 1 1 0-1.066h1.6a.533.533 0 1 1 0 1.066zM27.089 15.6a1.6 1.6 0 1 0 0-3.2 1.6 1.6 0 0 0 0 3.2z"/>
      <path d="M30.09 3.334h-6a2.136 2.136 0 0 0-2.133 2.133v21.065c0 1.177.957 2.133 2.133 2.133h6a2.136 2.136 0 0 0 2.133-2.133V5.467a2.135 2.135 0 0 0-2.133-2.133zm-3 3.667a1.068 1.068 0 1 1-1.067 1.067c0-.588.478-1.067 1.067-1.067zm-1.667 13.065a.801.801 0 0 1 0-1.6.801.801 0 0 1 0 1.6zm3.333 0a.801.801 0 0 1 0-1.6.801.801 0 0 1 0 1.6zm-1.666-3.399c-1.47 0-2.666-1.196-2.666-2.666s1.196-2.666 2.666-2.666 2.666 1.196 2.666 2.666-1.196 2.666-2.666 2.666z"/>
    </symbol>
    <symbol id="icon-tv" viewBox="0 0 32 32">
      <path d="M30.913 4.192H1.088c-.601 0-1.087.487-1.087 1.087V21.49c0 .601.487 1.087 1.087 1.087h29.825c.601 0 1.087-.487 1.087-1.087V5.279c0-.601-.487-1.087-1.087-1.087zM23.202 26.363h-4.279v-1.4a.667.667 0 0 0-.667-.667h-4.514a.667.667 0 0 0-.667.667v1.4H8.796c-.604 0-1.093.599-1.093 1.337s.49 1.337 1.093 1.337h14.406c.604 0 1.093-.599 1.093-1.337s-.49-1.337-1.093-1.337z"/>
    </symbol>
  </defs>
</svg>
