<svg aria-hidden="true" style="position:absolute;width:0;height:0;overflow:hidden" xmlns="http://www.w3.org/2000/svg">
  <defs>
    <symbol id="icon-star" viewBox="0 0 32 32">
      <path stroke-linejoin="round" stroke-linecap="round" stroke-miterlimit="10" stroke-width="1.429" d="M7.41 28.683c-.927-.384-1.571-1.42-1.194-2.572l2.538-7.752-6.629-4.794c-1.631-1.179-.796-3.757 1.216-3.757h8.181l2.504-7.747c.619-1.916 3.33-1.916 3.949 0l2.504 7.747h8.181c2.013 0 2.847 2.577 1.216 3.757l-6.629 4.794 2.538 7.752c.377 1.152-.267 2.188-1.194 2.572"/>
      <path stroke-linejoin="round" stroke-linecap="round" stroke-miterlimit="10" stroke-width="1.429" d="M19.578 16.658v2.717c0 2.317-1.602 3.919-3.577 3.919s-3.577-1.602-3.577-3.577v-2.348"/>
      <path stroke-linejoin="round" stroke-linecap="round" stroke-miterlimit="10" stroke-width="1.429" d="M15.211 13.391h4.954v1.556a2.788 2.788 0 0 1-2.788 2.788h-4.954v-1.556a2.788 2.788 0 0 1 2.788-2.788zM13.333 31.375h11.273v-2.573a4.047 4.047 0 0 0-4.047-4.047h-2.772v-1.848M14.211 22.907v1.848H11.44a4.047 4.047 0 0 0-4.047 4.047v2.573h5.795"/>
      <path stroke-linejoin="round" stroke-linecap="round" stroke-miterlimit="10" stroke-width="1.429" d="m17.787 24.755-1.789 3.928-1.789-3.928"/>
    </symbol>
    <symbol id="icon-instrument" viewBox="0 0 32 32">
      <path stroke-linejoin="round" stroke-linecap="round" stroke-miterlimit="10" stroke-width="1.808" d="m15.696 12.954 1.028-1.028c1.502-1.502 2.346-3.555 2.27-5.677a5.575 5.575 0 0 1 .949-3.356C21.218 1.176 23.277.627 25.481 1.1c1.002.215 1.697.426 2.157.593L23.611 5.72l1.334 1.334-.004.005.005-.004 1.334 1.334 4.027-4.027c.167.46.378 1.155.593 2.157.473 2.204-.076 4.263-1.793 5.538a5.582 5.582 0 0 1-3.356.949c-2.122-.077-4.175.768-5.677 2.269l-.853.853M12.833 15.817l-6.408 6.408a3.99 3.99 0 0 1-2.21 1.104 3.874 3.874 0 0 0-2.139 1.089c-1.518 1.518-1.518 3.988 0 5.506s3.988 1.518 5.506 0a3.86 3.86 0 0 0 1.089-2.139 3.99 3.99 0 0 1 1.104-2.21l6.36-6.36"/>
      <path d="M5.808 27.198a.938.938 0 1 1-1.876 0 .938.938 0 0 1 1.876 0z"/>
      <path stroke-linejoin="round" stroke-linecap="round" stroke-miterlimit="10" stroke-width="1.808" d="m21.593 19.156-2.437 2.437a1.886 1.886 0 0 1-2.666 0l-.009-.009a1.886 1.886 0 0 1 0-2.666l2.437-2.437a1.886 1.886 0 0 1 2.666 0l.009.009c.736.736.736 1.93 0 2.666zM18.507 22.242c.009.935.37 1.868 1.083 2.582l5.154 5.154a3.701 3.701 0 1 0 5.235-5.235l-5.154-5.154a3.687 3.687 0 0 0-2.582-1.083l-3.736 3.736zM8.492 5.749 5.75 8.491l10.578 10.578 2.742-2.742L8.492 5.749zM7.474 3.135 3.502.937.938 3.501l2.198 3.972L5.75 8.49l2.742-2.742-1.017-2.614z"/>
    </symbol>
    <symbol id="icon-wi-fi" viewBox="0 0 32 32">
      <path d="M26.576 18.119H5.423A5.432 5.432 0 0 0 0 23.542v.342a5.432 5.432 0 0 0 5.423 5.423h21.153a5.432 5.432 0 0 0 5.423-5.423v-.342a5.432 5.432 0 0 0-5.423-5.423zm3.797 5.766a3.796 3.796 0 0 1-3.796 3.796H5.424a3.796 3.796 0 0 1-3.796-3.796v-.342a3.796 3.796 0 0 1 3.796-3.796h21.153a3.8 3.8 0 0 1 3.796 3.796v.342z"/>
      <path d="M26.576 18.119H5.423A5.432 5.432 0 0 0 0 23.542v.342a5.432 5.432 0 0 0 5.423 5.423h21.153a5.432 5.432 0 0 0 5.423-5.423v-.342a5.432 5.432 0 0 0-5.423-5.423zm3.797 5.766a3.796 3.796 0 0 1-3.796 3.796H5.424a3.796 3.796 0 0 1-3.796-3.796v-.342a3.796 3.796 0 0 1 3.796-3.796h21.153a3.8 3.8 0 0 1 3.796 3.796v.342z"/>
      <path d="M5.594 25.12a1.406 1.406 0 1 0 0-2.812 1.406 1.406 0 0 0 0 2.812zM9.813 25.12a1.406 1.406 0 1 0 0-2.812 1.406 1.406 0 0 0 0 2.812zM14.031 25.12a1.406 1.406 0 1 0 0-2.812 1.406 1.406 0 0 0 0 2.812zM26.968 22.901h-6.749a.814.814 0 0 0 0 1.626h6.749a.814.814 0 0 0 0-1.626zM6.788 7.905c.886-.917 4.167-3.908 9.211-3.908 1.275 0 5.707.282 9.211 3.908a.812.812 0 0 0 1.396-.553.816.816 0 0 0-.226-.579c-3.949-4.088-8.944-4.404-10.381-4.404-5.684 0-9.383 3.371-10.381 4.404a.815.815 0 0 0 .028 1.141.81.81 0 0 0 1.142-.011z"/>
      <path d="M22.997 11.716a.813.813 0 0 0 .585-1.379A10.819 10.819 0 0 0 16 7.12a10.814 10.814 0 0 0-7.582 3.217.798.798 0 0 0-.23.58.812.812 0 0 0 .829.801.813.813 0 0 0 .572-.25 9.148 9.148 0 0 1 6.412-2.72 9.15 9.15 0 0 1 6.413 2.72.823.823 0 0 0 .584.249zM12.615 13.306a.815.815 0 0 0 .019 1.15.815.815 0 0 0 1.15-.019 3.076 3.076 0 0 1 4.429 0 .815.815 0 0 0 1.398-.551.81.81 0 0 0-.228-.579 4.719 4.719 0 0 0-3.384-1.436 4.697 4.697 0 0 0-3.384 1.436v-.001z"/>
    </symbol>
    <symbol id="icon-247" viewBox="0 0 32 32">
      <path d="M7.131 8.372a1.002 1.002 0 0 0 .906.577H12.9v1.718a.997.997 0 0 0 1 1 .997.997 0 0 0 1-1V8.949h.461a.997.997 0 0 0 1-1 .997.997 0 0 0-1-1H14.9V.948a1 1 0 0 0-1.766-.642L7.271 7.307a1.006 1.006 0 0 0-.14 1.065zM12.9 3.7v3.249h-2.721L12.9 3.7zm5.061 21.242 5.239-8.179h-3.857a.997.997 0 0 1-1-1 .997.997 0 0 1 1-1h5.685a.993.993 0 0 1 .877.52 1.001 1.001 0 0 1-.035 1.019l-6.225 9.719a1.008 1.008 0 0 1-.628.439 1.009 1.009 0 0 1-.755-.134.997.997 0 0 1-.302-1.384zm5.235-18.376a1 1 0 0 1 0 1.414L8.455 22.721a1.003 1.003 0 0 1-1.41-.004 1 1 0 0 1-.004-1.41L21.782 6.566a.998.998 0 0 1 1.414 0zM5.656 4.471c.253-.927.093-1.625-.477-2.076-.638-.504-1.699-.594-2.417-.203-.545.297-.787.81-.718 1.525a1.001 1.001 0 0 1-1.632.867.998.998 0 0 1-.359-.676C-.093 2.387.545 1.121 1.805.435c1.414-.77 3.354-.606 4.614.391 1.204.953 1.629 2.473 1.165 4.171-.313 1.146-1.384 1.982-2.625 2.95-.67.523-1.392 1.086-1.998 1.719h4.142a.997.997 0 0 1 1 1 .997.997 0 0 1-1 1H1.019A1 1 0 0 1 .12 10.23c.814-1.678 2.299-2.836 3.609-3.859.879-.686 1.788-1.396 1.927-1.901zM32 16.052A15.998 15.998 0 0 1 4.687 27.365 15.9 15.9 0 0 1 .001 16.051a.997.997 0 0 1 1-1 .997.997 0 0 1 1 1c0 7.72 6.28 14 14 14s14-6.28 14-14c0-7.008-5.232-12.976-12.17-13.881a.987.987 0 0 1-.672-.379 1.005 1.005 0 0 1-.076-1.118.997.997 0 0 1 1.008-.487 16.004 16.004 0 0 1 13.912 15.865z"/>
      <path d="M7.131 8.372a1.002 1.002 0 0 0 .906.577H12.9v1.718a.997.997 0 0 0 1 1 .997.997 0 0 0 1-1V8.949h.461a.997.997 0 0 0 1-1 .997.997 0 0 0-1-1H14.9V.948a1 1 0 0 0-1.766-.642L7.271 7.307a1.006 1.006 0 0 0-.14 1.065zM12.9 3.7v3.249h-2.721L12.9 3.7zm5.061 21.242 5.239-8.179h-3.857a.997.997 0 0 1-1-1 .997.997 0 0 1 1-1h5.685a.993.993 0 0 1 .877.52 1.001 1.001 0 0 1-.035 1.019l-6.225 9.719a1.008 1.008 0 0 1-.628.439 1.009 1.009 0 0 1-.755-.134.997.997 0 0 1-.302-1.384zm5.235-18.376a1 1 0 0 1 0 1.414L8.455 22.721a1.003 1.003 0 0 1-1.41-.004 1 1 0 0 1-.004-1.41L21.782 6.566a.998.998 0 0 1 1.414 0zM5.656 4.471c.253-.927.093-1.625-.477-2.076-.638-.504-1.699-.594-2.417-.203-.545.297-.787.81-.718 1.525a1.001 1.001 0 0 1-1.632.867.998.998 0 0 1-.359-.676C-.093 2.387.545 1.121 1.805.435c1.414-.77 3.354-.606 4.614.391 1.204.953 1.629 2.473 1.165 4.171-.313 1.146-1.384 1.982-2.625 2.95-.67.523-1.392 1.086-1.998 1.719h4.142a.997.997 0 0 1 1 1 .997.997 0 0 1-1 1H1.019A1 1 0 0 1 .12 10.23c.814-1.678 2.299-2.836 3.609-3.859.879-.686 1.788-1.396 1.927-1.901zM32 16.052A15.998 15.998 0 0 1 4.687 27.365 15.9 15.9 0 0 1 .001 16.051a.997.997 0 0 1 1-1 .997.997 0 0 1 1 1c0 7.72 6.28 14 14 14s14-6.28 14-14c0-7.008-5.232-12.976-12.17-13.881a.987.987 0 0 1-.672-.379 1.005 1.005 0 0 1-.076-1.118.997.997 0 0 1 1.008-.487 16.004 16.004 0 0 1 13.912 15.865z"/>
    </symbol>
    <symbol id="icon-money" viewBox="0 0 32 32">
      <path stroke-linejoin="round" stroke-linecap="round" stroke-miterlimit="10" stroke-width="1.808" d="M16.002 17.188a8.125 8.125 0 1 0 0-16.25 8.125 8.125 0 0 0 0 16.25zM12.606 26.676h7.059v-.722c0-1.708-1.538-3.093-3.246-3.093h-2.72a9.36 9.36 0 0 0-9.068 2.238c-.288.276-.671.43-1.07.43H.939v5.533h20.546a3.979 3.979 0 0 0 2.811-1.164l6.768-6.768a4.391 4.391 0 0 0-5.751.399l-3.148 3.148h-2.5"/>
      <path d="M16.028 13.63c-.679 0-1.245-.103-1.698-.31-.453-.215-.792-.517-1.019-.904-.226-.396-.34-.866-.34-1.408 0-.121.004-.237.013-.349.017-.12.042-.237.075-.349h-.616v-.956h1.094c.075-.095.159-.181.252-.258.092-.086.189-.168.289-.245.109-.078.222-.151.34-.22.117-.078.239-.146.365-.207h-2.339v-.956h4.2a.953.953 0 0 0 .239-.349c.059-.138.088-.293.088-.465a.797.797 0 0 0-.515-.775 1.658 1.658 0 0 0-.629-.103c-.226 0-.453.022-.679.065-.218.043-.448.103-.692.181s-.503.176-.78.297l-.566-1.524a7.478 7.478 0 0 1 1.358-.465 6.128 6.128 0 0 1 1.509-.181c.587 0 1.09.099 1.509.297.428.189.759.474.993.853s.352.844.352 1.395a2.828 2.828 0 0 1-.1.775h.641v.956h-1.169a2.711 2.711 0 0 1-.314.297 3.588 3.588 0 0 1-.352.245 7.532 7.532 0 0 1-.377.207c-.126.06-.256.121-.39.181h2.603v.956h-4.301a.955.955 0 0 0-.189.323 1.29 1.29 0 0 0-.05.375c0 .207.046.388.138.543.101.146.247.263.44.349.201.078.444.116.729.116.453 0 .897-.052 1.333-.155a9.711 9.711 0 0 0 1.308-.439v1.628c-.36.181-.775.323-1.245.426s-.972.155-1.509.155z"/>
    </symbol>
    <symbol id="icon-charge" viewBox="0 0 32 32">
      <path d="M1.706 12.594a.936.936 0 0 0 .718-.005l2.804-1.184a.937.937 0 0 0-.729-1.727l-.686.289a13.447 13.447 0 0 1 12.302-8.03A13.435 13.435 0 0 1 29.124 12.01a.937.937 0 1 0 1.815-.469A15.312 15.312 0 0 0 2.056 9.307l-.317-.75a.936.936 0 1 0-1.727.729l1.183 2.804c.097.229.28.41.511.504zM31.863 22.648l-1.183-2.804a.938.938 0 0 0-1.229-.499l-2.804 1.184a.937.937 0 0 0 .729 1.727l.785-.331a13.447 13.447 0 0 1-12.401 8.262A13.435 13.435 0 0 1 2.751 20.114a.938.938 0 0 0-1.815.469A15.312 15.312 0 0 0 15.76 32.062a15.324 15.324 0 0 0 14.099-9.339l.276.654a.937.937 0 1 0 1.727-.729z"/>
      <path d="M18.375 6.313H13.5a.938.938 0 0 0-.938.937v1.687h-.727c-.84 0-1.523.69-1.523 1.537v13.8c0 .848.684 1.537 1.523 1.537h8.203c.84 0 1.523-.69 1.523-1.537v-13.8c0-.848-.684-1.537-1.523-1.537h-.727V7.249a.937.937 0 0 0-.938-.937zm1.313 4.499v13.125h-7.5V10.812h1.313c.518 0 .938-.42.938-.938V8.186h3v1.688c0 .518.42.938.938.938h1.312z"/>
      <path d="M17.258 15.409h-.703l.762-.962a.938.938 0 0 0-1.47-1.164l-1.966 2.482a.937.937 0 0 0 .735 1.519h.687l-.881 1.098a.938.938 0 0 0 1.462 1.173l2.104-2.622a.936.936 0 0 0-.731-1.524z"/>
    </symbol>
  </defs>
</svg>
