<svg aria-hidden="true" style="position:absolute;width:0;height:0;overflow:hidden" xmlns="http://www.w3.org/2000/svg">
  <defs>
    <symbol id="icon-eth" viewBox="0 0 32 32">
      <path d="m31.219 21.453-11.565-5.259c-.04-.019-.08-.033-.12-.048-.971-.331-2.024-.087-2.749.639s-.969 1.779-.589 2.868l5.259 11.567a1.33 1.33 0 0 0 1.189.781h.025c.504 0 .967-.285 1.193-.737l2.468-4.936 4.936-2.468a1.333 1.333 0 0 0-.044-2.406h-.003zm-14.003 7.826c-.229.02-.46.035-.693.044-.891-.881-3.213-3.357-4.832-6.656h.976a1.333 1.333 0 1 0 0-2.666h-2.04c-.388-1.269-.627-2.613-.627-4s.24-2.729.629-4h10.743c.157.516.291 1.044.393 1.583a1.332 1.332 0 1 0 2.619-.499 16.562 16.562 0 0 0-.244-1.084h4.577a13.27 13.27 0 0 1 .558 5.214 1.335 1.335 0 0 0 1.208 1.448 1.328 1.328 0 0 0 1.448-1.208c.043-.479.065-.964.065-1.453C31.999 7.178 24.821.001 15.999.001s-16 7.177-16 16 7.177 16 15.999 16c.489 0 .973-.023 1.451-.065a1.334 1.334 0 0 0-.233-2.656zM7.856 20H3.28c-.399-1.264-.613-2.608-.613-4.001s.215-2.737.613-4.001h4.576c-.327 1.273-.523 2.612-.523 4s.195 2.727.523 4v.003zm3.841-10.667c1.361-2.769 3.22-4.965 4.305-6.117 1.087 1.151 2.945 3.343 4.307 6.117h-8.612zm15.847 0H23.24c-1.055-2.515-2.517-4.651-3.776-6.209a13.397 13.397 0 0 1 8.08 6.209zM12.533 3.125C11.274 4.684 9.81 6.82 8.757 9.333H4.456a13.382 13.382 0 0 1 8.077-6.208zM4.456 22.667h4.301c1.053 2.515 2.517 4.649 3.776 6.208a13.399 13.399 0 0 1-8.077-6.208z"/>
    </symbol>
    <symbol id="icon-support" viewBox="0 0 32 32">
      <path d="M14.782 9.538c2.445-.745 4.825.871 5.219 3.129a2 2 0 0 0 4 0c0-.235-.048-.456-.121-.665-.812-4.687-5.699-8.009-10.872-6.097-3.061 1.132-5.005 4.165-5.005 7.429v.021c.001.625.076 1.233.215 1.817.415 1.747 2.763 1.948 3.599.36l.025-.048c.237-.437.325-.928.232-1.416a3.949 3.949 0 0 1 .161-2.067 3.96 3.96 0 0 1 2.551-2.461l-.003-.003z"/>
      <path d="M6.145 10.94A9.9 9.9 0 0 1 9.16 5.369c2.039-1.911 4.708-2.855 7.507-2.681 5.271.341 9.392 4.959 9.331 10.487-.025 2.315-1.964 4.157-4.277 4.157h-3.424A2.655 2.655 0 0 0 16 15.999a2.666 2.666 0 1 0 0 5.334c.984 0 1.835-.54 2.297-1.333h3.424c3.759 0 6.891-2.993 6.944-6.751C28.764 6.288 23.534.461 16.84.029c-3.552-.231-6.921.976-9.501 3.397a12.718 12.718 0 0 0-3.807 7.021c-.145.811.496 1.555 1.319 1.555.629 0 1.191-.439 1.296-1.06v-.001zM15.949 22.667c-4.503 0-8.803 2.692-10.453 6.545a2.001 2.001 0 0 0 3.678 1.576c1.023-2.388 3.873-4.121 6.777-4.121s5.873 1.772 6.88 4.121a2 2 0 0 0 3.678-1.576c-1.652-3.855-5.993-6.545-10.556-6.545h-.003z"/>
    </symbol>
    <symbol id="icon-service_button-3" viewBox="0 0 32 32">
      <path d="M10.283 23.463v-8.051a2.853 2.853 0 0 1 1.439-2.476 2.852 2.852 0 0 1 2.864.015l6.84 4.025a2.854 2.854 0 0 1 0 4.92l-6.84 4.025a2.855 2.855 0 0 1-3.916-1.029 2.87 2.87 0 0 1-.387-1.432zm3.426-7.052v6.053l5.143-3.027-5.143-3.027z"/>
      <path d="M26.266 6.876H21.49l4.222-3.877c1.666-1.531-.646-4.055-2.317-2.524l-6.971 6.401h-1.152L9.724 1.782c-1.668-1.529-3.986.99-2.317 2.524l2.799 2.571H5.71c-1.514.002-2.965.604-4.036 1.674S.001 11.073 0 12.587v13.704A5.717 5.717 0 0 0 5.71 32h20.556c1.514-.002 2.965-.604 4.036-1.674s1.673-2.522 1.674-4.035V12.587c-.002-1.514-.604-2.965-1.674-4.036s-2.522-1.673-4.036-1.674zM28.55 26.29a2.285 2.285 0 0 1-2.284 2.284H5.71a2.29 2.29 0 0 1-2.284-2.284V12.586a2.29 2.29 0 0 1 2.284-2.284h20.556a2.287 2.287 0 0 1 2.284 2.284V26.29z"/>
    </symbol>
    <symbol id="icon-safe" viewBox="0 0 32 32">
      <path d="M19.333 12.666A3.33 3.33 0 0 1 18 15.333v4a2 2 0 0 1-4 0v-4a3.333 3.333 0 1 1 5.333-2.667zm10-3.272v6.807c0 9.828-9.229 14.304-12.059 15.441 0 0-.769.357-1.272.357s-1.403-.467-1.403-.467C11.8 30.133 2.666 24.893 2.666 16.2V9.393a7.027 7.027 0 0 1 4.821-6.68L15.37.1a1.987 1.987 0 0 1 1.257 0l7.881 2.613a7.027 7.027 0 0 1 4.824 6.68zm-4 0a3.031 3.031 0 0 0-2.083-2.883l-7.251-2.405-7.252 2.405a3.033 3.033 0 0 0-2.081 2.883v6.807c0 6.141 6.856 10.272 9.424 11.603 2.536-1.077 9.243-4.591 9.243-11.603V9.394z"/>
    </symbol>
    <symbol id="icon-video" viewBox="0 0 32 32">
      <path d="M24.667 14.667A3.337 3.337 0 0 0 28 11.334v-.667h1.333c.736 0 1.333-.597 1.333-1.333v-4c0-.736-.597-1.333-1.333-1.333h-.097l.553-1.105A2.002 2.002 0 0 0 28 .001H8.667c-3.308 0-6 2.692-6 6v2.667c0 3.308 2.692 6 6 6h3.781l-1.689 4.504a3.35 3.35 0 0 1-3.121 2.163H4.001v-2a2 2 0 0 0-4 0v8a2 2 0 0 0 4 0v-2h3.637a7.365 7.365 0 0 0 6.865-4.759l2.216-5.908h7.948zm-18-6V6c0-1.103.897-2 2-2h16.097l-.553 1.105A1.997 1.997 0 0 0 24 6v4.667H8.667c-1.103 0-2-.897-2-2zm24.95 16.061C30.345 22.796 27.746 20 23.35 20s-6.995 2.795-8.267 4.728a2.304 2.304 0 0 0 0 2.545c1.272 1.931 3.872 4.728 8.267 4.728s6.996-2.796 8.267-4.728a2.304 2.304 0 0 0 0-2.545zm-8.266 3.939a2.666 2.666 0 1 1 0-5.334 2.666 2.666 0 1 1 0 5.334z"/>
    </symbol>
  </defs>
</svg>
