<svg width="80" height="80" fill="none" xmlns="http://www.w3.org/2000/svg">
  <rect width="64" height="64" rx="8" fill="#EBEEFF"/>
  <g clip-path="url(#a)">
    <mask id="b" style="mask-type:luminance" maskUnits="userSpaceOnUse" x="16" y="16" width="32" height="32">
      <path d="M16 16h32v32H16V16Z" fill="#fff"/>
    </mask>
    <g mask="url(#b)" stroke="#3358FF" stroke-width="1.875" stroke-miterlimit="10" stroke-linecap="round" stroke-linejoin="round">
      <path d="M43.25 35.75H31.735c-.837-3.23-3.744-5.625-7.235-5.625-4.142 0-7.563 3.358-7.563 7.5 0 4.142 3.42 7.5 7.563 7.5 2.77 0 5.16-1.518 6.46-3.75h2.915l1.875 1.875 1.875-1.875L39.5 43.25l1.875-1.875 1.875 1.875 3.813-3.75-3.813-3.75Z"/>
      <path d="M24.5 37.625a1.875 1.875 0 1 1-3.75 0 1.875 1.875 0 0 1 3.75 0ZM22.625 26.375A1.875 1.875 0 0 1 20.75 24.5v-3.75a1.875 1.875 0 0 1 3.75 0v3.75c0 1.035-.84 1.875-1.875 1.875ZM16.938 18.875v7.5M37.625 26.375A1.875 1.875 0 0 1 35.75 24.5v-3.75a1.875 1.875 0 0 1 3.75 0v3.75c0 1.035-.84 1.875-1.875 1.875ZM28.25 18.875v7.5M32 18.875v7.5M43.25 18.875v7.5M47.063 18.875v7.5"/>
    </g>
  </g>
  <circle cx="62" cy="62" r="17" fill="#fff" stroke="#3358FF" stroke-width="2"/>
  <path d="m65.682 56.58-.09 1.764h-5.184l-.162 2.79 1.62.162c.78.06 1.434.186 1.962.378.54.192.972.45 1.296.774.336.324.576.72.72 1.188.144.456.216.99.216 1.602 0 .516-.06 1.014-.18 1.494a3.15 3.15 0 0 1-.648 1.278c-.3.372-.726.666-1.278.882-.54.216-1.242.324-2.106.324-.54 0-1.158-.036-1.854-.108a19.376 19.376 0 0 1-2.106-.306l.216-1.746c.576.072 1.146.138 1.71.198.564.048 1.056.072 1.476.072.696 0 1.224-.078 1.584-.234.36-.168.606-.408.738-.72.132-.324.204-.72.216-1.188.024-.468-.03-.84-.162-1.116a1.263 1.263 0 0 0-.594-.63c-.264-.144-.624-.246-1.08-.306a22.56 22.56 0 0 0-1.656-.144l-1.242-.126a.932.932 0 0 1-.558-.288.793.793 0 0 1-.18-.576l.306-5.418h7.02Z" fill="#3358FF"/>
  <defs>
    <clipPath id="a">
      <path fill="#fff" transform="translate(16 16)" d="M0 0h32v32H0z"/>
    </clipPath>
  </defs>
</svg>
