<svg width="80" height="80" fill="none" xmlns="http://www.w3.org/2000/svg">
  <rect width="64" height="64" rx="8" fill="#EBEEFF"/>
  <g clip-path="url(#a)">
    <path d="M32 38.398a6.97 6.97 0 0 0 6.962-6.963v-8.473A6.97 6.97 0 0 0 32 16a6.97 6.97 0 0 0-6.962 6.962v8.473A6.97 6.97 0 0 0 32 38.398Zm-4.962-15.436A4.968 4.968 0 0 1 32 18a4.968 4.968 0 0 1 4.962 4.962v8.473A4.968 4.968 0 0 1 32 36.398a4.968 4.968 0 0 1-4.962-4.963v-8.473Zm16.436 10.486A11.695 11.695 0 0 1 33 43.042V46h6.5a1 1 0 1 1 0 2h-15a1 1 0 1 1 0-2H31v-2.958a11.695 11.695 0 0 1-10.474-9.593 1 1 0 1 1 1.97-.347A9.64 9.64 0 0 0 32 41.085a9.64 9.64 0 0 0 9.505-7.983 1 1 0 1 1 1.97.346Zm.015-10.713v5.778a1 1 0 1 1-2 0v-5.778a1 1 0 1 1 2 0ZM48 24.111v3.026a1 1 0 1 1-2 0V24.11a1 1 0 1 1 2 0Zm-27.49 4.402v-5.778a1 1 0 1 1 2 0v5.778a1 1 0 1 1-2 0ZM18 24.11v3.026a1 1 0 1 1-2 0V24.11a1 1 0 1 1 2 0Z" fill="#3358FF"/>
  </g>
  <circle cx="62" cy="62" r="17" fill="#fff" stroke="#3358FF" stroke-width="2"/>
  <path d="M61.863 56.364c.828 0 1.542.072 2.142.216.6.144 1.062.42 1.386.828.336.396.504.984.504 1.764 0 .492-.06.948-.18 1.368-.12.42-.336.864-.648 1.332-.312.456-.744.978-1.296 1.566l-3.384 3.636c.3-.048.612-.078.936-.09.336-.012.66-.018.972-.018h3.996V69h-8.568v-1.26c0-.192.024-.36.072-.504.048-.156.132-.3.252-.432l3.294-3.636c.756-.804 1.326-1.512 1.71-2.124.384-.624.57-1.182.558-1.674-.012-.324-.096-.558-.252-.702-.156-.156-.378-.258-.666-.306a6.603 6.603 0 0 0-1.062-.072c-.396 0-.774.006-1.134.018-.36.012-.744.036-1.152.072-.396.024-.864.066-1.404.126l-.108-1.692a16.865 16.865 0 0 1 2.826-.414c.396-.024.798-.036 1.206-.036Z" fill="#3358FF"/>
  <defs>
    <clipPath id="a">
      <path fill="#fff" transform="translate(16 16)" d="M0 0h32v32H0z"/>
    </clipPath>
  </defs>
</svg>
