<svg width="33" height="33" fill="none" xmlns="http://www.w3.org/2000/svg">
  <path d="M16.5 20.666a4.172 4.172 0 0 1-4.166-4.166 4.172 4.172 0 0 1 4.167-4.167 4.172 4.172 0 0 1 4.166 4.167 4.172 4.172 0 0 1-4.166 4.166Zm0-7.333a3.175 3.175 0 0 0-3.166 3.167 3.174 3.174 0 0 0 3.167 3.166 3.174 3.174 0 0 0 3.166-3.166 3.174 3.174 0 0 0-3.166-3.167Z" fill="#000"/>
  <path d="M16.5 20.666a4.172 4.172 0 0 1-4.166-4.166 4.172 4.172 0 0 1 4.167-4.167 4.172 4.172 0 0 1 4.166 4.167 4.172 4.172 0 0 1-4.166 4.166Zm0-7.333a3.175 3.175 0 0 0-3.166 3.167 3.174 3.174 0 0 0 3.167 3.166 3.174 3.174 0 0 0 3.166-3.166 3.174 3.174 0 0 0-3.166-3.167Z" stroke="#030317"/>
  <path d="M16.5 20.666a4.172 4.172 0 0 1-4.166-4.166 4.172 4.172 0 0 1 4.167-4.167 4.172 4.172 0 0 1 4.166 4.167 4.172 4.172 0 0 1-4.166 4.166Zm0-7.333a3.175 3.175 0 0 0-3.166 3.167 3.174 3.174 0 0 0 3.167 3.166 3.174 3.174 0 0 0 3.166-3.166 3.174 3.174 0 0 0-3.166-3.167Z" stroke="#000" stroke-opacity=".2"/>
  <path d="M23.167 30.334c-.27 0-.5-.23-.5-.5 0-3.396-2.77-6.167-6.166-6.167-3.397 0-6.167 2.77-6.167 6.167 0 .27-.23.5-.5.5s-.5-.23-.5-.5c0-3.95 3.216-7.167 7.167-7.167 3.95 0 7.166 3.216 7.166 7.167 0 .27-.23.5-.5.5Z" fill="#000"/>
  <path d="M23.167 30.334c-.27 0-.5-.23-.5-.5 0-3.396-2.77-6.167-6.166-6.167-3.397 0-6.167 2.77-6.167 6.167 0 .27-.23.5-.5.5s-.5-.23-.5-.5c0-3.95 3.216-7.167 7.167-7.167 3.95 0 7.166 3.216 7.166 7.167 0 .27-.23.5-.5.5Z" stroke="#030317"/>
  <path d="M23.167 30.334c-.27 0-.5-.23-.5-.5 0-3.396-2.77-6.167-6.166-6.167-3.397 0-6.167 2.77-6.167 6.167 0 .27-.23.5-.5.5s-.5-.23-.5-.5c0-3.95 3.216-7.167 7.167-7.167 3.95 0 7.166 3.216 7.166 7.167 0 .27-.23.5-.5.5Z" stroke="#000" stroke-opacity=".2"/>
  <path d="M23.167 11A4.172 4.172 0 0 1 19 6.834a4.172 4.172 0 0 1 4.167-4.167 4.172 4.172 0 0 1 4.166 4.167A4.172 4.172 0 0 1 23.167 11Zm0-7.333A3.175 3.175 0 0 0 20 6.834 3.175 3.175 0 0 0 23.167 10a3.174 3.174 0 0 0 3.166-3.166 3.174 3.174 0 0 0-3.166-3.167Z" fill="#000"/>
  <path d="M23.167 11A4.172 4.172 0 0 1 19 6.834a4.172 4.172 0 0 1 4.167-4.167 4.172 4.172 0 0 1 4.166 4.167A4.172 4.172 0 0 1 23.167 11Zm0-7.333A3.175 3.175 0 0 0 20 6.834 3.175 3.175 0 0 0 23.167 10a3.174 3.174 0 0 0 3.166-3.166 3.174 3.174 0 0 0-3.166-3.167Z" stroke="#030317"/>
  <path d="M23.167 11A4.172 4.172 0 0 1 19 6.834a4.172 4.172 0 0 1 4.167-4.167 4.172 4.172 0 0 1 4.166 4.167A4.172 4.172 0 0 1 23.167 11Zm0-7.333A3.175 3.175 0 0 0 20 6.834 3.175 3.175 0 0 0 23.167 10a3.174 3.174 0 0 0 3.166-3.166 3.174 3.174 0 0 0-3.166-3.167Z" stroke="#000" stroke-opacity=".2"/>
  <path d="M29.833 20.667c-.27 0-.5-.23-.5-.5 0-3.397-2.77-6.167-6.167-6.167-.27 0-.5-.23-.5-.5s.23-.5.5-.5c3.95 0 7.167 3.216 7.167 7.167 0 .27-.23.5-.5.5Z" fill="#000"/>
  <path d="M29.833 20.667c-.27 0-.5-.23-.5-.5 0-3.397-2.77-6.167-6.167-6.167-.27 0-.5-.23-.5-.5s.23-.5.5-.5c3.95 0 7.167 3.216 7.167 7.167 0 .27-.23.5-.5.5Z" stroke="#030317"/>
  <path d="M29.833 20.667c-.27 0-.5-.23-.5-.5 0-3.397-2.77-6.167-6.167-6.167-.27 0-.5-.23-.5-.5s.23-.5.5-.5c3.95 0 7.167 3.216 7.167 7.167 0 .27-.23.5-.5.5Z" stroke="#000" stroke-opacity=".2"/>
  <path d="M9.833 11a4.172 4.172 0 0 1-4.167-4.166 4.172 4.172 0 0 1 4.167-4.167 4.172 4.172 0 0 1 4.166 4.167A4.172 4.172 0 0 1 9.833 11Zm0-7.333a3.174 3.174 0 0 0-3.167 3.167A3.174 3.174 0 0 0 9.833 10a3.174 3.174 0 0 0 3.166-3.166 3.174 3.174 0 0 0-3.166-3.167Z" fill="#000"/>
  <path d="M9.833 11a4.172 4.172 0 0 1-4.167-4.166 4.172 4.172 0 0 1 4.167-4.167 4.172 4.172 0 0 1 4.166 4.167A4.172 4.172 0 0 1 9.833 11Zm0-7.333a3.174 3.174 0 0 0-3.167 3.167A3.174 3.174 0 0 0 9.833 10a3.174 3.174 0 0 0 3.166-3.166 3.174 3.174 0 0 0-3.166-3.167Z" stroke="#030317"/>
  <path d="M9.833 11a4.172 4.172 0 0 1-4.167-4.166 4.172 4.172 0 0 1 4.167-4.167 4.172 4.172 0 0 1 4.166 4.167A4.172 4.172 0 0 1 9.833 11Zm0-7.333a3.174 3.174 0 0 0-3.167 3.167A3.174 3.174 0 0 0 9.833 10a3.174 3.174 0 0 0 3.166-3.166 3.174 3.174 0 0 0-3.166-3.167Z" stroke="#000" stroke-opacity=".2"/>
  <path d="M3.166 20.667c-.27 0-.5-.23-.5-.5 0-3.95 3.216-7.167 7.167-7.167.27 0 .5.23.5.5s-.23.5-.5.5c-3.396 0-6.167 2.77-6.167 6.167 0 .27-.23.5-.5.5Z" fill="#000"/>
  <path d="M3.166 20.667c-.27 0-.5-.23-.5-.5 0-3.95 3.216-7.167 7.167-7.167.27 0 .5.23.5.5s-.23.5-.5.5c-3.396 0-6.167 2.77-6.167 6.167 0 .27-.23.5-.5.5Z" stroke="#030317"/>
  <path d="M3.166 20.667c-.27 0-.5-.23-.5-.5 0-3.95 3.216-7.167 7.167-7.167.27 0 .5.23.5.5s-.23.5-.5.5c-3.396 0-6.167 2.77-6.167 6.167 0 .27-.23.5-.5.5Z" stroke="#000" stroke-opacity=".2"/>
</svg>
