<svg width="33" height="33" fill="none" xmlns="http://www.w3.org/2000/svg">
  <g clip-path="url(#a)">
    <path d="M7.338 5.568H1.441a.441.441 0 0 1 0-.882h5.897a.441.441 0 0 1 0 .882Z" fill="#030317"/>
    <path d="M7.338 5.568H1.441a.441.441 0 0 1 0-.882h5.897a.441.441 0 0 1 0 .882Z" fill="#000" fill-opacity=".2"/>
    <path d="M7.338 5.568H1.441a.441.441 0 0 1 0-.882h5.897a.441.441 0 0 1 0 .882Z" stroke="#030317"/>
    <path d="M7.338 5.568H1.441a.441.441 0 0 1 0-.882h5.897a.441.441 0 0 1 0 .882Z" stroke="#000" stroke-opacity=".2"/>
    <path d="M10.71 8.938a3.816 3.816 0 0 1-3.812-3.811 3.816 3.816 0 0 1 3.812-3.812 3.816 3.816 0 0 1 3.81 3.812c0 2.1-1.71 3.81-3.81 3.81Zm0-6.74a2.932 2.932 0 0 0-2.93 2.929 2.931 2.931 0 0 0 2.93 2.928 2.931 2.931 0 0 0 2.928-2.928 2.932 2.932 0 0 0-2.928-2.93Z" fill="#030317"/>
    <path d="M10.71 8.938a3.816 3.816 0 0 1-3.812-3.811 3.816 3.816 0 0 1 3.812-3.812 3.816 3.816 0 0 1 3.81 3.812c0 2.1-1.71 3.81-3.81 3.81Zm0-6.74a2.932 2.932 0 0 0-2.93 2.929 2.931 2.931 0 0 0 2.93 2.928 2.931 2.931 0 0 0 2.928-2.928 2.932 2.932 0 0 0-2.928-2.93Z" fill="#000" fill-opacity=".2"/>
    <path d="M10.71 8.938a3.816 3.816 0 0 1-3.812-3.811 3.816 3.816 0 0 1 3.812-3.812 3.816 3.816 0 0 1 3.81 3.812c0 2.1-1.71 3.81-3.81 3.81Zm0-6.74a2.932 2.932 0 0 0-2.93 2.929 2.931 2.931 0 0 0 2.93 2.928 2.931 2.931 0 0 0 2.928-2.928 2.932 2.932 0 0 0-2.928-2.93Z" stroke="#030317"/>
    <path d="M10.71 8.938a3.816 3.816 0 0 1-3.812-3.811 3.816 3.816 0 0 1 3.812-3.812 3.816 3.816 0 0 1 3.81 3.812c0 2.1-1.71 3.81-3.81 3.81Zm0-6.74a2.932 2.932 0 0 0-2.93 2.929 2.931 2.931 0 0 0 2.93 2.928 2.931 2.931 0 0 0 2.928-2.928 2.932 2.932 0 0 0-2.928-2.93Z" stroke="#000" stroke-opacity=".2"/>
    <path d="M31.559 5.568H17.492a.441.441 0 0 1 0-.882h14.067a.441.441 0 0 1 0 .882Z" fill="#030317"/>
    <path d="M31.559 5.568H17.492a.441.441 0 0 1 0-.882h14.067a.441.441 0 0 1 0 .882Z" fill="#000" fill-opacity=".2"/>
    <path d="M31.559 5.568H17.492a.441.441 0 0 1 0-.882h14.067a.441.441 0 0 1 0 .882Z" stroke="#030317"/>
    <path d="M31.559 5.568H17.492a.441.441 0 0 1 0-.882h14.067a.441.441 0 0 1 0 .882Z" stroke="#000" stroke-opacity=".2"/>
    <path d="M23.344 20.311a3.816 3.816 0 0 1-3.81-3.81c0-2.102 1.71-3.812 3.81-3.812a3.816 3.816 0 0 1 3.811 3.811c0 2.101-1.71 3.811-3.81 3.811Zm0-6.74a2.931 2.931 0 0 0-2.928 2.93 2.931 2.931 0 0 0 2.928 2.928 2.931 2.931 0 0 0 2.929-2.929 2.931 2.931 0 0 0-2.929-2.928Z" fill="#030317"/>
    <path d="M23.344 20.311a3.816 3.816 0 0 1-3.81-3.81c0-2.102 1.71-3.812 3.81-3.812a3.816 3.816 0 0 1 3.811 3.811c0 2.101-1.71 3.811-3.81 3.811Zm0-6.74a2.931 2.931 0 0 0-2.928 2.93 2.931 2.931 0 0 0 2.928 2.928 2.931 2.931 0 0 0 2.929-2.929 2.931 2.931 0 0 0-2.929-2.928Z" fill="#000" fill-opacity=".2"/>
    <path d="M23.344 20.311a3.816 3.816 0 0 1-3.81-3.81c0-2.102 1.71-3.812 3.81-3.812a3.816 3.816 0 0 1 3.811 3.811c0 2.101-1.71 3.811-3.81 3.811Zm0-6.74a2.931 2.931 0 0 0-2.928 2.93 2.931 2.931 0 0 0 2.928 2.928 2.931 2.931 0 0 0 2.929-2.929 2.931 2.931 0 0 0-2.929-2.928Z" stroke="#030317"/>
    <path d="M23.344 20.311a3.816 3.816 0 0 1-3.81-3.81c0-2.102 1.71-3.812 3.81-3.812a3.816 3.816 0 0 1 3.811 3.811c0 2.101-1.71 3.811-3.81 3.811Zm0-6.74a2.931 2.931 0 0 0-2.928 2.93 2.931 2.931 0 0 0 2.928 2.928 2.931 2.931 0 0 0 2.929-2.929 2.931 2.931 0 0 0-2.929-2.928Z" stroke="#000" stroke-opacity=".2"/>
    <path d="M16.561 16.94H1.441a.441.441 0 0 1 0-.881h15.12a.441.441 0 0 1 0 .882Z" fill="#030317"/>
    <path d="M16.561 16.94H1.441a.441.441 0 0 1 0-.881h15.12a.441.441 0 0 1 0 .882Z" fill="#000" fill-opacity=".2"/>
    <path d="M16.561 16.94H1.441a.441.441 0 0 1 0-.881h15.12a.441.441 0 0 1 0 .882Z" stroke="#030317"/>
    <path d="M16.561 16.94H1.441a.441.441 0 0 1 0-.881h15.12a.441.441 0 0 1 0 .882Z" stroke="#000" stroke-opacity=".2"/>
    <path d="M31.559 16.94h-4.844a.441.441 0 0 1 0-.881h4.844a.441.441 0 0 1 0 .882Z" fill="#030317"/>
    <path d="M31.559 16.94h-4.844a.441.441 0 0 1 0-.881h4.844a.441.441 0 0 1 0 .882Z" fill="#000" fill-opacity=".2"/>
    <path d="M31.559 16.94h-4.844a.441.441 0 0 1 0-.881h4.844a.441.441 0 0 1 0 .882Z" stroke="#030317"/>
    <path d="M31.559 16.94h-4.844a.441.441 0 0 1 0-.881h4.844a.441.441 0 0 1 0 .882Z" stroke="#000" stroke-opacity=".2"/>
    <path d="M9.657 31.684a3.816 3.816 0 0 1-3.811-3.812c0-2.1 1.71-3.81 3.81-3.81a3.816 3.816 0 0 1 3.812 3.81 3.816 3.816 0 0 1-3.811 3.812Zm0-6.74a2.931 2.931 0 0 0-2.929 2.928 2.932 2.932 0 0 0 2.929 2.93 2.932 2.932 0 0 0 2.928-2.93 2.931 2.931 0 0 0-2.928-2.928Z" fill="#030317"/>
    <path d="M9.657 31.684a3.816 3.816 0 0 1-3.811-3.812c0-2.1 1.71-3.81 3.81-3.81a3.816 3.816 0 0 1 3.812 3.81 3.816 3.816 0 0 1-3.811 3.812Zm0-6.74a2.931 2.931 0 0 0-2.929 2.928 2.932 2.932 0 0 0 2.929 2.93 2.932 2.932 0 0 0 2.928-2.93 2.931 2.931 0 0 0-2.928-2.928Z" fill="#000" fill-opacity=".2"/>
    <path d="M9.657 31.684a3.816 3.816 0 0 1-3.811-3.812c0-2.1 1.71-3.81 3.81-3.81a3.816 3.816 0 0 1 3.812 3.81 3.816 3.816 0 0 1-3.811 3.812Zm0-6.74a2.931 2.931 0 0 0-2.929 2.928 2.932 2.932 0 0 0 2.929 2.93 2.932 2.932 0 0 0 2.928-2.93 2.931 2.931 0 0 0-2.928-2.928Z" stroke="#030317"/>
    <path d="M9.657 31.684a3.816 3.816 0 0 1-3.811-3.812c0-2.1 1.71-3.81 3.81-3.81a3.816 3.816 0 0 1 3.812 3.81 3.816 3.816 0 0 1-3.811 3.812Zm0-6.74a2.931 2.931 0 0 0-2.929 2.928 2.932 2.932 0 0 0 2.929 2.93 2.932 2.932 0 0 0 2.928-2.93 2.931 2.931 0 0 0-2.928-2.928Z" stroke="#000" stroke-opacity=".2"/>
    <path d="M31.56 28.814H16.44a.941.941 0 0 1 0-1.882h15.12a.941.941 0 0 1 0 1.882Z" fill="#030317"/>
    <path d="M31.56 28.814H16.44a.941.941 0 0 1 0-1.882h15.12a.941.941 0 0 1 0 1.882Z" fill="#000" fill-opacity=".2"/>
    <path d="M6.285 28.814H1.441a.941.941 0 0 1 0-1.882h4.844a.941.941 0 0 1 0 1.882Z" fill="#030317"/>
    <path d="M6.285 28.814H1.441a.941.941 0 0 1 0-1.882h4.844a.941.941 0 0 1 0 1.882Z" fill="#000" fill-opacity=".2"/>
  </g>
  <defs>
    <clipPath id="a">
      <path fill="#fff" transform="translate(.5 .5)" d="M0 0h32v32H0z"/>
    </clipPath>
  </defs>
</svg>
