<svg width="54" height="54" fill="none" xmlns="http://www.w3.org/2000/svg">
  <path d="M13.489 26H1.037A1.044 1.044 0 0 0 0 27.042v22.916A1.044 1.044 0 0 0 1.038 51h12.45a1.044 1.044 0 0 0 1.038-1.042v-2.083l17.722 2.958a7.328 7.328 0 0 0 6.142-1.625L52.71 36.792a3.722 3.722 0 0 0 1.038-4.167 3.958 3.958 0 0 0-2.724-2.364 3.927 3.927 0 0 0-3.502.843l-7.388 5.677a4.162 4.162 0 0 0-1.547-1.793 4.138 4.138 0 0 0-2.27-.655H23.863a5.219 5.219 0 0 0-1.52-3.682 5.177 5.177 0 0 0-3.668-1.526h-4.15v-2.083A1.044 1.044 0 0 0 13.49 26ZM12.45 48.917H2.075V28.083h10.376v20.834Zm6.225-17.709c.826 0 1.618.33 2.201.916.584.586.912 1.38.912 2.21v1.041a1.044 1.044 0 0 0 1.038 1.042h13.488c.55 0 1.078.22 1.468.61a2.088 2.088 0 0 1 0 2.946c-.39.39-.917.61-1.468.61H21.79v2.084h14.526a4.141 4.141 0 0 0 2.672-.992 4.17 4.17 0 0 0 1.406-2.487l8.373-6.47c.345-.302.787-.469 1.245-.468a1.78 1.78 0 0 1 1.712 1.146 1.63 1.63 0 0 1-.415 1.833L37.041 47.625a5.265 5.265 0 0 1-4.44 1.198l-18.075-3.031V31.208h4.15Z" fill="#fff"/>
  <path d="M33.5 32a14.5 14.5 0 1 0 0-29 14.5 14.5 0 0 0 0 29Zm0-26.929a12.428 12.428 0 1 1 0 24.857 12.428 12.428 0 0 1 0-24.857Z" fill="#fff"/>
  <path d="M34.048 25c-1.146 0-2.101-.174-2.865-.523-.764-.364-1.337-.872-1.719-1.526-.382-.669-.573-1.46-.573-2.376 0-.203.007-.4.022-.589.028-.203.07-.4.127-.588H28v-1.613h1.846c.128-.16.269-.305.425-.436.155-.146.318-.284.488-.414.183-.131.375-.255.573-.371.198-.13.403-.247.615-.349H28v-1.613h7.087c.184-.174.319-.37.404-.588.099-.233.148-.494.148-.785 0-.32-.078-.589-.233-.807a1.335 1.335 0 0 0-.637-.501c-.283-.116-.636-.174-1.06-.174-.383 0-.765.036-1.147.109-.367.072-.756.174-1.167.305-.41.13-.849.298-1.315.501l-.955-2.572c.735-.334 1.5-.596 2.291-.785A10.374 10.374 0 0 1 33.963 9c.99 0 1.839.167 2.546.501.722.32 1.28.8 1.677 1.44.396.638.594 1.423.594 2.353 0 .233-.014.458-.043.676-.028.218-.07.429-.127.632h1.082v1.613H37.72a4.475 4.475 0 0 1-.53.502 6.23 6.23 0 0 1-.595.414c-.198.116-.41.232-.636.349a29.34 29.34 0 0 1-.658.305h4.392v1.613h-7.257c-.142.16-.248.341-.318.545-.057.189-.085.4-.085.632 0 .349.078.654.233.916.17.247.418.443.743.588.34.13.75.196 1.23.196.765 0 1.514-.087 2.25-.261a16.409 16.409 0 0 0 2.207-.741v2.746a8.984 8.984 0 0 1-2.1.72 11.83 11.83 0 0 1-2.547.261Z" fill="#fff"/>
</svg>
