<svg width="54" height="54" fill="none" xmlns="http://www.w3.org/2000/svg">
  <path d="M44.498 7.25C39.825 2.574 33.608 0 27 0 20.392 0 14.175 2.576 9.5 7.25c-4.676 4.673-7.25 10.887-7.25 17.5 0 6.613 2.574 12.825 7.313 17.561l8.869 8.197A12.198 12.198 0 0 0 27 54c3.222 0 6.264-1.24 8.519-3.45l8.98-8.3c4.675-4.675 7.249-10.89 7.249-17.5 0-6.61-2.574-12.827-7.25-17.5ZM41.38 39.005l-8.962 8.285c-2.912 2.848-7.877 2.895-10.886-.045l-8.853-8.18a20.117 20.117 0 0 1-5.931-14.318 20.116 20.116 0 0 1 5.93-14.32 20.116 20.116 0 0 1 14.32-5.93 20.112 20.112 0 0 1 14.317 5.93 20.113 20.113 0 0 1 5.93 14.32c0 5.411-2.105 10.494-5.865 14.256v.002ZM22.5 17.55v14.4a1.8 1.8 0 1 1-3.6 0v-14.4a1.8 1.8 0 1 1 3.6 0Zm9-1.8h-3.825a1.8 1.8 0 0 0-1.8 1.8v14.4a1.8 1.8 0 1 0 3.6 0V27H31.5a5.624 5.624 0 0 0 5.625-5.625A5.624 5.624 0 0 0 31.5 15.75Zm0 7.65h-2.025v-4.052H31.5a2.025 2.025 0 0 1 0 4.052Z" fill="#3358FF"/>
</svg>
