<svg width="54" height="54" fill="none" xmlns="http://www.w3.org/2000/svg">
  <g clip-path="url(#a)">
    <path d="M49.523 29.256a2 2 0 0 0 1.536-1.945v-6.503a2 2 0 0 0-1.536-1.946l-3.232-.77c-.668-.158-1.2-.651-1.46-1.287-.03-.075-.06-.149-.092-.223-.267-.633-.24-1.359.12-1.944l1.742-2.83a2 2 0 0 0-.29-2.462l-4.598-4.598a2 2 0 0 0-2.462-.29L36.42 6.2c-.585.36-1.31.387-1.944.12a19.726 19.726 0 0 0-.223-.093c-.635-.259-1.129-.791-1.288-1.459l-.769-3.231A2 2 0 0 0 30.251 0h-6.503a2 2 0 0 0-1.945 1.537l-.77 3.231c-.159.668-.652 1.2-1.288 1.46-.074.03-.148.06-.222.092-.633.267-1.36.24-1.945-.12L14.75 4.459a2 2 0 0 0-2.462.289L7.688 9.346a2 2 0 0 0-.289 2.462l1.741 2.83c.36.585.388 1.311.12 1.944l-.092.223c-.26.636-.792 1.129-1.46 1.288l-3.23.77a2 2 0 0 0-1.538 1.945v6.503a2 2 0 0 0 1.537 1.945l3.232.77c.667.159 1.2.652 1.459 1.288l.092.223c.268.633.24 1.359-.12 1.944l-1.737 2.823a2 2 0 0 0 .32 2.493l2.656 2.545c.559.534.747 1.34.566 2.093a14.825 14.825 0 0 0-.412 3.475V52a2 2 0 0 0 2 2H41.68a2 2 0 0 0 2-2v-5.09c0-1.155-.135-2.297-.397-3.407-.167-.705-.008-1.46.486-1.99l2.595-2.78a2 2 0 0 0 .241-2.413L44.86 33.48c-.36-.585-.387-1.311-.12-1.944.032-.074.063-.148.093-.223.259-.636.791-1.129 1.46-1.288l3.23-.77Zm-9.05 19.536a2 2 0 0 1-2 2H15.74a2 2 0 0 1-2-2V46.91c0-2.225.634-4.391 1.834-6.265a11.572 11.572 0 0 1 9.789-5.358h3.488c3.982 0 7.642 2.003 9.789 5.358a11.602 11.602 0 0 1 1.833 6.265v1.882ZM27.107 31.945c-4.09 0-7.419-3.327-7.419-7.418 0-4.09 3.328-7.418 7.419-7.418 4.09 0 7.418 3.328 7.418 7.418s-3.328 7.418-7.418 7.418Zm15.76 4.42c.31.503.246 1.151-.157 1.583l-.943 1.01a.27.27 0 0 1-.425-.043 14.828 14.828 0 0 0-4.377-4.428c-1.327-.867-1.692-2.986-.85-4.329a10.562 10.562 0 0 0 1.618-5.63c0-5.86-4.767-10.627-10.626-10.627-5.86 0-10.627 4.767-10.627 10.626 0 2.067.593 3.997 1.618 5.63.842 1.343.477 3.463-.85 4.33a14.831 14.831 0 0 0-4.377 4.428.223.223 0 0 1-.342.044l-1.062-1.017a1.409 1.409 0 0 1-.225-1.756l1.642-2.668a2 2 0 0 0 .144-1.814l-1.316-3.172a2 2 0 0 0-1.384-1.18l-2.643-.63a2 2 0 0 1-1.537-1.945v-1.435a2 2 0 0 1 1.537-1.946l2.643-.63a2 2 0 0 0 1.385-1.179l1.315-3.172a2 2 0 0 0-.144-1.814l-1.425-2.316a2 2 0 0 1 .289-2.462l1.015-1.015a2 2 0 0 1 2.463-.29l2.315 1.426a2 2 0 0 0 1.814.144l3.173-1.316a2 2 0 0 0 1.18-1.384l.629-2.643a2 2 0 0 1 1.945-1.537h1.436a2 2 0 0 1 1.945 1.537l.63 2.643a2 2 0 0 0 1.18 1.384l3.171 1.316a2 2 0 0 0 1.815-.144l2.315-1.425a2 2 0 0 1 2.462.289l1.016 1.015a2 2 0 0 1 .289 2.462l-1.425 2.316a2 2 0 0 0-.145 1.814l1.316 3.172a2 2 0 0 0 1.384 1.18l2.644.629a2 2 0 0 1 1.536 1.946v1.435a2 2 0 0 1-1.536 1.946l-2.644.63a2 2 0 0 0-1.384 1.179l-1.316 3.172a2 2 0 0 0 .145 1.814l1.752 2.847Z" fill="#3358FF"/>
  </g>
  <defs>
    <clipPath id="a">
      <path fill="#fff" d="M0 0h54v54H0z"/>
    </clipPath>
  </defs>
</svg>
