<svg width="123" height="26" viewBox="0 0 123 26" fill="none" xmlns="http://www.w3.org/2000/svg">
<g clip-path="url(#clip0_2020_31436)">
<path d="M95.0492 1.24268H88.3378L115.247 25.1302H121.958L95.0492 1.24268ZM102.824 18.2427L95.0619 25.1302H88.3504L96.1002 18.2427H102.824ZM114.208 8.13018L121.971 1.24268H115.259L107.497 8.13018H114.208ZM17.2853 1.24268L14.5374 5.13018L28.5554 25.1302H34.1019L17.2853 1.24268ZM10.1687 11.3552H15.6644L6.01517 25.1302H0.46875L10.1687 11.3552ZM67.8869 1.24268L65.139 5.13018L79.1571 25.1302H84.7035L67.8869 1.24268ZM60.7703 11.3552H66.2661L56.6168 25.1302H51.0704L60.7703 11.3552ZM45.0807 1.24268L45.0934 15.8677C45.0807 18.2427 43.9537 21.2052 40.1675 21.4552H38.7872V25.1302C38.7872 25.1302 39.9902 25.1302 40.7753 25.1427C42.5988 25.1677 45.2327 24.2927 46.8662 22.5677C49.1582 20.1677 49.4368 17.1052 49.4368 15.6302V1.24268H45.0807Z" fill="black" fill-opacity="0.36"/>
</g>
<defs>
<clipPath id="clip0_2020_31436">
<rect width="121.565" height="25" fill="white" transform="translate(0.46875 0.142578)"/>
</clipPath>
</defs>
</svg>
