<svg width="123" height="26" fill="none" xmlns="http://www.w3.org/2000/svg">
  <g clip-path="url(#a)">
    <path d="M95.05 1.242h-6.712l26.909 23.888h6.711L95.049 1.242Zm7.774 17-7.762 6.888H88.35l7.75-6.888h6.724ZM114.208 8.13l7.763-6.888h-6.712l-7.762 6.888h6.711ZM17.285 1.242 14.537 5.13l14.018 20h5.547L17.285 1.242ZM10.17 11.355h5.495L6.015 25.13H.47l9.7-13.775ZM67.887 1.242 65.139 5.13l14.018 20h5.547L67.887 1.242ZM60.77 11.355h5.496l-9.65 13.775H51.07l9.7-13.775ZM45.08 1.242l.013 14.625c-.012 2.375-1.14 5.338-4.926 5.588h-1.38v3.675s1.203 0 1.988.012c1.824.025 4.458-.85 6.091-2.575 2.292-2.4 2.57-5.462 2.57-6.937V1.242h-4.355Z" fill="#000"/>
  </g>
  <defs>
    <clipPath id="a">
      <path fill="#fff" transform="translate(.469 .143)" d="M0 0h121.565v25H0z"/>
    </clipPath>
  </defs>
</svg>
