<svg aria-hidden="true" style="position:absolute;width:0;height:0;overflow:hidden" xmlns="http://www.w3.org/2000/svg">
  <defs>
    <symbol id="icon-advantages" viewBox="0 0 32 32">
      <path fill="#ffe000" style="fill:var(--color1, #ffe000)" d="m20.81 16.866-.926 2.85h-2.996a1.874 1.874 0 0 0-1.102 3.393l2.424 1.762-.926 2.85a1.876 1.876 0 0 0 2.886 2.097l2.424-1.76 2.424 1.76a1.874 1.874 0 0 0 2.886-2.097l-.926-2.85 2.424-1.762a1.874 1.874 0 0 0-1.102-3.393h-2.996l-.926-2.85a1.875 1.875 0 0 0-3.568 0zm1.784.91 1.051 3.233a.99.99 0 0 0 .94.684h3.401l-2.751 1.999a.989.989 0 0 0-.36 1.105l1.051 3.235-2.751-1.999a.99.99 0 0 0-1.163 0l-2.751 1.999 1.051-3.235a.989.989 0 0 0-.36-1.105l-2.751-1.999h3.401a.989.989 0 0 0 .94-.684l1.051-3.233z"/>
      <path fill="#ffe000" style="fill:var(--color1, #ffe000)" d="M15.341 26.896H4.066a.264.264 0 0 1-.264-.264V24.72c0-1.096.782-2.061 1.987-2.881 2.152-1.469 5.635-2.395 9.551-2.395a.99.99 0 0 0 0-1.978c-4.381 0-8.259 1.096-10.667 2.738-1.837 1.253-2.85 2.844-2.85 4.515v1.913a2.243 2.243 0 0 0 2.242 2.242H15.34a.988.988 0 1 0 0-1.978zM15.341 1.824c-4.004 0-7.253 3.249-7.253 7.253s3.249 7.253 7.253 7.253c4.003 0 7.253-3.249 7.253-7.253s-3.249-7.253-7.253-7.253zm0 1.978c2.912 0 5.275 2.363 5.275 5.275s-2.363 5.275-5.275 5.275c-2.912 0-5.275-2.363-5.275-5.275s2.363-5.275 5.275-5.275z"/>
    </symbol>
    <symbol id="icon-advantages-1" viewBox="0 0 32 32">
      <path fill="#3358ff" style="fill:var(--color2, #3358ff)" d="M27.188 17.564H24.09c-.422 0-.83.058-1.218.163a4.64 4.64 0 0 0-4.134-2.542h-5.476a4.639 4.639 0 0 0-4.134 2.542 4.625 4.625 0 0 0-1.218-.163H4.812A4.642 4.642 0 0 0 .176 22.2v4.952a2.785 2.785 0 0 0 2.782 2.782h26.085a2.785 2.785 0 0 0 2.782-2.782V22.2a4.642 4.642 0 0 0-4.636-4.636zM8.626 19.822v8.258H2.957a.928.928 0 0 1-.927-.927v-4.952a2.785 2.785 0 0 1 2.782-2.782H7.91c.252 0 .495.034.727.097a4.423 4.423 0 0 0-.011.306zm12.893 8.258H10.48v-8.258a2.785 2.785 0 0 1 2.782-2.782h5.476a2.785 2.785 0 0 1 2.782 2.782v8.258zm8.451-.928a.928.928 0 0 1-.927.927h-5.669v-8.258c0-.103-.005-.205-.011-.306.232-.063.476-.097.727-.097h3.098A2.785 2.785 0 0 1 29.97 22.2v4.952zM6.361 7.636c-2.272 0-4.12 1.848-4.12 4.12s1.848 4.12 4.12 4.12c2.271 0 4.12-1.848 4.12-4.12s-1.848-4.12-4.12-4.12zm0 6.385c-1.249 0-2.265-1.016-2.265-2.265s1.016-2.265 2.265-2.265 2.265 1.016 2.265 2.265-1.016 2.265-2.265 2.265zM15.999 2.52c-3.035 0-5.504 2.469-5.504 5.504s2.469 5.504 5.504 5.504c3.035 0 5.504-2.469 5.504-5.504S19.034 2.52 15.999 2.52zm0 9.153c-2.012 0-3.649-1.637-3.649-3.649s1.637-3.649 3.649-3.649 3.649 1.637 3.649 3.649-1.637 3.649-3.649 3.649zM25.639 7.636c-2.271 0-4.12 1.848-4.12 4.12s1.848 4.12 4.12 4.12c2.272 0 4.12-1.848 4.12-4.12s-1.848-4.12-4.12-4.12zm0 6.385c-1.249 0-2.265-1.016-2.265-2.265s1.016-2.265 2.265-2.265 2.265 1.016 2.265 2.265-1.016 2.265-2.265 2.265z"/>
    </symbol>
    <symbol id="icon-advantages-2" viewBox="0 0 32 32">
      <path fill="#ffe000" style="fill:var(--color1, #ffe000)" d="M22.676 2.153A9.18 9.18 0 0 0 16 5.051 9.146 9.146 0 0 0 5.963 2.797a9.146 9.146 0 0 0-5.787 8.505c0 9.109 14.692 18.049 15.33 18.401a.993.993 0 0 0 1.018 0c.608-.351 15.3-9.292 15.3-18.401a9.159 9.159 0 0 0-9.148-9.148zM16 27.69c-2.557-1.632-13.846-9.257-13.846-16.388a7.165 7.165 0 0 1 5.01-6.831 7.167 7.167 0 0 1 8.025 2.712.98.98 0 0 0 .808.419.987.987 0 0 0 .808-.419 7.171 7.171 0 0 1 13.04 4.119c0 7.126-11.29 14.751-13.846 16.388z"/>
    </symbol>
    <symbol id="icon-advantages-3" viewBox="0 0 32 32">
      <path fill="#3358ff" style="fill:var(--color2, #3358ff)" d="M24.273 12.497h-7.728c-.604 0-1.104-.5-1.104-1.104s.501-1.104 1.104-1.104h7.728a1.103 1.103 0 1 1 0 2.208zM8.816 13.615a1.09 1.09 0 0 1-.78-.324l-1.104-1.104c-.427-.427-.427-1.133 0-1.56s1.133-.427 1.56 0l.324.324 2.532-2.532c.427-.427 1.133-.427 1.56 0s.427 1.133 0 1.56l-3.312 3.312a1.104 1.104 0 0 1-.78.324zM24.273 22.801h-7.728c-.604 0-1.104-.5-1.104-1.104s.501-1.104 1.104-1.104h7.728c.604 0 1.104.5 1.104 1.104s-.486 1.104-1.104 1.104zM8.816 23.92a1.09 1.09 0 0 1-.78-.324l-1.104-1.104c-.427-.427-.427-1.134 0-1.56s1.133-.427 1.56 0l.324.324 2.532-2.532c.427-.427 1.133-.427 1.56 0s.427 1.134 0 1.56l-3.312 3.312a1.104 1.104 0 0 1-.78.324z"/>
      <path fill="#3358ff" style="fill:var(--color2, #3358ff)" d="M20.416 31.824h-8.832C3.591 31.824.176 28.409.176 20.416v-8.832C.176 3.591 3.591.176 11.584.176h8.832c7.993 0 11.408 3.415 11.408 11.408v8.832c0 7.993-3.415 11.408-11.408 11.408zm-8.832-29.44c-6.786 0-9.2 2.414-9.2 9.2v8.832c0 6.786 2.414 9.2 9.2 9.2h8.832c6.786 0 9.2-2.414 9.2-9.2v-8.832c0-6.786-2.414-9.2-9.2-9.2h-8.832z"/>
    </symbol>
  </defs>
</svg>
