<svg width="54" height="54" viewBox="0 0 54 54" fill="none" xmlns="http://www.w3.org/2000/svg">
<g clip-path="url(#clip0_144_15725)">
<path d="M42.6195 39.7052H42.9973L43.1005 39.3418C43.7318 37.1186 45.7793 35.4865 48.1992 35.4865C51.1216 35.4865 53.5 37.8649 53.5 40.7873C53.5 43.7097 51.1216 46.0881 48.1992 46.0881C45.7792 46.0881 43.7317 44.4559 43.1005 42.2327L42.9973 41.8693H42.6195H35.4375C34.8399 41.8693 34.3555 41.3848 34.3555 40.7873V33.0295V32.5295H33.8555H28.582H28.082V33.0295V42.5904V42.9681L28.4454 43.0713C30.6686 43.7027 32.3008 45.7501 32.3008 48.1701C32.3008 51.0925 29.9224 53.4709 27 53.4709C24.0776 53.4709 21.6992 51.0925 21.6992 48.1701C21.6992 45.7501 23.3314 43.7026 25.5545 43.0714L25.918 42.9682V42.5904V33.0295V32.5295H25.418H20.1445H19.6445V33.0295V40.7873C19.6445 41.3848 19.1601 41.8693 18.5625 41.8693H11.3805H11.0027L10.8995 42.2327C10.2682 44.4559 8.22075 46.0881 5.80078 46.0881C2.87837 46.0881 0.5 43.7097 0.5 40.7873C0.5 37.8649 2.87837 35.4865 5.80078 35.4865C8.22076 35.4865 10.2683 37.1187 10.8995 39.3418L11.0027 39.7052H11.3805H16.9805H17.4805V39.2052V33.0295V32.5295H16.9805H11.2627C5.32852 32.5295 0.5 27.701 0.5 21.7668C0.5 16.8997 3.76994 12.6852 8.37245 11.3987L8.72553 11.3L8.73758 10.9336C8.92724 5.16495 13.6803 0.529297 19.4944 0.529297C22.2063 0.529297 24.7858 1.54037 26.7527 3.33916L27.0242 3.58737L27.3419 3.40218C29.2086 2.31432 31.3246 1.74409 33.5372 1.74409C39.238 1.74409 44.1621 5.65568 45.5242 11.1098L45.5928 11.3847L45.8639 11.4671C50.3436 12.8284 53.5 17.0098 53.5 21.7668C53.5 27.701 48.6715 32.5295 42.7373 32.5295H37.0195H36.5195V33.0295V39.2052V39.7052H37.0195H42.6195ZM10.0115 13.259L10.0115 13.259C5.82067 13.8719 2.66406 17.5278 2.66406 21.7668C2.66406 26.5086 6.52101 30.3655 11.2627 30.3655H42.7372C47.4789 30.3655 51.3358 26.5086 51.3358 21.7668C51.3358 17.6905 48.4395 14.147 44.4463 13.3386C44.0051 13.2493 43.6653 12.8962 43.593 12.452C42.8062 7.62131 38.599 3.90815 33.5371 3.90815C31.3404 3.90815 29.2536 4.58973 27.5071 5.88061C27.0493 6.21884 26.4079 6.14477 26.0394 5.7112C24.4091 3.7929 22.0226 2.69346 19.4943 2.69346C14.7526 2.69346 10.8957 6.55029 10.8957 11.2919C10.8957 11.558 10.908 11.8259 10.9323 12.0885L10.9323 12.0885C10.9854 12.6615 10.5808 13.1758 10.0115 13.259ZM2.66406 40.7873C2.66406 42.5173 4.07075 43.924 5.80078 43.924C7.53081 43.924 8.9375 42.5173 8.9375 40.7873C8.9375 39.0572 7.53081 37.6506 5.80078 37.6506C4.07075 37.6506 2.66406 39.0572 2.66406 40.7873ZM27 51.3068C28.73 51.3068 30.1367 49.9001 30.1367 48.1701C30.1367 46.4401 28.73 45.0334 27 45.0334C25.27 45.0334 23.8633 46.4401 23.8633 48.1701C23.8633 49.9001 25.27 51.3068 27 51.3068ZM45.0625 40.7873C45.0625 42.5173 46.4692 43.924 48.1992 43.924C49.9292 43.924 51.3359 42.5173 51.3359 40.7873C51.3359 39.0572 49.9292 37.6506 48.1992 37.6506C46.4692 37.6506 45.0625 39.0572 45.0625 40.7873Z" fill="white" stroke="white"/>
</g>
<defs>
<clipPath id="clip0_144_15725">
<rect width="54" height="54" fill="white"/>
</clipPath>
</defs>
</svg>
