<svg width="54" height="54" viewBox="0 0 54 54" fill="none" xmlns="http://www.w3.org/2000/svg">
<g clip-path="url(#clip0_144_5017)">
<path d="M1.77836 17.0521L2.07939 16.7176L1.77836 16.3831C1.20276 15.7435 0.871094 14.8304 0.871094 13.9066V4.66004C0.871094 2.56906 2.57052 0.869629 4.6615 0.869629H49.341C51.4319 0.869629 53.1314 2.56906 53.1314 4.66004V13.8326C53.1314 14.8258 52.8026 15.6663 52.2241 16.3091L51.9231 16.6436L52.2241 16.9781C52.7997 17.6176 53.1314 18.5307 53.1314 19.4546V28.7011C53.1314 30.7921 51.4319 32.4915 49.341 32.4915H28.4807H27.9807V32.9915V42.3861V42.8861H28.4807H31.2177C31.7552 42.8861 32.1971 43.328 32.1971 43.8655V46.6025V47.1025H32.6971H52.1519C52.6895 47.1025 53.1314 47.5444 53.1314 48.082C53.1314 48.6195 52.6895 49.0614 52.1519 49.0614H32.6971H32.1971V49.5614V52.2984C32.1971 52.836 31.7552 53.2778 31.2177 53.2778H22.7848C22.2472 53.2778 21.8053 52.836 21.8053 52.2984V49.5614V49.0614H21.3053H1.85055C1.31299 49.0614 0.871094 48.6195 0.871094 48.082C0.871094 47.5444 1.31299 47.1025 1.85055 47.1025H21.3053H21.8053V46.6025V43.8655C21.8053 43.328 22.2472 42.8861 22.7848 42.8861H25.5218H26.0218V42.3861V33.0655V32.5655H25.5218H4.6615C2.57052 32.5655 0.871094 30.8661 0.871094 28.7751V19.5285C0.871094 18.5354 1.19985 17.6948 1.77836 17.0521ZM30.2382 45.197V44.697H29.7382H24.2642H23.7642V45.197V50.671V51.171H24.2642H29.7382H30.2382V50.671V45.197ZM36.5259 3.32853V2.82853H36.0259H4.6615C3.64564 2.82853 2.83 3.64417 2.83 4.66004V13.8326C2.83 14.8485 3.64564 15.6642 4.6615 15.6642H49.341C50.3568 15.6642 51.1725 14.8485 51.1725 13.8326V4.66004C51.1725 3.64417 50.3568 2.82853 49.341 2.82853H44.9026H44.4026V3.32853V9.24634C44.4026 9.7839 43.9607 10.2258 43.4231 10.2258C42.8856 10.2258 42.4437 9.7839 42.4437 9.24634V3.32853V2.82853H41.9437H38.9848H38.4848V3.32853V6.28744C38.4848 6.82499 38.0429 7.26689 37.5053 7.26689C36.9678 7.26689 36.5259 6.82499 36.5259 6.28744V3.32853ZM49.341 30.5326C50.3568 30.5326 51.1725 29.717 51.1725 28.7011V19.4546C51.1725 18.4387 50.3568 17.6231 49.341 17.6231H4.6615C3.64564 17.6231 2.83 18.4387 2.83 19.4546V28.7011C2.83 29.717 3.64564 30.5326 4.6615 30.5326H49.341Z" fill="white" stroke="white"/>
<path d="M8.73065 7.76709H7.91695C7.10325 7.76709 6.4375 8.43284 6.4375 9.24654C6.4375 10.0602 7.10325 10.726 7.91695 10.726H8.73065C9.54435 10.726 10.2101 10.0602 10.2101 9.24654C10.2101 8.43284 9.54435 7.76709 8.73065 7.76709Z" fill="white"/>
<path d="M15.0158 7.76709H14.2021C13.3884 7.76709 12.7227 8.43284 12.7227 9.24654C12.7227 10.0602 13.3884 10.726 14.2021 10.726H15.0158C15.8295 10.726 16.4953 10.0602 16.4953 9.24654C16.4953 8.43284 15.8295 7.76709 15.0158 7.76709Z" fill="white"/>
<path d="M21.3049 7.76709H20.4912C19.6775 7.76709 19.0117 8.43284 19.0117 9.24654C19.0117 10.0602 19.6775 10.726 20.4912 10.726H21.3049C22.1186 10.726 22.7843 10.0602 22.7843 9.24654C22.7843 8.43284 22.1186 7.76709 21.3049 7.76709Z" fill="white"/>
<path d="M8.73065 22.5615H7.91695C7.10325 22.5615 6.4375 23.2273 6.4375 24.041C6.4375 24.8547 7.10325 25.5204 7.91695 25.5204H8.73065C9.54435 25.5204 10.2101 24.8547 10.2101 24.041C10.2101 23.2273 9.54435 22.5615 8.73065 22.5615Z" fill="white"/>
<path d="M15.0158 22.5615H14.2021C13.3884 22.5615 12.7227 23.2273 12.7227 24.041C12.7227 24.8547 13.3884 25.5204 14.2021 25.5204H15.0158C15.8295 25.5204 16.4953 24.8547 16.4953 24.041C16.4953 23.2273 15.8295 22.5615 15.0158 22.5615Z" fill="white"/>
<path d="M21.3049 22.5615H20.4912C19.6775 22.5615 19.0117 23.2273 19.0117 24.041C19.0117 24.8547 19.6775 25.5204 20.4912 25.5204H21.3049C22.1186 25.5204 22.7843 24.8547 22.7843 24.041C22.7843 23.2273 22.1186 22.5615 21.3049 22.5615Z" fill="white"/>
</g>
<defs>
<clipPath id="clip0_144_5017">
<rect width="54" height="54" fill="white"/>
</clipPath>
</defs>
</svg>
