<svg width="54" height="54" viewBox="0 0 54 54" fill="none" xmlns="http://www.w3.org/2000/svg">
<g clip-path="url(#clip0_144_19672)">
<path d="M11.5396 9.39617H1.58822C0.710962 9.39617 0 8.68473 0 7.80795C0 6.93116 0.710962 6.21973 1.58822 6.21973H11.5396C12.4168 6.21973 13.1278 6.93116 13.1278 7.80795C13.1278 8.68473 12.4168 9.39617 11.5396 9.39617Z" fill="white"/>
<path d="M17.228 15.0825C13.2165 15.0825 9.95312 11.8192 9.95312 7.80804C9.95312 3.79609 13.2165 0.532715 17.228 0.532715C21.2395 0.532715 24.5028 3.79609 24.5028 7.80804C24.5028 11.8193 21.2395 15.0825 17.228 15.0825ZM17.228 3.70928C14.9681 3.70928 13.1296 5.54813 13.1296 7.80804C13.1296 10.068 14.9681 11.906 17.228 11.906C19.4879 11.906 21.3264 10.068 21.3264 7.80804C21.3264 5.54813 19.4879 3.70928 17.228 3.70928Z" fill="white"/>
<path d="M52.4117 9.39617H28.6742C27.7969 9.39617 27.0859 8.68473 27.0859 7.80795C27.0859 6.93116 27.7969 6.21973 28.6742 6.21973H52.4116C53.2889 6.21973 53.9998 6.93116 53.9998 7.80795C53.9998 8.68473 53.289 9.39617 52.4117 9.39617Z" fill="white"/>
<path d="M38.5483 34.2746C34.5367 34.2746 31.2734 31.0112 31.2734 27.0001C31.2734 22.989 34.5368 19.7256 38.5483 19.7256C42.5598 19.7256 45.8231 22.989 45.8231 27.0001C45.8231 31.0112 42.5599 34.2746 38.5483 34.2746ZM38.5483 22.9021C36.2884 22.9021 34.4499 24.7402 34.4499 27.0001C34.4499 29.26 36.2884 31.098 38.5483 31.098C40.8082 31.098 42.6467 29.26 42.6467 27.0001C42.6467 24.7402 40.8082 22.9021 38.5483 22.9021Z" fill="white"/>
<path d="M27.103 28.5886H1.58822C0.710962 28.5886 0 27.8771 0 27.0003C0 26.1235 0.710962 25.4121 1.58822 25.4121H27.103C27.9803 25.4121 28.6912 26.1235 28.6912 27.0003C28.6912 27.8771 27.9803 28.5886 27.103 28.5886Z" fill="white"/>
<path d="M52.4111 28.5886H44.2367C43.3594 28.5886 42.6484 27.8771 42.6484 27.0003C42.6484 26.1235 43.3594 25.4121 44.2367 25.4121H52.4111C53.2884 25.4121 53.9993 26.1235 53.9993 27.0003C53.9993 27.8771 53.2884 28.5886 52.4111 28.5886Z" fill="white"/>
<path d="M15.4506 53.4673C11.4392 53.4673 8.17578 50.2039 8.17578 46.192C8.17578 42.1809 11.4392 38.9175 15.4506 38.9175C19.4621 38.9175 22.7255 42.1809 22.7255 46.192C22.7255 50.2039 19.4621 53.4673 15.4506 53.4673ZM15.4506 42.094C13.1907 42.094 11.3522 43.9321 11.3522 46.192C11.3522 48.4519 13.1907 50.2907 15.4506 50.2907C17.7106 50.2907 19.549 48.4519 19.549 46.192C19.549 43.9321 17.7106 42.094 15.4506 42.094Z" fill="white"/>
<path d="M52.4116 47.7804H26.8968C26.0196 47.7804 25.3086 47.069 25.3086 46.1922C25.3086 45.3154 26.0196 44.604 26.8968 44.604H52.4116C53.2889 44.604 53.9998 45.3154 53.9998 46.1922C53.9998 47.069 53.2889 47.7804 52.4116 47.7804Z" fill="white"/>
<path d="M9.76269 47.7806H1.58822C0.710962 47.7806 0 47.0691 0 46.1922C0 45.3154 0.710962 44.604 1.58822 44.604H9.76269C10.6399 44.604 11.3509 45.3154 11.3509 46.1922C11.3509 47.0691 10.6399 47.7806 9.76269 47.7806Z" fill="white"/>
</g>
<defs>
<clipPath id="clip0_144_19672">
<rect width="54" height="54" fill="white"/>
</clipPath>
</defs>
</svg>
