<svg width="54" height="54" viewBox="0 0 54 54" fill="none" xmlns="http://www.w3.org/2000/svg">
<g clip-path="url(#clip0_144_15938)">
<path d="M26.4883 21.8597L28.223 20.125C30.7573 17.5907 32.1823 14.1268 32.0527 10.5451C31.9912 8.84469 32.3401 6.8488 33.6534 4.88202C35.8049 1.98405 39.2803 1.05825 42.999 1.85591C44.6902 2.21872 45.8623 2.5752 46.6391 2.85649L39.8439 9.65173L42.0954 11.9033L42.0893 11.9122L42.0983 11.9061L44.3498 14.1577L51.1451 7.36243C51.4264 8.13931 51.7829 9.31128 52.1457 11.0026C52.9433 14.7213 52.0175 18.1967 49.1196 20.3482C47.1528 21.6615 45.1569 22.0104 43.4565 21.9489C39.8748 21.8192 36.4109 23.2442 33.8766 25.7786L32.4368 27.2184" stroke="white" stroke-width="3" stroke-miterlimit="10" stroke-linecap="round" stroke-linejoin="round"/>
<path d="M21.6554 26.6914L10.8414 37.5053C9.83298 38.5137 8.52085 39.1447 7.11221 39.3675C5.79005 39.5765 4.5201 40.1891 3.50317 41.2059C0.941651 43.7674 0.941651 47.9354 3.50317 50.497C6.06469 53.0585 10.2327 53.0585 12.7942 50.497C13.8112 49.48 14.4236 48.2101 14.6327 46.8879C14.8554 45.4793 15.4864 44.1672 16.4948 43.1588L27.2266 32.427" stroke="white" stroke-width="3" stroke-miterlimit="10" stroke-linecap="round" stroke-linejoin="round"/>
<circle cx="8.21875" cy="45.897" r="1.58203" fill="black" stroke="white" stroke-width="3" stroke-miterlimit="10" stroke-linecap="round" stroke-linejoin="round"/>
<path d="M36.4379 32.325L32.325 36.4379C31.0827 37.6802 29.0685 37.6802 27.8261 36.4379L27.8106 36.4224C26.5683 35.1801 26.5683 33.1658 27.8106 31.9235L31.9235 27.8106C33.1658 26.5683 35.1801 26.5683 36.4224 27.8106L36.4379 27.8261C37.6802 29.0685 37.6802 31.0827 36.4379 32.325Z" stroke="white" stroke-width="3" stroke-miterlimit="10" stroke-linecap="round" stroke-linejoin="round"/>
<path d="M31.2305 37.534C31.2456 39.1126 31.8541 40.6865 33.0586 41.8909L41.7562 50.5886C44.1956 53.028 48.1506 53.028 50.5901 50.5886C53.0295 48.1492 53.0295 44.1942 50.5901 41.7548L41.8924 33.0571C40.688 31.8526 39.114 31.2441 37.5355 31.229L31.2305 37.534Z" stroke="white" stroke-width="3" stroke-miterlimit="10" stroke-linecap="round" stroke-linejoin="round"/>
<path d="M14.33 9.7022L9.70312 14.3291L27.5542 32.1802L32.1811 27.5533L14.33 9.7022Z" stroke="white" stroke-width="3" stroke-miterlimit="10" stroke-linecap="round" stroke-linejoin="round"/>
<path d="M12.6123 5.29105L5.90963 1.58203L1.58203 5.90963L5.29105 12.6123L9.70218 14.3291L14.3291 9.70218L12.6123 5.29105Z" stroke="white" stroke-width="3" stroke-miterlimit="10" stroke-linecap="round" stroke-linejoin="round"/>
</g>
<defs>
<clipPath id="clip0_144_15938">
<rect width="54" height="54" fill="white"/>
</clipPath>
</defs>
</svg>
