<svg width="33" height="33" fill="none" xmlns="http://www.w3.org/2000/svg">
  <g clip-path="url(#a)">
    <path d="M25.42 3.225a.334.334 0 1 1 .473-.471 15.566 15.566 0 0 1 4.587 11.079.334.334 0 0 1-.667 0c0-4.006-1.56-7.775-4.392-10.608Z" fill="#000"/>
    <path d="M25.42 3.225a.334.334 0 1 1 .473-.471 15.566 15.566 0 0 1 4.587 11.079.334.334 0 0 1-.667 0c0-4.006-1.56-7.775-4.392-10.608Z" stroke="#030317" stroke-width="1.333"/>
    <path d="M25.42 3.225a.334.334 0 1 1 .473-.471 15.566 15.566 0 0 1 4.587 11.079.334.334 0 0 1-.667 0c0-4.006-1.56-7.775-4.392-10.608Z" stroke="#000" stroke-opacity=".2" stroke-width="1.333"/>
    <path d="M7.068 2.756a.334.334 0 0 1 .472.472 14.9 14.9 0 0 0-4.394 10.606.334.334 0 0 1-.667 0c0-4.186 1.629-8.12 4.589-11.078Z" fill="#000"/>
    <path d="M7.068 2.756a.334.334 0 0 1 .472.472 14.9 14.9 0 0 0-4.394 10.606.334.334 0 0 1-.667 0c0-4.186 1.629-8.12 4.589-11.078Z" stroke="#030317" stroke-width="1.333"/>
    <path d="M7.068 2.756a.334.334 0 0 1 .472.472 14.9 14.9 0 0 0-4.394 10.606.334.334 0 0 1-.667 0c0-4.186 1.629-8.12 4.589-11.078Z" stroke="#000" stroke-opacity=".2" stroke-width="1.333"/>
    <path d="M16.479 31.833a4.339 4.339 0 0 1-4.334-4.333.334.334 0 0 1 .667 0 3.67 3.67 0 0 0 3.667 3.667 3.67 3.67 0 0 0 3.666-3.667.334.334 0 0 1 .667 0 4.339 4.339 0 0 1-4.334 4.333Z" fill="#000"/>
    <path d="M16.479 31.833a4.339 4.339 0 0 1-4.334-4.333.334.334 0 0 1 .667 0 3.67 3.67 0 0 0 3.667 3.667 3.67 3.67 0 0 0 3.666-3.667.334.334 0 0 1 .667 0 4.339 4.339 0 0 1-4.334 4.333Z" stroke="#030317" stroke-width="1.333"/>
    <path d="M16.479 31.833a4.339 4.339 0 0 1-4.334-4.333.334.334 0 0 1 .667 0 3.67 3.67 0 0 0 3.667 3.667 3.67 3.67 0 0 0 3.666-3.667.334.334 0 0 1 .667 0 4.339 4.339 0 0 1-4.334 4.333Z" stroke="#000" stroke-opacity=".2" stroke-width="1.333"/>
    <path d="m4.836 25.401-.004.004a1 1 0 0 0 .648 1.762h22c.55 0 1-.45 1-1a.995.995 0 0 0-.354-.763 10.264 10.264 0 0 1-3.646-7.853v-3.718c0-4.412-3.588-8-8-8s-8 3.588-8 8v3.718c0 3.031-1.328 5.893-3.644 7.85Zm22.644 2.432h-22a1.67 1.67 0 0 1-1.085-2.932 9.602 9.602 0 0 0 3.418-7.35v-3.718c0-4.778 3.888-8.666 8.667-8.666 4.778 0 8.667 3.888 8.667 8.666v3.718a9.6 9.6 0 0 0 3.405 7.341 1.667 1.667 0 0 1-1.072 2.941Z" fill="#000"/>
    <path d="m4.836 25.401-.004.004a1 1 0 0 0 .648 1.762h22c.55 0 1-.45 1-1a.995.995 0 0 0-.354-.763 10.264 10.264 0 0 1-3.646-7.853v-3.718c0-4.412-3.588-8-8-8s-8 3.588-8 8v3.718c0 3.031-1.328 5.893-3.644 7.85Zm22.644 2.432h-22a1.67 1.67 0 0 1-1.085-2.932 9.602 9.602 0 0 0 3.418-7.35v-3.718c0-4.778 3.888-8.666 8.667-8.666 4.778 0 8.667 3.888 8.667 8.666v3.718a9.6 9.6 0 0 0 3.405 7.341 1.667 1.667 0 0 1-1.072 2.941Z" stroke="#030317" stroke-width="1.333"/>
    <path d="m4.836 25.401-.004.004a1 1 0 0 0 .648 1.762h22c.55 0 1-.45 1-1a.995.995 0 0 0-.354-.763 10.264 10.264 0 0 1-3.646-7.853v-3.718c0-4.412-3.588-8-8-8s-8 3.588-8 8v3.718c0 3.031-1.328 5.893-3.644 7.85Zm22.644 2.432h-22a1.67 1.67 0 0 1-1.085-2.932 9.602 9.602 0 0 0 3.418-7.35v-3.718c0-4.778 3.888-8.666 8.667-8.666 4.778 0 8.667 3.888 8.667 8.666v3.718a9.6 9.6 0 0 0 3.405 7.341 1.667 1.667 0 0 1-1.072 2.941Z" stroke="#000" stroke-opacity=".2" stroke-width="1.333"/>
    <path d="M16.479 5.833a.334.334 0 0 1-.334-.333v-4a.334.334 0 0 1 .667 0v4c0 .184-.15.333-.334.333Z" fill="#000"/>
    <path d="M16.479 5.833a.334.334 0 0 1-.334-.333v-4a.334.334 0 0 1 .667 0v4c0 .184-.15.333-.334.333Z" stroke="#030317" stroke-width="1.333"/>
    <path d="M16.479 5.833a.334.334 0 0 1-.334-.333v-4a.334.334 0 0 1 .667 0v4c0 .184-.15.333-.334.333Z" stroke="#000" stroke-opacity=".2" stroke-width="1.333"/>
  </g>
  <defs>
    <clipPath id="a">
      <path fill="#fff" transform="translate(.5 .5)" d="M0 0h32v32H0z"/>
    </clipPath>
  </defs>
</svg>
