<svg width="33" height="33" fill="none" xmlns="http://www.w3.org/2000/svg">
  <g clip-path="url(#a)">
    <mask id="b" fill="#fff">
      <path d="m16.355 17.805 6 4.5a1 1 0 1 0 1.2-1.6L18 16.5V8a1 1 0 1 0-2 0v9c0 .332.139.631.355.805Z"/>
    </mask>
    <path d="m16.355 17.805 6 4.5a1 1 0 1 0 1.2-1.6L18 16.5V8a1 1 0 1 0-2 0v9c0 .332.139.631.355.805Z" fill="#000"/>
    <path d="m16.355 17.805-5.019 6.23.108.087.111.083 4.8-6.4Zm6 4.5-4.8 6.4 4.8-6.4Zm1.2-1.6-4.828 6.379.014.01.014.011 4.8-6.4ZM18 16.5h-8v3.978l3.172 2.4L18 16.5Zm-6.445 7.705 6 4.5 9.6-12.8-6-4.5-9.6 12.8Zm6 4.5a9 9 0 0 0 12.6-1.8l-12.8-9.6a7 7 0 0 1 9.8-1.4l-9.6 12.8Zm12.6-1.8a9 9 0 0 0-1.8-12.6l-9.6 12.8a7 7 0 0 1-1.4-9.8l12.8 9.6Zm-1.772-12.579-5.555-4.205-9.656 12.758 5.555 4.205 9.656-12.758ZM26 16.5V8H10v8.5h16ZM26 8a9 9 0 0 0-9-9v16a7 7 0 0 1-7-7h16Zm-9-9a9 9 0 0 0-9 9h16a7 7 0 0 1-7 7V-1ZM8 8v9h16V8H8Zm0 9c0 2.442 1.006 5.158 3.336 7.035l10.038-12.46A6.97 6.97 0 0 1 24 17H8Z" fill="#030317" mask="url(#b)"/>
    <path d="m16.355 17.805-5.019 6.23.108.087.111.083 4.8-6.4Zm6 4.5-4.8 6.4 4.8-6.4Zm1.2-1.6-4.828 6.379.014.01.014.011 4.8-6.4ZM18 16.5h-8v3.978l3.172 2.4L18 16.5Zm-6.445 7.705 6 4.5 9.6-12.8-6-4.5-9.6 12.8Zm6 4.5a9 9 0 0 0 12.6-1.8l-12.8-9.6a7 7 0 0 1 9.8-1.4l-9.6 12.8Zm12.6-1.8a9 9 0 0 0-1.8-12.6l-9.6 12.8a7 7 0 0 1-1.4-9.8l12.8 9.6Zm-1.772-12.579-5.555-4.205-9.656 12.758 5.555 4.205 9.656-12.758ZM26 16.5V8H10v8.5h16ZM26 8a9 9 0 0 0-9-9v16a7 7 0 0 1-7-7h16Zm-9-9a9 9 0 0 0-9 9h16a7 7 0 0 1-7 7V-1ZM8 8v9h16V8H8Zm0 9c0 2.442 1.006 5.158 3.336 7.035l10.038-12.46A6.97 6.97 0 0 1 24 17H8Z" fill="#000" fill-opacity=".2" mask="url(#b)"/>
    <mask id="c" fill="#fff">
      <path d="M17.5 1.5A15 15 0 0 0 2.71 14l-.38-.565a1.001 1.001 0 1 0-1.66 1.12l2 3A1 1 0 0 0 3.4 18h.1a.998.998 0 0 0 .705-.295l2.5-2.5A1.001 1.001 0 0 0 5.29 13.79l-.62.625C5.82 7.328 12.5 2.517 19.586 3.669c7.087 1.151 11.899 7.829 10.747 14.916A13 13 0 0 1 17.5 29.5a12.305 12.305 0 0 1-10.185-5.08 1 1 0 1 0-1.63 1.16A14.285 14.285 0 0 0 17.5 31.5c8.284 0 15-6.715 15-15 0-8.284-6.716-15-15-15Z"/>
    </mask>
    <path d="M17.5 1.5A15 15 0 0 0 2.71 14l-.38-.565a1.001 1.001 0 1 0-1.66 1.12l2 3A1 1 0 0 0 3.4 18h.1a.998.998 0 0 0 .705-.295l2.5-2.5A1.001 1.001 0 0 0 5.29 13.79l-.62.625C5.82 7.328 12.5 2.517 19.586 3.669c7.087 1.151 11.899 7.829 10.747 14.916A13 13 0 0 1 17.5 29.5a12.305 12.305 0 0 1-10.185-5.08 1 1 0 1 0-1.63 1.16A14.285 14.285 0 0 0 17.5 31.5c8.284 0 15-6.715 15-15 0-8.284-6.716-15-15-15Z" fill="#000"/>
    <path d="m2.71 14-6.639 4.465 11.186 16.63 3.34-19.762L2.71 14Zm-.38-.565L8.968 8.97l-.008-.01-6.63 4.475Zm-1.66 1.12 6.656-4.438-.013-.019-.013-.019-6.63 4.476Zm2 3 6.683-4.397-.014-.02-.013-.02-6.656 4.437ZM3.4 18l-.843 7.956.42.044H3.4v-8Zm.1 0v8h.03l-.03-8Zm.705-.295-5.657-5.657-.012.011-.01.012 5.679 5.634ZM5.29 13.79-.367 8.133l-.012.012-.011.01 5.68 5.635Zm-.62.625-7.897-1.283L-7.23 37.77l17.579-17.72-5.68-5.635Zm25.663 4.17 7.897 1.283-7.897-1.283ZM17.5 29.5v-8h-.073l-.073.001.146 7.999ZM7.315 24.42.798 29.061l.02.028.02.027 6.477-4.696Zm-1.63 1.16-6.517 4.641.015.021.016.021 6.486-4.683ZM17.5 31.5v-8h-.066l-.066.001.132 7.999Zm0-38C6.276-6.5-3.308 1.6-5.18 12.667l15.777 2.666A7 7 0 0 1 17.5 9.5v-16ZM9.348 9.535l-.38-.565L-4.31 17.9l.38.565 13.277-8.93ZM8.96 8.96C6.181 4.842.588 3.75-3.536 6.534l8.951 13.262A7 7 0 0 1-4.3 17.91L8.96 8.959ZM-3.536 6.534c-4.117 2.78-5.21 8.372-2.425 12.497L7.3 10.079a6.999 6.999 0 0 1-1.885 9.717L-3.536 6.534Zm-2.45 12.459 2 3 13.312-8.876-2-3-13.313 8.876Zm1.973 2.96a9 9 0 0 0 6.57 4.003l1.685-15.912a7 7 0 0 1 5.11 3.114l-13.365 8.794ZM3.4 26h.1V10h-.1v16Zm.13 0a8.998 8.998 0 0 0 6.354-2.66L-1.475 12.07A7.002 7.002 0 0 1 3.47 10l.06 16Zm6.331-2.638 2.5-2.5L1.048 9.548l-2.5 2.5L9.86 23.362Zm2.5-2.5a9.001 9.001 0 0 0 0-12.729L1.048 19.447a6.999 6.999 0 0 1 0-9.899L12.36 20.862Zm0-12.729a9.001 9.001 0 0 0-12.728 0l11.313 11.314a7 7 0 0 1-9.898 0L12.36 8.133ZM-.39 8.156l-.62.625 11.359 11.268.62-.625L-.39 8.156Zm12.956 7.542a5 5 0 0 1 5.737-4.133l2.566-15.793C9.422-6.088-1.367 1.684-3.227 13.132l15.793 2.566Zm5.737-4.133a5 5 0 0 1 4.134 5.737l15.793 2.566C40.09 8.419 32.316-2.368 20.87-4.228l-2.567 15.793Zm4.134 5.737A5 5 0 0 1 17.5 21.5l-.003 16c10.3.002 19.08-7.466 20.732-17.632l-15.793-2.566Zm-5.083 4.2a4.305 4.305 0 0 1-3.563-1.778L.838 29.116A20.305 20.305 0 0 0 17.645 37.5l-.29-15.998Zm-3.523-1.723c-2.88-4.042-8.497-4.998-12.552-2.11L10.56 30.7a7 7 0 0 1-9.762-1.64l13.033-9.282Zm-12.552-2.11c-4.043 2.879-4.999 8.497-2.11 12.552L12.2 20.939a7 7 0 0 1-1.64 9.762L1.278 17.67Zm-2.08 12.595a22.285 22.285 0 0 0 18.432 9.235L17.369 23.5a6.286 6.286 0 0 1-5.199-2.605L-.8 30.264Zm18.3 9.236c12.703 0 23-10.297 23-23h-16a7 7 0 0 1-7 7v16Zm23-23c0-12.703-10.297-23-23-23v16a7 7 0 0 1 7 7h16Z" fill="#030317" mask="url(#c)"/>
    <path d="m2.71 14-6.639 4.465 11.186 16.63 3.34-19.762L2.71 14Zm-.38-.565L8.968 8.97l-.008-.01-6.63 4.475Zm-1.66 1.12 6.656-4.438-.013-.019-.013-.019-6.63 4.476Zm2 3 6.683-4.397-.014-.02-.013-.02-6.656 4.437ZM3.4 18l-.843 7.956.42.044H3.4v-8Zm.1 0v8h.03l-.03-8Zm.705-.295-5.657-5.657-.012.011-.01.012 5.679 5.634ZM5.29 13.79-.367 8.133l-.012.012-.011.01 5.68 5.635Zm-.62.625-7.897-1.283L-7.23 37.77l17.579-17.72-5.68-5.635Zm25.663 4.17 7.897 1.283-7.897-1.283ZM17.5 29.5v-8h-.073l-.073.001.146 7.999ZM7.315 24.42.798 29.061l.02.028.02.027 6.477-4.696Zm-1.63 1.16-6.517 4.641.015.021.016.021 6.486-4.683ZM17.5 31.5v-8h-.066l-.066.001.132 7.999Zm0-38C6.276-6.5-3.308 1.6-5.18 12.667l15.777 2.666A7 7 0 0 1 17.5 9.5v-16ZM9.348 9.535l-.38-.565L-4.31 17.9l.38.565 13.277-8.93ZM8.96 8.96C6.181 4.842.588 3.75-3.536 6.534l8.951 13.262A7 7 0 0 1-4.3 17.91L8.96 8.959ZM-3.536 6.534c-4.117 2.78-5.21 8.372-2.425 12.497L7.3 10.079a6.999 6.999 0 0 1-1.885 9.717L-3.536 6.534Zm-2.45 12.459 2 3 13.312-8.876-2-3-13.313 8.876Zm1.973 2.96a9 9 0 0 0 6.57 4.003l1.685-15.912a7 7 0 0 1 5.11 3.114l-13.365 8.794ZM3.4 26h.1V10h-.1v16Zm.13 0a8.998 8.998 0 0 0 6.354-2.66L-1.475 12.07A7.002 7.002 0 0 1 3.47 10l.06 16Zm6.331-2.638 2.5-2.5L1.048 9.548l-2.5 2.5L9.86 23.362Zm2.5-2.5a9.001 9.001 0 0 0 0-12.729L1.048 19.447a6.999 6.999 0 0 1 0-9.899L12.36 20.862Zm0-12.729a9.001 9.001 0 0 0-12.728 0l11.313 11.314a7 7 0 0 1-9.898 0L12.36 8.133ZM-.39 8.156l-.62.625 11.359 11.268.62-.625L-.39 8.156Zm12.956 7.542a5 5 0 0 1 5.737-4.133l2.566-15.793C9.422-6.088-1.367 1.684-3.227 13.132l15.793 2.566Zm5.737-4.133a5 5 0 0 1 4.134 5.737l15.793 2.566C40.09 8.419 32.316-2.368 20.87-4.228l-2.567 15.793Zm4.134 5.737A5 5 0 0 1 17.5 21.5l-.003 16c10.3.002 19.08-7.466 20.732-17.632l-15.793-2.566Zm-5.083 4.2a4.305 4.305 0 0 1-3.563-1.778L.838 29.116A20.305 20.305 0 0 0 17.645 37.5l-.29-15.998Zm-3.523-1.723c-2.88-4.042-8.497-4.998-12.552-2.11L10.56 30.7a7 7 0 0 1-9.762-1.64l13.033-9.282Zm-12.552-2.11c-4.043 2.879-4.999 8.497-2.11 12.552L12.2 20.939a7 7 0 0 1-1.64 9.762L1.278 17.67Zm-2.08 12.595a22.285 22.285 0 0 0 18.432 9.235L17.369 23.5a6.286 6.286 0 0 1-5.199-2.605L-.8 30.264Zm18.3 9.236c12.703 0 23-10.297 23-23h-16a7 7 0 0 1-7 7v16Zm23-23c0-12.703-10.297-23-23-23v16a7 7 0 0 1 7 7h16Z" fill="#000" fill-opacity=".2" mask="url(#c)"/>
  </g>
  <defs>
    <clipPath id="a">
      <path fill="#fff" transform="translate(.5 .5)" d="M0 0h32v32H0z"/>
    </clipPath>
  </defs>
</svg>
