<svg width="54" height="54" viewBox="0 0 54 54" fill="none" xmlns="http://www.w3.org/2000/svg">
<g clip-path="url(#clip0_3102_22089)">
<path d="M26.998 6.32715C26.1243 6.32715 25.416 7.03548 25.416 7.90918C25.416 8.78288 26.1243 9.49121 26.998 9.49121C32.2329 9.49121 36.4918 13.7494 36.4918 18.9834C36.4918 19.8571 37.2001 20.5654 38.0738 20.5654C38.9476 20.5654 39.6559 19.8571 39.6559 18.9834C39.6559 12.0047 33.9777 6.32715 26.998 6.32715Z" fill="white"/>
<path d="M22.923 0.424769C15.7754 1.91831 9.97986 7.65834 8.45489 14.8504C7.16722 20.9235 8.754 27.0206 12.8083 31.5784C14.7902 33.8063 15.9267 36.747 15.9267 39.6549V42.819C15.9267 44.9241 17.3049 46.7126 19.2061 47.332C19.8313 51.026 23.0375 53.9986 27.0009 53.9986C30.9633 53.9986 34.1704 51.027 34.7958 47.332C36.697 46.7126 38.0752 44.9241 38.0752 42.8189V39.6548C38.0752 36.7412 39.2155 33.8358 41.2858 31.4737C44.3164 28.0165 45.9853 23.5804 45.9853 18.983C45.9853 7.00549 35.0219 -2.1029 22.923 0.424769ZM27.0009 50.8346C24.9673 50.8346 23.1842 49.4353 22.5258 47.5545H31.476C30.8176 49.4353 29.0346 50.8346 27.0009 50.8346ZM34.9111 42.819C34.9111 43.6913 34.2014 44.401 33.3291 44.401H20.6728C19.8005 44.401 19.0908 43.6913 19.0908 42.819V41.237H34.9111V42.819ZM38.9065 29.3883C36.7001 31.9055 35.3426 34.9409 34.9981 38.0729H19.0041C18.66 34.9392 17.306 31.874 15.1726 29.4755C11.7936 25.6769 10.4732 20.5854 11.5502 15.5067C12.8073 9.57787 17.6377 4.76164 23.5703 3.52207C33.6978 1.40563 42.8213 9.01119 42.8213 18.983C42.8213 22.8128 41.431 26.5081 38.9065 29.3883Z" fill="white"/>
<path d="M4.74609 18.9834H1.58203C0.708328 18.9834 0 19.6917 0 20.5654C0 21.4391 0.708328 22.1475 1.58203 22.1475H4.74609C5.6198 22.1475 6.32812 21.4391 6.32812 20.5654C6.32812 19.6917 5.6198 18.9834 4.74609 18.9834Z" fill="white"/>
<path d="M5.40088 11.0728L3.16358 8.83545C2.54585 8.21761 1.5441 8.21761 0.926268 8.83545C0.308432 9.45328 0.308432 10.4549 0.926268 11.0728L3.16358 13.3101C3.78131 13.9279 4.78305 13.928 5.40088 13.3101C6.01872 12.6922 6.01872 11.6906 5.40088 11.0728Z" fill="white"/>
<path d="M5.40088 27.8198C4.78305 27.202 3.78131 27.202 3.16358 27.8198L0.926268 30.0571C0.308432 30.675 0.308432 31.6766 0.926268 32.2944C1.544 32.9123 2.54574 32.9124 3.16358 32.2944L5.40088 30.0571C6.01872 29.4393 6.01872 28.4377 5.40088 27.8198Z" fill="white"/>
<path d="M52.418 18.9834H49.2539C48.3802 18.9834 47.6719 19.6917 47.6719 20.5654C47.6719 21.4391 48.3802 22.1475 49.2539 22.1475H52.418C53.2917 22.1475 54 21.4391 54 20.5654C54 19.6917 53.2917 18.9834 52.418 18.9834Z" fill="white"/>
<path d="M53.0728 8.83545C52.455 8.21761 51.4533 8.21761 50.8355 8.83545L48.5981 11.0728C47.9803 11.6906 47.9803 12.6922 48.5981 13.3101C49.2159 13.9278 50.2176 13.9279 50.8355 13.3101L53.0728 11.0728C53.6906 10.4549 53.6906 9.45328 53.0728 8.83545Z" fill="white"/>
<path d="M53.0728 30.0571L50.8355 27.8198C50.2177 27.202 49.216 27.202 48.5981 27.8198C47.9803 28.4377 47.9803 29.4393 48.5981 30.0571L50.8355 32.2944C51.4532 32.9122 52.4549 32.9123 53.0728 32.2944C53.6906 31.6766 53.6906 30.675 53.0728 30.0571Z" fill="white"/>
</g>
<defs>
<clipPath id="clip0_3102_22089">
<rect width="54" height="54" fill="white"/>
</clipPath>
</defs>
</svg>
