<svg width="54" height="54" viewBox="0 0 54 54" fill="none" xmlns="http://www.w3.org/2000/svg">
<g clip-path="url(#clip0_3102_48543)">
<path d="M52.418 24.6587H48.1815C48.0534 24.6587 47.9265 24.664 47.8004 24.6723C46.8487 23.8232 45.7961 23.122 44.6701 22.5818C47.2381 20.758 48.9165 17.7608 48.9165 14.3788C48.9165 8.83466 44.4061 4.32422 38.8619 4.32422C33.3174 4.32422 28.807 8.83466 28.807 14.3788C28.807 17.0431 29.8493 19.4685 31.5467 21.2693H24.1482C25.8456 19.4685 26.8875 17.0431 26.8875 14.3788C26.8875 8.83466 22.3771 4.32422 16.833 4.32422C11.2889 4.32422 6.77802 8.83466 6.77802 14.3788C6.77802 17.488 8.1969 20.2718 10.4208 22.118C8.8808 22.6935 7.45203 23.5541 6.19917 24.6723C6.0731 24.664 5.94662 24.6587 5.8185 24.6587H1.58203C0.708206 24.6587 0 25.3669 0 26.2407V34.7132C0 35.5871 0.708206 36.2953 1.58203 36.2953H1.6945V48.2697C1.6945 49.1431 2.40271 49.8517 3.27654 49.8517H50.7235C51.5973 49.8517 52.3055 49.1431 52.3055 48.2697V36.2953H52.418C53.2918 36.2953 54 35.5871 54 34.7132V26.2407C54 25.3669 53.2918 24.6587 52.418 24.6587ZM50.8359 33.1312H48.1815C46.7181 33.1312 45.5271 31.9406 45.5271 30.4768C45.5271 29.0134 46.7181 27.8227 48.1815 27.8227H50.8359V33.1312ZM31.971 14.3788C31.971 10.5794 35.0622 7.48828 38.8615 7.48828C42.6609 7.48828 45.7524 10.5794 45.7524 14.3788C45.7524 18.1785 42.6613 21.2693 38.8619 21.2693C35.0622 21.2693 31.971 18.1785 31.971 14.3788ZM16.833 7.48828C20.6323 7.48828 23.7235 10.5794 23.7235 14.3788C23.7235 18.1781 20.6323 21.2693 16.833 21.2693C13.0332 21.2693 9.94208 18.1785 9.94208 14.3788C9.94208 10.5794 13.0332 7.48828 16.833 7.48828ZM3.16406 27.8227H5.8185C7.28188 27.8227 8.47293 29.0134 8.47293 30.4772C8.47293 31.9406 7.28188 33.1312 5.8185 33.1312H3.16406V27.8227ZM4.85857 36.2953H5.8185C9.02664 36.2953 11.637 33.6853 11.637 30.4768C11.637 28.7003 10.8353 27.1079 9.57623 26.0401H9.61372C11.2489 24.994 13.1506 24.4337 15.1385 24.4337H30.2086C27.281 26.9015 25.418 30.5938 25.418 34.7132V46.6876H11.6366V39.7967C11.6366 38.9233 10.9284 38.2147 10.0546 38.2147C9.18114 38.2147 8.47252 38.9233 8.47252 39.7967V46.6872H4.85857V36.2953ZM49.1414 46.6872H45.5271V39.7967C45.5271 38.9233 44.8189 38.2147 43.945 38.2147C43.0716 38.2147 42.363 38.9233 42.363 39.7967V46.6872H28.582V34.7132C28.582 29.0451 33.1934 24.4337 38.8619 24.4337C40.8588 24.4337 42.7684 24.999 44.4077 26.0537C43.1577 27.1219 42.3634 28.7077 42.3634 30.4772C42.3634 33.6853 44.9734 36.2953 48.1819 36.2953H49.1414V46.6872Z" fill="white"/>
</g>
<defs>
<clipPath id="clip0_3102_48543">
<rect width="54" height="54" fill="white"/>
</clipPath>
</defs>
</svg>
