<svg width="54" height="54" viewBox="0 0 54 54" fill="none" xmlns="http://www.w3.org/2000/svg">
<g clip-path="url(#clip0_3102_16069)">
<path d="M27.0353 38.2503C20.832 38.2503 15.7852 33.2034 15.7852 27.0001C15.7852 20.7968 20.832 15.75 27.0353 15.75C33.2382 15.75 38.285 20.7968 38.285 27.0001C38.285 33.2034 33.2382 38.2503 27.0353 38.2503ZM27.0353 19.125C22.6925 19.125 19.1602 22.6578 19.1602 27.0001C19.1602 31.3425 22.6925 34.8753 27.0353 34.8753C31.3776 34.8753 34.91 31.3425 34.91 27.0001C34.91 22.6578 31.3776 19.125 27.0353 19.125Z" fill="white"/>
<path d="M30.7751 54H23.2913C21.4913 54 19.9007 52.722 19.5093 50.9604L18.5621 46.7482C17.0184 46.0936 15.5468 45.2387 14.1654 44.1947L10.0636 45.4904C8.30405 46.0371 6.3916 45.2902 5.50954 43.7151L1.7794 37.2647C0.885802 35.667 1.18738 33.7006 2.50162 32.463L5.68051 29.5403C5.58411 28.683 5.53673 27.8326 5.53673 27C5.53673 26.1674 5.58411 25.317 5.67845 24.4597L2.51727 21.5506C1.18738 20.2994 0.883742 18.333 1.76787 16.7559L5.52107 10.2647C6.3916 8.70735 8.30858 7.96742 10.0571 8.50507L14.1654 9.80324C15.5468 8.75926 17.0184 7.90439 18.5621 7.24933L19.5113 3.03305C19.9007 1.27798 21.4913 0 23.2913 0H30.7751C32.575 0 34.1657 1.27798 34.5571 3.03964L35.5043 7.2518C37.048 7.90645 38.5196 8.76132 39.901 9.8053L44.0027 8.5096C45.7669 7.96742 47.6748 8.70982 48.5569 10.2849L52.2874 16.7353C53.1806 18.333 52.879 20.2994 51.5648 21.537L48.3859 24.4597C48.4802 25.317 48.5276 26.1698 48.5276 27C48.5276 27.8302 48.4802 28.683 48.3859 29.5403L51.5491 32.4473C51.5536 32.4518 51.5582 32.4564 51.5648 32.4609C52.879 33.6981 53.1826 35.6649 52.2985 37.242L48.5453 43.7333C47.6748 45.2902 45.7623 46.035 44.0073 45.4904L39.8985 44.1922C38.5171 45.2362 37.0455 46.0911 35.5022 46.7461L34.5526 50.9624C34.1657 52.722 32.575 54 30.7751 54ZM14.5098 40.6327C14.8967 40.6327 15.2769 40.7653 15.583 41.0175C17.1288 42.2888 18.8138 43.2698 20.5982 43.9269C21.1358 44.1247 21.5342 44.5816 21.6603 45.1394L22.8056 50.2245C22.8571 50.4586 23.0618 50.625 23.2938 50.625H30.7771C31.0091 50.625 31.2138 50.4586 31.2633 50.2291L32.4107 45.1394C32.5367 44.5816 32.9351 44.1247 33.4728 43.9269C35.2546 43.2698 36.9421 42.2888 38.4879 41.0175C38.9291 40.6528 39.5228 40.5358 40.0699 40.7093L45.022 42.2732C45.2581 42.3474 45.5102 42.2596 45.6181 42.066L49.3714 35.5747C49.4838 35.3745 49.443 35.1001 49.2634 34.9246L45.4653 31.4326C45.0533 31.0544 44.8556 30.4941 44.9388 29.9408C45.0871 28.9442 45.1617 27.9542 45.1617 26.9979C45.1617 26.0413 45.0871 25.0513 44.9388 24.0547C44.8556 23.5014 45.0533 22.9432 45.4653 22.5629L49.2721 19.0618C49.443 18.9024 49.4838 18.6231 49.3598 18.4006L45.6293 11.9497C45.5081 11.7359 45.2515 11.6506 45.0175 11.7247L40.072 13.2862C39.5273 13.4596 38.9337 13.3426 38.4904 12.978C36.9446 11.7066 35.2591 10.7257 33.4748 10.0686C32.9372 9.8708 32.5388 9.41391 32.4131 8.85608L31.2678 3.77092C31.2114 3.54144 31.0066 3.375 30.7751 3.375H23.2913C23.0598 3.375 22.855 3.54144 22.8056 3.77092L21.6578 8.86061C21.5321 9.41844 21.1337 9.87286 20.5961 10.0731C18.8138 10.7302 17.1263 11.7112 15.583 12.9825C15.1397 13.3472 14.5411 13.4617 14.0014 13.2907L9.04892 11.7268C8.81738 11.6551 8.56071 11.7404 8.45277 11.934L4.69957 18.4228C4.5871 18.6255 4.62788 18.9044 4.81451 19.08L8.60809 22.5654C9.01967 22.9432 9.21783 23.5035 9.13461 24.0572C8.98588 25.0538 8.91173 26.0438 8.91173 27C8.91173 27.9562 8.98588 28.9462 9.13461 29.9428C9.21783 30.4965 9.01967 31.0544 8.60809 31.4346L4.80092 34.9357C4.62994 35.0956 4.58957 35.3745 4.71316 35.5974L8.44371 42.0478C8.56277 42.2617 8.81944 42.3449 9.05551 42.2732L14.0014 40.7113C14.1679 40.6574 14.3388 40.6327 14.5098 40.6327Z" fill="white"/>
</g>
<defs>
<clipPath id="clip0_3102_16069">
<rect width="54" height="54" fill="white"/>
</clipPath>
</defs>
</svg>
