<svg width="54" height="54" viewBox="0 0 54 54" fill="none" xmlns="http://www.w3.org/2000/svg">
<g clip-path="url(#clip0_3102_16986)">
<g clip-path="url(#clip1_3102_16986)">
<path d="M27.0039 29.0039C34.5762 29.0039 40.7148 22.8653 40.7148 15.293C40.7148 7.72063 34.5762 1.58203 27.0039 1.58203C19.4316 1.58203 13.293 7.72063 13.293 15.293C13.293 22.8653 19.4316 29.0039 27.0039 29.0039Z" stroke="white" stroke-width="3.16406" stroke-miterlimit="10" stroke-linecap="round" stroke-linejoin="round"/>
<path d="M21.2732 45.017H33.1857V43.7984C33.1857 40.9164 30.5909 38.5791 27.7088 38.5791H23.1179C17.7088 37.0213 11.8796 38.4599 7.81629 42.3553C7.3304 42.821 6.68335 43.0811 6.01035 43.0811H1.58594V52.4174H36.2567C38.0358 52.4174 39.7421 51.7107 41.0002 50.4526L52.4219 39.0309C49.472 36.8032 45.3314 37.0905 42.7176 39.7043L37.4049 45.017H33.1859" stroke="white" stroke-width="3.16406" stroke-miterlimit="10" stroke-linecap="round" stroke-linejoin="round"/>
<path d="M27.0477 23C25.9019 23 24.9469 22.8256 24.183 22.4768C23.4191 22.1135 22.8462 21.6049 22.4642 20.951C22.0822 20.2825 21.8912 19.4905 21.8912 18.5749C21.8912 18.3715 21.8983 18.1753 21.9125 17.9864C21.9408 17.7829 21.9832 17.5867 22.0398 17.3978H21V15.7847H22.8462C22.9735 15.6249 23.1149 15.4796 23.2706 15.3488C23.4262 15.2035 23.5889 15.0654 23.7586 14.9346C23.9425 14.8038 24.1335 14.6803 24.3316 14.564C24.5296 14.4332 24.7347 14.317 24.9469 14.2153H21V12.6022H28.0875C28.2714 12.4278 28.4058 12.2316 28.4907 12.0136C28.5897 11.7811 28.6393 11.5195 28.6393 11.2289C28.6393 10.9092 28.5614 10.6403 28.4058 10.4223C28.2644 10.2044 28.0522 10.0372 27.7692 9.92098C27.4863 9.80472 27.1326 9.74659 26.7082 9.74659C26.3263 9.74659 25.9443 9.78292 25.5623 9.85559C25.1945 9.92825 24.8055 10.03 24.3952 10.1608C23.985 10.2916 23.5464 10.4587 23.0796 10.6621L22.1247 8.08992C22.8603 7.75568 23.6242 7.4941 24.4164 7.30518C25.2228 7.10173 26.0716 7 26.9629 7C27.9531 7 28.8019 7.16712 29.5093 7.50136C30.2308 7.82107 30.7896 8.30064 31.1857 8.94005C31.5818 9.57947 31.7798 10.3642 31.7798 11.2943C31.7798 11.5268 31.7657 11.752 31.7374 11.97C31.7091 12.188 31.6667 12.3987 31.6101 12.6022H32.6923V14.2153H30.7188C30.5632 14.3896 30.3864 14.5568 30.1883 14.7166C30.0044 14.8619 29.8064 15 29.5942 15.1308C29.3961 15.247 29.1839 15.3633 28.9576 15.4796C28.7454 15.5813 28.5261 15.683 28.2997 15.7847H32.6923V17.3978H25.435C25.2935 17.5577 25.1874 17.7393 25.1167 17.9428C25.0601 18.1317 25.0318 18.3424 25.0318 18.5749C25.0318 18.9237 25.1096 19.2289 25.2653 19.4905C25.435 19.7375 25.6826 19.9337 26.008 20.079C26.3475 20.2098 26.7577 20.2752 27.2387 20.2752C28.0027 20.2752 28.7524 20.188 29.4881 20.0136C30.2237 19.8247 30.9593 19.5777 31.695 19.2725V22.0191C31.0866 22.3243 30.3864 22.564 29.5942 22.7384C28.8019 22.9128 27.9531 23 27.0477 23Z" fill="white"/>
</g>
</g>
<defs>
<clipPath id="clip0_3102_16986">
<rect width="54" height="54" fill="white"/>
</clipPath>
<clipPath id="clip1_3102_16986">
<rect width="54" height="54" fill="white"/>
</clipPath>
</defs>
</svg>
