<svg width="54" height="54" viewBox="0 0 54 54" fill="none" xmlns="http://www.w3.org/2000/svg">
<path d="M52.418 28.582H1.58203C0.708328 28.582 0 29.2904 0 30.1641C0 31.0378 0.708328 31.7461 1.58203 31.7461H24.2058L16.1512 45.1705C15.5193 46.2238 16.2798 47.5664 17.5078 47.5664H36.4922C37.7206 47.5664 38.4805 46.2234 37.8487 45.1705L29.7942 31.7461H52.418C53.2917 31.7461 54 31.0378 54 30.1641C54 29.2904 53.2917 28.582 52.418 28.582ZM20.302 44.4023L27 33.239L33.698 44.4023H20.302Z" fill="white"/>
<path d="M9.49219 25.418C14.7262 25.418 18.9844 21.1598 18.9844 15.9258C18.9844 10.6918 14.7262 6.43359 9.49219 6.43359C4.2582 6.43359 0 10.6918 0 15.9258C0 21.1598 4.2582 25.418 9.49219 25.418ZM9.49219 9.59766C12.9815 9.59766 15.8203 12.4365 15.8203 15.9258C15.8203 19.4151 12.9815 22.2539 9.49219 22.2539C6.00286 22.2539 3.16406 19.4151 3.16406 15.9258C3.16406 12.4365 6.00286 9.59766 9.49219 9.59766Z" fill="white"/>
<path d="M44.5078 25.418C49.7418 25.418 54 21.1598 54 15.9258C54 10.6918 49.7418 6.43359 44.5078 6.43359C39.2738 6.43359 35.0156 10.6918 35.0156 15.9258C35.0156 21.1598 39.2738 25.418 44.5078 25.418ZM44.5078 9.59766C47.9971 9.59766 50.8359 12.4365 50.8359 15.9258C50.8359 19.4151 47.9971 22.2539 44.5078 22.2539C41.0185 22.2539 38.1797 19.4151 38.1797 15.9258C38.1797 12.4365 41.0185 9.59766 44.5078 9.59766Z" fill="white"/>
</svg>
