<svg width="54" height="54" viewBox="0 0 54 54" fill="none" xmlns="http://www.w3.org/2000/svg">
<g clip-path="url(#clip0_3102_12164)">
<path d="M50.4086 27.6996C50.1913 27.2551 50.1913 26.7452 50.4086 26.3008L52.4226 22.1807C53.5439 19.8866 52.6555 17.1524 50.3999 15.9556L46.3489 13.8062C45.9118 13.5744 45.6122 13.1618 45.5267 12.6746L44.7344 8.15753C44.2932 5.64253 41.9668 3.95251 39.4391 4.31015L34.8983 4.95245C34.4082 5.02164 33.9236 4.86407 33.5681 4.52014L30.2721 1.33163C28.4368 -0.443823 25.5618 -0.443929 23.7266 1.33163L20.4305 4.52046C20.0749 4.86449 19.5903 5.02175 19.1003 4.95277L14.5596 4.31047C12.031 3.95262 9.70538 5.64285 9.26421 8.15784L8.47193 12.6747C8.3864 13.162 8.08676 13.5745 7.64981 13.8064L3.59878 15.9558C1.34323 17.1525 0.45477 19.887 1.57611 22.181L3.59002 26.301C3.80729 26.7455 3.80729 27.2554 3.59002 27.6998L1.576 31.8198C0.454664 34.1139 1.34313 36.8481 3.59867 38.0449L7.6497 40.1943C8.08676 40.4261 8.3864 40.8387 8.47193 41.3259L9.26421 45.843C9.66583 48.1325 11.629 49.7381 13.8853 49.7379C14.1075 49.7379 14.333 49.7223 14.5597 49.6902L19.1004 49.0479C19.5901 48.9784 20.075 49.1363 20.4306 49.4803L23.7266 52.6688C24.6444 53.5566 25.8216 54.0004 26.9993 54.0003C28.1766 54.0002 29.3546 53.5564 30.272 52.6688L33.5681 49.4803C33.9237 49.1363 34.4084 48.9792 34.8983 49.0479L39.4391 49.6902C41.968 50.048 44.2932 48.3579 44.7344 45.8429L45.5268 41.326C45.6123 40.8387 45.912 40.4262 46.3489 40.1943L50.3999 38.0449C52.6555 36.8482 53.5439 34.1138 52.4226 31.8197L50.4086 27.6996ZM48.9402 35.2935L44.8891 37.443C43.5976 38.1284 42.7117 39.3474 42.4591 40.7877L41.6669 45.3047C41.5176 46.1556 40.7309 46.7271 39.8753 46.6064L35.3346 45.9641C33.8865 45.7589 32.4536 46.225 31.4026 47.2416L28.1065 50.43C27.4857 51.0305 26.513 51.0305 25.892 50.43L22.596 47.2415C21.7078 46.3822 20.5466 45.9166 19.3343 45.9166C19.1122 45.9166 18.8883 45.9322 18.6641 45.9639L14.1233 46.6062C13.2684 46.7271 12.4811 46.1555 12.3317 45.3046L11.5394 40.7875C11.2867 39.3472 10.4009 38.1281 9.10927 37.4429L5.05824 35.2934C4.29508 34.8885 3.99449 33.9635 4.37386 33.1873L6.38788 29.0672C7.02997 27.7535 7.02997 26.2468 6.38788 24.9331L4.37386 20.813C3.99449 20.0368 4.29508 19.1118 5.05824 18.7069L9.10927 16.5574C10.4008 15.872 11.2867 14.653 11.5393 13.2127L12.3315 8.69573C12.4809 7.84481 13.2675 7.27318 14.1231 7.39404L18.6638 8.03634C20.1114 8.24127 21.5448 7.77541 22.5958 6.75881L25.8919 3.57029C26.5127 2.96976 27.4854 2.96976 28.1064 3.57029L31.4024 6.75881C32.4534 7.77552 33.8866 8.24127 35.3343 8.03634L39.8751 7.39404C40.7301 7.27307 41.5174 7.84481 41.6667 8.69573L42.4589 13.2128C42.7116 14.6531 43.5974 15.8722 44.889 16.5574L48.9401 18.7069C49.7032 19.1118 50.0038 20.0368 49.6244 20.813L47.6104 24.933C46.9683 26.2466 46.9683 27.7535 47.6104 29.0671L49.6244 33.1871C50.0039 33.9635 49.7033 34.8886 48.9402 35.2935Z" fill="white"/>
<path d="M38.379 15.6211C37.7709 15.013 36.7848 15.013 36.1767 15.6211L15.6221 36.1758C15.014 36.784 15.014 37.77 15.6221 38.3781C15.9262 38.6822 16.3247 38.8343 16.7232 38.8343C17.1217 38.8343 17.5203 38.6823 17.8243 38.3781L38.3789 17.8235C38.9872 17.2153 38.9872 16.2294 38.379 15.6211Z" fill="white"/>
<path d="M20.7705 12.9844C17.6221 12.9844 15.0605 15.5459 15.0605 18.6943C15.0605 21.8428 17.6221 24.4043 20.7705 24.4043C23.9189 24.4043 26.4804 21.8428 26.4804 18.6943C26.4804 15.5459 23.9189 12.9844 20.7705 12.9844ZM20.7705 21.2897C19.3394 21.2897 18.1751 20.1254 18.1751 18.6942C18.1751 17.2631 19.3394 16.0988 20.7705 16.0988C22.2016 16.0988 23.366 17.2631 23.366 18.6942C23.3658 20.1254 22.2016 21.2897 20.7705 21.2897Z" fill="white"/>
<path d="M33.2295 29.5957C30.081 29.5957 27.5195 32.1572 27.5195 35.3056C27.5195 38.4541 30.081 41.0156 33.2295 41.0156C36.3779 41.0156 38.9394 38.4541 38.9394 35.3056C38.9394 32.1572 36.3779 29.5957 33.2295 29.5957ZM33.2295 37.901C31.7984 37.901 30.634 36.7367 30.634 35.3056C30.634 33.8745 31.7983 32.7103 33.2295 32.7103C34.6606 32.7103 35.8248 33.8745 35.8248 35.3056C35.8248 36.7367 34.6606 37.901 33.2295 37.901Z" fill="white"/>
</g>
<defs>
<clipPath id="clip0_3102_12164">
<rect width="54" height="54" fill="white"/>
</clipPath>
</defs>
</svg>
