<svg width="54" height="54" viewBox="0 0 54 54" fill="none" xmlns="http://www.w3.org/2000/svg">
<g clip-path="url(#clip0_4001_48407)">
<path d="M11.0742 9.49219H22.4131C23.148 13.0984 26.344 15.8203 30.1641 15.8203H45.9844C46.8581 15.8203 47.5664 15.112 47.5664 14.2383V12.6562H52.418C53.2917 12.6562 54 11.9479 54 11.0742V4.74609C54 3.87239 53.2917 3.16406 52.418 3.16406H47.5664V1.58203C47.5664 0.708328 46.8581 0 45.9844 0H30.1641C26.344 0 23.1481 2.72194 22.4131 6.32812H11.0742C4.96789 6.32812 0 11.296 0 17.4023C0 23.5087 4.96789 28.4766 11.0742 28.4766H42.8203C47.1652 28.4766 50.8359 32.1473 50.8359 36.4922C50.8359 40.8371 47.1652 44.5078 42.8203 44.5078H31.5869C30.852 40.9016 27.656 38.1797 23.8359 38.1797H7.91016C7.03645 38.1797 6.32812 38.888 6.32812 39.7617V41.3438H1.58203C0.708328 41.3438 0 42.0521 0 42.9258V49.2539C0 50.1276 0.708328 50.8359 1.58203 50.8359H6.32812V52.418C6.32812 53.2917 7.03645 54 7.91016 54H23.8359C27.656 54 30.8519 51.2781 31.5869 47.6719H42.8203C48.9342 47.6719 54 42.6245 54 36.4922C54 30.3783 48.9526 25.3125 42.8203 25.3125H11.0742C6.71256 25.3125 3.16406 21.764 3.16406 17.4023C3.16406 13.0407 6.71256 9.49219 11.0742 9.49219ZM47.5664 6.32812H50.8359V9.49219H47.5664V6.32812ZM30.1641 3.16406H44.4023C44.4023 4.725 44.4023 11.6938 44.4023 12.6562H30.1641C27.5471 12.6562 25.418 10.5272 25.418 7.91016C25.418 5.29316 27.5471 3.16406 30.1641 3.16406ZM6.32812 47.6719H3.16406V44.5078H6.32812V47.6719ZM23.8359 50.8359H9.49219C9.49219 49.8752 9.49219 42.8909 9.49219 41.3438H23.8359C26.4529 41.3438 28.582 43.4728 28.582 46.0898C28.582 48.7068 26.4529 50.8359 23.8359 50.8359Z" fill="white"/>
<path d="M23.8359 44.5078H14.2383C13.3646 44.5078 12.6562 45.2161 12.6562 46.0898C12.6562 46.9635 13.3646 47.6719 14.2383 47.6719H23.8359C24.7096 47.6719 25.418 46.9635 25.418 46.0898C25.418 45.2161 24.7096 44.5078 23.8359 44.5078Z" fill="white"/>
<path d="M39.6562 6.32812H30.1641C29.2904 6.32812 28.582 7.03645 28.582 7.91016C28.582 8.78386 29.2904 9.49219 30.1641 9.49219H39.6562C40.53 9.49219 41.2383 8.78386 41.2383 7.91016C41.2383 7.03645 40.53 6.32812 39.6562 6.32812Z" fill="white"/>
</g>
<defs>
<clipPath id="clip0_4001_48407">
<rect width="54" height="54" fill="white"/>
</clipPath>
</defs>
</svg>
