<svg width="54" height="54" viewBox="0 0 54 54" fill="none" xmlns="http://www.w3.org/2000/svg">
<g clip-path="url(#clip0_4001_48464)">
<path d="M1.77836 17.0516L2.07939 16.7171L1.77836 16.3826C1.20276 15.7431 0.871094 14.83 0.871094 13.9061V4.65955C0.871094 2.56857 2.57052 0.869141 4.6615 0.869141H49.341C51.4319 0.869141 53.1314 2.56857 53.1314 4.65955V13.8322C53.1314 14.8253 52.8026 15.6658 52.2241 16.3086L51.9231 16.6431L52.2241 16.9776C52.7997 17.6171 53.1314 18.5302 53.1314 19.4541V28.7006C53.1314 30.7916 51.4319 32.4911 49.341 32.4911H28.4807H27.9807V32.9911V42.3856V42.8856H28.4807H31.2177C31.7552 42.8856 32.1971 43.3275 32.1971 43.865V46.602V47.102H32.6971H52.1519C52.6895 47.102 53.1314 47.5439 53.1314 48.0815C53.1314 48.619 52.6895 49.0609 52.1519 49.0609H32.6971H32.1971V49.5609V52.2979C32.1971 52.8355 31.7552 53.2774 31.2177 53.2774H22.7848C22.2472 53.2774 21.8053 52.8355 21.8053 52.2979V49.5609V49.0609H21.3053H1.85055C1.31299 49.0609 0.871094 48.619 0.871094 48.0815C0.871094 47.5439 1.31299 47.102 1.85055 47.102H21.3053H21.8053V46.602V43.865C21.8053 43.3275 22.2472 42.8856 22.7848 42.8856H25.5218H26.0218V42.3856V33.065V32.565H25.5218H4.6615C2.57052 32.565 0.871094 30.8656 0.871094 28.7746V19.528C0.871094 18.5349 1.19985 17.6944 1.77836 17.0516ZM30.2382 45.1965V44.6965H29.7382H24.2642H23.7642V45.1965V50.6705V51.1705H24.2642H29.7382H30.2382V50.6705V45.1965ZM36.5259 3.32804V2.82804H36.0259H4.6615C3.64564 2.82804 2.83 3.64368 2.83 4.65955V13.8322C2.83 14.848 3.64564 15.6637 4.6615 15.6637H49.341C50.3568 15.6637 51.1725 14.848 51.1725 13.8322V4.65955C51.1725 3.64368 50.3568 2.82804 49.341 2.82804H44.9026H44.4026V3.32804V9.24585C44.4026 9.78341 43.9607 10.2253 43.4231 10.2253C42.8856 10.2253 42.4437 9.78341 42.4437 9.24585V3.32804V2.82804H41.9437H38.9848H38.4848V3.32804V6.28695C38.4848 6.82451 38.0429 7.2664 37.5053 7.2664C36.9678 7.2664 36.5259 6.8245 36.5259 6.28695V3.32804ZM49.341 30.5322C50.3568 30.5322 51.1725 29.7165 51.1725 28.7006V19.4541C51.1725 18.4382 50.3568 17.6226 49.341 17.6226H4.6615C3.64564 17.6226 2.83 18.4382 2.83 19.4541V28.7006C2.83 29.7165 3.64564 30.5322 4.6615 30.5322H49.341Z" fill="white" stroke="white"/>
<path d="M8.73065 7.76562H7.91695C7.10325 7.76562 6.4375 8.43138 6.4375 9.24508C6.4375 10.0588 7.10325 10.7245 7.91695 10.7245H8.73065C9.54435 10.7245 10.2101 10.0588 10.2101 9.24508C10.2101 8.43138 9.54435 7.76562 8.73065 7.76562Z" fill="white"/>
<path d="M15.0158 7.76562H14.2021C13.3884 7.76562 12.7227 8.43138 12.7227 9.24508C12.7227 10.0588 13.3884 10.7245 14.2021 10.7245H15.0158C15.8295 10.7245 16.4953 10.0588 16.4953 9.24508C16.4953 8.43138 15.8295 7.76562 15.0158 7.76562Z" fill="white"/>
<path d="M21.3049 7.76562H20.4912C19.6775 7.76562 19.0117 8.43138 19.0117 9.24508C19.0117 10.0588 19.6775 10.7245 20.4912 10.7245H21.3049C22.1186 10.7245 22.7843 10.0588 22.7843 9.24508C22.7843 8.43138 22.1186 7.76562 21.3049 7.76562Z" fill="white"/>
<path d="M8.73065 22.5605H7.91695C7.10325 22.5605 6.4375 23.2263 6.4375 24.04C6.4375 24.8537 7.10325 25.5195 7.91695 25.5195H8.73065C9.54435 25.5195 10.2101 24.8537 10.2101 24.04C10.2101 23.2263 9.54435 22.5605 8.73065 22.5605Z" fill="white"/>
<path d="M15.0158 22.5605H14.2021C13.3884 22.5605 12.7227 23.2263 12.7227 24.04C12.7227 24.8537 13.3884 25.5195 14.2021 25.5195H15.0158C15.8295 25.5195 16.4953 24.8537 16.4953 24.04C16.4953 23.2263 15.8295 22.5605 15.0158 22.5605Z" fill="white"/>
<path d="M21.3049 22.5605H20.4912C19.6775 22.5605 19.0117 23.2263 19.0117 24.04C19.0117 24.8537 19.6775 25.5195 20.4912 25.5195H21.3049C22.1186 25.5195 22.7843 24.8537 22.7843 24.04C22.7843 23.2263 22.1186 22.5605 21.3049 22.5605Z" fill="white"/>
</g>
<defs>
<clipPath id="clip0_4001_48464">
<rect width="54" height="54" fill="white"/>
</clipPath>
</defs>
</svg>
