<svg width="54" height="54" viewBox="0 0 54 54" fill="none" xmlns="http://www.w3.org/2000/svg">
<mask id="path-1-inside-1_4001_48684" fill="white">
<path d="M52.3071 3H1.69176C0.756783 3 0 3.75678 0 4.69176V32.704C0 33.6379 0.756783 34.3958 1.69176 34.3958H7.61745V42.2862C7.61745 43.22 8.37424 43.9779 9.30922 43.9779H13.8826V49.166C13.8826 50.0999 14.6394 50.8578 15.5744 50.8578H38.4245C39.3583 50.8578 40.1163 50.0999 40.1163 49.166V43.9779H44.6908C45.6246 43.9779 46.3825 43.22 46.3825 42.2862V34.3958H52.3082C53.2421 34.3958 54 33.6379 54 32.704V4.69176C53.9989 3.75791 53.2421 3 52.3071 3ZM50.6153 31.0122H44.6897C43.7558 31.0122 42.9979 31.7701 42.9979 32.704V40.5944H38.4245C37.4906 40.5944 36.7327 41.3523 36.7327 42.2862V47.4742H17.2662V42.2862C17.2662 41.3523 16.5094 40.5944 15.5744 40.5944H11.001V32.704C11.001 31.7701 10.2442 31.0122 9.30922 31.0122H3.38353V6.38353H50.6165L50.6153 31.0122Z"/>
</mask>
<path d="M52.3071 3H1.69176C0.756783 3 0 3.75678 0 4.69176V32.704C0 33.6379 0.756783 34.3958 1.69176 34.3958H7.61745V42.2862C7.61745 43.22 8.37424 43.9779 9.30922 43.9779H13.8826V49.166C13.8826 50.0999 14.6394 50.8578 15.5744 50.8578H38.4245C39.3583 50.8578 40.1163 50.0999 40.1163 49.166V43.9779H44.6908C45.6246 43.9779 46.3825 43.22 46.3825 42.2862V34.3958H52.3082C53.2421 34.3958 54 33.6379 54 32.704V4.69176C53.9989 3.75791 53.2421 3 52.3071 3ZM50.6153 31.0122H44.6897C43.7558 31.0122 42.9979 31.7701 42.9979 32.704V40.5944H38.4245C37.4906 40.5944 36.7327 41.3523 36.7327 42.2862V47.4742H17.2662V42.2862C17.2662 41.3523 16.5094 40.5944 15.5744 40.5944H11.001V32.704C11.001 31.7701 10.2442 31.0122 9.30922 31.0122H3.38353V6.38353H50.6165L50.6153 31.0122Z" fill="white"/>
<path d="M7.61745 34.3958H15.6175V26.3958H7.61745V34.3958ZM13.8826 43.9779H21.8826V35.9779H13.8826V43.9779ZM40.1163 43.9779V35.9779H32.1163V43.9779H40.1163ZM46.3825 34.3958V26.3958H38.3825V34.3958H46.3825ZM54 4.69176H62L62 4.6821L54 4.69176ZM50.6153 31.0122V39.0122H58.615L58.6153 31.0126L50.6153 31.0122ZM42.9979 40.5944V48.5944H50.9979V40.5944H42.9979ZM36.7327 47.4742V55.4742H44.7327V47.4742H36.7327ZM17.2662 47.4742H9.26615V55.4742H17.2662V47.4742ZM11.001 40.5944H3.00098V48.5944H11.001V40.5944ZM3.38353 31.0122H-4.61647V39.0122H3.38353V31.0122ZM3.38353 6.38353V-1.61647H-4.61647V6.38353H3.38353ZM50.6165 6.38353L58.6165 6.3839L58.6168 -1.61647H50.6165V6.38353ZM52.3071 -5H1.69176V11H52.3071V-5ZM1.69176 -5C-3.6615 -5 -8 -0.661495 -8 4.69176H8C8 8.17506 5.17506 11 1.69176 11V-5ZM-8 4.69176V32.704H8V4.69176H-8ZM-8 32.704C-8 38.0527 -3.66497 42.3958 1.69176 42.3958V26.3958C5.17853 26.3958 8 29.2231 8 32.704H-8ZM1.69176 42.3958H7.61745V26.3958H1.69176V42.3958ZM-0.382548 34.3958V42.2862H15.6175V34.3958H-0.382548ZM-0.382548 42.2862C-0.382548 47.6348 3.95249 51.9779 9.30922 51.9779V35.9779C12.796 35.9779 15.6175 38.8052 15.6175 42.2862H-0.382548ZM9.30922 51.9779H13.8826V35.9779H9.30922V51.9779ZM5.88262 43.9779V49.166H21.8826V43.9779H5.88262ZM5.88262 49.166C5.88262 54.5147 10.2177 58.8578 15.5744 58.8578V42.8578C19.0612 42.8578 21.8826 45.6851 21.8826 49.166H5.88262ZM15.5744 58.8578H38.4245V42.8578H15.5744V58.8578ZM38.4245 58.8578C43.7766 58.8578 48.1163 54.5181 48.1163 49.166H32.1163C32.1163 45.6816 34.9401 42.8578 38.4245 42.8578V58.8578ZM48.1163 49.166V43.9779H32.1163V49.166H48.1163ZM40.1163 51.9779H44.6908V35.9779H40.1163V51.9779ZM44.6908 51.9779C50.0429 51.9779 54.3825 47.6383 54.3825 42.2862H38.3825C38.3825 38.8017 41.2064 35.9779 44.6908 35.9779V51.9779ZM54.3825 42.2862V34.3958H38.3825V42.2862H54.3825ZM46.3825 42.3958H52.3082V26.3958H46.3825V42.3958ZM52.3082 42.3958C57.6604 42.3958 62 38.0561 62 32.704H46C46 29.2196 48.8238 26.3958 52.3082 26.3958V42.3958ZM62 32.704V4.69176H46V32.704H62ZM62 4.6821C61.9935 -0.657143 57.6657 -5 52.3071 -5V11C48.8185 11 46.0042 8.17296 46 4.70143L62 4.6821ZM50.6153 23.0122H44.6897V39.0122H50.6153V23.0122ZM44.6897 23.0122C39.3375 23.0122 34.9979 27.3519 34.9979 32.704H50.9979C50.9979 36.1884 48.1741 39.0122 44.6897 39.0122V23.0122ZM34.9979 32.704V40.5944H50.9979V32.704H34.9979ZM42.9979 32.5944H38.4245V48.5944H42.9979V32.5944ZM38.4245 32.5944C33.0724 32.5944 28.7327 36.934 28.7327 42.2862H44.7327C44.7327 45.7706 41.9089 48.5944 38.4245 48.5944V32.5944ZM28.7327 42.2862V47.4742H44.7327V42.2862H28.7327ZM36.7327 39.4742H17.2662V55.4742H36.7327V39.4742ZM25.2662 47.4742V42.2862H9.26615V47.4742H25.2662ZM25.2662 42.2862C25.2662 36.9375 20.9311 32.5944 15.5744 32.5944V48.5944C12.0876 48.5944 9.26615 45.7671 9.26615 42.2862H25.2662ZM15.5744 32.5944H11.001V48.5944H15.5744V32.5944ZM19.001 40.5944V32.704H3.00098V40.5944H19.001ZM19.001 32.704C19.001 27.3553 14.666 23.0122 9.30922 23.0122V39.0122C5.82245 39.0122 3.00098 36.185 3.00098 32.704H19.001ZM9.30922 23.0122H3.38353V39.0122H9.30922V23.0122ZM11.3835 31.0122V6.38353H-4.61647V31.0122H11.3835ZM3.38353 14.3835H50.6165V-1.61647H3.38353V14.3835ZM42.6165 6.38316L42.6153 31.0119L58.6153 31.0126L58.6165 6.3839L42.6165 6.38316Z" fill="white" mask="url(#path-1-inside-1_4001_48684)"/>
<path d="M43.5863 23.2158C44.5202 23.2158 45.2781 22.459 45.2781 21.524V12.9242C45.2781 11.9892 44.5202 11.2324 43.5863 11.2324C42.6524 11.2324 41.8945 11.9892 41.8945 12.9242V21.524C41.8945 22.459 42.6524 23.2158 43.5863 23.2158Z" fill="white"/>
<path d="M35.2933 23.2158C36.2272 23.2158 36.9851 22.459 36.9851 21.524V12.9242C36.9851 11.9892 36.2272 11.2324 35.2933 11.2324C34.3595 11.2324 33.6016 11.9892 33.6016 12.9242V21.524C33.6016 22.459 34.3583 23.2158 35.2933 23.2158Z" fill="white"/>
<path d="M27.0004 23.2158C27.9353 23.2158 28.6921 22.459 28.6921 21.524V12.9242C28.6921 11.9892 27.9353 11.2324 27.0004 11.2324C26.0654 11.2324 25.3086 11.9892 25.3086 12.9242V21.524C25.3086 22.459 26.0654 23.2158 27.0004 23.2158Z" fill="white"/>
<path d="M18.7074 23.2158C19.6424 23.2158 20.3992 22.459 20.3992 21.524V12.9242C20.3992 11.9892 19.6424 11.2324 18.7074 11.2324C17.7724 11.2324 17.0156 11.9892 17.0156 12.9242V21.524C17.0156 22.459 17.7735 23.2158 18.7074 23.2158Z" fill="white"/>
<path d="M10.4144 23.2158C11.3494 23.2158 12.1062 22.459 12.1062 21.524V12.9242C12.1062 11.9892 11.3494 11.2324 10.4144 11.2324C9.47944 11.2324 8.72266 11.9892 8.72266 12.9242V21.524C8.72266 22.459 9.48057 23.2158 10.4144 23.2158Z" fill="white"/>
</svg>
