<svg width="54" height="54" viewBox="0 0 54 54" fill="none" xmlns="http://www.w3.org/2000/svg">
<g clip-path="url(#clip0_4001_45295)">
<path d="M11.5396 8.89519H1.58822C0.987202 8.89519 0.5 8.40771 0.5 7.80697C0.5 7.20623 0.987201 6.71875 1.58822 6.71875H11.5396C12.1406 6.71875 12.6278 7.20623 12.6278 7.80697C12.6278 8.40771 12.1406 8.89519 11.5396 8.89519Z" fill="white" stroke="white"/>
<path d="M17.228 15.0811C13.2165 15.0811 9.95312 11.8177 9.95312 7.80658C9.95312 3.79463 13.2165 0.53125 17.228 0.53125C21.2395 0.53125 24.5028 3.79463 24.5028 7.80658C24.5028 11.8178 21.2395 15.0811 17.228 15.0811ZM17.228 3.70781C14.9681 3.70781 13.1296 5.54666 13.1296 7.80658C13.1296 10.0665 14.9681 11.9045 17.228 11.9045C19.4879 11.9045 21.3264 10.0665 21.3264 7.80658C21.3264 5.54666 19.4879 3.70781 17.228 3.70781Z" fill="white"/>
<path d="M52.4117 9.39519H28.6742C27.7969 9.39519 27.0859 8.68376 27.0859 7.80697C27.0859 6.93018 27.7969 6.21875 28.6742 6.21875H52.4116C53.2889 6.21875 53.9998 6.93018 53.9998 7.80697C53.9998 8.68376 53.289 9.39519 52.4117 9.39519Z" fill="white"/>
<path d="M38.5483 34.2717C34.5367 34.2717 31.2734 31.0083 31.2734 26.9972C31.2734 22.986 34.5368 19.7227 38.5483 19.7227C42.5598 19.7227 45.8231 22.986 45.8231 26.9972C45.8231 31.0083 42.5599 34.2717 38.5483 34.2717ZM38.5483 22.8992C36.2884 22.8992 34.4499 24.7372 34.4499 26.9972C34.4499 29.2571 36.2884 31.0951 38.5483 31.0951C40.8082 31.0951 42.6467 29.2571 42.6467 26.9972C42.6467 24.7372 40.8082 22.8992 38.5483 22.8992Z" fill="white"/>
<path d="M27.103 28.5866H1.58822C0.710962 28.5866 0 27.8752 0 26.9984C0 26.1216 0.710962 25.4102 1.58822 25.4102H27.103C27.9803 25.4102 28.6912 26.1216 28.6912 26.9984C28.6912 27.8752 27.9803 28.5866 27.103 28.5866Z" fill="white"/>
<path d="M52.4111 28.5866H44.2367C43.3594 28.5866 42.6484 27.8752 42.6484 26.9984C42.6484 26.1216 43.3594 25.4102 44.2367 25.4102H52.4111C53.2884 25.4102 53.9993 26.1216 53.9993 26.9984C53.9993 27.8752 53.2884 28.5866 52.4111 28.5866Z" fill="white"/>
<path d="M15.4506 53.4658C11.4392 53.4658 8.17578 50.2025 8.17578 46.1905C8.17578 42.1794 11.4392 38.916 15.4506 38.916C19.4621 38.916 22.7255 42.1794 22.7255 46.1905C22.7255 50.2025 19.4621 53.4658 15.4506 53.4658ZM15.4506 42.0926C13.1907 42.0926 11.3522 43.9306 11.3522 46.1905C11.3522 48.4504 13.1907 50.2893 15.4506 50.2893C17.7106 50.2893 19.549 48.4504 19.549 46.1905C19.549 43.9306 17.7106 42.0926 15.4506 42.0926Z" fill="white"/>
<path d="M52.4116 47.778H26.8968C26.0196 47.778 25.3086 47.0666 25.3086 46.1898C25.3086 45.313 26.0196 44.6016 26.8968 44.6016H52.4116C53.2889 44.6016 53.9998 45.313 53.9998 46.1898C53.9998 47.0666 53.2889 47.778 52.4116 47.778Z" fill="white"/>
<path d="M9.76269 47.7781H1.58822C0.710962 47.7781 0 47.0667 0 46.1898C0 45.313 0.710962 44.6016 1.58822 44.6016H9.76269C10.6399 44.6016 11.3509 45.313 11.3509 46.1898C11.3509 47.0667 10.6399 47.7781 9.76269 47.7781Z" fill="white"/>
</g>
<defs>
<clipPath id="clip0_4001_45295">
<rect width="54" height="54" fill="white"/>
</clipPath>
</defs>
</svg>
