<svg width="54" height="54" viewBox="0 0 54 54" fill="none" xmlns="http://www.w3.org/2000/svg">
<path d="M42.1875 33.75H35.1472C34.7017 33.75 34.2664 33.5711 33.9525 33.2573L32.5553 31.8566C31.6001 30.9015 30.3278 30.375 28.9778 30.375H25.3125C22.5214 30.375 20.25 32.6464 20.25 35.4375V40.5H18.5625C17.631 40.5 16.875 41.256 16.875 42.1875C16.875 43.119 17.631 43.875 18.5625 43.875H20.25V48.9375C20.25 51.7286 22.5214 54 25.3125 54H42.1875C44.9786 54 47.25 51.7286 47.25 48.9375V38.8125C47.25 36.0214 44.9786 33.75 42.1875 33.75ZM43.875 48.9375C43.875 49.869 43.1156 50.625 42.1875 50.625H25.3125C24.3844 50.625 23.625 49.869 23.625 48.9375V35.4375C23.625 34.506 24.3844 33.75 25.3125 33.75H28.9778C29.43 33.75 29.8519 33.9255 30.1725 34.2427L31.5697 35.64C32.5114 36.585 33.8175 37.125 35.1472 37.125H42.1875C43.1156 37.125 43.875 37.881 43.875 38.8125V48.9375Z" fill="white"/>
<path d="M42.1875 6.75H35.1472C34.7017 6.75 34.2664 6.57113 33.9525 6.25725L32.5553 4.85663C31.6001 3.9015 30.3278 3.375 28.9778 3.375H25.3125C22.5214 3.375 20.25 5.64637 20.25 8.4375V13.5H18.5625C17.631 13.5 16.875 14.256 16.875 15.1875C16.875 16.119 17.631 16.875 18.5625 16.875H20.25V21.9375C20.25 24.7286 22.5214 27 25.3125 27H42.1875C44.9786 27 47.25 24.7286 47.25 21.9375V11.8125C47.25 9.02137 44.9786 6.75 42.1875 6.75ZM43.875 21.9375C43.875 22.869 43.1156 23.625 42.1875 23.625H25.3125C24.3844 23.625 23.625 22.869 23.625 21.9375V8.4375C23.625 7.506 24.3844 6.75 25.3125 6.75H28.9778C29.43 6.75 29.8519 6.9255 30.1691 7.24275L31.5664 8.64C32.5114 9.585 33.8175 10.125 35.1472 10.125H42.1875C43.1156 10.125 43.875 10.881 43.875 11.8125V21.9375Z" fill="white"/>
<path d="M11.8125 40.5C10.8844 40.5 10.125 39.744 10.125 38.8125C10.125 37.881 9.369 37.125 8.4375 37.125C7.506 37.125 6.75 37.881 6.75 38.8125C6.75 41.6036 9.02137 43.875 11.8125 43.875C12.744 43.875 13.5 43.119 13.5 42.1875C13.5 41.256 12.744 40.5 11.8125 40.5Z" fill="white"/>
<path d="M8.4375 33.75C9.369 33.75 10.125 32.994 10.125 32.0625V28.6875C10.125 27.756 9.369 27 8.4375 27C7.506 27 6.75 27.756 6.75 28.6875V32.0625C6.75 32.994 7.506 33.75 8.4375 33.75Z" fill="white"/>
<path d="M8.4375 23.625C9.369 23.625 10.125 22.869 10.125 21.9375V18.5625C10.125 17.631 9.369 16.875 8.4375 16.875C7.506 16.875 6.75 17.631 6.75 18.5625V21.9375C6.75 22.869 7.506 23.625 8.4375 23.625Z" fill="white"/>
<path d="M11.8125 13.5C10.8844 13.5 10.125 12.744 10.125 11.8125C10.125 10.881 9.369 10.125 8.4375 10.125C7.506 10.125 6.75 10.881 6.75 11.8125C6.75 14.6036 9.02137 16.875 11.8125 16.875C12.744 16.875 13.5 16.119 13.5 15.1875C13.5 14.256 12.744 13.5 11.8125 13.5Z" fill="white"/>
<path d="M8.4375 6.75C9.369 6.75 10.125 5.994 10.125 5.0625V1.6875C10.125 0.756 9.369 0 8.4375 0C7.506 0 6.75 0.756 6.75 1.6875V5.0625C6.75 5.994 7.506 6.75 8.4375 6.75Z" fill="white"/>
</svg>
