<svg width="54" height="54" viewBox="0 0 54 54" fill="none" xmlns="http://www.w3.org/2000/svg">
<g clip-path="url(#clip0_2551_37797)">
<path d="M49.2539 0.105469H4.74609C2.1291 0.105469 0 2.23457 0 4.85156V49.1484C0 51.7654 2.1291 53.8945 4.74609 53.8945H49.2539C51.8709 53.8945 54 51.7654 54 49.1484V4.85156C54 2.23457 51.8709 0.105469 49.2539 0.105469ZM4.74609 3.26953H49.2539C50.1262 3.26953 50.8359 3.97923 50.8359 4.85156V12.7617H3.16406V4.85156C3.16406 3.97923 3.87376 3.26953 4.74609 3.26953ZM49.2539 50.7305H4.74609C3.87376 50.7305 3.16406 50.0208 3.16406 49.1484V15.9258H50.8359V49.1484C50.8359 50.0208 50.1262 50.7305 49.2539 50.7305Z" fill="white"/>
<path d="M32.3697 20.8002C31.5667 20.456 30.6366 20.828 30.2924 21.6311L20.8002 43.7795C20.456 44.5825 20.8281 45.5127 21.6311 45.8568C22.4345 46.2011 23.3644 45.8288 23.7084 45.0259L33.2006 22.8775C33.5449 22.0743 33.1728 21.1443 32.3697 20.8002Z" fill="white"/>
<path d="M18.7428 26.0117C18.1969 25.3295 17.2011 25.2189 16.5192 25.7647L8.60901 32.0928C7.8181 32.7253 7.81757 33.9305 8.60901 34.5636L16.5192 40.8917C17.2014 41.4376 18.1972 41.3268 18.7428 40.6447C19.2886 39.9624 19.178 38.9668 18.4956 38.4211L12.1298 33.3282L18.4956 28.2354C19.178 27.6896 19.2886 26.6941 18.7428 26.0117Z" fill="white"/>
<path d="M45.3907 32.0929L37.4805 25.7648C36.7982 25.2189 35.8026 25.3295 35.2569 26.0118C34.7111 26.694 34.8216 27.6897 35.504 28.2354L41.8699 33.3282L35.504 38.421C34.8216 38.9668 34.7111 39.9623 35.2569 40.6446C35.8034 41.3276 36.7992 41.4369 37.4805 40.8916L45.3907 34.5635C46.1816 33.931 46.1821 32.7259 45.3907 32.0929Z" fill="white"/>
<path d="M8.01562 9.59766C8.88936 9.59766 9.59766 8.88936 9.59766 8.01562C9.59766 7.14189 8.88936 6.43359 8.01562 6.43359C7.14189 6.43359 6.43359 7.14189 6.43359 8.01562C6.43359 8.88936 7.14189 9.59766 8.01562 9.59766Z" fill="white"/>
<path d="M14.3438 9.59766C15.2175 9.59766 15.9258 8.88936 15.9258 8.01562C15.9258 7.14189 15.2175 6.43359 14.3438 6.43359C13.47 6.43359 12.7617 7.14189 12.7617 8.01562C12.7617 8.88936 13.47 9.59766 14.3438 9.59766Z" fill="white"/>
<path d="M20.6719 9.59766C21.5456 9.59766 22.2539 8.88936 22.2539 8.01562C22.2539 7.14189 21.5456 6.43359 20.6719 6.43359C19.7981 6.43359 19.0898 7.14189 19.0898 8.01562C19.0898 8.88936 19.7981 9.59766 20.6719 9.59766Z" fill="white"/>
<path d="M36.4922 9.59766H45.9844C46.8581 9.59766 47.5664 8.88933 47.5664 8.01562C47.5664 7.14192 46.8581 6.43359 45.9844 6.43359H36.4922C35.6185 6.43359 34.9102 7.14192 34.9102 8.01562C34.9102 8.88933 35.6185 9.59766 36.4922 9.59766Z" fill="white"/>
</g>
<defs>
<clipPath id="clip0_2551_37797">
<rect width="54" height="54" fill="white"/>
</clipPath>
</defs>
</svg>
