<svg width="54" height="54" viewBox="0 0 54 54" fill="none" xmlns="http://www.w3.org/2000/svg">
<g clip-path="url(#clip0_2551_37892)">
<path d="M48.1992 34.9865C45.5491 34.9865 43.3101 36.7734 42.6195 39.2052H37.0195V33.0295H42.7373C48.9476 33.0295 54 27.9771 54 21.7668C54 16.7875 50.6976 12.4133 46.0093 10.9887C44.5921 5.31402 39.4697 1.24409 33.5372 1.24409C31.2374 1.24409 29.0344 1.83714 27.0902 2.97019C25.0311 1.08715 22.3312 0.0292969 19.4944 0.0292969C13.4096 0.0292969 8.43634 4.87991 8.23785 10.9172C3.42204 12.2633 0 16.6726 0 21.7668C0 27.9771 5.05238 33.0295 11.2627 33.0295H16.9805V39.2052H11.3805C10.69 36.7734 8.45089 34.9865 5.80078 34.9865C2.60223 34.9865 0 37.5887 0 40.7873C0 43.9858 2.60223 46.5881 5.80078 46.5881C8.45089 46.5881 10.6899 44.8011 11.3805 42.3693H18.5625C19.4362 42.3693 20.1445 41.661 20.1445 40.7873V33.0295H25.418V42.5904C22.9862 43.2809 21.1992 45.52 21.1992 48.1701C21.1992 51.3686 23.8014 53.9709 27 53.9709C30.1986 53.9709 32.8008 51.3686 32.8008 48.1701C32.8008 45.52 31.0138 43.281 28.582 42.5904V33.0295H33.8555V40.7873C33.8555 41.661 34.5638 42.3693 35.4375 42.3693H42.6195C43.31 44.8011 45.5491 46.5881 48.1992 46.5881C51.3978 46.5881 54 43.9858 54 40.7873C54 37.5887 51.3978 34.9865 48.1992 34.9865ZM5.80078 43.424C4.34689 43.424 3.16406 42.2412 3.16406 40.7873C3.16406 39.3334 4.34689 38.1506 5.80078 38.1506C7.25467 38.1506 8.4375 39.3334 8.4375 40.7873C8.4375 42.2412 7.25467 43.424 5.80078 43.424ZM29.6367 48.1701C29.6367 49.624 28.4539 50.8068 27 50.8068C25.5461 50.8068 24.3633 49.624 24.3633 48.1701C24.3633 46.7162 25.5461 45.5334 27 45.5334C28.4539 45.5334 29.6367 46.7162 29.6367 48.1701ZM11.2627 29.8655C6.79714 29.8655 3.16406 26.2325 3.16406 21.7668C3.16406 17.7756 6.13902 14.3306 10.0839 13.7537C10.9163 13.632 11.5078 12.88 11.4302 12.0424C11.4073 11.7953 11.3957 11.5428 11.3957 11.2919C11.3957 6.82644 15.0288 3.19346 19.4943 3.19346C21.8769 3.19346 24.1237 4.22917 25.6584 6.035C26.1973 6.66898 27.135 6.77719 27.8042 6.28275C29.4634 5.05636 31.4458 4.40815 33.5371 4.40815C38.3494 4.40815 42.3514 7.93914 43.0995 12.5324C43.2053 13.1819 43.7021 13.698 44.3471 13.8286C48.1069 14.5898 50.8358 17.9282 50.8358 21.7668C50.8358 26.2325 47.2028 29.8655 42.7372 29.8655H11.2627ZM48.1992 43.424C46.7453 43.424 45.5625 42.2412 45.5625 40.7873C45.5625 39.3334 46.7453 38.1506 48.1992 38.1506C49.6531 38.1506 50.8359 39.3334 50.8359 40.7873C50.8359 42.2412 49.6531 43.424 48.1992 43.424Z" fill="white"/>
</g>
<defs>
<clipPath id="clip0_2551_37892">
<rect width="54" height="54" fill="white"/>
</clipPath>
</defs>
</svg>
