<svg width="54" height="54" viewBox="0 0 54 54" fill="none" xmlns="http://www.w3.org/2000/svg">
<path d="M52.6193 19.8238C51.9226 19.1267 51.023 18.6663 50.0484 18.508C49.0738 18.3498 48.0739 18.5018 47.1911 18.9424C44.1057 10.8092 36.2315 5 27 5C17.7685 5 9.89188 10.8117 6.80652 18.946C6.08834 18.5864 5.2895 18.4163 4.48645 18.4522C3.68341 18.488 2.90304 18.7286 2.22004 19.1508C1.53704 19.573 0.974265 20.1628 0.585574 20.8637C0.196883 21.5646 -0.00471146 22.3531 8.35826e-05 23.1538V31.2222C0.00023838 32.0646 0.227444 32.8915 0.657977 33.6166C1.08851 34.3417 1.70658 34.9384 2.44764 35.3443C3.18871 35.7503 4.0256 35.9506 4.87092 35.9243C5.71623 35.8981 6.53898 35.6463 7.25325 35.1952C8.53389 38.0709 10.4299 40.6331 12.8087 42.7025C15.1874 44.7719 17.9914 46.2985 21.0244 47.1755C21.122 47.4271 21.2936 47.6435 21.5168 47.7962C21.7399 47.9489 22.0043 48.0309 22.275 48.0312H31.725C32.0831 48.0312 32.4264 47.8896 32.6796 47.6374C32.9328 47.3852 33.075 47.0432 33.075 46.6865V43.9971C33.075 43.6404 32.9328 43.2984 32.6796 43.0462C32.4264 42.794 32.0831 42.6523 31.725 42.6523H22.275C21.917 42.6523 21.5736 42.794 21.3204 43.0462C21.0673 43.2984 20.925 43.6404 20.925 43.9971V44.3259C13.478 41.7966 8.10007 34.7784 8.10007 26.5156C8.10007 16.1356 16.578 7.68945 27 7.68945C37.422 7.68945 45.9 16.1356 45.9 26.5156C45.9016 28.4742 45.596 30.4211 44.9943 32.2857C44.9315 32.462 44.9069 32.6494 44.9218 32.8358C44.9386 33.0439 45.0037 33.2452 45.1121 33.4239C45.604 34.3528 46.3943 35.0907 47.3567 35.5198C48.319 35.9489 49.398 36.0444 50.4212 35.791C51.4445 35.5377 52.353 34.9501 53.0017 34.1222C53.6504 33.2942 54.0018 32.2736 54 31.2234V23.155C54.0024 22.5364 53.8816 21.9235 53.6446 21.3517C53.4076 20.7799 53.0591 20.2605 52.6193 19.8238ZM4.72507 33.2393C4.18821 33.2386 3.67352 33.0259 3.2939 32.6477C2.91428 32.2696 2.70073 31.7569 2.70008 31.2222V23.1538C2.69899 22.773 2.80648 22.3997 3.01003 22.0774C3.21358 21.755 3.50483 21.4969 3.8499 21.333C4.19497 21.1691 4.57966 21.1061 4.95924 21.1514C5.33882 21.1968 5.69768 21.3485 5.99407 21.589C5.11746 25.1884 5.2123 28.9547 6.26898 32.5058C6.08225 32.7343 5.84688 32.9187 5.57987 33.0455C5.31286 33.1724 5.02089 33.2386 4.72507 33.2393ZM51.3 31.2222C51.2993 31.7569 51.0858 32.2696 50.7061 32.6477C50.3265 33.0259 49.8118 33.2386 49.275 33.2393C48.9807 33.2376 48.6905 33.171 48.4252 33.0441C48.1599 32.9173 47.9262 32.7334 47.7409 32.5058C48.7925 28.9572 48.8873 25.1954 48.0158 21.5988C48.789 20.9949 50.0015 21.0108 50.7158 21.7211C50.9035 21.9095 51.0518 22.1332 51.152 22.3791C51.2523 22.6251 51.3026 22.8884 51.3 23.1538V31.2222Z" fill="white"/>
<path d="M39.1339 32.4649C39.5476 31.66 39.7638 30.7719 39.7654 29.8711V22.2087C39.7636 20.6571 39.1324 19.1695 38.0101 18.0722C36.8879 16.9749 35.3662 16.3575 33.7789 16.3555H20.9865C19.3992 16.3575 17.8776 16.9749 16.7553 18.0722C15.633 19.1695 15.0018 20.6571 15 22.2087V29.8711C15.0018 31.4227 15.6331 32.9102 16.7554 34.0073C17.8777 35.1044 19.3993 35.7215 20.9865 35.7233H33.4615L39.1046 39.171C39.3209 39.3033 39.5736 39.3671 39.8283 39.3537C40.083 39.3403 40.3273 39.2503 40.5277 39.0961C40.7282 38.9418 40.875 38.7308 40.9481 38.4919C41.0212 38.253 41.017 37.9978 40.9362 37.7613L39.1339 32.4649ZM34.4746 33.4828C34.2778 33.3626 34.0504 33.2989 33.8183 33.299H33.7272H20.9865C20.0565 33.2978 19.165 32.9364 18.5071 32.2939C17.8492 31.6514 17.4786 30.7802 17.4765 29.8711V22.2087C17.4777 21.299 17.8479 20.4268 18.5058 19.7834C19.1638 19.14 20.0558 18.7779 20.9865 18.7764H33.7789C34.7096 18.7779 35.6017 19.14 36.2596 19.7834C36.9176 20.4268 37.2877 21.299 37.2889 22.2087V29.8711C37.2856 30.5175 37.0952 31.1497 36.7395 31.6946C36.6416 31.8461 36.5792 32.017 36.557 32.1949C36.5348 32.3729 36.5533 32.5534 36.6112 32.7235L37.5016 35.3337L34.4746 33.4828Z" fill="white"/>
<path d="M22.5 27.3555C23.3284 27.3555 24 26.6839 24 25.8555C24 25.027 23.3284 24.3555 22.5 24.3555C21.6716 24.3555 21 25.027 21 25.8555C21 26.6839 21.6716 27.3555 22.5 27.3555Z" fill="white"/>
<path d="M32.5 27.3555C33.3284 27.3555 34 26.6839 34 25.8555C34 25.027 33.3284 24.3555 32.5 24.3555C31.6716 24.3555 31 25.027 31 25.8555C31 26.6839 31.6716 27.3555 32.5 27.3555Z" fill="white"/>
<path d="M27.5 27.3555C28.3284 27.3555 29 26.6839 29 25.8555C29 25.027 28.3284 24.3555 27.5 24.3555C26.6716 24.3555 26 25.027 26 25.8555C26 26.6839 26.6716 27.3555 27.5 27.3555Z" fill="white"/>
</svg>
