<svg width="54" height="54" viewBox="0 0 54 54" fill="none" xmlns="http://www.w3.org/2000/svg">
<g clip-path="url(#clip0_2551_37909)">
<path d="M53.6314 4.65955C53.6314 2.29243 51.7081 0.369141 49.341 0.369141H4.6615C2.29438 0.369141 0.371094 2.29243 0.371094 4.65955V13.9061C0.371094 14.9417 0.740957 15.9774 1.40671 16.7171C0.740957 17.4568 0.371094 18.4185 0.371094 19.528V28.7746C0.371094 31.1417 2.29438 33.065 4.6615 33.065H25.5218V42.3856H22.7848C21.9711 42.3856 21.3053 43.0513 21.3053 43.865V46.602H1.85055C1.03685 46.602 0.371094 47.2678 0.371094 48.0815C0.371094 48.8952 1.03685 49.5609 1.85055 49.5609H21.3053V52.2979C21.3053 53.1116 21.9711 53.7774 22.7848 53.7774H31.2177C32.0314 53.7774 32.6971 53.1116 32.6971 52.2979V49.5609H52.1519C52.9656 49.5609 53.6314 48.8952 53.6314 48.0815C53.6314 47.2678 52.9656 46.602 52.1519 46.602H32.6971V43.865C32.6971 43.0513 32.0314 42.3856 31.2177 42.3856H28.4807V32.9911H49.341C51.7081 32.9911 53.6314 31.0678 53.6314 28.7006V19.4541C53.6314 18.4185 53.2615 17.3828 52.5957 16.6431C53.2615 15.9034 53.6314 14.9417 53.6314 13.8322V4.65955ZM29.7382 45.1965V50.6705H24.2642V45.1965H29.7382ZM50.6725 28.7006C50.6725 29.4404 50.0807 30.0322 49.341 30.0322H4.6615C3.92178 30.0322 3.33 29.4404 3.33 28.7006V19.4541C3.33 18.7143 3.92178 18.1226 4.6615 18.1226H49.341C50.0807 18.1226 50.6725 18.7143 50.6725 19.4541V28.7006ZM50.6725 13.8322C50.6725 14.5719 50.0807 15.1637 49.341 15.1637H4.6615C3.92178 15.1637 3.33 14.5719 3.33 13.8322V4.65955C3.33 3.91983 3.92178 3.32804 4.6615 3.32804H36.0259V6.28695C36.0259 7.10065 36.6916 7.7664 37.5053 7.7664C38.319 7.7664 38.9848 7.10065 38.9848 6.28695V3.32804H41.9437V9.24585C41.9437 10.0596 42.6094 10.7253 43.4231 10.7253C44.2368 10.7253 44.9026 10.0596 44.9026 9.24585V3.32804H49.341C50.0807 3.32804 50.6725 3.91983 50.6725 4.65955V13.8322Z" fill="white"/>
<path d="M8.73065 7.76562H7.91695C7.10325 7.76562 6.4375 8.43138 6.4375 9.24508C6.4375 10.0588 7.10325 10.7245 7.91695 10.7245H8.73065C9.54435 10.7245 10.2101 10.0588 10.2101 9.24508C10.2101 8.43138 9.54435 7.76562 8.73065 7.76562Z" fill="white"/>
<path d="M15.0158 7.76562H14.2021C13.3884 7.76562 12.7227 8.43138 12.7227 9.24508C12.7227 10.0588 13.3884 10.7245 14.2021 10.7245H15.0158C15.8295 10.7245 16.4953 10.0588 16.4953 9.24508C16.4953 8.43138 15.8295 7.76562 15.0158 7.76562Z" fill="white"/>
<path d="M21.3049 7.76562H20.4912C19.6775 7.76562 19.0117 8.43138 19.0117 9.24508C19.0117 10.0588 19.6775 10.7245 20.4912 10.7245H21.3049C22.1186 10.7245 22.7843 10.0588 22.7843 9.24508C22.7843 8.43138 22.1186 7.76562 21.3049 7.76562Z" fill="white"/>
<path d="M8.73065 22.5605H7.91695C7.10325 22.5605 6.4375 23.2263 6.4375 24.04C6.4375 24.8537 7.10325 25.5195 7.91695 25.5195H8.73065C9.54435 25.5195 10.2101 24.8537 10.2101 24.04C10.2101 23.2263 9.54435 22.5605 8.73065 22.5605Z" fill="white"/>
<path d="M15.0158 22.5605H14.2021C13.3884 22.5605 12.7227 23.2263 12.7227 24.04C12.7227 24.8537 13.3884 25.5195 14.2021 25.5195H15.0158C15.8295 25.5195 16.4953 24.8537 16.4953 24.04C16.4953 23.2263 15.8295 22.5605 15.0158 22.5605Z" fill="white"/>
<path d="M21.3049 22.5605H20.4912C19.6775 22.5605 19.0117 23.2263 19.0117 24.04C19.0117 24.8537 19.6775 25.5195 20.4912 25.5195H21.3049C22.1186 25.5195 22.7843 24.8537 22.7843 24.04C22.7843 23.2263 22.1186 22.5605 21.3049 22.5605Z" fill="white"/>
</g>
<defs>
<clipPath id="clip0_2551_37909">
<rect width="54" height="54" fill="white"/>
</clipPath>
</defs>
</svg>
