<svg width="54" height="54" viewBox="0 0 54 54" fill="none" xmlns="http://www.w3.org/2000/svg">
<path d="M39.5693 35.3187C39.099 34.8467 38.5401 34.4722 37.9247 34.2167C37.3094 33.9612 36.6496 33.8297 35.9833 33.8297C35.317 33.8297 34.6573 33.9612 34.0419 34.2167C33.4266 34.4722 32.8677 34.8467 32.3974 35.3187L29.9505 37.7655C27.1955 36.0171 24.643 33.9683 22.3399 31.6568C20.0333 29.3493 17.985 26.7974 16.2312 24.0462L18.678 21.5993C19.15 21.129 19.5245 20.5701 19.78 19.9548C20.0355 19.3394 20.167 18.6797 20.167 18.0134C20.167 17.3471 20.0355 16.6873 19.78 16.072C19.5245 15.4566 19.15 14.8977 18.678 14.4274L13.9024 9.66867C13.4387 9.19515 12.8846 8.81968 12.2729 8.56457C11.6612 8.30946 11.0045 8.17993 10.3418 8.18367C9.67435 8.18204 9.01317 8.3124 8.39631 8.56725C7.77944 8.82211 7.21906 9.19643 6.74741 9.66867L4.45241 11.9468C3.35852 13.1229 2.54211 14.5293 2.06318 16.0624C1.58426 17.5955 1.455 19.2165 1.68491 20.8062C2.22491 27.1343 6.37616 34.7449 12.7718 41.1574C19.1674 47.5699 26.8624 51.7043 33.1905 52.3118C33.6627 52.337 34.1359 52.337 34.608 52.3118C35.9702 52.369 37.3301 52.1537 38.608 51.6784C39.8859 51.2032 41.0561 50.4776 42.0499 49.5443L44.328 47.2493C44.8003 46.7776 45.1746 46.2173 45.4295 45.6004C45.6843 44.9835 45.8147 44.3224 45.813 43.6549C45.8168 42.9922 45.6872 42.3355 45.4321 41.7238C45.177 41.1121 44.8016 40.558 44.328 40.0943L39.5693 35.3187ZM41.9487 44.8699L39.6537 47.148C38.8051 47.8553 37.8145 48.3719 36.7489 48.663C35.6834 48.9542 34.5677 49.013 33.4774 48.8355C27.993 48.363 21.0068 44.4818 15.2355 38.7106C9.46428 32.9393 5.58303 26.0037 5.05991 20.5193C4.87793 19.429 4.93455 18.3123 5.22588 17.246C5.51721 16.1797 6.03632 15.1893 6.74741 14.343L9.12678 12.048C9.28446 11.8916 9.47146 11.7679 9.67706 11.6839C9.88266 11.6 10.1028 11.5574 10.3249 11.5587C10.547 11.5574 10.7671 11.6 10.9727 11.6839C11.1783 11.7679 11.3654 11.8916 11.523 12.048L16.2987 16.8743C16.613 17.1905 16.7894 17.6182 16.7894 18.064C16.7894 18.5098 16.613 18.9375 16.2987 19.2537L12.9237 22.6287C12.6596 22.8915 12.4899 23.2343 12.441 23.6036C12.3922 23.973 12.4669 24.3481 12.6537 24.6705C14.6743 28.1104 17.1301 31.2753 19.9605 34.0868C22.772 36.9172 25.9369 39.3731 29.3768 41.3937C29.6992 41.5804 30.0743 41.6552 30.4437 41.6063C30.813 41.5575 31.1559 41.3878 31.4187 41.1237L34.7937 37.7487C35.1098 37.4344 35.5375 37.258 35.9833 37.258C36.4292 37.258 36.8569 37.4344 37.173 37.7487L41.9487 42.5243C42.1051 42.682 42.2288 42.869 42.3128 43.0746C42.3967 43.2802 42.4393 43.5003 42.438 43.7224C42.4275 44.1534 42.2524 44.564 41.9487 44.8699Z" fill="white"/>
<path d="M44.8875 9.09568C42.5423 6.74156 39.7543 4.87497 36.6843 3.60351C33.6143 2.33205 30.3229 1.68088 27 1.68755C26.5524 1.68755 26.1232 1.86534 25.8068 2.18181C25.4903 2.49828 25.3125 2.9275 25.3125 3.37505C25.3125 3.8226 25.4903 4.25183 25.8068 4.56829C26.1232 4.88476 26.5524 5.06255 27 5.06255C29.8966 5.06245 32.7645 5.63597 35.4382 6.75002C38.112 7.86407 40.5386 9.4966 42.5782 11.5534C44.6177 13.6102 46.2297 16.0505 47.3212 18.7335C48.4127 21.4166 48.962 24.2892 48.9375 27.1857C48.9375 27.6332 49.1153 28.0625 49.4318 28.3789C49.7482 28.6954 50.1774 28.8732 50.625 28.8732C51.0726 28.8732 51.5018 28.6954 51.8182 28.3789C52.1347 28.0625 52.3125 27.6332 52.3125 27.1857C52.3448 23.8274 51.7045 20.4967 50.4293 17.3898C49.1541 14.283 47.2698 11.4628 44.8875 9.09568Z" fill="white"/>
<path d="M35.2905 18.7491C36.2482 19.701 37.0058 20.8349 37.5187 22.0839C38.0317 23.333 38.2896 24.672 38.2773 26.0223C38.2773 26.4698 38.4551 26.899 38.7716 27.2155C39.0881 27.532 39.5173 27.7098 39.9648 27.7098C40.4124 27.7098 40.8416 27.532 41.1581 27.2155C41.4746 26.899 41.6523 26.4698 41.6523 26.0223C41.6747 24.2353 41.342 22.4616 40.6736 20.8042C40.0051 19.1468 39.0143 17.6386 37.7584 16.367C36.5026 15.0955 35.0068 14.086 33.3578 13.397C31.7089 12.7081 29.9395 12.3534 28.1523 12.3535C27.7048 12.3535 27.2756 12.5313 26.9591 12.8478C26.6426 13.1642 26.4648 13.5935 26.4648 14.041C26.4648 14.4886 26.6426 14.9178 26.9591 15.2343C27.2756 15.5507 27.7048 15.7285 28.1523 15.7285C29.4822 15.7385 30.7971 16.0105 32.0219 16.5287C33.2467 17.047 34.3573 17.8015 35.2905 18.7491Z" fill="white"/>
</svg>
