<svg width="171" height="64" fill="none" xmlns="http://www.w3.org/2000/svg">
  <g clip-path="url(#a)">
    <mask id="b" style="mask-type:luminance" maskUnits="userSpaceOnUse" x="0" y="0" width="171" height="64">
      <path d="M171 .831H0V63.17h171V.83Z" fill="#fff"/>
    </mask>
    <g mask="url(#b)">
      <path d="M128.206 34.962c-.236-.788-.624-1.45-1.151-1.958-.517-.503-1.18-.884-1.989-1.135-.782-.23-1.736-.353-2.828-.353-.602 0-1.215.05-1.791.162a11.34 11.34 0 0 0-1.606.42 7.027 7.027 0 0 0-1.294.569c-.404.222-.669.413-.837.607a1.58 1.58 0 0 0-.355.67c-.062.22-.088.51-.088.9 0 .28.016.528.052.741.035.252.083.452.145.601.072.188.171.34.294.458.294.274.708.274 1.294-.082.252-.153.572-.319.94-.506a8.78 8.78 0 0 1 1.286-.5 5.517 5.517 0 0 1 1.631-.225c.442 0 .827.06 1.127.162.273.092.489.23.66.417.155.194.282.445.356.753.084.33.116.716.116 1.158v.588h-1.015c-1.222 0-2.315.098-3.243.308-.953.21-1.752.538-2.411.973a4.37 4.37 0 0 0-1.481 1.714c-.34.68-.495 1.494-.495 2.407 0 .842.124 1.59.385 2.222a4.416 4.416 0 0 0 1.109 1.628 4.53 4.53 0 0 0 1.678.983c.63.22 1.326.324 2.082.324.928 0 1.775-.2 2.521-.582a6.229 6.229 0 0 0 1.471-1.05v.424c0 .292.126.48.22.582.13.133.324.222.607.282.227.039.573.058 1.055.058.453 0 .789-.016 1.021-.058.275-.053.483-.136.634-.267a.78.78 0 0 0 .252-.597V37.71c0-1.04-.113-1.966-.352-2.748Zm-4.035 8.836c-.413.509-.827.9-1.232 1.173-.41.27-.843.401-1.319.401-.562 0-.986-.146-1.293-.445-.304-.299-.445-.706-.445-1.253 0-.324.051-.6.167-.846.104-.241.266-.438.498-.607.243-.175.566-.305.953-.394.414-.096.903-.143 1.52-.143h1.148v2.114h.003ZM114.477 35.129c.129-.287.191-.735.191-1.307 0-.633-.052-1.078-.18-1.364-.201-.455-.496-.557-.709-.557h-4.267a8.687 8.687 0 0 0-1.09-.226c-1.244-.171-2.573-.088-3.663.309a5.4 5.4 0 0 0-1.891 1.154 5.363 5.363 0 0 0-1.241 1.844c-.291.725-.433 1.546-.433 2.458 0 .843.11 1.564.333 2.153.184.483.43.915.724 1.284a5.944 5.944 0 0 0-.922 1.33c-.3.578-.446 1.23-.446 1.935 0 .576.133 1.11.391 1.603.201.362.46.674.78.922a5.509 5.509 0 0 0-1.222 1.5 4.317 4.317 0 0 0-.408 1.03 4.8 4.8 0 0 0-.139 1.133c0 .645.13 1.237.385 1.761.275.557.672 1.018 1.251 1.412.546.375 1.238.661 2.117.884.822.197 1.846.305 3.033.305 1.222 0 2.295-.143 3.204-.423.931-.302 1.713-.703 2.318-1.198a4.92 4.92 0 0 0 1.416-1.816 5.45 5.45 0 0 0 .468-2.21c0-.702-.123-1.345-.348-1.907a3.952 3.952 0 0 0-1.029-1.457c-.436-.403-.966-.712-1.632-.934-.624-.214-1.345-.34-2.15-.376l-3.304-.133c-.398-.016-.698-.111-.912-.28-.187-.15-.278-.321-.278-.547 0-.197.049-.375.126-.537.033-.083.081-.169.117-.239.219.108.471.207.756.296.424.124.863.188 1.338.188.883 0 1.701-.13 2.422-.379.734-.254 1.377-.63 1.894-1.122a4.7 4.7 0 0 0 1.206-1.819c.278-.706.42-1.523.42-2.426 0-.4-.042-.77-.155-1.16a3.12 3.12 0 0 0-.2-.506h1.025c.213.003.504-.092.704-.578Zm-9.313 13.274c.122-.162.29-.318.497-.5l2.609.09c.579.016 1.028.146 1.345.381.288.2.417.496.417.897 0 .258-.035.49-.129.715a1.62 1.62 0 0 1-.42.585 2.666 2.666 0 0 1-.864.452c-.365.114-.824.172-1.373.172-.88 0-1.559-.13-2.021-.398-.417-.235-.608-.553-.608-.998 0-.153.016-.321.036-.458.026-.137.087-.273.158-.423.097-.165.204-.34.353-.515Zm3.837-10.18c-.078.266-.207.498-.369.708a1.77 1.77 0 0 1-.604.47c-.236.109-.527.163-.883.163-.63 0-1.105-.178-1.455-.556-.352-.382-.526-.9-.526-1.59 0-.318.038-.614.122-.906.088-.277.211-.522.363-.725a1.86 1.86 0 0 1 .601-.487c.242-.114.533-.181.86-.181.659 0 1.141.19 1.496.575.35.385.524.942.524 1.657 0 .308-.045.6-.129.871ZM97.669 33.956a5.674 5.674 0 0 0-2.108-1.63c-.847-.373-1.869-.573-3.039-.573-1.118 0-2.147.203-3.032.617a6.227 6.227 0 0 0-2.299 1.78c-.614.77-1.096 1.717-1.432 2.82-.32 1.088-.482 2.325-.482 3.682 0 1.412.156 2.671.456 3.73.32 1.078.799 1.987 1.435 2.696.63.706 1.452 1.253 2.403 1.603.937.35 2.043.524 3.28.524.696 0 1.346-.047 1.944-.146a15.07 15.07 0 0 0 1.603-.34 8.6 8.6 0 0 0 1.177-.413c.362-.172.546-.287.643-.398.081-.102.149-.2.207-.318.052-.111.088-.242.117-.391.016-.133.032-.286.038-.477.017-.172.023-.388.023-.648 0-.287-.006-.522-.022-.713a1.883 1.883 0 0 0-.104-.515c-.068-.168-.158-.29-.272-.35-.245-.178-.552-.165-1.121.067-.233.102-.534.213-.896.334-.349.12-.782.242-1.277.343-.481.105-1.054.153-1.704.153-.623 0-1.154-.086-1.587-.267a2.55 2.55 0 0 1-1.038-.728 3.016 3.016 0 0 1-.591-1.208 5.79 5.79 0 0 1-.194-1.339h7.962c.453 0 .831-.165 1.09-.477.255-.296.388-.744.388-1.338v-.665c0-1.065-.126-2.07-.378-2.992a6.592 6.592 0 0 0-1.19-2.423Zm-7.85 4.572c.033-.368.097-.73.194-1.087.114-.423.282-.792.501-1.106.204-.293.47-.538.793-.719.303-.172.685-.264 1.128-.264.866 0 1.48.286 1.885.884.381.556.588 1.332.598 2.293h-5.099ZM82.37 33.517a4.523 4.523 0 0 0-1.616-1.46c-.662-.358-1.48-.537-2.424-.537-.427 0-.85.051-1.258.169-.41.118-.824.296-1.206.515a7.035 7.035 0 0 0-1.206.88c-.307.265-.614.57-.924.916a4.318 4.318 0 0 0-.475-.747 4.012 4.012 0 0 0-.974-.931 4.305 4.305 0 0 0-1.286-.595 5.693 5.693 0 0 0-1.588-.207 4.76 4.76 0 0 0-2.502.716c-.601.36-1.19.84-1.775 1.466v-.916a.912.912 0 0 0-.129-.461.907.907 0 0 0-.388-.321 1.913 1.913 0 0 0-.582-.153 5.286 5.286 0 0 0-.847-.047c-.33 0-.61.012-.82.047a2.105 2.105 0 0 0-.592.146.945.945 0 0 0-.43.337 1 1 0 0 0-.114.449v14.921a.8.8 0 0 0 .15.468c.093.146.245.254.452.327.161.06.372.108.669.143.242.032.56.041.966.041.398 0 .712-.012.96-.04.282-.033.499-.077.66-.144.197-.073.353-.175.453-.321a.791.791 0 0 0 .152-.474V37.89c.485-.677.953-1.202 1.396-1.57.734-.614 1.49-.617 2.008-.315.23.14.41.33.56.578.158.28.28.598.345.967.087.385.13.82.13 1.307v8.848c0 .185.054.35.148.474a.884.884 0 0 0 .456.321c.165.067.375.108.656.143.259.032.566.041.97.041.398 0 .698-.012.947-.04.294-.033.501-.077.65-.144.226-.073.378-.175.46-.315a.765.765 0 0 0 .154-.48V37.89c.511-.687.983-1.211 1.413-1.57.757-.627 1.513-.611 1.995-.319.239.147.42.337.569.585.158.261.278.585.359.957.074.392.122.827.122 1.314v8.848c0 .175.052.337.136.468.097.152.246.254.45.327.158.06.362.108.666.143.236.032.559.041.976.041.397 0 .714-.012.966-.04.288-.033.498-.08.657-.144.2-.073.346-.181.43-.308a.781.781 0 0 0 .161-.487V38.16c0-.871-.08-1.72-.252-2.511-.168-.802-.452-1.517-.853-2.13ZM57.1 28.703a7.246 7.246 0 0 0-2.99-2.095c-1.173-.449-2.537-.674-4.063-.674-1.607 0-3.033.276-4.242.813a8.293 8.293 0 0 0-3.103 2.34c-.822 1.015-1.449 2.258-1.872 3.689-.404 1.427-.611 3.04-.611 4.814 0 1.914.194 3.612.572 5.04.398 1.424.992 2.622 1.775 3.557a7.259 7.259 0 0 0 2.984 2.105c1.17.455 2.557.683 4.131.683 1.581 0 3.004-.273 4.222-.797a8.27 8.27 0 0 0 3.1-2.35c.822-1.024 1.452-2.267 1.873-3.723.404-1.44.617-3.09.617-4.897 0-1.898-.204-3.57-.605-4.97-.387-1.414-.995-2.6-1.787-3.535Zm-2.67 11.618c-.161.874-.44 1.657-.82 2.308a4.238 4.238 0 0 1-1.504 1.526c-.608.379-1.38.566-2.305.566-.925 0-1.707-.171-2.305-.496a3.595 3.595 0 0 1-1.432-1.405c-.369-.642-.624-1.399-.789-2.318a18.92 18.92 0 0 1-.24-3.125c0-.99.082-1.94.246-2.843a7.14 7.14 0 0 1 .822-2.27c.378-.63.879-1.148 1.496-1.52.608-.378 1.384-.569 2.309-.569.918 0 1.687.168 2.292.509.601.33 1.083.814 1.448 1.424.368.623.634 1.396.789 2.286.155.907.239 1.902.239 3.05 0 1.017-.084 1.983-.246 2.877Z" fill="#5E56E9"/>
      <path d="M144.855 26.178c.239 0 .446.086.621.257a.825.825 0 0 1 .261.61v2.284a.825.825 0 0 1-.261.61.857.857 0 0 1-.621.258h-5.884v17.62a.826.826 0 0 1-.262.611.853.853 0 0 1-.62.258h-2.652a.854.854 0 0 1-.62-.258.83.83 0 0 1-.262-.61V30.197h-5.884a.859.859 0 0 1-.621-.258.83.83 0 0 1-.261-.61v-2.283c0-.235.087-.439.261-.61a.86.86 0 0 1 .621-.258h16.184ZM157.308 42.32l5.496-15.338c.064-.171.178-.35.342-.53.162-.182.408-.274.734-.274h2.486c.24 0 .446.086.621.257a.826.826 0 0 1 .258.61v.112a.797.797 0 0 1-.065.21l-7.322 20.225c-.132.366-.284.639-.459.82-.175.181-.433.274-.782.274h-2.615c-.349 0-.611-.093-.786-.274-.174-.181-.327-.454-.459-.82l-7.326-20.225a.821.821 0 0 1-.064-.21v-.111c0-.235.087-.439.261-.61a.858.858 0 0 1 .622-.258h2.482c.327 0 .573.092.737.273.162.181.278.36.343.531l5.496 15.338Z" fill="#45C1B5"/>
      <path d="m3.779 21.415-3.246.426a.622.622 0 0 0-.527.71l.446 3.306a.63.63 0 0 0 .699.55l3.242-.423a.627.627 0 0 0 .537-.712l-.446-3.307a.632.632 0 0 0-.705-.55ZM9.9 20.619l-3.24.422a.628.628 0 0 0-.533.713l.446 3.306a.64.64 0 0 0 .705.55l3.24-.422a.627.627 0 0 0 .536-.713l-.446-3.306a.633.633 0 0 0-.708-.55ZM16.031 19.817l-3.239.423a.628.628 0 0 0-.54.712l.446 3.307a.635.635 0 0 0 .708.546l3.24-.422a.621.621 0 0 0 .53-.71l-.446-3.306a.624.624 0 0 0-.699-.55ZM22.158 19.019l-3.24.423a.619.619 0 0 0-.533.712l.446 3.307a.633.633 0 0 0 .705.55l3.24-.423a.631.631 0 0 0 .54-.712l-.447-3.307a.638.638 0 0 0-.711-.55ZM28.287 18.217l-3.232.423a.625.625 0 0 0-.537.712l.446 3.307a.634.634 0 0 0 .705.55l3.233-.423a.631.631 0 0 0 .536-.712l-.446-3.307a.63.63 0 0 0-.705-.55ZM34.419 17.42l-3.24.422a.626.626 0 0 0-.536.712l.446 3.307a.638.638 0 0 0 .708.55l3.24-.423a.634.634 0 0 0 .54-.712l-.447-3.307a.638.638 0 0 0-.711-.55ZM4.6 27.543l-3.243.423a.627.627 0 0 0-.527.712l.447 3.304a.63.63 0 0 0 .698.55l3.242-.423a.624.624 0 0 0 .537-.71l-.446-3.303a.638.638 0 0 0-.708-.553ZM10.731 26.742l-3.239.423a.636.636 0 0 0-.533.713l.446 3.303c.045.35.368.591.704.547l3.24-.423a.624.624 0 0 0 .536-.709l-.446-3.303a.64.64 0 0 0-.708-.55ZM16.859 25.944l-3.24.422a.635.635 0 0 0-.54.713l.447 3.303c.048.35.368.591.711.547l3.24-.423a.617.617 0 0 0 .53-.709l-.447-3.303a.634.634 0 0 0-.701-.55ZM22.986 25.147l-3.24.423a.625.625 0 0 0-.533.712l.447 3.304c.045.35.355.595.704.547l3.236-.423a.634.634 0 0 0 .543-.712l-.446-3.304a.64.64 0 0 0-.711-.547ZM29.115 24.346l-3.233.423a.633.633 0 0 0-.537.712l.447 3.304c.048.35.365.591.707.546l3.233-.422a.624.624 0 0 0 .534-.71l-.446-3.303a.639.639 0 0 0-.705-.55ZM35.242 23.544l-3.239.423a.633.633 0 0 0-.537.712l.447 3.304c.045.35.365.591.704.547l3.24-.423a.632.632 0 0 0 .54-.712l-.447-3.304a.64.64 0 0 0-.708-.547ZM5.432 33.663l-3.243.423a.625.625 0 0 0-.526.71l.446 3.303c.048.353.362.6.698.556l3.242-.423a.625.625 0 0 0 .534-.718l-.446-3.304a.634.634 0 0 0-.705-.547ZM11.552 32.865l-3.239.423a.631.631 0 0 0-.533.713l.446 3.303a.64.64 0 0 0 .704.557l3.24-.423a.63.63 0 0 0 .536-.719l-.446-3.303a.636.636 0 0 0-.708-.55ZM29.943 30.466l-3.233.423a.631.631 0 0 0-.537.712l.447 3.304a.64.64 0 0 0 .708.556l3.232-.423a.63.63 0 0 0 .534-.718l-.446-3.304a.634.634 0 0 0-.705-.55ZM36.067 29.667l-3.24.423a.631.631 0 0 0-.536.712l.446 3.304a.64.64 0 0 0 .708.556l3.239-.423a.632.632 0 0 0 .537-.718l-.446-3.304a.637.637 0 0 0-.708-.55ZM6.256 39.788l-3.243.423c-.336.044-.572.372-.527.718l.446 3.31c.045.34.362.592.698.547l3.243-.423a.627.627 0 0 0 .537-.709l-.446-3.31a.638.638 0 0 0-.708-.556ZM12.38 38.986l-3.24.423a.64.64 0 0 0-.533.719l.45 3.31a.64.64 0 0 0 .704.547l3.24-.423a.627.627 0 0 0 .536-.71l-.446-3.309a.644.644 0 0 0-.711-.556ZM30.767 36.589l-3.233.423a.637.637 0 0 0-.536.718l.446 3.31c.045.34.365.592.704.547l3.233-.423a.632.632 0 0 0 .537-.709l-.446-3.31a.641.641 0 0 0-.705-.556ZM36.895 35.786l-3.24.423a.637.637 0 0 0-.536.719l.446 3.31c.045.34.362.591.705.547l3.239-.423a.634.634 0 0 0 .54-.71l-.446-3.31a.642.642 0 0 0-.708-.556ZM7.08 45.913l-3.242.423a.626.626 0 0 0-.527.716l.446 3.3a.629.629 0 0 0 .698.55l3.243-.423a.622.622 0 0 0 .537-.709l-.447-3.3a.638.638 0 0 0-.708-.557ZM13.209 45.117l-3.24.422a.634.634 0 0 0-.533.719l.446 3.3a.633.633 0 0 0 .705.547l3.239-.423a.622.622 0 0 0 .537-.709l-.447-3.3a.634.634 0 0 0-.707-.556ZM19.335 44.316l-3.239.423a.636.636 0 0 0-.54.718l.446 3.3a.634.634 0 0 0 .708.547l3.24-.423a.616.616 0 0 0 .53-.709l-.446-3.3a.625.625 0 0 0-.699-.556ZM25.463 43.517l-3.24.423a.625.625 0 0 0-.533.718l.446 3.3a.625.625 0 0 0 .705.548l3.24-.423a.628.628 0 0 0 .54-.712l-.447-3.3a.637.637 0 0 0-.711-.554ZM31.587 42.716l-3.232.423a.634.634 0 0 0-.537.719l.446 3.3a.631.631 0 0 0 .705.547l3.233-.423a.626.626 0 0 0 .536-.71l-.446-3.3a.635.635 0 0 0-.705-.556ZM37.715 41.918l-3.24.423a.634.634 0 0 0-.536.719l.446 3.3a.632.632 0 0 0 .708.547l3.24-.423a.627.627 0 0 0 .54-.709l-.447-3.3a.638.638 0 0 0-.711-.557Z" fill="#5E56E9"/>
      <path d="m7.916 52.047-3.242.423a.626.626 0 0 0-.527.715l.446 3.3a.628.628 0 0 0 .698.547l3.243-.423a.624.624 0 0 0 .536-.709l-.446-3.297c-.051-.356-.362-.604-.708-.556ZM20.164 50.448l-3.24.423a.633.633 0 0 0-.54.715l.45 3.298a.637.637 0 0 0 .708.547l3.239-.423a.62.62 0 0 0 .53-.71l-.446-3.297a.625.625 0 0 0-.701-.553ZM26.29 49.647l-3.238.423a.622.622 0 0 0-.534.715l.446 3.297a.626.626 0 0 0 .705.547l3.24-.423a.629.629 0 0 0 .54-.709l-.447-3.297a.637.637 0 0 0-.711-.553ZM38.547 48.046l-3.24.423a.631.631 0 0 0-.536.715l.446 3.298a.632.632 0 0 0 .705.547l3.24-.423a.63.63 0 0 0 .54-.71l-.447-3.297a.634.634 0 0 0-.708-.553ZM8.737 58.168l-3.243.423a.627.627 0 0 0-.527.712l.446 3.307a.637.637 0 0 0 .699.553l3.242-.423a.627.627 0 0 0 .534-.715l-.447-3.307a.629.629 0 0 0-.704-.55ZM14.864 57.367l-3.24.422a.634.634 0 0 0-.533.713l.447 3.306a.643.643 0 0 0 .704.554l3.24-.423a.634.634 0 0 0 .536-.716l-.446-3.306a.638.638 0 0 0-.708-.55ZM20.995 56.569l-3.239.422a.635.635 0 0 0-.54.716l.447 3.307a.645.645 0 0 0 .71.553l3.24-.423a.628.628 0 0 0 .53-.715l-.446-3.307a.631.631 0 0 0-.701-.553ZM27.119 55.765l-3.24.423a.624.624 0 0 0-.533.715l.446 3.307a.637.637 0 0 0 .705.553l3.24-.423a.636.636 0 0 0 .54-.715l-.447-3.307a.643.643 0 0 0-.711-.553ZM33.248 54.968l-3.233.423a.633.633 0 0 0-.537.715l.446 3.307a.642.642 0 0 0 .708.553l3.233-.423a.63.63 0 0 0 .533-.715l-.446-3.307a.636.636 0 0 0-.704-.553ZM39.375 54.167l-3.24.423a.633.633 0 0 0-.536.716l.446 3.306a.642.642 0 0 0 .708.553l3.24-.422a.639.639 0 0 0 .54-.716l-.447-3.306a.642.642 0 0 0-.71-.554Z" fill="#45C1B5"/>
      <path d="m9.875 8.083-2.75 1.73a.627.627 0 0 0-.179.867l1.824 2.808c.194.299.595.39.88.21l2.75-1.73a.623.623 0 0 0 .178-.874L10.75 8.286a.644.644 0 0 0-.876-.203ZM13.255 13.289l-2.754 1.73c-.285.177-.365.578-.175.874l1.83 2.813a.65.65 0 0 0 .873.204l2.754-1.73a.62.62 0 0 0 .181-.865l-1.826-2.813a.65.65 0 0 0-.883-.213ZM21.546 17.826a.64.64 0 0 0 .795-.413l1.044-3.18a.63.63 0 0 0-.397-.801l-3.11-.986a.649.649 0 0 0-.795.423l-1.044 3.177a.63.63 0 0 0 .397.791" fill="#5E56E9"/>
      <path d="M5.555 8.201c2.07 0 3.747-1.65 3.747-3.685S7.625.831 5.555.831c-2.069 0-3.746 1.65-3.746 3.685s1.677 3.685 3.746 3.685ZM23.231 11.673c2.07 0 3.747-1.65 3.747-3.685S25.3 4.303 23.231 4.303c-2.07 0-3.747 1.65-3.747 3.685s1.678 3.685 3.747 3.685Z" fill="#45C1B5"/>
    </g>
  </g>
  <defs>
    <clipPath id="a">
      <path fill="#fff" d="M0 0h171v64H0z"/>
    </clipPath>
  </defs>
</svg>
